<?xml version="1.0" encoding="UTF-8"?><svg id="Capa_2" xmlns="http://www.w3.org/2000/svg" viewBox="0 0 1114.17 202.5"><defs><style>.cls-1{fill-rule:evenodd;}.cls-1,.cls-2{fill:#009fe3;}.cls-3{fill:#e30613;}.cls-4{fill:#0058a2;}</style></defs><g id="Capa_1-2"><path class="cls-2" d="m788.49,65.12c-3.21,0-5.64-.73-7.28-2.2s-2.46-3.61-2.46-6.43v-14.48h-5.93v-6.34h5.93v-7.41l7.59-1.73v9.13h8.25v6.34h-8.25v12.92c0,1.34.3,2.29.89,2.87s1.62.86,3.1.86c.74,0,1.41-.05,2.02-.14.61-.09,1.28-.27,2.02-.53v6.29c-.78.26-1.75.46-2.91.61-1.16.15-2.15.22-2.96.22Z"/><path class="cls-2" d="m823.16,65.23c-2.88,0-5.49-.67-7.83-2-2.35-1.34-4.2-3.14-5.57-5.4-1.37-2.26-2.05-4.81-2.05-7.63s.65-5.36,1.96-7.63,3.09-4.06,5.35-5.4c2.25-1.34,4.76-2,7.53-2s5.23.69,7.37,2.06c2.14,1.37,3.83,3.23,5.07,5.57s1.86,4.99,1.86,7.96v2h-21.38c.33,1.15.88,2.19,1.63,3.12.76.93,1.7,1.65,2.83,2.17,1.12.52,2.33.78,3.63.78s2.48-.2,3.57-.61,2.02-.98,2.8-1.73l4.98,4.56c-1.77,1.45-3.59,2.51-5.45,3.17-1.87.67-3.96,1-6.29,1Zm-7.81-17.93h14.01c-.26-1.15-.73-2.16-1.41-3.03-.69-.87-1.5-1.56-2.44-2.06-.94-.5-1.99-.75-3.13-.75s-2.25.24-3.21.72c-.96.48-1.76,1.16-2.41,2.03s-1.12,1.9-1.41,3.09Z"/><path class="cls-2" d="m796.24,144.32v-13.64c-2.33,1.78-5.02,2.67-8.09,2.67-2.73,0-5.21-.67-7.42-2s-3.98-3.13-5.29-5.37-1.96-4.76-1.96-7.54.65-5.3,1.96-7.54,3.09-4.03,5.35-5.35,4.78-1.98,7.59-1.98c1.48,0,2.89.2,4.24.61,1.35.41,2.59.98,3.74,1.73v-1.95h7.48v40.36h-7.59Zm-6.87-17.48c1.41,0,2.69-.23,3.85-.7s2.17-1.16,3.02-2.09v-11.3c-.85-.85-1.87-1.52-3.05-2-1.18-.48-2.46-.72-3.82-.72-1.59,0-3.02.36-4.29,1.09-1.27.72-2.28,1.73-3.02,3.01-.74,1.28-1.11,2.72-1.11,4.32s.37,3.03,1.11,4.29,1.75,2.26,3.02,3.01c1.28.74,2.71,1.11,4.29,1.11Z"/><path class="cls-2" d="m832.02,133.52c-2.21,0-4.18-.49-5.9-1.47-1.72-.98-3.06-2.35-4.04-4.09-.98-1.74-1.47-3.75-1.47-6.01v-17.98h7.59v16.87c0,1.86.54,3.34,1.63,4.45s2.56,1.67,4.4,1.67c1.25,0,2.39-.25,3.41-.75,1.02-.5,1.86-1.22,2.52-2.14v-20.1h7.59v29h-7.59v-2.34c-2.22,1.93-4.93,2.89-8.14,2.89Z"/><path class="cls-2" d="m878.88,133.52c-2.88,0-5.49-.67-7.83-2-2.35-1.34-4.2-3.14-5.57-5.4-1.37-2.26-2.05-4.81-2.05-7.63s.65-5.36,1.96-7.63,3.09-4.06,5.35-5.4c2.25-1.34,4.76-2,7.53-2s5.23.69,7.37,2.06c2.14,1.37,3.83,3.23,5.07,5.57s1.86,4.99,1.86,7.96v2h-21.38c.33,1.15.88,2.19,1.63,3.12.76.93,1.7,1.65,2.83,2.17,1.12.52,2.33.78,3.63.78s2.48-.2,3.57-.61,2.02-.98,2.8-1.73l4.98,4.56c-1.77,1.45-3.59,2.51-5.45,3.17-1.87.67-3.96,1-6.29,1Zm-7.81-17.93h14.01c-.26-1.15-.73-2.16-1.41-3.03-.69-.87-1.5-1.56-2.44-2.06-.94-.5-1.99-.75-3.13-.75s-2.25.24-3.21.72c-.96.48-1.76,1.16-2.41,2.03s-1.12,1.9-1.41,3.09Z"/><path class="cls-2" d="m908.29,132.96v-29h7.59v3.23c.92-1.26,2.03-2.22,3.32-2.89,1.29-.67,2.75-1,4.38-1,1.4.04,2.46.26,3.16.67v6.68c-.56-.26-1.16-.45-1.83-.58-.67-.13-1.35-.19-2.05-.19-1.48,0-2.82.37-4.04,1.11-1.22.75-2.2,1.8-2.93,3.17v18.82h-7.59Z"/><path class="cls-2" d="m954.93,133.52c-2.88,0-5.49-.67-7.83-2-2.35-1.34-4.2-3.14-5.57-5.4-1.37-2.26-2.05-4.81-2.05-7.63s.65-5.36,1.96-7.63c1.31-2.26,3.09-4.06,5.35-5.4,2.25-1.34,4.76-2,7.53-2s5.23.69,7.37,2.06c2.14,1.37,3.83,3.23,5.07,5.57s1.86,4.99,1.86,7.96v2h-21.38c.33,1.15.88,2.19,1.63,3.12.76.93,1.7,1.65,2.83,2.17,1.12.52,2.33.78,3.63.78s2.48-.2,3.57-.61,2.02-.98,2.8-1.73l4.98,4.56c-1.77,1.45-3.59,2.51-5.45,3.17-1.87.67-3.96,1-6.29,1Zm-7.81-17.93h14.01c-.26-1.15-.73-2.16-1.41-3.03-.69-.87-1.5-1.56-2.44-2.06-.94-.5-1.99-.75-3.13-.75s-2.25.24-3.21.72c-.96.48-1.76,1.16-2.41,2.03s-1.12,1.9-1.41,3.09Z"/><path class="cls-2" d="m984.34,132.96v-29h7.59v2.22c2.07-1.86,4.58-2.78,7.53-2.78,1.88,0,3.56.38,5.04,1.14,1.48.76,2.7,1.83,3.66,3.2,1.18-1.41,2.58-2.49,4.18-3.23s3.39-1.11,5.35-1.11c2.18,0,4.09.49,5.73,1.48,1.64.98,2.93,2.34,3.88,4.06s1.41,3.74,1.41,6.04v17.98h-7.54v-16.87c0-1.89-.5-3.39-1.49-4.48-1-1.1-2.33-1.64-3.99-1.64-1.14,0-2.19.24-3.13.72-.94.49-1.74,1.21-2.41,2.17.04.33.07.67.11,1,.04.33.06.71.06,1.11v17.98h-7.59v-16.87c0-1.89-.49-3.39-1.47-4.48-.98-1.1-2.3-1.64-3.96-1.64-1.14,0-2.17.22-3.07.67-.91.45-1.67,1.11-2.3,2.01v20.32h-7.59Z"/><path class="cls-2" d="m1059.62,133.52c-2.88,0-5.48-.67-7.81-2s-4.18-3.14-5.54-5.4c-1.37-2.26-2.05-4.81-2.05-7.63s.67-5.37,2.02-7.66c1.35-2.28,3.19-4.09,5.54-5.43,2.34-1.34,4.96-2.01,7.84-2.01s5.49.67,7.84,2.01c2.34,1.34,4.19,3.14,5.54,5.43,1.35,2.28,2.02,4.83,2.02,7.66s-.67,5.36-2.02,7.63c-1.35,2.26-3.18,4.06-5.51,5.4-2.32,1.34-4.95,2-7.86,2Zm0-6.62c1.51,0,2.87-.37,4.07-1.11,1.2-.74,2.16-1.75,2.88-3.04.72-1.28,1.08-2.7,1.08-4.26s-.36-3.03-1.08-4.29c-.72-1.26-1.68-2.27-2.88-3.03-1.2-.76-2.56-1.14-4.07-1.14s-2.83.38-4.05,1.14c-1.22.76-2.18,1.77-2.88,3.03-.7,1.26-1.05,2.69-1.05,4.29s.35,2.98,1.05,4.26c.7,1.28,1.66,2.3,2.88,3.04,1.22.74,2.57,1.11,4.05,1.11Z"/><path class="cls-2" d="m1101.54,133.52c-2.66,0-5.11-.34-7.37-1.03-2.25-.69-4.21-1.68-5.87-2.98l3.76-5.06c1.66,1.11,3.26,1.95,4.79,2.5,1.53.56,3.05.84,4.57.84,1.7,0,3.06-.29,4.07-.86,1.01-.57,1.52-1.33,1.52-2.25,0-.74-.28-1.34-.86-1.78s-1.49-.76-2.74-.95l-5.54-.84c-2.88-.44-5.06-1.38-6.54-2.81-1.48-1.43-2.21-3.31-2.21-5.65,0-1.89.49-3.52,1.47-4.87.98-1.36,2.36-2.41,4.15-3.17,1.79-.76,3.93-1.14,6.4-1.14,2.1,0,4.16.3,6.18.89,2.01.59,3.9,1.5,5.68,2.73l-3.66,4.95c-1.59-1-3.1-1.73-4.54-2.17-1.44-.45-2.9-.67-4.38-.67-1.37,0-2.47.26-3.3.78-.83.52-1.24,1.21-1.24,2.06,0,.78.29,1.39.89,1.84.59.45,1.61.76,3.04.95l5.48.84c2.88.41,5.08,1.33,6.59,2.76,1.51,1.43,2.27,3.28,2.27,5.54,0,1.86-.56,3.5-1.66,4.93-1.11,1.43-2.6,2.56-4.48,3.4-1.88.84-4.05,1.25-6.48,1.25Z"/><path class="cls-4" d="m774.81,201.26v-38.97l7.59-1.28v13.58c2.29-1.82,4.98-2.73,8.09-2.73,2.73,0,5.21.67,7.42,2,2.22,1.34,3.98,3.13,5.29,5.37s1.97,4.76,1.97,7.54-.66,5.3-2,7.54c-1.33,2.25-3.12,4.03-5.37,5.35s-4.76,1.98-7.53,1.98c-1.44,0-2.84-.2-4.21-.61s-2.62-1-3.77-1.78v2h-7.48Zm14.46-6.07c1.59,0,3.02-.37,4.29-1.11,1.28-.74,2.28-1.74,3.02-3.01.74-1.26,1.11-2.69,1.11-4.28s-.37-3.03-1.11-4.32c-.74-1.28-1.74-2.28-3.02-3.01-1.27-.72-2.7-1.09-4.29-1.09-1.4,0-2.69.23-3.85.7s-2.17,1.16-3.02,2.09v11.3c.81.85,1.82,1.52,3.02,2.01,1.2.48,2.48.72,3.85.72Z"/><path class="cls-4" d="m824.6,168.8c-1.18,0-2.2-.43-3.05-1.28-.85-.85-1.28-1.87-1.28-3.06s.43-2.25,1.28-3.09c.85-.83,1.86-1.25,3.05-1.25s2.24.42,3.07,1.25c.83.84,1.25,1.87,1.25,3.09s-.41,2.21-1.25,3.06c-.83.85-1.86,1.28-3.07,1.28Zm-3.77,32.46v-29h7.59v29h-7.59Z"/><path class="cls-4" d="m859.55,201.82c-2.88,0-5.49-.67-7.83-2-2.35-1.34-4.2-3.14-5.57-5.4-1.37-2.26-2.05-4.81-2.05-7.63s.65-5.36,1.96-7.63,3.09-4.06,5.35-5.4c2.25-1.34,4.76-2,7.53-2s5.23.69,7.37,2.06c2.14,1.37,3.83,3.23,5.07,5.57s1.86,4.99,1.86,7.96v2h-21.38c.33,1.15.88,2.19,1.63,3.12.76.93,1.7,1.65,2.83,2.17,1.12.52,2.33.78,3.63.78s2.48-.2,3.57-.61,2.02-.98,2.8-1.73l4.98,4.56c-1.77,1.45-3.59,2.51-5.45,3.17-1.87.67-3.96,1-6.29,1Zm-7.81-17.93h14.01c-.26-1.15-.73-2.16-1.41-3.03-.69-.87-1.5-1.56-2.44-2.06-.94-.5-1.99-.75-3.13-.75s-2.25.24-3.21.72c-.96.48-1.76,1.16-2.41,2.03s-1.12,1.9-1.41,3.09Z"/><path class="cls-4" d="m888.96,201.26v-29h7.59v2.39c2.18-1.97,4.88-2.95,8.09-2.95,2.25,0,4.24.49,5.95,1.48,1.72.98,3.05,2.34,4.01,4.06s1.44,3.74,1.44,6.04v17.98h-7.59v-16.87c0-1.89-.53-3.39-1.61-4.48-1.07-1.1-2.53-1.64-4.38-1.64-1.29,0-2.44.25-3.43.75-1,.5-1.83,1.22-2.49,2.14v20.1h-7.59Z"/><path class="cls-3" d="m936.82,201.82c-1.22,0-2.27-.44-3.16-1.34-.89-.89-1.33-1.95-1.33-3.17s.44-2.34,1.33-3.23c.89-.89,1.94-1.34,3.16-1.34s2.27.44,3.16,1.34c.89.89,1.33,1.97,1.33,3.23s-.44,2.28-1.33,3.17c-.89.89-1.94,1.34-3.16,1.34Z"/><path class="cls-2" d="m319.8,92.14c0-.37-.12-.63-.7-.87-.67-.26-2.27-.89-2.42-.95-.16-.07-.5-.18-.78-.18-.1,0-.24.03-.34.06l-18.78,6.17c-6.48,2.03-13.98,7.77-16.14,16.02l-10.38,39.2c-.07.25-.13.53-.16.75.06-.02.11-.04.13-.04l.1-.03c.7-.15,3.22-2.64,6.66-7.13,3.44-4.48,5.82-8.37,6.2-10.16.11-.68.22-1.8.38-3.35v-.03c.33-3.33.82-8.37,1.92-15.13,1.2-7.44,5.88-12.96,13.52-15.96l.08-.03c2.16-.81,13.23-4.96,19.76-7.37l.23-.09c.42-.09.73-.46.73-.88Z"/><path class="cls-2" d="m360.77,49.06c.49-.15.77-.67.63-1.16-1.6-5.44-5.13-9.68-10.23-12.24-.18-.09-.36-.18-.47-.23l-.08-.04h0c-1.6-.72-3.38-1.08-5.32-1.08-.48,0-.97.02-1.47.07-4.91.6-9.57,2.35-13.84,5.19-.43.29-.72.51-1.13.82-.28.22-.61.46-1.07.8-8.81,6.44-15.45,15.76-17.75,24.94-1.6,6.32-.95,12.12,1.84,16.36,2.16,3.28,5.5,5.43,9.41,6.06.1.02.17.03.27.03.47,0,.85-.38.85-.85,0-.28-.14-.54-.37-.7l-.04-.03c-4.21-3.41-5.19-12.01-2.54-22.45,1.87-7.39,5.25-13.93,9.78-18.9,4.54-4.97,9.9-8.01,15.51-8.81,1.33-.19,2.63-.21,3.85-.05,4.14.36,9.27,5.8,10.99,11.65.12.4.48.67.89.67.09,0,.18-.01.27-.03Z"/><path class="cls-2" d="m232.8,146.34c3.03-3.95,5.12-7.39,5.46-8.98.1-.59.2-1.58.33-2.95v-.02c.29-2.9.72-7.28,1.67-13.16,1.03-6.37,5.04-11.09,11.59-13.66.46-.17,11.13-4.18,17.29-6.45l.12-.05c.52-.11.89-.56.89-1.07s-.23-.8-.79-1.04c-.45-.18-1.97-.77-2.11-.83-.14-.06-.49-.18-.8-.18-.13,0-.28.03-.39.07l-16.36,5.38c-5.73,1.79-12.35,6.87-14.26,14.17l-9.04,34.13c-.12.46-.19.94-.16,1.1.27-.01.55-.13.55-.13h.04c.93-.2,3.68-3.32,5.98-6.33Z"/><path class="cls-2" d="m291.64,52.11c1.14-.16,2.24-.17,3.28-.03,3.49.3,7.85,4.93,9.31,9.92.13.47.58.8,1.07.8.11,0,.21-.01.31-.04.29-.09.52-.28.67-.54.14-.26.18-.56.09-.85-1.42-4.82-4.55-8.57-9.06-10.85-.16-.07-.32-.16-.42-.2-.04-.02-.06-.03-.07-.03-1.42-.65-3.02-.97-4.76-.97-.42,0-.86.02-1.3.06-4.33.53-8.44,2.07-12.2,4.56-.38.26-.64.45-.99.72-.25.19-.53.41-.93.7-7.73,5.64-13.56,13.83-15.58,21.89-1.41,5.58-.83,10.73,1.65,14.49,1.93,2.93,4.92,4.85,8.4,5.41.09.01.17.02.28.02.57,0,1.04-.46,1.04-1.04,0-.34-.17-.66-.45-.86-3.59-2.9-4.39-10.27-2.12-19.25,1.61-6.39,4.54-12.04,8.45-16.33,3.9-4.27,8.51-6.89,13.33-7.58Z"/><path class="cls-2" d="m249.99,73.45c-.88-.34-2.93-1.15-3.13-1.23-.21-.09-.64-.23-.99-.23-.12,0-.31.04-.43.08l-24.21,7.95c-8.36,2.62-23.13,10.02-25.9,20.64l-2.73,10.33h13.28c.23-1.6.48-3.29.78-5.08,1.56-9.6,7.59-16.72,17.45-20.59l.04-.02c1.69-.63,16.78-6.3,25.53-9.52l.3-.11c.53-.11.91-.58.91-1.11,0-.46-.14-.79-.88-1.1Z"/><path class="cls-2" d="m303.38,19.02c.11,0,.22-.02.33-.05.62-.18.98-.84.8-1.46-2.06-7.01-6.62-12.46-13.17-15.76-.23-.11-.47-.23-.61-.3l-.1-.05c-2.54-1.15-5.5-1.6-8.72-1.31-6.35.77-12.35,3.02-17.85,6.69-.55.37-.92.65-1.45,1.05-.37.28-.79.6-1.38,1.03-11.36,8.29-19.92,20.31-22.88,32.14-2.06,8.14-1.22,15.62,2.37,21.07,2.78,4.22,7.09,7,12.12,7.8.13.02.21.03.34.03.59,0,1.07-.48,1.07-1.07,0-.35-.17-.68-.47-.88l-.05-.03c-5.44-4.4-6.7-15.5-3.29-28.97,2.41-9.54,6.77-17.96,12.63-24.37,5.85-6.41,12.77-10.34,20.01-11.37,1.72-.25,3.39-.26,4.97-.05,5.35.47,11.98,7.48,14.19,15.03.15.5.61.85,1.13.85h0Z"/><path class="cls-1" d="m138.84,119.76c-27.33-.61-52.53,18.18-56.85,40.57-4.67,24.18,13.95,40.96,39.84,40.96s51.47-17.47,56.11-41.55c4.09-21.22-11.62-40.11-39.1-39.99Zm-2.56,8.49c20.66,0,29.62,16.63,26.31,33.87-3.4,17.57-18.59,30.66-38.5,30.66s-30.18-16.97-26.98-33.52c3.44-17.79,18.91-31.01,39.17-31.01Z"/><path class="cls-4" d="m523.1,132.11c-8.38-7.93-19.59-11.89-33.64-11.89h-27.23c-.57.01-1.02.47-1.02,1.04,0,.27.1.5.26.69h0l.02.02s.06.05.09.09c1.21,1.13,1.9,1.87,2.08,2.22.18.36.49,1.24.95,2.63.45,1.4.68,3,.68,4.8v56.89c0,3.15-.39,5.68-1.15,7.57-.45,1.1-1.15,2.09-2.09,3.01-.03.02-.06.05-.09.09-.02.02-.04.05-.06.07h.01c-.13.17-.2.38-.2.61,0,.58.46,1.04,1.04,1.04.04,0,.07,0,.1-.01h0s35.51.01,35.51.01c4.89-.51,9.39-1.63,13.48-3.4,5.72-2.47,10.22-5.74,13.51-9.8,3.29-4.05,5.79-8.38,7.5-12.97,1.71-4.6,2.65-9.32,2.83-14.19v-1.49c0-10.09-4.18-19.1-12.57-27.02Zm-1.76,32.29c-.36,5.05-1.74,9.5-4.12,13.37-2.39,3.88-5.39,6.85-8.99,8.92-3.6,2.07-7.25,3.63-10.94,4.66-3.7,1.04-7.35,1.55-10.95,1.55-3.24,0-6.08-.49-8.51-1.48v-59.73c.54,0,2.11-.09,4.73-.27,2.61-.18,4.77-.27,6.48-.27,3.06,0,5.95.2,8.65.61,2.7.41,5.56,1.26,8.58,2.57,3.02,1.31,5.58,3.04,7.7,5.2,2.11,2.16,3.87,5.13,5.27,8.92,1.39,3.78,2.09,8.15,2.09,13.11v2.84Z"/><path class="cls-4" d="m455.63,187.9c0-.58-.47-1.04-1.04-1.04-.21,0-.4.08-.56.18v-.03c-5.58,3.66-12.05,5.5-19.43,5.5-2.43,0-8.15-.67-17.16-2.03v-28.91h8.78c4.5,0,7.77.73,9.81,2.18.17.13.39.21.62.21.56,0,1-.43,1.04-.97h.01v-9.57h-.01v-.03c0-.58-.46-1.04-1.04-1.04-.12,0-.24.03-.35.06-1.56.34-3.96.51-7.25.51h-11.62v-22.16c2.34-.18,5.76-.27,10.27-.27,7.4,0,12.7,1.14,15.9,3.38.19.19.45.31.74.31.57,0,1.04-.46,1.04-1.03h.02v-11.38h-.03s.01-.05.01-.07c0-.58-.46-1.04-1.04-1.04-.03,0-.06.01-.1.02v-.02c-1.19.34-2.74.51-4.65.51h-36.91v.02c-.55.03-.98.48-.98,1.03,0,.26.11.49.26.68h-.01c.66.77,1.2,1.61,1.63,2.52.76,1.67,1.19,3.09,1.28,4.26.09,1.17.14,2.8.14,4.86v55.94c0,3.15-1.14,6.11-3.38,8.88h.04c-.13.18-.22.38-.22.61,0,.58.46,1.04,1.04,1.04.03,0,.05-.02.07-.02v.02h47.58l5.38-12.66h0c.07-.14.12-.29.12-.46Z"/><path class="cls-3" d="m442.42,109.49h0,0s-.03-.07-.04-.1l-3.66-7.92h0c-.07-.51-.53-.91-1.09-.91-.12,0-.23.02-.33.06h0s-25.03,8.15-25.03,8.15v.04c-.52.06-.93.49-.93,1.02s.41.96.93,1.02v.02h29.09v-.02s.08.02.12.02c.57,0,1.03-.46,1.03-1.03,0-.13-.03-.24-.07-.35Z"/><path class="cls-2" d="m81.24,123.07c-7.72-1.66-15.91-2.97-24.27-2.97-27.99,0-51.15,16.15-56.07,40.49-5.09,25.18,11.73,40.7,43.95,40.7,7.1,0,14.4-.94,21.32-3.55l7.65-10.75c.18-.19.3-.45.3-.73,0-.58-.47-1.04-1.05-1.04-.16,0-.31.04-.44.11v-.02c-8.75,3.61-18.51,6.21-27.74,6.21-21.03,0-31.55-15.43-28.05-32.7,3.44-17.06,18.94-28.96,37.78-28.96,8.42,0,16.16,2.27,22.61,5.95v-.02c.16.1.35.16.55.16.53,0,.97-.39,1.03-.9h.02l2.41-12Z"/><path class="cls-4" d="m637.22,186.85c0-.58-.47-1.04-1.04-1.04-.14,0-.27.03-.39.08h0c-2.13,1.03-3.87,1.82-5.23,2.37h0s-.3.13-.85.33h-.02c-.21.08-.45.17-.73.27h-.01c-1.21.43-3.03,1-5.29,1.52-.05.01-.1.02-.15.04-.05.01-.1.02-.15.03-.57.13-1.16.25-1.77.37-.1.02-.19.04-.3.05-3.15.58-6.87.98-10.78.79-.21-.01-.43-.02-.63-.04-.43-.03-.87-.06-1.3-.11-3.47-.37-6.73-1.32-9.79-2.85-4.05-2.03-7.34-4.68-9.86-7.97-2.53-3.29-4.49-6.93-5.88-10.94-1.4-4.01-2.1-8.09-2.1-12.23,0-7.84,2.37-14.57,7.1-20.2,4.73-5.63,11.37-8.44,19.93-8.44,7.9,0,15.45,1.92,22.65,5.76v-.02c.15.1.33.16.52.16.58,0,1.04-.46,1.04-1.04,0-.04-.02-.07-.02-.11v-12.45c-7.84-1.89-15.59-2.84-23.24-2.84s-14.91,1.33-20.67,3.99c-5.77,2.66-10.16,6.26-13.18,10.81-3.02,4.55-5.18,9.33-6.48,14.32-1.31,5-1.96,10.33-1.96,16.01.72,12.53,5.58,22.16,14.59,28.91,9.01,6.76,19.6,10.14,31.75,10.14,6.93,0,13.65-1.12,20.13-3.37l4.02-11.84h0c.06-.13.1-.28.1-.44Z"/><path class="cls-4" d="m725.44,199.22h0c-.24-.23-.48-.45-.75-.71-1.22-1.13-2.09-1.98-2.64-2.57-.54-.58-1.24-1.46-2.09-2.64-.86-1.17-1.6-2.43-2.23-3.78l-28.56-68.47h-.04c-.09-.47-.48-.83-.98-.84h0s-15.63,0-15.63,0h0c-.56.03-1.01.48-1.01,1.04,0,.28.12.53.29.72h-.01c.98,1.08,1.48,2.25,1.48,3.5,0,.9-.22,2.03-.68,3.38l-23.24,58.77c-1.01,4.18-3.74,8.05-8.2,11.63h.01c-.17.19-.28.44-.28.71,0,.54.41.98.93,1.04h0s18.25.01,18.25.01h0c.54-.04.98-.49.98-1.05,0-.28-.11-.52-.29-.71v-.02c-1.12-.98-1.83-1.74-2.14-2.28-.32-.54-.47-1.26-.47-2.17,0-.18.04-.45.13-.81.09-.36.2-.81.34-1.35.13-.54.25-.95.34-1.21l7.57-21.22h30l7.84,19.33c.09.27.29.79.61,1.55.31.77.56,1.51.74,2.23.18.72.27,1.4.27,2.03,0,1.47-.55,2.74-1.64,3.81-.24.19-.4.48-.4.81,0,.56.43,1,.98,1.04h0s.2.01.2.01h19.6c.58,0,1.04-.47,1.04-1.05,0-.29-.13-.56-.32-.75Zm-55.81-37.66l11.48-29.86,11.49,29.86h-22.97Z"/><path class="cls-4" d="m561.11,199.16c-.69-.62-1.36-1.36-1.99-2.27-1.63-2.29-2.43-4.43-2.43-6.42v-57.83c0-3.25.45-5.74,1.35-7.5.56-1.08,1.33-2.12,2.29-3.12.04-.04.07-.07.11-.12.02-.02.03-.04.05-.05h0c.12-.17.19-.38.19-.6,0-.58-.47-1.04-1.04-1.04-.04,0-.08,0-.12.01h0s-18.08-.01-18.08-.01h0c-.54.04-.98.49-.98,1.04,0,.25.09.47.24.65h-.01c2.37,2.3,3.57,5.56,3.57,9.79v58.78c0,2.7-.73,5-2.16,6.89-.55.72-1.1,1.33-1.68,1.85-.01.01-.03.03-.04.04,0,0-.01.01-.01.01h0c-.17.18-.28.43-.28.7,0,.58.47,1.05,1.04,1.05.02,0,.05,0,.07,0h0s17.18,0,17.18,0h2.09c.58,0,1.04-.47,1.04-1.05,0-.33-.15-.62-.4-.81Z"/><path class="cls-4" d="m392.17,199.32h.03c-2.33-2.1-4-5.67-5-10.74l-7.7-58.78c0-.18-.06-.51-.2-1.01-.14-.49-.21-.88-.21-1.15,0-2.33.8-4.2,2.34-5.61.21-.19.35-.46.35-.77,0-.58-.47-1.04-1.04-1.04h-17.95v.03c-.26.05-.53.18-.75.4-.21.22-.34.47-.4.73h0l-21.73,58.56-25.58-58.9h-.02c-.1-.47-.5-.82-1-.82h-18.09c-.56.03-1,.48-1,1.04,0,.27.11.51.28.7h0s.05.05.07.07c.08.08.16.16.21.21.18.18.43.45.74.81.32.36.52.65.61.88.09.23.21.54.34.95.13.41.22.83.27,1.29.05.45.07.94.07,1.49,0,.36-.05,1.08-.14,2.16-.09,1.08-.14,2.03-.14,2.84l-7.56,55.94c0,1.8-.59,4.01-1.76,6.62-.72,1.61-1.63,2.96-2.72,4.05h.02c-.18.18-.28.43-.28.7,0,.58.47,1.05,1.04,1.05h.05s0,.01,0,.01h15.85s.27-.01.27-.01c.58,0,1.04-.47,1.04-1.05,0-.25-.1-.48-.25-.66h.01s-.03-.03-.04-.04c-.02-.02-.03-.04-.05-.05-1.2-1.18-2.06-2.33-2.57-3.46-.76-1.71-1.15-4.1-1.15-7.16l7.7-54.99,24.19,55.17c3.32,6.72,7.11,10.73,10.26,12.07,0,0,.02,0,.03.01h0c.12.05.25.08.39.08.45,0,.83-.29.97-.69h.03l25.88-66.64,6.89,54.99v2.16c0,3.91-.89,6.74-2.66,8.48h.02c-.19.19-.31.45-.31.74,0,.58.47,1.04,1.05,1.04.05,0,.1,0,.15-.02v.03h17.98v-.09c.12.04.24.07.37.07.58,0,1.04-.47,1.04-1.05,0-.25-.1-.46-.24-.64Z"/><path class="cls-2" d="m233.64,187.48c0-.58-.47-1.04-1.04-1.04-.2,0-.38.06-.54.15v-.02c-6.72,3.9-14,5.98-21.66,5.52l-17.77-1.09,10.02-53.47c.89-4.66,1.57-11.86,6.11-15.38.28-.18.46-.51.46-.87,0-.58-.47-1.04-1.04-1.04h-18.82c-.58,0-1.04.47-1.04,1.04,0,.29.12.56.32.75,3.37,3.46,1.45,10.68.56,15.5l-8.67,46.25c-.87,4.67-1.68,11.94-6.3,15.38h0c-.19.19-.3.44-.3.73,0,.58.47,1.04,1.05,1.04.02,0,.04,0,.04,0h.02s50.6,0,50.6,0l7.9-12.97h-.01c.07-.14.12-.3.12-.47Z"/></g></svg>