<?xml version="1.0" encoding="utf-8" ?>
<svg xmlns="http://www.w3.org/2000/svg" xmlns:xlink="http://www.w3.org/1999/xlink" width="440" height="440">
	<path fill="#FBFBFB" d="M333.463 332.643C333.656 333.077 333.906 333.531 334.026 333.989C334.055 334.758 334.192 335.204 333.783 335.87L333.286 336.068L332.444 334.165C332.762 333.639 333.103 333.142 333.463 332.643Z"/>
	<path fill="white" d="M306.75 214.835L308.723 215.437C308.687 215.912 308.56 216.012 308.89 216.388C309.232 216.778 309.646 217.065 310.066 217.364L306.799 216.692C306.627 215.976 306.551 215.55 306.75 214.835Z"/>
	<path fill="white" d="M334.026 333.989L334.645 335.248C334.962 335.62 335.148 335.731 335.082 336.255C335.04 336.589 334.859 336.979 334.745 337.298C335.203 337.912 335.684 338.029 336.449 338.124C336.547 338.136 336.646 338.14 336.745 338.149C336.676 338.193 336.611 338.244 336.538 338.281C336.064 338.522 335.353 338.602 334.857 338.383C333.959 337.987 333.632 336.902 333.286 336.068L333.783 335.87C334.192 335.204 334.055 334.758 334.026 333.989Z"/>
	<path fill="#FBFBFB" d="M126.664 330.901C128.025 330.682 129.573 330.415 130.862 331.024C131.149 331.426 131.224 331.352 131.14 331.871C129.924 332.515 128.689 331.917 127.434 332.229C126.996 331.991 126.862 331.356 126.664 330.901Z"/>
	<path fill="white" d="M329.46 199.573C331.1 199.547 332.672 199.744 334.295 199.964L334.268 200.453L333.939 200.588L334.659 201.292Q331.795 201.111 328.942 200.809C329.59 200.74 330.23 200.604 330.87 200.484L330.893 200.293C330.405 200.167 330.088 200.11 329.687 199.785C329.607 199.719 329.536 199.643 329.46 199.573Z"/>
	<path fill="white" d="M128.733 335.453C128.124 335.291 127.39 335.145 126.879 334.757C126.381 334.38 125.881 333.692 125.846 333.05C125.8 332.203 126.108 331.509 126.664 330.901C126.862 331.356 126.996 331.991 127.434 332.229C127.658 332.752 127.794 333.231 128.31 333.534L127.85 333.973C128.04 334.588 128.338 334.964 128.733 335.453Z"/>
	<path fill="#FBFBFB" d="M104.939 208.506C106.812 208.208 108.677 207.731 110.543 207.371C109.988 208.105 109.522 208.277 108.666 208.576L108.278 209.095C106.753 209.541 105.219 209.819 103.657 210.096C104.027 209.811 104.389 209.533 104.778 209.275C104.867 209.216 104.958 209.159 105.048 209.101L104.939 208.506Z"/>
	<path fill="white" d="M321.058 334.492C321.057 333.426 321.16 331.789 322.028 331.038C322.295 330.807 322.334 330.806 322.615 330.665L323.056 330.87C323.522 332.187 322.916 333.531 322.539 334.815C321.855 334.393 321.882 334.299 321.058 334.492Z"/>
	<path fill="white" d="M161.173 330.698C161.849 330.917 162.287 330.99 162.69 331.642C163.23 332.518 163.055 333.787 162.733 334.704C162.578 335.146 162.334 335.479 162.06 335.853C161.726 334.998 162.117 334.533 161.461 333.763C161.194 332.98 160.912 332.523 160.331 331.935C160.844 331.917 160.863 331.922 161.259 331.599L161.173 330.698Z"/>
	<path fill="white" d="M87.1746 334.063C87.4649 332.901 87.6104 331.609 88.7011 330.914C89.1151 330.65 89.0886 330.706 89.5285 330.727C89.9711 331.721 88.9358 334.283 88.6327 335.331C88.2149 334.816 87.7005 334.457 87.1746 334.063Z"/>
	<path fill="#FBFBFB" d="M335.178 208.595L337.998 209.161L341.061 209.818C340.519 210.153 339.905 210.628 339.298 210.799L337.064 210.242L335.065 209.784L334.096 208.859C334.425 208.866 334.59 208.841 334.905 208.715C334.997 208.678 335.087 208.635 335.178 208.595Z"/>
	<path fill="white" d="M148.404 334.518C148.283 333.25 147.908 331.692 148.693 330.621L149.269 330.55C149.836 331.029 149.91 331.316 149.987 332.073C150.148 333.671 149.991 335.406 149.957 337.012C149.286 336.442 149.15 335.858 148.884 335.027C148.762 334.646 148.732 334.712 148.404 334.518Z"/>
	<path fill="white" d="M111.9 336.1C112.062 336.966 111.763 337.746 111.352 338.489L110.921 338.593C110.866 338.531 110.804 338.475 110.757 338.408C109.787 336.992 110.081 333.842 110.302 332.248C110.455 331.149 110.608 330.915 111.447 330.286C110.975 331.819 110.724 333.911 111.375 335.441C111.494 335.721 111.685 335.895 111.9 336.1Z"/>
	<path fill="white" d="M131.726 215.26C131.688 215.961 131.641 216.177 131.119 216.663C130.845 216.919 130.524 217.14 130.222 217.361C127.767 217.891 125.191 218.212 122.677 218.214C124.009 217.297 125.454 217.921 126.568 216.412C128.097 215.837 130.111 215.634 131.726 215.26Z"/>
	<path fill="white" d="M147.161 333.726L147.811 334.876L148.196 334.882L148.404 334.518C148.732 334.712 148.762 334.646 148.884 335.027C149.15 335.858 149.286 336.442 149.957 337.012C149.984 337.194 149.998 337.242 149.986 337.451C149.953 338.062 149.864 338.287 149.402 338.668C149.096 338.639 149.014 338.648 148.695 338.528C147.418 338.048 146.761 336.617 146.265 335.466C146.39 334.678 146.652 334.329 147.161 333.726Z"/>
	<path fill="white" d="M137.543 330.777C139.085 330.722 141.457 330.525 142.803 331.264C141.739 332.497 140.63 332.073 139.142 332.522C139.074 332.543 139.006 332.565 138.939 332.586C138.136 333.547 138.605 336.482 137.599 336.891C137.458 334.876 137.55 332.8 137.543 330.777Z"/>
	<path fill="white" d="M308.723 215.437C310.551 215.859 312.355 216.211 314.215 216.461L313.919 217.056C315.601 217.6 317.143 217.043 318.62 218.26C315.717 218.154 312.922 217.943 310.066 217.364C309.646 217.065 309.232 216.778 308.89 216.388C308.56 216.012 308.687 215.912 308.723 215.437Z"/>
	<path fill="#E5E5E5" d="M205.072 334.143C205.632 334.411 205.988 334.55 206.147 335.204C206.321 335.919 206.1 336.86 205.96 337.568C205.421 338.228 204.858 338.418 204.011 338.48C202.928 338.558 201.892 338.439 201.009 337.779L200.894 337.302L201.235 336.858C202.504 336.838 203.644 337.134 204.815 336.566C204.838 336.503 204.878 336.443 204.885 336.376C204.964 335.622 204.531 335.284 204.027 334.805L203.724 334.52C204.18 334.152 204.505 334.207 205.072 334.143Z"/>
	<path fill="white" d="M334.645 335.248C334.702 335.153 334.762 335.061 334.814 334.964C335.637 333.424 334.014 331.397 335.786 330.462L336.204 330.613C336.983 332.961 336.325 335.71 336.745 338.149C336.646 338.14 336.547 338.136 336.449 338.124C335.684 338.029 335.203 337.912 334.745 337.298C334.859 336.979 335.04 336.589 335.082 336.255C335.148 335.731 334.962 335.62 334.645 335.248Z"/>
	<path fill="white" d="M288.182 330.69C289.709 330.694 291.288 330.477 292.472 331.627C292.856 331.999 293.241 332.585 293.255 333.138C293.277 334.041 292.862 334.747 292.218 335.357C291.673 335.873 290.911 336.134 290.162 336.102C289.825 336.088 289.484 335.99 289.162 335.896L289.427 335.631C290.056 335.469 290.56 335.303 291.124 334.978L291.248 334.434C291.206 333.75 291.135 333.252 290.864 332.619C290.277 332.144 289.781 332.187 289.066 332.173C289.002 331.798 289.007 331.937 289.012 331.579C289.013 331.499 289.017 331.42 289.019 331.34L288.182 330.69Z"/>
	<path fill="white" d="M250.388 336.762C248.454 336.937 248.123 337.736 246.396 338.423C245.904 337.629 247.41 333.414 247.623 332.317L247.666 332.086C247.954 332.386 248.54 332.844 248.727 333.19C249.041 333.769 248.611 335.226 249.523 335.305C249.67 335.318 249.964 335.257 250.115 335.231C250.231 335.645 250.231 335.939 250.194 336.367L250.388 336.762Z"/>
	<path fill="#E5E5E5" d="M260.176 330.277C260.621 330.361 260.452 330.305 260.866 330.48C261.225 330.632 261.254 330.716 261.37 331.083C261.857 332.62 261.824 337.204 261.092 338.647C260.652 338.589 260.456 338.466 260.102 338.202C259.308 336.105 259.568 332.403 260.176 330.277Z"/>
	<path fill="#FBFBFB" d="M128.31 333.534C129.082 333.818 130.838 334.236 131.13 335.092C131.37 335.798 131.073 336.808 130.715 337.439C130.436 337.931 130.003 338.278 129.456 338.43C128.682 338.646 126.975 338.549 126.266 338.159C125.99 338.007 125.972 337.954 125.798 337.744L125.836 337.1C126.349 336.71 126.618 336.728 127.255 336.793C127.913 336.86 128.557 337.133 129.186 336.841C129.377 336.3 129.333 336.299 129.122 335.757L128.733 335.453C128.338 334.964 128.04 334.588 127.85 333.973L128.31 333.534Z"/>
	<path fill="white" d="M300.07 337.766C299.849 338.259 299.792 338.322 299.349 338.634C298.489 338.356 297.998 337.333 297.237 336.765C296.106 336.797 294.965 338.051 293.793 338.376L293.478 338.114C293.392 336.19 294.664 333.506 295.274 331.641C295.252 332.627 295.045 333.995 295.455 334.897L295.662 334.976L295.827 334.313L296.609 335.554L296.859 335.603L297.375 334.822C298.357 335.831 297.943 337.593 299.771 337.771C299.87 337.781 299.971 337.768 300.07 337.766Z"/>
	<path fill="white" d="M118.266 216.697C121.06 216.811 123.786 216.628 126.568 216.412C125.454 217.921 124.009 217.297 122.677 218.214C119.388 218.523 115.794 218.015 112.599 217.234C114.667 216.548 116.197 217.952 118.266 216.697Z"/>
	<path fill="#FBFBFB" d="M204.815 336.566C204.418 335.97 204.248 335.722 203.571 335.457C202.6 335.077 201.583 334.495 201.014 333.582C200.718 333.108 200.667 332.583 200.906 332.068C201.168 331.505 201.892 331.1 202.444 330.89C203.545 330.471 204.703 330.39 205.777 330.893C206.139 331.42 206.146 331.481 206.155 332.122C205.479 332.496 205.008 332.241 204.255 332.172C203.585 332.11 203.343 332.062 202.814 332.496L202.854 333.077C203.421 333.695 204.298 333.88 205.072 334.143C204.505 334.207 204.18 334.152 203.724 334.52L204.027 334.805C204.531 335.284 204.964 335.622 204.885 336.376C204.878 336.443 204.838 336.503 204.815 336.566Z"/>
	<path fill="white" d="M224.828 330.972C226.353 330.757 227.771 330.342 229.085 331.387C229.831 331.98 230.241 332.836 230.317 333.779C230.401 334.839 229.927 337.023 229.153 337.824C228.736 338.257 228.017 338.37 227.442 338.465C228.053 338.013 228.568 337.587 229.073 337.017L228.723 336.541L228.803 336.686L228.607 336.77L228.264 336.058C228.192 334.924 228.362 333.865 228.007 332.759C227.409 332.101 227.179 332.137 226.334 331.949L226.361 331.612C226.006 331.097 225.421 331.117 224.828 330.972Z"/>
	<path fill="white" d="M110.543 207.371Q115.275 206.241 120.054 205.329L120.195 206.458C117.341 207.774 111.472 208.617 108.278 209.095L108.666 208.576C109.522 208.277 109.988 208.105 110.543 207.371Z"/>
	<path fill="white" d="M137.599 336.891C138.605 336.482 138.136 333.547 138.939 332.586C139.393 333.241 139.491 333.395 140.271 333.555C140.495 333.6 140.723 333.626 140.95 333.661C141.462 333.742 141.719 333.786 142.095 334.174L142.146 334.687C141.189 335.457 139.973 335.024 138.931 335.718C140.083 337.125 141.538 336.581 142.693 337.661C142.664 337.782 142.633 338.034 142.559 338.13C141.055 338.272 139.377 338.638 137.914 338.203C137.504 337.67 137.58 337.575 137.599 336.891Z"/>
	<path fill="#FBFBFB" d="M142.559 338.13C141.437 337.968 140.186 338.076 139.1 337.754C138.558 337.593 138.519 337.511 138.281 337.041C138.449 336.413 138.459 336.184 138.931 335.718C140.083 337.125 141.538 336.581 142.693 337.661C142.664 337.782 142.633 338.034 142.559 338.13Z"/>
	<path fill="white" d="M330.472 337.041C330.346 335.254 329.783 332.549 330.733 330.981C331.366 330.684 331.442 330.719 332.14 330.833C332.874 331.303 333.097 331.873 333.463 332.643C333.103 333.142 332.762 333.639 332.444 334.165C331.825 335.099 331.972 336.198 331.945 337.303C331.937 337.926 331.955 337.969 331.583 338.461L331.023 338.484C330.456 337.914 330.533 337.812 330.472 337.041Z"/>
	<path fill="#FBFBFB" d="M330.472 337.041C330.689 336.368 330.868 335.377 331.403 334.896C331.698 335.689 331.816 336.469 331.945 337.303C331.937 337.926 331.955 337.969 331.583 338.461L331.023 338.484C330.456 337.914 330.533 337.812 330.472 337.041Z"/>
	<path fill="white" d="M118.972 333.05C119.115 332.293 119.202 331.684 119.827 331.173C120.505 330.62 121.952 330.508 122.764 330.721C123.559 330.93 124.172 331.442 124.535 332.176C125.187 333.494 125.181 335.258 124.648 336.614C124.355 337.36 123.796 338.051 123.037 338.356C122.039 338.758 120.902 338.406 119.917 338.141L119.429 337.53C119.946 337.402 119.707 337.399 120.224 337.519C120.519 337.587 120.808 337.662 121.105 337.719C122.325 337.951 122.973 337.95 124.012 337.262C124.24 336.656 124.248 336.594 124.104 335.963L123.651 335.685L123.164 336.012C123.088 335.432 123.084 334.812 123.055 334.225C123.037 333.875 123.06 333.457 122.96 333.119C122.73 332.339 122.113 332.142 121.465 331.772L120.853 331.337C119.974 331.723 119.763 332.609 118.972 333.05Z"/>
	<path fill="white" d="M235.961 333.451C235.871 332.647 236.31 331.692 236.799 331.061C237.116 330.652 237.253 330.578 237.726 330.448C238.653 331.261 238.702 332.729 238.773 333.907C238.858 335.307 238.884 336.82 238.569 338.194L238.139 338.616L237.614 338.57C236.835 337.64 237.283 336.392 236.541 335.459L236.119 335.153C236.051 334.585 236.002 334.022 235.961 333.451Z"/>
	<path fill="white" d="M173.072 334.794C172.81 334.535 172.705 334.483 172.376 334.35C171.826 335.287 172.476 336.811 172.235 337.932C172.131 338.416 172.078 338.338 171.698 338.595L171.169 338.373C170.408 337.087 170.429 334.81 170.542 333.336C170.626 332.231 170.712 331.291 171.594 330.539L172.199 330.642C173.158 331.375 173.877 332.558 174.071 333.757C173.629 334.089 173.324 334.287 173.072 334.794Z"/>
	<path fill="#FBFBFB" d="M157.299 336.846C157.48 336.675 157.72 336.55 157.841 336.332C158.019 336.011 158.133 332.254 158.485 331.21C158.777 332.229 158.629 333.207 158.822 334.259L158.873 334.529C158.981 334.551 159.089 334.579 159.199 334.594C160.2 334.735 160.709 334.344 161.461 333.763C162.117 334.533 161.726 334.998 162.06 335.853C162.556 336.624 163.24 337.365 163.297 338.285C162.978 338.45 162.861 338.604 162.484 338.508C161.068 338.148 160.708 336.206 159.352 335.879C158.366 336.808 159.702 338.235 157.853 338.597C157.433 338.233 157.308 337.958 157.27 337.388C157.254 337.15 157.273 337.063 157.299 336.846Z"/>
	<path fill="white" d="M146.265 335.466C146.037 334.92 145.918 334.533 145.379 334.219C144.939 335.107 145.448 336.693 145.346 337.717C145.288 338.302 145.245 338.369 144.815 338.717L144.302 338.513C143.41 336.992 143.508 333.909 143.767 332.185C143.882 331.424 144.053 330.995 144.659 330.521L145.256 330.643C146.245 331.4 146.89 332.513 147.161 333.726C146.652 334.329 146.39 334.678 146.265 335.466Z"/>
	<path fill="#E5E5E5" d="M97.3438 338.515C97.5068 336.37 96.9021 332.25 98.0743 330.521L98.6288 330.524C99.6634 331.689 99.2363 334.053 99.2052 335.552C99.195 336.044 99.163 336.263 99.4075 336.726C99.8452 336.769 100.282 336.822 100.72 336.863C101.536 336.94 101.817 336.982 102.459 337.527L102.216 338.144C100.693 338.475 98.9354 338.29 97.3438 338.515Z"/>
	<path fill="white" d="M189.637 334.539C189.869 333.225 190.208 331.569 191.36 330.711C191.621 330.516 191.666 330.52 191.932 330.431C192.371 330.632 192.389 330.624 192.548 331.059C192.946 332.154 193.192 336.871 192.723 337.953C192.575 338.296 192.56 338.284 192.353 338.527L191.791 338.578C190.771 337.657 191.46 336.18 190.674 335.321C190.312 335.109 189.971 334.796 189.637 334.539Z"/>
	<path fill="#FBFBFB" d="M295.274 331.641C295.545 331.167 295.793 330.725 296.391 330.621C296.863 330.538 297.193 330.586 297.558 330.893C299.056 332.154 299.243 335.972 300.07 337.766C299.971 337.768 299.87 337.781 299.771 337.771C297.943 337.593 298.357 335.831 297.375 334.822L296.859 335.603L296.609 335.554L295.827 334.313L295.662 334.976L295.455 334.897C295.045 333.995 295.252 332.627 295.274 331.641Z"/>
	<path fill="white" d="M407.086 142.287C412.745 140.599 418.833 139.445 424.615 138.215C421.877 140.888 415.831 139.506 413.661 142.322C411.918 142.964 410.085 143.278 408.367 143.999L407.874 143.318C408.238 143.294 408.583 143.253 408.943 143.201C409.248 142.908 409.751 142.59 409.794 142.168C408.882 142.415 408.225 142.579 407.291 142.344C407.222 142.327 407.154 142.306 407.086 142.287Z"/>
	<path fill="white" d="M175.451 333.647L175.403 333.465C175.132 332.39 175.064 331.74 175.577 330.735L176.066 330.495C176.673 331.046 176.776 331.534 176.829 332.363C176.921 333.799 177.293 337.265 176.45 338.344C175.844 338.554 175.666 338.681 175.049 338.386C174.275 338.017 173.926 337.017 173.637 336.281C173.276 335.8 173.214 335.366 173.072 334.794C173.324 334.287 173.629 334.089 174.071 333.757C174.26 334.129 174.477 334.483 174.689 334.842L174.995 334.782L175.451 333.647Z"/>
	<path fill="white" d="M175.451 333.647C176.398 334.737 176.203 336.147 176.244 337.536L175.985 338.042C175.245 337.894 174.715 337.385 174.322 336.757C174.263 336.663 174.208 336.567 174.151 336.471L173.637 336.281C173.276 335.8 173.214 335.366 173.072 334.794C173.324 334.287 173.629 334.089 174.071 333.757C174.26 334.129 174.477 334.483 174.689 334.842L174.995 334.782L175.451 333.647Z"/>
	<path fill="white" d="M247.666 332.086C248.079 331.302 248.322 330.945 249.105 330.514C249.739 330.505 250.033 330.494 250.483 330.989C251.515 332.124 252.696 336.355 252.442 337.863C252.384 338.205 252.353 338.226 252.217 338.492C251.772 338.516 251.812 338.6 251.439 338.281C250.96 337.871 250.687 337.307 250.388 336.762L250.194 336.367C250.231 335.939 250.231 335.645 250.115 335.231C249.964 335.257 249.67 335.318 249.523 335.305C248.611 335.226 249.041 333.769 248.727 333.19C248.54 332.844 247.954 332.386 247.666 332.086Z"/>
	<path fill="white" d="M319.197 205.112C324.469 206.28 329.996 207.13 335.178 208.595C335.087 208.635 334.997 208.678 334.905 208.715C334.59 208.841 334.425 208.866 334.096 208.859L335.065 209.784C331.28 209.184 323.183 207.691 319.882 206.473L319.197 205.112Z"/>
	<path fill="#E5E5E5" d="M88.6327 335.331C88.4504 336.104 88.2836 336.992 87.8728 337.681C87.5107 338.29 87.1515 338.607 86.4607 338.799C85.8649 338.676 85.4754 338.373 85.1655 337.856C84.4319 336.633 83.2042 331.958 83.5671 330.576L84.0347 330.421C86.1921 331.536 85.0571 334.374 86.5138 335.713C87.0259 335.35 87.0267 334.663 87.1746 334.063C87.7005 334.457 88.2149 334.816 88.6327 335.331Z"/>
	<path fill="#E5E5E5" d="M96.9368 210.341C99.5002 209.489 102.296 209.086 104.939 208.506L105.048 209.101C104.958 209.159 104.867 209.216 104.778 209.275C104.389 209.533 104.027 209.811 103.657 210.096C103.599 210.115 103.542 210.134 103.484 210.152C102.639 210.412 101.815 210.488 100.94 210.572L100.844 210.86C102.177 212.58 105.95 213.708 107.968 214.572C107.13 215.05 105.881 214.676 104.913 214.722C102.148 213.464 99.5253 211.923 96.9368 210.341Z"/>
	<path fill="#FBFBFB" d="M253.205 330.806C255.055 330.735 257.395 330.468 259.164 331.075L259.234 331.743C258.561 332.354 257.771 332.073 256.969 332.511C256.532 333.836 256.745 335.656 256.752 337.062C256.753 337.104 256.758 337.146 256.753 337.187C256.666 338.051 256.665 338.309 255.955 338.861C254.335 337.171 255.671 333.596 254.756 332.325L253.116 332.235C252.805 331.638 253.011 331.432 253.205 330.806Z"/>
	<path fill="#FBFBFB" d="M321.905 337.647C321.719 337.864 321.496 338.104 321.238 338.242C320.626 338.569 320.044 338.611 319.389 338.443C318.689 337.717 318.454 336.168 318.138 335.178C317.707 333.825 316.795 331.965 317.481 330.637L318.084 330.567C319.422 331.316 319.683 334.601 320.448 336.028L321.058 334.492C321.882 334.299 321.855 334.393 322.539 334.815C322.315 335.736 322.001 336.705 321.905 337.647Z"/>
	<path fill="#E5E5E5" d="M321.058 334.492C321.882 334.299 321.855 334.393 322.539 334.815C322.315 335.736 322.001 336.705 321.905 337.647C321.145 337.683 320.324 337.815 319.629 337.457L319.593 336.972L320.876 336.418L320.986 336.096L320.448 336.028L321.058 334.492Z"/>
	<path fill="#FBFBFB" d="M289.162 335.896C289.108 336.363 289.065 336.861 288.937 337.314C288.751 337.967 288.582 338.436 287.981 338.731C287.744 338.497 287.617 338.306 287.522 337.983C287.019 336.265 286.723 332.342 287.526 330.84L288.182 330.69L289.019 331.34C289.017 331.42 289.013 331.499 289.012 331.579C289.007 331.937 289.002 331.798 289.066 332.173C289.781 332.187 290.277 332.144 290.864 332.619C291.135 333.252 291.206 333.75 291.248 334.434L291.124 334.978C290.56 335.303 290.056 335.469 289.427 335.631L289.162 335.896ZM289.066 332.173C289.046 332.881 288.893 333.834 289.288 334.439C289.959 334.727 290.558 334.552 291.248 334.434C291.206 333.75 291.135 333.252 290.864 332.619C290.277 332.144 289.781 332.187 289.066 332.173Z"/>
	<path fill="#FBFBFB" d="M339.073 330.816C340.144 330.716 341.42 330.578 342.449 330.948C342.942 331.125 342.833 331.095 343.041 331.505L342.769 332.018C341.83 332.514 341.149 332.154 340.134 332.3L339.733 332.841C339.513 333.953 339.381 335.633 339.941 336.656C340.705 337.132 341.605 336.958 342.471 336.916L342.977 337.497L342.935 337.974C342.238 338.346 341.462 338.825 340.641 338.78C339.937 338.742 339.299 338.341 338.84 337.825C337.836 336.696 337.612 335.037 337.757 333.589C337.891 332.248 338.031 331.652 339.073 330.816Z"/>
	<path fill="#FBFBFB" d="M218.589 331.302C219.933 330.7 221.458 330.459 222.901 330.814C223.311 331.283 223.276 331.271 223.264 331.9C221.998 332.739 220.205 331.638 219.803 333.83C219.671 334.553 219.718 335.515 220.172 336.125C220.998 337.237 222.677 336.674 223.354 337.599C223.25 337.905 223.253 338.176 222.947 338.341C222.05 338.825 220.285 338.487 219.356 338.131C218.89 337.953 218.679 337.665 218.434 337.25C218.082 335.259 218.116 333.266 218.589 331.302Z"/>
	<path fill="white" d="M218.434 337.25C218.082 335.259 218.116 333.266 218.589 331.302C218.805 331.87 219.007 332.444 219.246 333.002C219.618 333.871 219.421 334.537 219.08 335.369C218.817 336.009 218.554 336.562 218.434 337.25Z"/>
	<path fill="#E5E5E5" d="M209.3 330.404C209.549 330.438 209.709 330.452 209.958 330.529C210.866 330.81 211.642 332.589 212.119 333.413C212.577 333.459 213.432 330.948 214.123 330.518C214.47 330.302 214.333 330.368 214.799 330.458L215.054 330.854C214.927 332.131 214.267 333.384 213.783 334.565C213.216 335.797 213.122 338.032 212.003 338.8L211.652 338.499C211.196 337.332 211.18 336.072 210.703 334.933C210.311 333.996 209.128 332.231 209.135 331.227C209.137 330.947 209.245 330.678 209.3 330.404Z"/>
	<path fill="white" d="M327.918 215.787C331.591 216.344 333.33 213.971 336.075 214.326C330.596 216.86 324.693 218.391 318.62 218.26C317.143 217.043 315.601 217.6 313.919 217.056L314.215 216.461C318.968 216.896 323.249 216.615 327.918 215.787Z"/>
	<path fill="white" d="M190.674 335.321C190.25 336.224 189.899 336.943 189.187 337.661C188.507 337.612 188.143 335.728 187.571 335.117C186.643 336.041 187.27 337.924 186.285 338.748C185.894 338.609 186.016 338.719 185.778 338.347C184.859 336.909 185.057 333.036 185.562 331.425C185.749 330.831 185.834 330.797 186.357 330.539C188.394 330.947 187.534 333.269 188.795 334.406C189.048 334.634 189.322 334.543 189.637 334.539C189.971 334.796 190.312 335.109 190.674 335.321Z"/>
	<path fill="white" d="M234.013 336.001C233.899 335.746 233.739 335.552 233.573 335.329C232.702 335.799 232.928 338.042 232.068 338.894C231.788 338.814 231.636 338.842 231.471 338.566C230.942 337.682 231.183 331.994 231.528 330.951C231.703 330.423 231.786 330.328 232.261 330.12C233.865 331.367 233.655 333.64 234.696 334.597C234.779 334.674 234.87 334.742 234.957 334.814C235.325 334.389 235.636 333.91 235.961 333.451C236.002 334.022 236.051 334.585 236.119 335.153L236.541 335.459C236.037 336.366 235.682 337.118 234.907 337.836L234.502 337.832C234.102 337.384 234.049 336.587 234.013 336.001Z"/>
	<path fill="#FBFBFB" d="M118.972 333.05C119.763 332.609 119.974 331.723 120.853 331.337L121.465 331.772C122.113 332.142 122.73 332.339 122.96 333.119C123.06 333.457 123.037 333.875 123.055 334.225C123.084 334.812 123.088 335.432 123.164 336.012L123.651 335.685L124.104 335.963C124.248 336.594 124.24 336.656 124.012 337.262C122.973 337.95 122.325 337.951 121.105 337.719C120.808 337.662 120.519 337.587 120.224 337.519C119.707 337.399 119.946 337.402 119.429 337.53C118.901 336.074 118.99 334.581 118.972 333.05ZM121.465 331.772C120.673 333.058 120.479 334.479 120.853 335.957C120.995 336.521 121.175 336.796 121.639 337.127C122.223 337.018 122.566 336.862 122.94 336.365C123.024 336.253 123.09 336.129 123.164 336.012C123.088 335.432 123.084 334.812 123.055 334.225C123.037 333.875 123.06 333.457 122.96 333.119C122.73 332.339 122.113 332.142 121.465 331.772Z"/>
	<path fill="#FBFBFB" d="M279.457 330.788C280.324 330.72 281.233 330.645 282.1 330.725C282.86 330.795 283.768 331.135 284.26 331.739C283.538 332.105 282.619 332.004 281.824 332.114C281.177 332.205 280.738 332.187 280.325 332.697C281.035 333.98 282.992 334.054 283.78 335.245C284.043 335.643 284.15 336.074 284.061 336.544C283.903 337.369 283.24 337.925 282.577 338.359C282.296 338.403 282.03 338.44 281.746 338.445C280.535 338.467 279.273 338.477 278.369 337.605L278.468 337.101C279.539 336.571 280.862 337.146 282.033 336.76L282.105 336.301C281.428 335.017 279.936 335.003 278.957 334.075C278.645 333.779 278.463 333.399 278.426 332.977C278.352 332.121 278.931 331.397 279.457 330.788Z"/>
	<path fill="#FBFBFB" d="M343.959 330.684C345.563 330.715 347.434 330.598 348.967 331.076L349.017 331.603C348.156 332.393 346.423 332.257 345.281 332.896L345.218 333.249C345.686 333.459 345.507 333.421 345.975 333.482C346.945 333.608 348.008 333.554 348.656 334.347L348.538 334.744C348.125 335.1 347.864 335.109 347.342 335.14C347.103 335.154 346.863 335.158 346.625 335.185C345.732 335.284 345.626 335.446 345.1 336.106C346.216 336.943 347.662 336.78 348.881 337.52L348.967 337.931C347.402 338.387 345.597 338.335 343.967 338.579C343.872 335.959 343.811 333.303 343.959 330.684Z"/>
	<path fill="white" d="M164.526 330.764C166.245 330.714 167.955 330.574 169.565 331.285L169.528 331.637C169.022 331.958 168.71 332.066 168.115 332.129C167.377 332.207 166.805 332.136 166.248 332.644L166.304 333.223C167.204 333.882 168.179 333.398 169.193 334.07L169.257 334.461C168.29 335.476 167.14 334.894 166.14 335.607C166.036 335.681 165.937 335.763 165.835 335.841C166.968 337.055 168.573 336.56 169.606 337.645L169.455 337.954C167.904 338.407 166.138 338.363 164.524 338.446L164.526 330.764Z"/>
	<path fill="#FBFBFB" d="M227.442 338.465C226.851 338.496 226.026 338.458 225.47 338.23C224.767 337.941 224.392 337.094 224.182 336.406C223.686 334.783 224.088 332.445 224.828 330.972C225.421 331.117 226.006 331.097 226.361 331.612L226.334 331.949C227.179 332.137 227.409 332.101 228.007 332.759C228.362 333.865 228.192 334.924 228.264 336.058L228.607 336.77L228.803 336.686L228.723 336.541L229.073 337.017C228.568 337.587 228.053 338.013 227.442 338.465ZM226.334 331.949C225.826 333.351 225.519 335.263 226.255 336.651C226.465 337.046 226.627 337.1 227.013 337.261C227.603 336.95 227.939 336.644 228.264 336.058C228.192 334.924 228.362 333.865 228.007 332.759C227.409 332.101 227.179 332.137 226.334 331.949Z"/>
	<path fill="white" d="M324.143 330.76C325.365 330.736 326.675 330.634 327.889 330.748C328.533 330.809 328.789 330.827 329.194 331.317C329.099 332.758 326.905 331.871 325.969 332.741L326.052 333.245C326.831 333.754 327.589 333.399 328.441 333.688C328.825 333.819 328.767 333.912 328.928 334.257C328.507 335.551 326.753 335.083 325.659 335.837C326.681 337.181 327.983 336.429 329.12 337.495L329.088 338C327.714 338.547 325.677 338.393 324.187 338.476C324.302 335.95 324.444 333.271 324.143 330.76Z"/>
	<path fill="white" d="M274.242 246.421C275.192 246.9 276.19 248.833 276.809 249.752C275.017 251.223 273.011 252.392 270.929 253.403L270.724 253.372C269.78 252.688 269.14 251.317 268.519 250.337C270.354 248.919 272.295 247.676 274.242 246.421Z"/>
	<path fill="white" d="M180.48 330.35C180.598 330.365 180.716 330.378 180.833 330.395C181.489 330.492 182 330.765 182.36 331.345C183.361 332.956 184.354 336.211 183.867 338.067L183.439 338.292C182.626 338.005 182.258 337.353 181.766 336.684C180.246 336.874 179.414 338.347 178.094 338.405L177.9 337.998C178.005 335.834 179.25 332.1 180.48 330.35Z"/>
	<path fill="white" d="M310.428 330.333C310.617 330.362 310.844 330.391 311.024 330.448C311.914 330.73 312.231 331.252 312.599 332.062C313.309 333.625 314.617 336.57 313.988 338.278L313.566 338.419C312.755 338.132 312.287 337.446 311.744 336.812C310.122 336.952 309.534 338.043 308.067 338.452C307.966 338.238 307.937 338.214 307.906 337.942C307.687 336.055 309.355 331.912 310.428 330.333Z"/>
	<path fill="white" d="M102.459 337.527C104.134 336.189 103.26 332.287 105.091 330.905C105.582 330.534 105.908 330.51 106.498 330.554C107.707 331.354 107.885 332.721 108.19 334.039C108.548 335.317 109.36 337.25 108.969 338.559L108.706 338.715C108.471 338.562 108.109 338.387 107.923 338.188C105.417 335.15 105.353 338.474 102.216 338.144L102.459 337.527Z"/>
	<path fill="white" d="M107.923 338.188C107.923 337.297 107.503 336.899 107.214 336.101C106.919 335.291 106.485 334.077 106.868 333.256C107.543 333.281 107.7 333.594 108.19 334.039C108.548 335.317 109.36 337.25 108.969 338.559L108.706 338.715C108.471 338.562 108.109 338.387 107.923 338.188Z"/>
	<path fill="white" d="M113.767 334.857C115.254 333.663 114.739 331.449 116.636 330.558C117.031 330.679 117.158 330.62 117.378 331.002C118.174 332.382 117.905 336.653 117.363 338.187C117.263 338.47 117.211 338.555 117.07 338.848L116.761 338.931C116.36 338.226 115.989 335.515 115.55 335.361C115.141 336.09 114.893 336.991 114.453 337.666L113.735 337.861L113.563 337.66L114.552 337.508L113.8 337.915C113.023 336.957 113.124 336.053 112.621 335.029L111.9 336.1C111.685 335.895 111.494 335.721 111.375 335.441C110.724 333.911 110.975 331.819 111.447 330.286C113.039 331.727 112.601 333.464 113.767 334.857Z"/>
	<path fill="white" d="M153.008 337.046C152.762 335.716 153.288 333.485 152.687 332.408Q151.974 332.301 151.258 332.211C150.878 331.825 150.811 331.785 150.712 331.259C152.29 330.312 158.954 330.774 161.173 330.698L161.259 331.599C160.863 331.922 160.844 331.917 160.331 331.935C160.912 332.523 161.194 332.98 161.461 333.763C160.709 334.344 160.2 334.735 159.199 334.594C159.089 334.579 158.981 334.551 158.873 334.529L158.822 334.259C158.629 333.207 158.777 332.229 158.485 331.21C158.133 332.254 158.019 336.011 157.841 336.332C157.72 336.55 157.48 336.675 157.299 336.846C157.2 335.04 157.309 333.188 157.336 331.378C156.516 331.728 155.71 332.07 154.929 332.503C154.414 333.391 154.516 334.049 154.497 335.043C154.542 336.265 154.657 337.264 153.98 338.35L153.558 338.65L153.197 338.451C153.073 337.958 152.942 337.559 153.008 337.046ZM160.331 331.935C159.794 332.153 159.258 332.224 159.057 332.847C158.905 333.318 158.913 334.028 158.873 334.529C158.981 334.551 159.089 334.579 159.199 334.594C160.2 334.735 160.709 334.344 161.461 333.763C161.194 332.98 160.912 332.523 160.331 331.935Z"/>
	<path fill="#E5E5E5" d="M153.008 337.046Q153.265 335.469 153.462 333.884L153.483 333.982C153.644 333.48 153.623 333.411 153.489 332.897C153.652 333.094 153.745 333.247 153.809 333.497C153.924 333.952 154.009 334.29 154.267 334.694C154.342 334.811 154.421 334.927 154.497 335.043C154.542 336.265 154.657 337.264 153.98 338.35L153.558 338.65L153.197 338.451C153.073 337.958 152.942 337.559 153.008 337.046Z"/>
	<path fill="white" d="M424.615 138.215C426.933 137.642 438.213 134.541 439.499 134.955L439.615 135.343C437.452 137.043 435.31 138.895 433.041 140.444C433.03 139.318 433.237 139.276 433.994 138.414C433.691 138.385 433.531 138.37 433.244 138.49C432.845 138.657 432.476 138.745 432.055 138.848L433.428 137.656L433.405 137.479C426.783 138.895 420.294 140.972 413.661 142.322C415.831 139.506 421.877 140.888 424.615 138.215Z"/>
	<path fill="white" d="M349.935 330.687C351.236 330.702 354.496 330.4 355.3 331.501C356.442 333.065 354.873 334.262 355.027 335.766C355.118 336.65 356.035 337.465 355.869 338.353C355.151 338.545 354.907 338.429 354.202 338.246C353.607 337.479 352.943 336.328 351.998 336.024C351.315 336.71 351.88 337.946 351.108 338.736L350.518 338.684C349.482 336.697 349.941 332.921 349.935 330.687ZM351.771 332.216C351.698 332.935 351.533 333.611 351.904 334.27C352.619 334.531 352.995 334.387 353.736 334.265C353.853 333.526 353.937 333.324 353.645 332.615C352.985 332.289 352.502 332.241 351.771 332.216Z"/>
	<path fill="white" d="M300.99 330.737C302.52 330.725 304.62 330.548 306.076 331.069C307.608 331.616 305.4 334.692 306.77 337.556C306.971 337.977 306.938 337.748 306.869 338.212C306.127 338.49 305.925 338.371 305.17 338.198C304.868 337.756 304.564 337.274 304.212 336.87C303.798 336.395 303.537 336.259 302.924 336.226C302.408 336.864 302.421 337.833 302.326 338.624L301.697 338.864L302.287 338.829L302.262 338.92L301.593 338.738C300.472 337.3 300.916 332.505 300.99 330.737ZM302.787 332.173C302.73 332.973 302.566 333.601 302.933 334.336C303.605 334.58 304.097 334.454 304.773 334.327C304.88 333.567 304.961 333.317 304.676 332.587C304.041 332.224 303.496 332.215 302.787 332.173Z"/>
	<path fill="white" d="M240.064 330.626C241.291 330.651 242.668 330.576 243.871 330.827C244.38 330.933 244.832 331.19 245.105 331.634C245.677 332.562 245.261 333.679 245.019 334.653C245.511 335.393 245.707 335.996 245.496 336.891C245.359 337.475 245.039 337.768 244.604 338.154C244.056 338.275 243.687 338.344 243.119 338.269C242.208 338.365 241.327 338.468 240.409 338.421C239.794 336.196 240.097 332.974 240.064 330.626ZM242.57 334.968C241.999 335.515 241.75 335.833 241.538 336.601C241.151 337.03 241.042 337.041 241.032 337.609C241.649 338.109 242.362 338.146 243.119 338.269C243.687 338.344 244.056 338.275 244.604 338.154C245.039 337.768 245.359 337.475 245.496 336.891C245.707 335.996 245.511 335.393 245.019 334.653L244.8 334.473C244.108 333.892 243.346 332.646 242.581 332.328C242.166 332.761 242.211 333.042 242.247 333.63C242.261 333.859 242.292 334.088 242.323 334.315L242.131 334.386L242.237 334.897L242.57 334.968Z"/>
	<path fill="white" d="M242.57 334.968L242.237 334.897L242.131 334.386L242.323 334.315C242.292 334.088 242.261 333.859 242.247 333.63C242.211 333.042 242.166 332.761 242.581 332.328C243.346 332.646 244.108 333.892 244.8 334.473L245.019 334.653C245.511 335.393 245.707 335.996 245.496 336.891C245.359 337.475 245.039 337.768 244.604 338.154C244.056 338.275 243.687 338.344 243.119 338.269C242.362 338.146 241.649 338.109 241.032 337.609C241.042 337.041 241.151 337.03 241.538 336.601C241.75 335.833 241.999 335.515 242.57 334.968ZM242.57 334.968C241.999 335.515 241.75 335.833 241.538 336.601C241.73 336.717 241.816 336.779 242.043 336.861C242.65 337.08 242.976 336.973 243.543 336.734L243.735 336.159C243.432 335.445 243.203 335.384 242.57 334.968Z"/>
	<path fill="#FBFBFB" d="M264.14 334.265C264.391 335.721 264.698 336.794 264.05 338.188L263.636 338.256C262.652 336.991 262.824 334.636 263.005 333.099C263.114 332.168 263.202 330.884 263.977 330.266L264.386 330.382C265.572 331.761 266.055 333.822 266.533 335.538C267.21 333.748 267.816 331.674 269.161 330.264L269.756 330.374C270.283 331.653 270.293 332.628 270.296 333.988C270.446 335.508 270.743 337.045 269.918 338.423L269.539 338.618L269.674 338.453L269.309 338.642C268.997 338.132 269.023 338.024 269.034 337.417C268.957 336.646 268.856 335.941 268.65 335.193L268.387 335.289C268.19 335.773 267.998 336.316 267.735 336.77C267.443 337.272 267.156 337.369 266.62 337.487C265.442 336.934 264.794 335.352 264.14 334.265Z"/>
	<path fill="#FBFBFB" d="M93.2805 330.523C93.7663 330.596 94.295 330.658 94.7528 330.842C95.5347 331.157 95.938 331.866 96.1948 332.631C96.7068 334.156 96.5021 336.133 95.6562 337.516C95.2123 338.241 94.2874 338.341 93.5299 338.564C92.9744 338.494 92.2411 338.398 91.7347 338.169C90.9336 337.806 90.5206 336.809 90.3057 336.009Q90.2342 335.738 90.1911 335.46Q90.1481 335.183 90.1339 334.903Q90.1198 334.623 90.1346 334.342Q90.1495 334.062 90.1933 333.785Q90.2371 333.508 90.3093 333.237Q90.3815 332.966 90.4813 332.703Q90.5812 332.441 90.7076 332.191Q90.834 331.94 90.9857 331.704C91.5657 330.804 92.2767 330.711 93.2805 330.523ZM92.977 331.935Q92.7039 332.242 92.4948 332.596Q92.2857 332.95 92.1483 333.338Q92.011 333.725 91.9504 334.132Q91.8899 334.538 91.9085 334.949C91.9358 335.481 92.1863 336.287 92.6183 336.617C93.0287 336.929 93.3602 337 93.8484 337.131C94.5297 336.262 94.6958 334.879 94.5439 333.793C94.4693 333.26 94.2775 332.862 94.0143 332.4C93.6562 332.203 93.3718 332.05 92.977 331.935Z"/>
	<path fill="white" d="M194.916 331.042C196.067 330.756 197.533 330.292 198.618 330.999C199.399 331.508 199.831 332.449 199.978 333.343C200.162 334.465 199.973 336.866 199.305 337.751C199.121 337.996 199.061 337.97 198.764 338.1C197.262 338.641 196.097 338.423 194.571 338.155C194.393 337.452 194.264 336.749 194.158 336.032C193.894 334.257 193.796 332.553 194.916 331.042ZM196.019 332.244C195.745 333.831 195.803 335.363 195.855 336.966C196.281 336.993 196.717 336.973 197.145 336.972C197.767 336.56 198.056 336.132 198.241 335.386C198.519 334.266 198.219 333.419 197.658 332.457C196.937 332.099 196.791 332.157 196.019 332.244Z"/>
	<path fill="#FBFBFB" d="M274.455 330.538C275.035 330.634 275.697 330.707 276.228 330.97C277.018 331.361 277.354 332.244 277.58 333.043C277.988 334.487 277.741 336.114 277.009 337.419C276.565 338.21 275.746 338.343 274.928 338.569C274.319 338.486 273.531 338.436 272.971 338.197C272.237 337.884 271.705 336.531 271.509 335.818C271.153 334.517 271.347 332.986 272.069 331.837C272.651 330.91 273.441 330.778 274.455 330.538ZM273.892 332.1C273.426 333.213 272.946 334.841 273.479 336.002C273.796 336.693 274.313 336.888 275.002 337.093C275.066 337.112 275.13 337.127 275.194 337.144C275.766 336.129 276.15 334.623 275.883 333.454C275.776 332.989 275.551 332.693 275.239 332.344C274.766 332.197 274.388 332.111 273.892 332.1Z"/>
	<path fill="white" d="M354.944 196.851C356.71 198.213 358.723 195.564 360.834 196.054C352.637 200.773 344.056 202.515 334.659 201.292L333.939 200.588L334.268 200.453L334.295 199.964C341.609 200.164 347.985 199.041 354.944 196.851Z"/>
	<path fill="#FBFBFB" d="M0 134.584C2.74301 135.455 5.70872 135.979 8.51873 136.63C16.925 138.579 25.5861 140.153 33.8691 142.54C33.7357 142.566 33.6029 142.594 33.4689 142.616C32.1462 142.834 30.8767 141.987 29.5871 142.203L29.865 142.43L30.1499 142.163L29.5407 142.119C29.6611 142.151 29.7827 142.178 29.902 142.214C30.648 142.437 32.2526 143.678 32.5926 144.385C32.636 144.475 32.6727 144.569 32.7127 144.661C27.7112 141.914 18.8372 140.456 13.0082 139.018C10.9476 138.51 8.82162 137.758 6.7488 137.38L6.56833 137.657C6.46201 137.971 6.18065 138.474 6.32734 138.769C7.40061 140.931 10.1203 141.433 11.2237 143.69C8.91214 142.191 1.05908 136.623 0 134.584Z"/>
	<path fill="#FBFBFB" d="M353.607 182.774C361.982 182.33 370.447 183.02 378.806 182.371C373.339 186.864 366.829 192.373 360.834 196.054C358.723 195.564 356.71 198.213 354.944 196.851C355.787 196.45 356.578 196.064 357.488 195.834C359.951 194.459 362.135 192.898 364.459 191.307C365.071 190.753 365.71 190.311 366.398 189.858C367.163 189.152 368.066 188.608 368.93 188.033C370.187 186.525 372.449 185.588 373.916 184.174L373.696 183.926C371.83 183.603 369.757 183.91 367.859 183.961L356.697 184.22L355.764 183.66C356.784 183.062 369.614 183.782 372.554 183.224C366.896 182.713 358.957 183.818 353.813 182.818C353.744 182.805 353.676 182.789 353.607 182.774Z"/>
	<path fill="#E5E5E5" d="M366.398 189.858C367.163 189.152 368.066 188.608 368.93 188.033C368.868 188.849 368.633 189.198 368.141 189.84C367.668 190.079 367.361 190.36 366.817 190.15C366.681 190.098 366.513 189.951 366.398 189.858Z"/>
	<path fill="white" d="M228.261 158.876C230.396 158.829 243.004 158.434 244.012 159.294C243.47 160.297 239.943 162.456 238.784 163.304C236.24 165.06 233.62 166.854 231.302 168.901C229.961 165.926 228.881 162.509 227.927 159.384L228.261 158.876Z"/>
	<path fill="white" d="M196.483 158.889C201.802 158.646 207.447 158.558 212.758 158.987C211.668 161.193 210.977 163.728 210.181 166.061C209.952 166.92 209.818 167.818 209.208 168.493C206.575 167.493 198.997 161.377 196.246 159.353L196.483 158.889Z"/>
	<path fill="#E5E5E5" d="M6.56833 137.657C7.86528 139.033 9.65627 140.07 11.172 141.209L21.4379 148.945L38.3785 161.745C41.3079 163.97 44.2196 166.465 47.2978 168.457C48.6921 169.359 50.1967 169.889 51.7741 170.37C51.5456 171.158 51.3214 171.827 50.91 172.538C48.6786 171.66 46.4304 170.588 44.4215 169.273C37.908 165.011 30.9012 159.027 24.6532 154.206L15.7707 147.339C14.2691 146.173 12.5645 145.031 11.2237 143.69C10.1203 141.433 7.40061 140.931 6.32734 138.769C6.18065 138.474 6.46201 137.971 6.56833 137.657Z"/>
	<path fill="#FBFBFB" d="M107.968 214.572C111.391 215.62 114.708 216.3 118.266 216.697C116.197 217.952 114.667 216.548 112.599 217.234C110.007 216.998 107.296 215.729 104.913 214.722C105.881 214.676 107.13 215.05 107.968 214.572Z"/>
	<path fill="#E5E5E5" d="M341.061 209.818L342.051 210.004L342.319 210.397C341.338 212.034 337.8 213.497 336.075 214.326C333.33 213.971 331.591 216.344 327.918 215.787C330.876 214.98 337.445 213.098 339.298 210.799C339.905 210.628 340.519 210.153 341.061 209.818Z"/>
	<path fill="white" d="M256.335 290.308Q260.178 290.323 264.018 290.196C263.816 294.983 264.483 320.764 263.699 322.78Q260.028 322.613 256.361 322.838C256.544 312.02 256.497 301.127 256.335 290.308Z"/>
	<path fill="white" d="M295.73 200.187C303.588 201.637 311.331 203.741 319.197 205.112L319.882 206.473C319.385 206.499 318.992 206.541 318.54 206.771C317.126 207.489 307.979 213.551 307.021 214.513C306.922 214.613 306.84 214.727 306.75 214.835C306.551 215.55 306.627 215.976 306.799 216.692C299.79 214.898 293.137 212.272 286.389 209.698C289.498 206.529 292.504 203.238 295.73 200.187Z"/>
	<path fill="white" d="M120.054 205.329C127.666 203.665 136.589 201.296 144.179 200.224C147.682 203.104 150.393 206.896 153.923 209.716C150.54 210.649 147.264 212.136 143.97 213.352C140.382 214.678 136.74 215.738 133.068 216.8L130.222 217.361C130.524 217.14 130.845 216.919 131.119 216.663C131.641 216.177 131.688 215.961 131.726 215.26L133.229 214.771C131.26 213.212 121.929 206.551 120.195 206.458L120.054 205.329Z"/>
	<path fill="white" d="M81.9112 255.133C87.7494 254.816 93.6724 254.97 99.5221 254.95L99.4588 260.839C95.6952 260.527 91.8372 260.861 88.0513 260.667L88.0402 266.533C91.5647 266.378 95.1269 266.503 98.6589 266.449C98.6268 268.369 98.6118 270.268 98.7203 272.186C95.3903 272.625 91.3817 272.396 88.0211 272.232C88.1129 275.891 88.0798 279.562 88.0931 283.222C85.9323 282.927 83.7316 283.036 81.5592 283.11C81.5687 280.045 81.1958 256.214 81.6187 255.449C81.6881 255.323 81.8137 255.238 81.9112 255.133Z"/>
	<path fill="white" d="M136.911 290.282L144.39 290.228C144.517 295.065 144.443 299.915 144.437 304.753C144.433 308.551 144.539 312.388 144.287 316.178C148.503 315.845 152.847 316.072 157.083 315.961L157.04 322.496C156.606 322.956 139.376 322.6 136.963 322.91C137.17 312.183 137.234 300.992 136.911 290.282Z"/>
	<path fill="white" d="M178.239 255.081C184.5 254.927 190.776 254.96 197.04 254.903C197.053 256.33 197.235 258.107 196.891 259.484C196.025 262.951 187.494 274.122 184.891 277.8C188.971 277.548 193.13 277.662 197.221 277.618C197.29 279.116 197.708 281.825 196.991 283.056C190.468 282.929 183.92 282.983 177.395 283.047C177.424 281.597 177.293 279.786 177.69 278.398C178.7 274.872 187.109 263.958 189.693 260.288C185.805 260.486 181.902 260.089 178.019 260.525C178.018 258.878 177.735 256.634 178.239 255.081Z"/>
	<path fill="white" d="M129.171 255.049L146.998 254.95C146.855 256.92 146.83 258.872 146.825 260.845C143.101 260.553 139.233 260.754 135.492 260.75C135.626 262.436 135.601 264.065 135.52 265.753C139.021 265.642 142.572 265.902 146.058 265.534C145.973 267.527 146.018 269.535 146.013 271.53C144.211 271.393 136.921 270.905 135.622 271.708L135.594 272.438C135.618 274.06 135.574 275.66 135.479 277.28C139.302 277.183 143.123 277.337 146.947 277.156C146.802 279.102 146.847 281.092 146.9 283.042C140.987 282.951 134.976 282.819 129.071 283.127C129.333 276.485 129.126 269.74 129.087 263.089C129.071 260.563 128.728 257.518 129.171 255.049Z"/>
	<path fill="white" d="M311.913 255.066C317.776 254.895 323.665 254.973 329.531 254.942L329.516 260.923C325.869 260.484 321.952 260.765 318.267 260.726C318.357 262.409 318.296 264.075 318.235 265.758C321.727 265.645 325.223 265.739 328.718 265.61C328.616 267.562 328.649 269.518 328.658 271.472Q323.639 271.377 318.619 271.414L318.308 271.757Q318.349 274.529 318.242 277.299C321.989 277.167 325.744 277.304 329.494 277.181C329.486 279.142 329.471 281.08 329.678 283.034C323.763 282.907 317.688 282.831 311.782 283.115C311.866 276.665 311.751 270.199 311.739 263.747C311.733 260.973 311.411 257.772 311.913 255.066Z"/>
	<path fill="white" d="M262.915 255.099C268.773 254.862 274.663 254.957 280.527 254.952L280.492 260.917C276.813 260.504 272.923 260.773 269.21 260.715C269.277 262.378 269.225 264.052 269.209 265.716C272.683 265.45 276.24 265.588 279.724 265.582C279.632 267.544 279.683 269.521 279.688 271.485C276.206 271.312 272.704 271.488 269.216 271.374C269.272 273.348 269.231 275.327 269.217 277.301C272.977 277.167 276.743 277.316 280.507 277.166Q280.482 280.154 280.55 283.142C274.778 282.612 268.476 282.846 262.68 283.122C262.97 278.736 262.035 257.304 262.915 255.099Z"/>
	<path fill="white" d="M117.559 255.175C119.756 254.928 121.967 254.946 124.175 254.922C124.238 256.772 124.201 258.635 124.207 260.487C124.207 265.081 124.489 269.786 124.195 274.366C124.034 276.883 123.482 279.375 121.441 281.053C118.888 283.152 115.116 283.674 111.918 283.37C109.297 283.12 106.32 282.231 104.661 280.053C103.824 278.953 103.422 277.414 103.224 276.059C102.734 272.714 103.068 269.181 103.049 265.807C103.028 262.34 102.631 258.456 103.14 255.045L109.5 254.928C109.531 257.939 108.923 275.249 110.094 276.534C110.866 277.382 112.256 277.626 113.344 277.696C114.482 277.769 115.63 277.647 116.492 276.827C117.173 276.18 117.47 275.234 117.612 274.329C117.958 272.12 117.655 269.619 117.635 267.38L117.559 255.175Z"/>
	<path fill="white" d="M92.2222 289.851C95.7089 289.626 99.2385 290.245 102.673 290.776L101.602 297.574C101.541 297.557 101.481 297.538 101.421 297.522C98.4269 296.695 92.7054 295.834 89.8968 297.426C89.3076 298.258 89.1205 299.21 88.9744 300.204C88.5209 303.289 88.1538 313.272 89.9552 315.645C93.081 317.195 98.1899 316.061 101.617 315.695L102.148 319.222L102.691 322.118Q100.824 322.529 98.9286 322.773C94.5325 323.372 88.498 323.848 84.7734 320.887C82.7 319.238 81.7276 316.812 81.4329 314.246C81.0128 310.589 80.9189 300.754 81.6601 297.241C81.956 295.838 82.5417 294.495 83.4539 293.382C85.6796 290.666 88.9512 290.158 92.2222 289.851Z"/>
	<path fill="white" d="M243.063 255.07C245.767 254.857 248.558 254.912 251.269 254.972C253.377 261.201 255.18 267.555 257.093 273.848C258.024 276.912 258.837 280.089 260.049 283.051C257.765 283.009 255.514 283.02 253.231 283.14C252.663 281.65 252.446 278.404 251.215 277.549C248.345 277.567 245.475 277.61 242.607 277.486Q241.772 280.277 240.988 283.082C238.728 282.99 236.457 283.033 234.195 283.03C236.263 276.913 238 270.661 239.864 264.479C240.732 261.602 241.46 257.568 243.063 255.07ZM247.084 261.656C245.786 265.056 244.956 268.759 243.965 272.267L247.563 272.21L250.19 272.225C249.556 270.329 247.884 262.451 247.084 261.656Z"/>
	<path fill="white" d="M340.506 255.077C343.234 254.873 346.05 254.893 348.78 255.036C351.521 264.368 354.186 273.965 357.454 283.117C355.145 282.951 352.788 283.024 350.472 283.003C350.011 281.192 349.654 279.229 348.927 277.51C345.949 277.549 342.969 277.626 339.993 277.484L338.508 282.969C336.242 283.054 333.984 283.015 331.716 283.143C332.555 279.599 339.152 256.874 340.506 255.077ZM344.491 261.625C343.172 265.082 342.635 268.798 341.282 272.228L344.188 272.208L347.566 272.158C346.95 270.256 345.373 262.578 344.491 261.625Z"/>
	<path fill="white" d="M208.217 255.041Q212.313 254.866 216.41 254.996C219.518 264.269 221.885 273.816 225.101 283.046C222.799 282.998 220.489 283.031 218.187 283.029C217.782 281.6 217.43 278.521 216.454 277.527C213.515 277.559 210.578 277.611 207.64 277.487C207.284 279.358 206.678 281.21 206.164 283.045Q202.718 283.018 199.272 283.051C200.296 280.657 200.933 277.989 201.682 275.493L205.661 262.252C206.335 260.013 206.913 256.962 208.217 255.041ZM212.31 261.665C210.729 264.965 210.294 268.807 209.064 272.243L211.688 272.216L215.207 272.217C214.625 270.1 213.287 262.988 212.31 261.665Z"/>
	<path fill="white" d="M220.219 142.355L220.624 142.521C222.281 149.583 224.997 156.59 227.23 163.503C229.682 171.092 231.817 179.007 234.792 186.404C229.975 183.083 224.834 179.631 220.411 175.822C217.144 177.338 209.088 183.909 205.722 186.409L214.115 160.436C216.047 154.428 217.776 148.175 220.219 142.355Z"/>
	<path fill="white" d="M284.97 255.02C289.799 255.098 295.046 254.464 299.801 255.283C301.744 255.618 303.607 256.407 304.727 258.111C306.437 260.716 306.433 265.99 305.729 268.91C305.194 271.131 303.989 272.37 302.101 273.512C304.371 276.732 306.553 280.121 309.117 283.112C307.171 282.967 305.199 283.034 303.247 283.042C302.798 283.049 302.267 283.078 301.829 282.982C300.031 282.586 296.255 276.279 295.055 274.496Q293.256 274.439 291.459 274.323C291.586 277.238 291.443 280.161 291.582 283.082Q288.301 282.918 285.029 283.207Q285.087 269.113 284.97 255.02ZM291.441 260.737C291.482 263.431 291.538 266.123 291.454 268.817C293.909 268.783 296.73 269.012 299.054 268.147C299.435 266.485 300.174 263.587 299.176 262.084C298.63 261.262 297.683 260.957 296.75 260.818C295.016 260.56 293.191 260.789 291.441 260.737Z"/>
	<path fill="white" d="M151.418 255.091C156.023 255 160.971 254.585 165.532 255.17C167.622 255.438 169.637 256.099 170.933 257.873C172.84 260.481 172.843 265.506 172.229 268.541C171.749 270.908 170.44 272.285 168.484 273.532C170.62 276.708 172.882 280.159 175.433 283.006L168.687 283.022L167.768 282.908C165.535 281.405 162.995 276.837 161.381 274.486C160.203 274.472 159.018 274.365 157.842 274.292C157.925 277.226 157.765 280.146 157.988 283.079C155.756 283.023 153.567 283.014 151.336 283.158L151.297 264.415C151.285 261.781 150.81 257.465 151.418 255.091ZM157.804 260.711C157.835 263.403 157.918 266.103 157.757 268.791C160.259 268.771 163.003 268.983 165.402 268.191C165.858 266.544 166.543 263.993 165.736 262.392C165.335 261.596 164.622 261.177 163.783 260.954C161.894 260.454 159.745 260.783 157.804 260.711Z"/>
	<path fill="white" d="M277.516 290.293Q282.32 290.257 287.123 290.315C288.573 294.262 289.677 298.409 290.905 302.433L297.113 322.887C294.489 322.633 291.83 322.726 289.199 322.779C288.778 320.956 288.507 318.729 287.768 317.027C287.56 316.547 287.516 316.644 287.061 316.466C283.717 316.266 280.368 316.557 277.025 316.284L275.253 322.782C272.673 322.724 270.12 322.681 267.541 322.829C269.252 315.834 271.63 308.89 273.722 301.996C274.81 298.413 275.794 293.526 277.516 290.293ZM282.323 297.908C280.735 301.893 280.236 306.304 278.576 310.214L282.417 310.209L285.868 310.206C285.201 308.229 283.116 298.637 282.323 297.908Z"/>
	<path fill="white" d="M340.306 290.302L349.943 290.293C351.273 293.46 352.132 297.069 353.139 300.36C355.434 307.864 357.594 315.428 360.027 322.887C357.418 322.645 354.794 322.735 352.179 322.801C351.711 321.296 351.253 317.289 350.014 316.463C346.621 316.33 343.224 316.542 339.835 316.296C339.325 318.478 338.701 320.631 338.098 322.788C335.469 322.719 332.868 322.687 330.24 322.805C331.181 320.333 331.846 317.704 332.61 315.171C335.088 306.954 337.197 298.296 340.306 290.302ZM345.334 297.676C343.321 300.85 342.886 306.512 341.389 310.202L345.312 310.183L348.728 310.224C347.367 306.163 346.275 301.856 345.334 297.676Z"/>
	<path fill="white" d="M298.131 197.812C302.029 193.629 305.972 189.287 310.099 185.332C310.972 184.495 312.079 183.393 313.288 183.146C317.253 182.335 322.631 182.822 326.724 182.802Q340.165 182.673 353.607 182.774C353.676 182.789 353.744 182.805 353.813 182.818C358.957 183.818 366.896 182.713 372.554 183.224C369.614 183.782 356.784 183.062 355.764 183.66L356.697 184.22C354.612 184.298 352.049 184.14 350.087 184.88C348.454 185.497 331.478 197.42 329.861 199.121C329.721 199.267 329.591 199.419 329.46 199.573C329.536 199.643 329.607 199.719 329.687 199.785C330.088 200.11 330.405 200.167 330.893 200.293L330.87 200.484C330.23 200.604 329.59 200.74 328.942 200.809C318.681 200.527 308.382 198.538 298.131 197.812Z"/>
	<path fill="white" d="M319.871 290.281Q323.455 290.315 327.037 290.174C326.734 300.693 326.976 311.286 326.976 321.812C326.979 322.02 326.889 322.303 326.846 322.509C325.356 323.23 319.82 322.777 317.942 322.757C313.931 316.183 311.365 308.663 307.415 302.016C307.736 308.942 307.369 315.893 307.59 322.824C305.197 322.635 302.771 322.688 300.378 322.843C300.562 318.607 300.416 314.303 300.415 310.06Q300.469 300.186 300.335 290.313C302.969 290.285 306.19 289.816 308.742 290.426C309.2 290.536 309.454 290.667 309.736 291.058C310.812 292.547 311.549 294.488 312.338 296.147C314.714 301.141 316.905 306.889 319.744 311.587C319.786 311.657 319.83 311.726 319.873 311.795C320.174 304.653 319.678 297.443 319.871 290.281Z"/>
	<path fill="#FBFBFB" d="M432.055 138.848C432.476 138.745 432.845 138.657 433.244 138.49C433.531 138.37 433.691 138.385 433.994 138.414C433.237 139.276 433.03 139.318 433.041 140.444C431.088 142.025 429.14 143.574 427.082 145.018L426.39 144.823C426.341 144.118 427.384 144.108 427.518 143.247C427.016 143.022 426.744 143.57 426.023 143.365C427.966 141.843 429.938 140.115 432.055 138.848Z"/>
	<path fill="white" d="M426.023 143.365C426.744 143.57 427.016 143.022 427.518 143.247C427.384 144.108 426.341 144.118 426.39 144.823L427.082 145.018C422.853 148.878 417.895 152.255 413.352 155.759C409.426 158.787 396.476 169.564 392.503 171.032L391.432 171.079L391.189 170.838C391.691 170.421 392.178 169.991 392.664 169.556C391.31 169.315 390.038 170.628 388.469 170.309C393.882 168.55 398.587 164.083 403.088 160.666L417.495 149.725C420.306 147.59 423.084 145.321 426.023 143.365Z"/>
	<path fill="white" d="M228.643 290.296C233.603 290.271 240.497 289.647 245.194 290.739C247.009 291.161 248.84 292 249.795 293.681C251.109 295.991 251.119 299.969 250.334 302.478C249.809 304.158 249.014 304.78 247.546 305.58C249.163 306.761 250.462 307.518 251.278 309.472C252.505 312.41 251.985 316.269 250.839 319.151C250.695 319.334 250.552 319.518 250.396 319.691C246.263 324.289 234.441 322.506 228.557 322.804C228.349 315.987 228.552 309.106 228.547 302.283C228.545 298.412 228.132 294.113 228.643 290.296ZM236.031 309.232L236.053 316.712C238.566 316.655 241.406 316.871 243.78 315.963C244.238 314.634 244.846 312.377 244.257 311.036C243.976 310.398 243.419 309.979 242.778 309.739C240.664 308.946 238.216 309.578 236.031 309.232ZM236.034 296.232L236.064 303.562C238.271 303.532 240.635 303.7 242.741 302.959C243.143 301.591 243.777 299.246 243.11 297.908C242.714 297.114 241.994 296.765 241.166 296.553C239.58 296.146 237.684 296.342 236.034 296.232Z"/>
	<path fill="white" d="M214.354 290.324L221.815 290.205C221.715 294.236 222.045 298.316 222.221 302.343Q222.677 312.584 223.021 322.83Q219.47 322.588 215.923 322.876C215.694 321.325 215.7 319.752 215.665 318.188C215.463 313.943 215.476 309.682 215.467 305.433C213.095 309.591 211.93 314.439 209.703 318.701C207.546 318.622 205.422 318.566 203.264 318.681C201.783 314.123 199.709 309.522 197.789 305.126C198.009 310.972 197.611 316.97 197.455 322.824C195.058 322.619 192.562 322.668 190.168 322.868L191.486 290.288L198.876 290.275C201.869 296.811 204.133 303.875 206.643 310.619C208.966 303.855 211.418 296.84 214.354 290.324Z"/>
	<path fill="white" d="M118.203 289.857C118.273 289.85 118.343 289.841 118.413 289.836C121.703 289.617 125.737 290.347 128.293 292.566C130.432 294.422 131.33 296.904 131.549 299.649C131.845 303.35 132.048 312.126 131.243 315.541C130.897 317.009 130.249 318.409 129.242 319.544C126.746 322.358 123.109 322.898 119.562 323.132C116.308 323.139 112.801 322.822 110.128 320.764C107.938 319.078 106.872 316.612 106.556 313.935C106.184 310.776 106.151 300.369 106.813 297.459Q107.045 296.391 107.523 295.409Q108 294.426 108.697 293.584C111.098 290.727 114.693 290.128 118.203 289.857ZM117.203 296.592C115.901 297.05 114.961 297.402 114.337 298.726C113.373 300.769 113.666 312.167 114.523 314.504C114.798 315.254 115.15 315.687 115.89 316.014C117.405 316.685 119.462 316.553 121.077 316.404C122.114 315.972 123.225 315.526 123.675 314.402C124.61 312.07 124.518 300.353 123.396 298.101C123.022 297.35 122.153 296.952 121.384 296.741C120.026 296.37 118.588 296.487 117.203 296.592Z"/>
	<path fill="white" d="M171.683 289.853C175.104 289.688 178.972 290.095 181.751 292.288C183.87 293.961 184.916 296.331 185.252 298.946C185.742 302.771 185.866 311.61 185.077 315.257C184.761 316.719 184.165 318.091 183.224 319.261C180.947 322.092 177.479 322.81 174.054 323.103C170.85 323.402 166.91 322.882 164.228 320.978C161.98 319.383 160.812 317.027 160.413 314.365C159.913 311.031 159.857 300.902 160.572 297.603C160.863 296.257 161.419 294.964 162.269 293.874C164.609 290.874 168.13 290.226 171.683 289.853ZM171.342 296.553C170.333 296.856 169.017 297.089 168.409 298.033C167.237 299.852 167.464 312.373 168.22 314.574C168.438 315.211 169.022 315.63 169.613 315.907C171.089 316.597 172.842 316.571 174.431 316.46C175.617 316.139 176.531 315.82 177.144 314.682C178.605 311.966 178.336 301.055 177.198 298.155C176.958 297.544 176.52 297.219 175.928 296.976C174.565 296.417 172.79 296.43 171.342 296.553Z"/>
	<path fill="white" d="M61.9787 182.517C65.093 182.432 68.2277 182.618 71.3466 182.617L101.104 182.755L115.58 182.829C119.534 182.828 123.509 182.666 127.441 183.151C132.945 187.271 136.998 193.427 142.273 197.877C141.011 197.898 139.771 197.976 138.515 198.093C131.654 199.006 124.719 199.605 117.831 200.284C110.641 200.994 102.897 202.09 95.6929 201.468Q94.0773 201.339 92.4795 201.067Q90.8818 200.794 89.3147 200.381Q87.7475 199.967 86.2235 199.416Q84.6994 198.864 83.2306 198.179Q80.4444 196.89 77.8924 195.183C75.4656 193.571 62.6225 184.242 61.9787 182.517ZM65.9462 183.83C66.3237 184.813 77.7845 192.998 79.3782 194.017Q81.1818 195.153 83.1295 196.018C91.6714 199.813 100.559 200.38 109.73 199.473L109.978 199.138C109.156 197.955 93.5311 186.987 91.3888 185.73C90.4132 185.157 89.3451 184.64 88.2215 184.457C85.322 183.986 81.9423 184.187 78.9924 184.103C74.6966 183.981 70.2318 183.614 65.9462 183.83Z"/>
	<path fill="white" d="M32.7127 144.661C32.6727 144.569 32.636 144.475 32.5926 144.385C32.2526 143.678 30.648 142.437 29.902 142.214C29.7827 142.178 29.6611 142.151 29.5407 142.119L30.1499 142.163L29.865 142.43L29.5871 142.203C30.8767 141.987 32.1462 142.834 33.4689 142.616C33.6029 142.594 33.7357 142.566 33.8691 142.54C38.7151 143.397 43.5388 144.674 48.3351 145.786L73.2673 151.571C77.5415 152.564 101.233 157.515 103.786 159.065C106.103 160.472 108.193 163.118 110.075 165.071C114.983 170.162 119.946 176.021 125.403 180.458C119.861 179.544 114.074 179.409 108.474 178.936L74.8932 176.12C66.8555 175.429 58.5805 175.23 50.91 172.538C51.3214 171.827 51.5456 171.158 51.7741 170.37C58.9586 172.357 66.4076 172.474 73.7943 172.77C66.0432 167.861 58.532 162.402 50.9463 157.232C44.8956 153.108 38.4702 149.166 32.7127 144.661Z"/>
	<path fill="white" d="M407.086 142.287C407.154 142.306 407.222 142.327 407.291 142.344C408.225 142.579 408.882 142.415 409.794 142.168C409.751 142.59 409.248 142.908 408.943 143.201C408.583 143.253 408.238 143.294 407.874 143.318L408.367 143.999L380.668 162.949C375.896 166.209 371.17 169.693 366.267 172.738C373.92 172.596 380.993 171.972 388.469 170.309C390.038 170.628 391.31 169.315 392.664 169.556C392.178 169.991 391.691 170.421 391.189 170.838L391.432 171.079L392.503 171.032C389.27 172.918 385.171 173.913 381.522 174.546C375.741 175.55 369.606 175.763 363.751 176.283L329.008 179.165C324.382 179.517 319.534 179.608 314.975 180.44L328.077 166.971C330.615 164.365 333.455 160.7 336.545 158.847C338.752 157.524 372.458 150.227 377.559 149.044L396.804 144.584C400.192 143.8 403.654 142.812 407.086 142.287Z"/>
	<path fill="white" d="M218.454 99.8799L218.876 99.933C219.314 100.706 219.067 129.895 219.074 133.213Q218.118 133.307 217.166 133.435C208.839 134.523 203.322 138.473 198.287 144.988C201.563 144.586 209.296 144.412 212.44 144.885C213.452 145.038 214.422 145.186 215.058 146.045C214.996 146.113 214.942 146.189 214.873 146.249C212.973 147.869 200.213 147.183 197.139 147.039C195.362 150.79 194.671 154.848 194.501 158.974C189.053 158.845 183.576 158.958 178.125 158.956C172.349 158.95 166.533 158.816 160.764 159.055C161.082 144.746 165.941 131.246 175.318 120.371C186.676 107.198 201.355 101.126 218.454 99.8799Z"/>
	<path fill="white" d="M220.902 99.9805Q222.096 99.9859 223.289 100.04Q224.482 100.094 225.672 100.197Q226.862 100.299 228.047 100.45Q229.231 100.601 230.409 100.801Q231.587 101 232.755 101.247Q233.923 101.494 235.081 101.788Q236.238 102.083 237.383 102.424Q238.527 102.765 239.657 103.153Q240.786 103.541 241.899 103.974Q243.012 104.407 244.106 104.886Q245.201 105.364 246.275 105.887Q247.348 106.409 248.4 106.975Q249.452 107.541 250.48 108.149Q251.507 108.758 252.509 109.407Q253.512 110.057 254.486 110.747Q255.461 111.437 256.407 112.166Q257.467 112.975 258.489 113.832Q259.512 114.689 260.494 115.591Q261.477 116.493 262.417 117.438Q263.358 118.383 264.255 119.371Q265.152 120.358 266.004 121.384Q266.855 122.411 267.659 123.475Q268.463 124.539 269.218 125.638Q269.974 126.738 270.678 127.87Q271.383 129.002 272.036 130.165Q272.688 131.329 273.288 132.52Q273.887 133.711 274.432 134.929Q274.977 136.146 275.467 137.387Q275.956 138.627 276.389 139.889Q276.822 141.151 277.197 142.431Q277.572 143.71 277.889 145.006Q278.206 146.301 278.464 147.61C279.215 151.414 279.396 155.251 279.885 159.088C274.192 158.693 268.337 158.953 262.625 158.96C257.471 158.946 251.055 158.41 246.055 159.217C245.938 154.91 245.099 151.279 243.741 147.224C239.839 147.068 235.922 147.066 232.017 147.059C230.334 147.057 228.516 147.277 226.861 147.042C226.314 146.964 226.018 146.804 225.607 146.446C225.307 145.777 225.252 145.787 225.469 145.097C226.514 144.342 239.968 144.772 242.349 144.814C240.875 143.049 239.375 141.281 237.66 139.742C233.201 135.743 227.03 133.132 220.985 133.454L220.997 112.383C220.997 108.261 221.136 104.093 220.902 99.9805Z"/>
	<path fill="white" d="M110.707 159.741C114.402 160.234 118.368 161.73 121.985 162.7Q132.828 165.62 143.76 168.183C150.863 169.81 158.042 171.16 165.184 172.607C169.592 173.501 174.071 174.281 178.351 175.687Q181.318 176.687 184.093 178.139Q186.867 179.59 189.381 181.457C195.33 185.833 200.298 191.45 205.45 196.707C210.292 201.649 215.247 206.481 220.056 211.455C224.075 207.01 228.452 202.849 232.656 198.576C239.184 191.94 245.614 184.298 253.606 179.4C261.265 174.707 270.201 173.548 278.849 171.79Q289.218 169.761 299.52 167.412C309.68 165.005 319.681 161.964 329.831 159.555C326.762 162.772 311.168 179.851 308.702 180.837C306.328 181.787 300.591 181.688 297.767 181.867C293.785 182.119 287.739 181.882 284.062 183.062C283.971 183.091 283.882 183.123 283.792 183.154C291.117 183.25 301.225 183.726 308.236 183.016C303.299 187.196 299.716 193.28 294.519 197.119L279.46 195.831Q275.642 195.25 271.782 195.398C274.515 196.165 277.428 196.551 280.222 197.073C284.298 197.833 288.391 198.709 292.51 199.195C289.67 202.487 286.619 205.607 283.6 208.734C276.976 205.841 263.703 201.499 256.849 200.308C252.07 202.89 243.069 214.061 239.059 218.648C232.759 225.853 226.602 233.229 220.073 240.225C216.599 236.852 213.491 233.012 210.318 229.356Q202.364 220.129 194.246 211.047C190.94 207.386 187.395 202.725 183.095 200.275C176.684 201.435 162.525 205.973 156.409 208.787C153.492 205.589 150.521 202.392 147.458 199.335C154.327 198.199 161.387 197.067 168.142 195.417C165.2 195.277 162.306 195.674 159.382 195.951C154.713 196.392 150.043 196.88 145.359 197.13C141.083 193.573 136.079 187.313 131.952 183.112C140.307 183.677 148.987 183.208 157.372 183.235C149.06 181.32 139.122 182.564 130.923 180.905C128.5 178.908 111.546 161.611 110.707 159.741Z"/>
</svg>
