<?xml version="1.0" encoding="utf-8" ?>
<svg xmlns="http://www.w3.org/2000/svg" xmlns:xlink="http://www.w3.org/1999/xlink" width="512" height="292">
	<path fill="white" transform="matrix(0.426667 0 0 0.427526 3.05176e-05 0)" d="M640.319 631.975C641.013 632.468 641.437 633.121 641.953 633.79L641.743 635.022C639.509 637.1 635.792 638.085 632.971 639.192C632.42 638.971 631.973 638.532 631.51 638.162L631.679 637.137C633.957 634.878 637.489 633.464 640.319 631.975Z"/>
	<path fill="white" transform="matrix(0.426667 0 0 0.427526 3.05176e-05 0)" d="M608.43 433.9L609.396 434.114C611.334 435.797 612.408 438.53 613.559 440.795C608.592 443.276 603.444 445.457 598.384 447.743L596.788 448.01C595.172 447.01 594.467 444.772 593.668 443.103C598.347 439.763 603.525 436.91 608.43 433.9Z"/>
	<path fill="white" transform="matrix(0.426667 0 0 0.427526 3.05176e-05 0)" d="M1147.64 643.46C1149 643.249 1150.25 643.127 1151.62 643.194C1151.69 643.41 1151.8 643.697 1151.85 643.93C1152.46 646.835 1152.69 676.243 1151.89 678.253C1151.68 678.789 1151.15 679.42 1150.83 679.92L1149.04 680.055C1146.16 676.827 1148.37 650.002 1147.64 643.46Z"/>
	<path fill="white" transform="matrix(0.426667 0 0 0.427526 3.05176e-05 0)" d="M315.695 643.046C317.112 643.07 318.411 642.92 319.602 643.797C321.218 653.053 319.982 669.976 319.934 680.057C318.453 680.157 317.369 680.211 315.991 679.607C314.561 668.601 315.667 654.394 315.695 643.046Z"/>
	<path fill="white" transform="matrix(0.426667 0 0 0.427526 3.05176e-05 0)" d="M830.2 643.458C831.851 643.241 833.163 642.969 834.633 643.82C835.418 649.609 835.727 673.411 834.488 679.242L832.764 680.086L831.329 679.927C828.659 674.998 831.646 651.216 830.2 643.458Z"/>
	<path fill="white" transform="matrix(0.426667 0 0 0.427526 3.05176e-05 0)" d="M1010.71 643.46C1012.05 643.234 1013.21 643.144 1014.56 643.253C1015.2 644.436 1015.07 646.411 1015.13 647.774C1015.32 652.255 1016.06 677.729 1014.18 679.78C1013.01 680.123 1012.8 680.05 1011.67 679.757C1009.25 675.433 1011.47 650.596 1010.71 643.46Z"/>
	<path fill="white" transform="matrix(0.426667 0 0 0.427526 3.05176e-05 0)" d="M598.046 642.932C599.215 643.016 600.302 643.229 601.445 643.481C603.366 646.583 602.199 674.698 602.165 680.279C600.899 680.255 599.766 680.125 598.53 679.85C596.696 677.482 597.773 647.911 598.046 642.932Z"/>
	<path fill="white" transform="matrix(0.426667 0 0 0.427526 3.05176e-05 0)" d="M453.812 642.906C454.974 643.003 456.087 643.186 457.232 643.406C459.327 645.989 458.019 675.025 457.969 680.26C456.751 680.202 455.602 680.031 454.402 679.818C452.468 677.273 453.528 647.93 453.812 642.906Z"/>
	<path fill="white" transform="matrix(0.426667 0 0 0.427526 3.05176e-05 0)" d="M470.826 643.298C476.29 643.2 490.85 641.702 495.325 643.992L495.559 644.971L494.807 646.153C492.599 647.559 487.803 646.83 485.181 646.765L485.221 670.151C485.297 673.329 485.14 676.504 485.018 679.679C484.264 680.584 484.263 680.632 483.119 680.88L482.273 680.166C479.591 674.644 481.067 653.913 481.115 646.738C478.688 646.71 473.424 647.765 471.534 646.179C470.875 645.625 470.93 644.163 470.826 643.298Z"/>
	<path fill="white" transform="matrix(0.426667 0 0 0.427526 3.05176e-05 0)" d="M1028.17 643.461C1035.28 643.024 1044.64 642.062 1051.58 643.512C1052.32 643.666 1052.34 644.059 1052.74 644.659L1052.27 645.91C1049.35 647.507 1044.78 646.781 1041.43 646.791C1041.79 647.321 1042.05 647.834 1042.2 648.466C1043.03 651.994 1043.09 667.694 1041.39 670.411C1042.45 672.172 1042.59 674.071 1042.55 676.092C1042.51 677.799 1041.94 679.284 1040.71 680.491C1035.6 678.327 1040.11 652.765 1037.4 646.74Q1035.68 646.832 1033.96 646.901C1031.66 646.99 1029.88 647.237 1028.13 645.613L1028.17 643.461Z"/>
	<path fill="white" transform="matrix(0.426667 0 0 0.427526 3.05176e-05 0)" d="M416.447 643.289C423.66 643.154 432.708 641.992 439.705 643.565C440.404 643.723 440.445 644.179 440.801 644.763L440.469 646.039C437.962 647.47 433.528 646.764 430.595 646.764L430.624 671.326C430.656 673.96 430.896 676.793 430.407 679.383C429.177 680.218 429.016 680.155 427.513 680.081C425.465 677.774 426.468 651.289 426.448 646.749C423.46 646.738 419.545 647.501 416.8 646.343C415.932 644.997 416.182 644.811 416.447 643.289Z"/>
	<path fill="white" transform="matrix(0.426667 0 0 0.427526 3.05176e-05 0)" d="M863.979 673.168C869.938 668.242 874.116 645.406 879.655 643.304C880.513 642.978 880.586 643.268 881.343 643.658L881.684 645.291C881.162 646.816 880.581 647.762 879.536 648.951C879.429 649.073 879.319 649.192 879.211 649.313C879.28 649.83 879.349 650.215 879.219 650.732C877.954 655.755 867.222 679.246 863.696 681.807C863.948 678.244 849.908 649.343 847.249 643.458C848.848 643.318 849.906 643.031 851.414 643.718C853.967 647.923 864.157 669.22 863.979 673.168Z"/>
	<path fill="white" transform="matrix(0.426667 0 0 0.427526 3.05176e-05 0)" d="M981.589 642.875C984.949 642.508 989.751 643 992.684 644.744C993.828 645.425 993.855 645.498 994.175 646.786L993.314 648.021C990.222 649.057 986.377 646.289 983.061 646.383C981.266 646.433 979.611 647.193 978.484 648.611C977.614 649.706 977.159 651.419 977.332 652.807C977.992 658.087 989.038 661.039 992.856 664.177C994.72 665.708 996.081 667.6 996.229 670.09C996.365 672.379 995.135 675.342 993.592 677.043C990.928 679.976 986.859 680.462 983.13 680.606C981.074 680.168 979.165 679.656 977.256 678.757C974.983 677.687 973.838 676.737 973.008 674.383C974.173 673.013 984.423 677.332 987.788 676.366C989.375 675.911 990.646 674.875 991.358 673.368C995.162 665.317 976.375 662.644 973.881 655.817C973.028 653.479 973.01 650.464 974.195 648.247C975.791 645.264 978.532 643.939 981.589 642.875Z"/>
	<path fill="white" transform="matrix(0.426667 0 0 0.427526 3.05176e-05 0)" d="M392.748 642.734C394.661 642.571 396.751 642.741 398.632 643.133C400.377 643.498 402.251 644.243 403.211 645.838C403.856 646.91 403.753 647.101 403.451 648.305C400.602 648.905 397.261 646.127 393.788 646.387C391.692 646.545 390.177 647.153 388.853 648.872C387.949 650.047 387.316 651.67 387.664 653.161C388.746 657.795 397.589 660.56 401.279 662.894C403.664 664.403 406.32 666.634 406.814 669.57C407.163 671.646 406.087 673.879 404.924 675.54C402.24 679.372 399.042 680 394.623 680.822C391.337 680.246 388.142 679.317 385.338 677.451C383.967 676.538 383.305 675.836 383 674.219C387.469 670.903 391.556 678.715 396.959 676.976C398.712 676.412 401.305 674.635 402.023 672.929C404.772 666.4 385.951 661.615 383.629 654.512C382.882 652.227 383.5 650.254 384.616 648.242C386.519 644.813 389.123 643.754 392.748 642.734Z"/>
	<path fill="white" transform="matrix(0.426667 0 0 0.427526 3.05176e-05 0)" d="M567.727 642.732C572.137 642.428 578.639 643.985 582.042 646.858C582.936 647.612 582.865 647.829 582.894 648.974C579.946 651.551 571.036 645.904 566.364 646.805C563.073 647.439 559.681 650.184 557.81 652.898Q557.38 653.532 557.015 654.205Q556.65 654.879 556.354 655.585Q556.058 656.292 555.834 657.024Q555.61 657.757 555.461 658.508Q555.312 659.26 555.238 660.022Q555.165 660.784 555.168 661.55Q555.171 662.316 555.251 663.078Q555.331 663.84 555.486 664.59C556.267 668.541 558.617 672.185 562.022 674.375C565.965 676.91 569.91 676.967 574.355 675.952C576.743 674.564 578.367 673.313 581.201 673.378L581.909 674.226C581.769 674.764 581.653 675.256 581.341 675.726C579.733 678.153 576.1 679.666 573.377 680.262Q572.503 680.454 571.615 680.559Q570.727 680.664 569.832 680.68Q568.938 680.697 568.046 680.625Q567.154 680.553 566.274 680.393Q565.394 680.233 564.534 679.987Q563.674 679.741 562.842 679.411Q562.011 679.082 561.216 678.671Q560.421 678.261 559.671 677.774C555.359 674.982 552.136 670.788 551.067 665.717Q550.969 665.25 550.895 664.779Q550.82 664.308 550.77 663.834Q550.719 663.36 550.692 662.884Q550.665 662.407 550.662 661.931Q550.659 661.454 550.68 660.977Q550.701 660.501 550.745 660.026Q550.79 659.551 550.858 659.079Q550.927 658.607 551.018 658.139Q551.11 657.671 551.225 657.209Q551.341 656.746 551.479 656.289Q551.617 655.833 551.778 655.384Q551.939 654.935 552.122 654.495Q552.305 654.054 552.51 653.624Q552.715 653.193 552.941 652.773Q553.167 652.353 553.414 651.945Q553.661 651.537 553.928 651.142C557.285 646.115 561.94 643.833 567.727 642.732Z"/>
	<path fill="white" transform="matrix(0.426667 0 0 0.427526 3.05176e-05 0)" d="M736.755 643.451L739.214 643.148C744.771 645.827 738.08 666.907 743.595 673.413C745.276 675.395 747.785 676.466 750.345 676.658C753.011 676.859 755.787 676.056 757.813 674.287C762.73 669.994 760.747 651.097 761.312 644.178C762.121 643.131 762.295 643.093 763.481 642.667L764.436 643.424C764.915 645.461 764.847 645.612 764.005 647.539C764.055 647.637 764.103 647.737 764.155 647.835C764.451 648.384 764.723 648.918 764.878 649.529C766.294 655.127 765.64 669.653 762.447 674.491Q762.07 675.069 761.638 675.607Q761.206 676.145 760.722 676.637Q760.239 677.129 759.709 677.57Q759.178 678.012 758.607 678.398Q758.035 678.785 757.428 679.113Q756.821 679.44 756.184 679.706Q755.547 679.972 754.887 680.173Q754.227 680.374 753.55 680.508C749.959 681.225 746.216 680.555 743.197 678.448C732.771 671.171 738.869 654.334 736.838 643.841C736.813 643.71 736.782 643.581 736.755 643.451Z"/>
	<path fill="white" transform="matrix(0.426667 0 0 0.427526 3.05176e-05 0)" d="M894.482 643.46Q895.293 643.353 896.108 643.286C899.926 642.961 913.999 642.506 917.135 643.623C917.468 643.741 918.141 644.483 918.444 644.743C914.482 648.228 903.245 646.823 898.231 646.786C898.589 647.32 898.844 647.844 899.013 648.47C899.779 651.302 899.801 657.056 898.261 659.572C902.275 659.545 911.489 658.313 914.625 660.486C915.34 660.982 915.262 661.343 915.449 662.175C912.866 664.516 902.622 662.315 898.737 663.804C898.613 663.852 898.492 663.908 898.37 663.96C898.549 664.305 898.688 664.533 898.809 664.891C899.826 667.883 899.731 673.738 898.368 676.553C903.592 676.534 908.851 676.358 914.071 676.498C915.833 676.545 916.863 676.452 918.099 677.77L917.803 679.018C914.668 681.25 898.797 680.126 894.07 680.128C894.127 680.036 894.187 679.946 894.24 679.852C896.043 676.669 895.631 647.268 894.482 643.46Z"/>
	<path fill="white" transform="matrix(0.426667 0 0 0.427526 3.05176e-05 0)" d="M508.105 642.787C509.293 642.896 510.189 642.967 511.239 643.56C513.498 647.792 512.085 656.082 512.039 660.862C511.993 665.533 511.643 670.734 515.241 674.274Q515.572 674.605 515.935 674.899Q516.298 675.194 516.69 675.449Q517.083 675.704 517.499 675.917Q517.916 676.13 518.352 676.298Q518.789 676.467 519.24 676.589Q519.692 676.711 520.154 676.785Q520.616 676.859 521.083 676.885Q521.55 676.911 522.017 676.888C539.418 675.993 526.805 649.882 533.241 643.061L534.648 643.124C535.945 644.386 535.774 644.92 535.917 646.655C535.898 655.744 538.239 669.907 531.524 676.932C529.128 679.439 525.944 680.78 522.477 680.792Q521.748 680.8 521.023 680.734Q520.297 680.668 519.582 680.528Q518.867 680.388 518.17 680.176Q517.473 679.963 516.801 679.681Q516.13 679.399 515.49 679.049Q514.851 678.699 514.251 678.286Q513.651 677.873 513.096 677.401Q512.542 676.928 512.038 676.402C505.358 669.408 507.923 651.904 508.105 642.787Z"/>
	<path fill="white" transform="matrix(0.426667 0 0 0.427526 3.05176e-05 0)" d="M338.26 642.121C343.591 644.15 359.186 666.204 363.941 672.057C363.945 667.422 363.065 645.997 364.856 643.061L367.145 643.099C368.767 647.156 368.462 677.637 367.347 681.47C361.465 677.275 347.297 657.42 341.88 650.398C341.622 656.989 342.999 674.818 341.318 680.074L340.241 680.415L339.034 679.64C336.666 674.73 337.35 648.62 338.26 642.121Z"/>
	<path fill="white" transform="matrix(0.426667 0 0 0.427526 3.05176e-05 0)" d="M782.35 642.864C783.447 642.806 784.034 642.873 785.063 643.257C788.387 646.54 807.141 668.752 807.54 671.978C811.275 665.067 806.003 649.211 809.535 643.188L810.537 642.975C811.544 643.686 811.956 644.257 812.361 645.437C813.338 648.286 813.216 677.727 811.97 680.202L809.987 680.433C809.972 680.345 809.967 680.256 809.942 680.17C809.137 677.413 788.391 652.35 785.379 650.28C785.667 650.693 785.762 650.786 785.96 651.208C787.1 653.647 786.992 676.814 786.072 679.785L784.743 680.317L783.593 679.716C781.106 675.061 782.895 649.987 782.35 642.864Z"/>
	<path fill="white" transform="matrix(0.426667 0 0 0.427526 3.05176e-05 0)" d="M670.831 642.234C671.281 642.333 671.71 642.473 672.127 642.675C674.652 643.9 694.931 669.136 695.996 671.991C698.308 664.843 695.018 652.081 696.654 645.349C697.014 643.869 697.822 643.525 699.024 642.85L699.933 643.204C700.337 644.045 700.486 644.681 700.555 645.611C700.897 650.223 701.535 676.603 700.392 679.428C700.236 679.813 699.478 680.48 699.178 680.825C694.46 677.386 679.109 656.354 674.485 650.599C674.428 655.643 675.765 676.802 673.732 679.917C672.359 680.207 672.261 680.233 671 679.635C669.879 677.671 670.244 645.892 670.831 642.234Z"/>
	<path fill="white" transform="matrix(0.426667 0 0 0.427526 3.05176e-05 0)" d="M1180.67 642.874L1182.58 642.739C1184.77 645.533 1198.99 676.471 1199.21 679.418L1198.24 679.97C1192.8 679.673 1194.31 674.413 1190.8 670.999C1190.71 670.913 1190.61 670.833 1190.52 670.749L1182.28 670.77L1172.06 670.795C1172.1 671.007 1172.19 671.351 1172.19 671.587C1172.16 673.547 1170.04 678.273 1168.43 679.541C1167.43 680.329 1167.01 680.053 1165.88 679.861C1163.84 676.305 1179.66 649.845 1180.67 642.874ZM1181.67 650.49C1180.35 654.732 1176.84 664.849 1173.39 667.583L1181.69 667.589C1184.1 667.577 1186.85 667.291 1189.22 667.655C1188.69 662.345 1184.96 655.987 1182.59 651.158L1181.67 650.49Z"/>
	<path fill="white" transform="matrix(0.426667 0 0 0.427526 3.05176e-05 0)" d="M1074.38 642.873L1076.51 643.08C1079.13 646.388 1091.61 674.946 1092.6 679.172C1091.49 679.973 1090.89 679.793 1089.55 679.815C1087 677.46 1086.89 673.372 1084.28 670.962C1084.2 670.881 1084.1 670.807 1084.01 670.73L1075.05 670.77L1065.61 670.786C1065.8 671.479 1065.67 671.939 1065.48 672.614C1064.84 674.766 1063.01 679.529 1060.83 680.486C1060.16 680.783 1060.07 680.588 1059.42 680.359C1059.25 680.061 1058.68 679.289 1058.65 678.997C1058.27 675.826 1072.68 649.318 1074.38 642.873ZM1074.64 651.074C1074.3 654.639 1069.98 664.976 1067.21 667.407C1067.13 667.472 1067.06 667.531 1066.98 667.593L1075.63 667.589L1083 667.464C1082.12 664.007 1078.38 653.164 1075.57 651.234L1074.64 651.074Z"/>
	<path fill="white" transform="matrix(0.426667 0 0 0.427526 3.05176e-05 0)" d="M933.078 643.46C938.486 642.771 946.332 642.344 951.473 644.103C954.775 645.232 957.646 647.448 959.123 650.661Q959.32 651.078 959.473 651.514Q959.626 651.949 959.734 652.397Q959.842 652.846 959.904 653.303Q959.966 653.76 959.981 654.221Q959.996 654.682 959.965 655.143Q959.933 655.603 959.854 656.057Q959.776 656.512 959.652 656.956Q959.528 657.401 959.359 657.83C957.941 661.403 954.871 663.851 951.416 665.282C954.107 668.231 956.922 673.569 958.097 677.361C958.537 678.781 958.711 679.25 958.011 680.616L956.858 680.672C955.282 679.984 954.312 679.189 953.084 678.024C953.097 677.885 953.128 677.747 953.124 677.607C953.055 674.847 948.675 667.334 946.612 665.492L936.591 665.545Q937.065 666.302 937.317 667.158C938.14 669.855 938.188 677.006 936.766 679.405C936.292 680.205 936.115 680.105 935.221 680.302C931.242 676.451 934.343 650.879 933.078 643.46ZM936.79 647.56C938.17 650.286 938.472 658.224 937.417 661.03C937.274 661.409 937.058 661.758 936.831 662.09C941.264 662.144 948.366 663.171 952.135 660.61L952.948 659.277C954.307 658.368 955.501 656.506 955.901 654.903C956.256 653.48 955.695 652.238 954.815 651.122C952.887 648.675 948.049 647.206 945.074 647.085C942.327 646.972 939.494 647.054 936.79 647.56Z"/>
	<path fill="white" transform="matrix(0.426667 0 0 0.427526 3.05176e-05 0)" d="M1105.46 643.461C1110.69 642.848 1118.74 642.315 1123.78 643.836C1126.69 644.711 1129.34 646.574 1130.75 649.308C1132.14 652.024 1132.19 655.057 1131.23 657.918C1129.98 661.64 1127.34 663.609 1123.96 665.312C1125.79 667.685 1127.34 670.644 1128.68 673.326C1129.73 675.424 1131.3 678.128 1130.53 680.445L1129.59 680.69C1127.8 680.073 1126.73 679.25 1125.35 678.022C1125.37 677.824 1125.42 677.516 1125.4 677.3C1125.16 674.509 1120.99 667.317 1118.88 665.489L1109.06 665.523C1110.48 667.806 1110.29 673.969 1110.01 676.644C1109.83 678.379 1109.44 679.35 1108.1 680.43L1106.55 680.114C1104.31 677.539 1106.24 650.117 1105.52 643.936L1105.46 643.461ZM1109.19 647.56C1110.46 650.199 1110.84 658.624 1109.77 661.34C1109.67 661.585 1109.46 661.889 1109.32 662.094C1113.38 662.122 1121.09 663.123 1124.33 660.639L1124.76 659.863C1126.35 658.62 1127.85 656.696 1128.19 654.649C1128.39 653.465 1128.02 652.374 1127.34 651.391C1125.66 648.961 1121.12 647.444 1118.33 647.152C1115.43 646.848 1112.07 647.031 1109.19 647.56Z"/>
	<path fill="white" transform="matrix(0.426667 0 0 0.427526 3.05176e-05 0)" d="M494.526 452.792L506.847 452.69L506.968 487.656C506.985 494.14 507.486 501.116 506.591 507.534L494.528 507.439C493.787 489.381 494.301 470.87 494.526 452.792Z"/>
	<path fill="white" transform="matrix(0.426667 0 0 0.427526 3.05176e-05 0)" d="M776.679 453.085C780.485 452.511 784.428 452.737 788.269 452.771C788.761 453.408 789.124 454.093 789.257 454.897C789.911 458.844 790.056 502.728 789.244 505.493C789.114 505.937 788.41 506.713 788.126 507.128C784.796 508.28 779.622 507.508 776.094 507.423C777.618 504.826 777.493 458.594 776.679 453.085Z"/>
	<path fill="white" transform="matrix(0.426667 0 0 0.427526 3.05176e-05 0)" d="M978.995 542.709C982.777 542.353 986.509 542.446 990.3 542.531C990.798 543.252 991.158 544.015 991.271 544.889C992.071 551.071 992.038 590.588 991.018 596.222L989.495 597.186C985.681 597.489 981.752 597.24 977.927 597.185C980.281 593.225 978.475 551.166 978.995 542.709Z"/>
	<path fill="white" transform="matrix(0.426667 0 0 0.427526 3.05176e-05 0)" d="M716.432 542.705C720.167 542.233 724.078 542.457 727.842 542.463C728.241 543.083 728.573 543.753 728.716 544.482C729.541 548.659 729.421 583.329 727.899 585.756L747.811 585.705C749.07 587.653 749.246 590.842 749.063 593.137C748.906 595.114 748.704 595.745 747.207 597.052C742.793 598.365 721.372 597.337 715.679 597.295C717.725 593.243 716.451 550.64 716.432 542.705Z"/>
	<path fill="white" transform="matrix(0.426667 0 0 0.427526 3.05176e-05 0)" d="M441.743 452.783L454.069 452.752C454.259 467.143 454.149 481.554 454.174 495.946Q464.093 495.758 474.011 495.963C474.178 499.774 474.179 503.533 474.064 507.345C463.345 507.916 452.447 507.491 441.708 507.445Q441.57 480.113 441.743 452.783Z"/>
	<path fill="white" transform="matrix(0.426667 0 0 0.427526 3.05176e-05 0)" d="M527.472 452.798C539.996 452.411 552.62 452.73 565.156 452.723C565.473 456.526 565.325 460.37 565.283 464.182L552.581 464.284L552.59 495.702L552.571 507.399L540.193 507.403L540.183 464.39C535.972 464.169 531.69 464.298 527.471 464.283C527.306 460.462 527.427 456.621 527.472 452.798Z"/>
	<path fill="white" transform="matrix(0.426667 0 0 0.427526 3.05176e-05 0)" d="M634.578 642.727C638.69 642.463 643.107 643.485 646.592 645.704C650.884 648.437 653.748 652.792 654.779 657.752Q654.976 658.679 655.081 659.621Q655.185 660.563 655.196 661.51Q655.206 662.458 655.123 663.402Q655.04 664.346 654.863 665.277Q654.687 666.208 654.419 667.117Q654.151 668.026 653.795 668.904Q653.439 669.782 652.997 670.621Q652.556 671.459 652.033 672.25C648.671 677.252 643.876 679.446 638.125 680.537C633.883 680.931 629.257 679.79 625.693 677.454C621.588 674.764 618.828 670.464 617.838 665.683Q617.739 665.205 617.664 664.723Q617.588 664.241 617.537 663.756Q617.486 663.271 617.46 662.784Q617.433 662.297 617.431 661.809Q617.428 661.321 617.45 660.834Q617.472 660.347 617.519 659.861Q617.565 659.376 617.635 658.893Q617.706 658.41 617.801 657.932Q617.895 657.453 618.013 656.98Q618.132 656.507 618.274 656.04Q618.415 655.573 618.58 655.114Q618.745 654.655 618.933 654.205Q619.121 653.755 619.331 653.314Q619.541 652.874 619.772 652.445Q620.004 652.015 620.257 651.598Q620.51 651.181 620.783 650.777C624.19 645.83 628.83 643.74 634.578 642.727ZM632.335 646.814C627.743 648.836 624.187 651.471 622.261 656.261Q621.993 656.935 621.792 657.632Q621.591 658.329 621.459 659.042Q621.327 659.755 621.266 660.478Q621.205 661.201 621.215 661.926Q621.225 662.652 621.306 663.372Q621.386 664.093 621.538 664.803Q621.689 665.512 621.909 666.203Q622.128 666.895 622.415 667.561C624.11 671.463 627.246 674.336 631.222 675.822C634.219 676.943 637.271 676.841 640.399 676.409C645.095 674.176 648.747 671.552 650.552 666.466Q650.794 665.771 650.966 665.054Q651.138 664.338 651.238 663.608Q651.337 662.879 651.364 662.143Q651.39 661.407 651.344 660.672Q651.297 659.937 651.177 659.21Q651.057 658.483 650.865 657.772Q650.673 657.061 650.411 656.373Q650.15 655.684 649.821 655.025Q649.476 654.331 649.062 653.676Q648.649 653.02 648.172 652.41Q647.695 651.799 647.159 651.24Q646.622 650.68 646.033 650.178Q645.443 649.675 644.805 649.235Q644.168 648.794 643.489 648.42Q642.811 648.046 642.098 647.742Q641.385 647.438 640.645 647.207C637.822 646.301 635.247 646.515 632.335 646.814Z"/>
	<path fill="white" transform="matrix(0.426667 0 0 0.427526 3.05176e-05 0)" d="M830.362 452.501C836.753 451.67 843.547 451.846 849.475 454.675C851.819 455.793 855.014 457.706 855.941 460.248C855.911 460.402 855.888 460.557 855.85 460.709C855.185 463.346 850.373 467.208 848.074 468.496C847.976 468.33 847.9 468.148 847.779 467.997C846.308 466.152 842.683 464.397 840.423 463.892C836.698 463.058 832.635 464.16 829.48 466.201Q828.789 466.652 828.145 467.168Q827.501 467.683 826.911 468.259Q826.32 468.835 825.789 469.466Q825.257 470.097 824.789 470.776Q824.321 471.456 823.922 472.177Q823.522 472.899 823.195 473.656Q822.867 474.413 822.615 475.198Q822.363 475.984 822.188 476.79C821.284 481.108 822.575 486.016 825.024 489.64C832.929 501.335 845.274 491.343 849.822 492.217L850.575 493.503C852.688 494.898 855.457 497.136 856.118 499.668C856.048 499.86 855.988 500.056 855.908 500.245C854.72 503.049 848.944 505.558 846.261 506.505C839.143 509.018 831.235 508.848 824.399 505.528Q823.767 505.22 823.151 504.88Q822.536 504.541 821.938 504.171Q821.339 503.801 820.761 503.402Q820.182 503.003 819.624 502.575Q819.066 502.147 818.53 501.692Q817.994 501.237 817.482 500.756Q816.969 500.274 816.481 499.768Q815.993 499.262 815.531 498.732Q815.07 498.202 814.635 497.649Q814.2 497.097 813.793 496.523Q813.387 495.95 813.009 495.357Q812.632 494.763 812.285 494.152Q811.937 493.541 811.621 492.913Q811.305 492.285 811.02 491.643Q810.736 491 810.484 490.343Q810.232 489.687 810.013 489.019Q809.793 488.356 809.606 487.683Q809.419 487.01 809.265 486.329Q809.111 485.648 808.991 484.96Q808.871 484.272 808.784 483.579Q808.698 482.886 808.646 482.189Q808.593 481.493 808.575 480.795Q808.557 480.097 808.573 479.398Q808.589 478.7 808.64 478.004Q808.69 477.307 808.774 476.614Q808.859 475.921 808.977 475.232Q809.095 474.544 809.247 473.862Q809.399 473.181 809.584 472.507Q809.769 471.834 809.987 471.17Q810.205 470.507 810.455 469.855Q810.705 469.203 810.987 468.563Q811.269 467.924 811.582 467.3C815.597 459.323 822.161 455.219 830.362 452.501Z"/>
	<path fill="white" transform="matrix(0.426667 0 0 0.427526 3.05176e-05 0)" d="M661.588 452.262C667.45 451.774 673.54 452.094 678.959 454.611C681.262 455.681 684.645 457.711 685.563 460.184C685.55 462.441 680.294 466.914 678.676 468.596C674.451 465.701 670.749 463.611 665.415 464.077Q664.65 464.15 663.897 464.3Q663.144 464.45 662.409 464.675Q661.675 464.9 660.966 465.198Q660.258 465.495 659.584 465.862Q658.909 466.23 658.275 466.663Q657.641 467.096 657.053 467.591Q656.466 468.086 655.931 468.637Q655.396 469.189 654.92 469.791Q654.426 470.401 653.996 471.057Q653.566 471.714 653.203 472.41Q652.84 473.106 652.549 473.835Q652.258 474.563 652.041 475.318Q651.825 476.072 651.684 476.844Q651.544 477.616 651.482 478.398Q651.419 479.181 651.435 479.965Q651.452 480.75 651.546 481.529C652.088 485.779 654.499 490.306 657.988 492.86C666.206 498.877 671.938 492.929 678.887 491.856L680.389 492.983C682.158 494.768 685.328 497.334 685.771 499.835C683.571 503.686 678.031 505.976 673.966 507.106C666.698 509.125 658.821 508.374 652.242 504.598Q651.645 504.253 651.066 503.878Q650.486 503.504 649.926 503.102Q649.366 502.699 648.826 502.27Q648.286 501.84 647.768 501.385Q647.25 500.929 646.756 500.449Q646.261 499.968 645.79 499.464Q645.32 498.959 644.875 498.433Q644.43 497.906 644.011 497.357Q643.592 496.809 643.201 496.241Q642.81 495.673 642.448 495.086Q642.085 494.5 641.752 493.896Q641.419 493.292 641.116 492.672Q640.813 492.053 640.541 491.419Q640.269 490.785 640.028 490.139Q639.788 489.493 639.579 488.835Q639.371 488.178 639.195 487.511Q639.01 486.822 638.86 486.124Q638.71 485.426 638.594 484.722Q638.479 484.018 638.399 483.309Q638.318 482.6 638.274 481.888Q638.229 481.175 638.219 480.462Q638.21 479.748 638.236 479.035Q638.262 478.322 638.324 477.611Q638.385 476.9 638.482 476.193Q638.579 475.486 638.711 474.785Q638.843 474.083 639.009 473.389Q639.176 472.695 639.377 472.011Q639.578 471.326 639.812 470.652Q640.047 469.978 640.315 469.316Q640.583 468.655 640.883 468.008Q641.184 467.36 641.516 466.729Q641.849 466.097 642.212 465.483C646.68 457.973 653.354 454.294 661.588 452.262Z"/>
	<path fill="white" transform="matrix(0.426667 0 0 0.427526 3.05176e-05 0)" d="M602.865 541.985Q604.464 541.864 606.066 541.799C614.444 541.478 621.104 544.232 627.193 549.901C624.936 552.987 622.114 555.628 619.431 558.339L618.942 557.99C614.662 554.954 610.189 553.104 604.847 554.089Q604.099 554.229 603.369 554.443Q602.639 554.657 601.933 554.942Q601.228 555.227 600.554 555.58Q599.88 555.933 599.245 556.352Q598.61 556.77 598.019 557.249Q597.428 557.729 596.887 558.264Q596.347 558.799 595.862 559.385Q595.377 559.972 594.953 560.603C592.585 564.137 591.944 568.546 592.828 572.674C593.662 576.565 595.71 580.89 599.159 583.106C607.032 588.165 612.528 582.999 618.887 581.897C620.179 581.673 620.562 582.332 621.51 583.082C623.521 585.164 625.416 587.367 627.341 589.529C623.527 593.14 619.102 595.947 613.977 597.278Q613.314 597.447 612.644 597.584Q611.974 597.72 611.298 597.823Q610.622 597.926 609.942 597.996Q609.262 598.066 608.579 598.102Q607.896 598.138 607.212 598.141Q606.528 598.143 605.845 598.112Q605.162 598.081 604.481 598.016Q603.8 597.951 603.123 597.853Q602.447 597.755 601.776 597.623Q601.104 597.492 600.441 597.328Q599.777 597.163 599.122 596.966Q598.467 596.769 597.823 596.54Q597.178 596.312 596.546 596.051Q595.914 595.791 595.295 595.5Q594.676 595.208 594.073 594.887Q593.469 594.566 592.882 594.215Q592.279 593.855 591.695 593.465Q591.11 593.075 590.546 592.657Q589.982 592.239 589.439 591.794Q588.896 591.348 588.375 590.876Q587.855 590.405 587.359 589.908Q586.863 589.411 586.392 588.89Q585.921 588.369 585.476 587.825Q585.031 587.282 584.614 586.717Q584.197 586.152 583.808 585.567Q583.419 584.982 583.06 584.379Q582.7 583.776 582.371 583.155Q582.042 582.535 581.744 581.899Q581.446 581.263 581.18 580.613Q580.914 579.963 580.681 579.301Q580.447 578.639 580.247 577.966Q580.046 577.293 579.879 576.611C578.094 569.261 579.288 561.056 583.355 554.645C587.878 547.516 594.819 543.799 602.865 541.985Z"/>
	<path fill="white" transform="matrix(0.426667 0 0 0.427526 3.05176e-05 0)" d="M1032.85 542.122L1035.33 541.858C1035.77 542.08 1036.05 542.208 1036.37 542.591C1038.76 545.439 1058.17 588.067 1060.39 593.896C1060.8 594.992 1060.89 595.93 1060.7 597.095C1056.65 597.436 1052.66 597.284 1048.6 597.146C1048.62 594.679 1046.31 591.071 1044.67 589.241L1035.21 589.22L1023.37 589.164C1023.47 589.562 1023.51 589.588 1023.49 590.068C1023.42 592.527 1021.42 595.433 1019.69 597.058C1015.31 597.537 1010.92 597.2 1006.53 597.001C1007.45 596.247 1008.23 595.446 1008.81 594.398C1012.17 588.324 1032.17 546.349 1032.85 542.122ZM1033.6 566.724C1033.67 570.033 1030.33 575.937 1028.22 578.405L1035.21 578.341C1036.65 578.37 1039.11 578.751 1040.33 577.987C1039.38 575.646 1036.62 567.678 1034.34 566.844C1034.02 566.728 1033.9 566.74 1033.6 566.724Z"/>
	<path fill="white" transform="matrix(0.426667 0 0 0.427526 3.05176e-05 0)" d="M467.758 541.447L469.295 541.79C472.565 544.564 492.852 589.994 495.565 597.039C491.447 597.342 487.398 597.306 483.274 597.211C481.727 594.696 480.58 591.913 479.348 589.233L470.679 589.22L458.19 589.177C456.969 591.975 455.675 594.609 454.096 597.224C449.915 597.339 445.786 597.227 441.609 597.032L458.061 561.574C461.174 554.869 464.024 547.82 467.758 541.447ZM468.367 566.208C466.95 569.477 464.081 573.653 463.804 577.08L464.296 578.174C465.563 578.352 466.74 578.395 468.018 578.346C469.468 578.341 473.041 578.733 474.065 577.916C472.91 574.541 470.926 568.687 468.367 566.208Z"/>
	<path fill="white" transform="matrix(0.426667 0 0 0.427526 3.05176e-05 0)" d="M585.436 452.794C597.167 452.476 608.967 452.742 620.706 452.747C621.003 456.524 620.89 460.335 620.869 464.121C613.218 464.568 605.362 464.258 597.689 464.271L597.715 473.882L616.936 473.877C617.025 477.733 616.981 481.602 617 485.46C612.72 485.447 601.14 484.11 597.859 486.3L597.732 488.38L597.686 495.946C605.354 495.727 613.062 495.819 620.73 495.958C620.967 499.771 620.904 503.541 620.815 507.358L585.398 507.398Q585.267 480.095 585.436 452.794Z"/>
	<path fill="white" transform="matrix(0.426667 0 0 0.427526 3.05176e-05 0)" d="M315.33 452.792C325.269 452.632 339.61 450.479 347.672 457.255C351.059 460.102 352.952 464.089 353.253 468.487Q353.313 469.358 353.288 470.23Q353.262 471.103 353.151 471.969Q353.04 472.835 352.844 473.686Q352.648 474.536 352.369 475.364Q352.091 476.191 351.732 476.987Q351.373 477.783 350.938 478.54Q350.503 479.297 349.995 480.007Q349.487 480.717 348.912 481.374C344.555 486.37 339.749 487.346 333.486 487.743L327.614 487.713L327.593 507.406L315.294 507.369Q315.162 480.079 315.33 452.792ZM327.603 464.283L327.627 476.169C331.582 476.171 335.844 476.644 339.354 474.512C340.44 472.605 341.517 470.706 340.971 468.416C340.657 467.098 339.833 466.256 338.679 465.611C335.415 463.787 331.202 464.207 327.603 464.283Z"/>
	<path fill="white" transform="matrix(0.426667 0 0 0.427526 3.05176e-05 0)" d="M335.629 541.993C345.137 541.265 352.593 543.99 359.823 550.141C357.285 553.131 354.439 555.949 351.757 558.818C348.5 556.37 345.196 554.578 341.066 554.216C337.306 553.886 333.713 555.107 330.863 557.565C327.603 560.376 325.518 564.617 325.216 568.904C324.918 573.139 326.331 577.614 329.213 580.765C332.056 583.875 335.916 585.3 340.078 585.414C342.132 585.47 345.019 585.491 346.592 584.011C347.393 582.393 347.428 582.253 347.115 580.477C345.459 579.116 343.146 580.473 341.165 579.245C340.229 576.248 340.808 572.369 340.918 569.244C345.29 569.107 349.679 569.13 354.053 569.076L359.593 569.157L359.722 592.545C356.303 594.343 352.899 595.813 349.137 596.764C340.866 598.855 332.122 598.323 324.746 593.78Q324.152 593.413 323.577 593.017Q323.002 592.621 322.447 592.197Q321.892 591.773 321.36 591.321Q320.827 590.87 320.317 590.392Q319.808 589.915 319.323 589.413Q318.838 588.91 318.379 588.384Q317.919 587.858 317.487 587.31Q317.054 586.762 316.65 586.193Q316.245 585.624 315.87 585.035Q315.494 584.447 315.149 583.84Q314.803 583.234 314.488 582.61Q314.173 581.987 313.889 581.349Q313.606 580.711 313.355 580.06Q313.104 579.408 312.885 578.745Q312.667 578.082 312.482 577.409Q312.297 576.736 312.146 576.054Q311.993 575.369 311.874 574.677Q311.754 573.985 311.669 573.288Q311.583 572.591 311.532 571.89Q311.481 571.19 311.464 570.488Q311.448 569.786 311.465 569.084Q311.483 568.382 311.535 567.682Q311.587 566.981 311.673 566.284Q311.759 565.588 311.88 564.896Q312 564.204 312.154 563.519Q312.308 562.834 312.495 562.157Q312.682 561.48 312.903 560.813Q313.123 560.146 313.375 559.491Q313.628 558.836 313.913 558.194Q314.197 557.552 314.512 556.924Q314.828 556.297 315.174 555.686Q315.52 555.075 315.895 554.481C320.519 547.287 327.458 543.686 335.629 541.993Z"/>
	<path fill="white" transform="matrix(0.426667 0 0 0.427526 3.05176e-05 0)" d="M512.273 541.431C513.578 541.514 514.727 541.657 515.87 542.334C521.959 545.938 539.737 565.143 546.728 571.398L546.8 542.531C550.853 542.371 554.951 542.478 559.009 542.469C559.158 543.895 559.286 545.333 559.332 546.766C559.664 557.131 559.428 567.581 559.438 577.954C559.443 583.831 560.024 590.389 559.224 596.179C559.075 597.256 558.663 598.007 557.926 598.787C552.526 596.806 530.148 572.248 524.535 566.711L524.498 597.221C520.442 597.357 516.353 597.27 512.292 597.286C511.861 588.66 512.13 579.897 512.116 571.254C512.1 561.333 511.845 551.34 512.273 541.431Z"/>
	<path fill="white" transform="matrix(0.426667 0 0 0.427526 3.05176e-05 0)" d="M706.241 451.899C707.055 451.801 707.877 451.833 708.649 452.136C711.732 453.347 738.282 479.176 739.367 481.641C739.546 481.221 739.557 481.216 739.722 480.721C740.873 477.266 740.904 455.739 739.453 452.794C743.536 452.738 747.625 452.777 751.709 452.771C751.771 452.86 751.836 452.946 751.894 453.037C753.352 455.322 753.6 502.183 752.444 507.42C751.117 508.54 750.527 508.236 748.91 508.156C746.366 504.211 720.718 478.88 717.046 476.809C717.443 477.604 717.788 478.286 717.936 479.177C718.633 483.379 718.944 504.324 716.799 507.372L704.641 507.387C708.457 499.277 702.733 457.917 706.241 451.899Z"/>
	<path fill="white" transform="matrix(0.426667 0 0 0.427526 3.05176e-05 0)" d="M1077.92 542.123C1079.07 541.939 1080.45 541.643 1081.5 542.174C1085.02 543.952 1111.01 569.054 1111.87 571.506Q1112.1 570.973 1112.28 570.421C1113.45 566.818 1113.51 545.767 1111.97 542.596C1116.12 542.422 1120.22 542.436 1124.37 542.543C1124.43 542.637 1124.49 542.729 1124.55 542.826C1125.87 545.103 1126.27 592.932 1125.09 597.341L1122.69 598.096C1113.9 593.808 1099.65 572.18 1089.7 566.642C1090.06 567.217 1090.36 567.831 1090.48 568.506C1091.19 572.675 1091.46 594.283 1089.61 597.17C1085.79 597.666 1081.41 597.278 1077.53 597.275C1078.95 594.327 1078.51 548.154 1077.92 542.123Z"/>
	<path fill="white" transform="matrix(0.426667 0 0 0.427526 3.05176e-05 0)" d="M385.029 542.508C393.507 542.31 405.865 541.073 413.894 543.117C418.283 544.235 422.357 546.893 424.668 550.847Q425.067 551.544 425.396 552.277Q425.725 553.01 425.981 553.772Q426.236 554.533 426.415 555.316Q426.594 556.099 426.695 556.896Q426.796 557.693 426.818 558.496Q426.84 559.299 426.783 560.101Q426.726 560.902 426.59 561.694Q426.455 562.485 426.242 563.26C424.63 569.268 420.478 572.406 415.379 575.375C419.438 582.4 423.609 589.646 426.853 597.083C422.86 597.334 418.81 597.292 414.809 597.362C409.647 595.985 407.312 581.783 403.148 577.617C401.521 575.989 399.949 575.748 397.775 575.726L397.812 577.126L397.16 577.435C398.202 579.277 397.265 594.09 397.241 597.232C393.152 597.428 388.986 597.246 384.89 597.206C384.849 579.049 384.266 560.639 385.029 542.508ZM397.297 553.717L397.322 565.86C402.232 565.927 408.728 566.983 412.986 564.095C414.081 562.043 415.146 560.098 414.417 557.693C413.968 556.212 412.887 555.263 411.488 554.675C407.304 552.916 401.733 553.624 397.297 553.717Z"/>
	<path fill="white" transform="matrix(0.426667 0 0 0.427526 3.05176e-05 0)" d="M919.964 542.709C926.692 541.77 939.397 541.535 945.873 543.558C949.811 544.789 953.429 547.299 955.314 551.049Q955.597 551.608 955.822 552.193Q956.047 552.778 956.21 553.383Q956.374 553.988 956.475 554.607Q956.576 555.225 956.613 555.851Q956.65 556.476 956.622 557.102Q956.595 557.728 956.504 558.348Q956.413 558.969 956.259 559.576Q956.105 560.183 955.89 560.772C954.404 564.901 951.097 567.589 947.263 569.453C949.39 570.213 951.238 571.079 953.004 572.516C955.763 574.76 958.029 578.073 958.293 581.686C958.475 584.173 957.696 586.566 956.018 588.399C956.035 588.516 956.069 588.631 956.069 588.75C956.063 590.11 954.701 591.655 953.779 592.587C946.865 599.574 928.573 597.36 919.434 597.283C921.09 593.802 920.14 549.627 919.964 542.709ZM935.216 574.926L933.147 575.128C930.847 578.012 933.581 582.793 931.562 586.149C934.455 586.023 937.758 586.202 940.582 585.655C942.198 585.147 943.679 584.323 944.629 582.864C945.256 581.901 945.338 580.872 945.04 579.792C944.572 578.104 942.528 576.309 940.952 575.592C939.205 574.796 937.094 574.897 935.216 574.926ZM931.534 554.423C932.619 556.92 933.14 561.314 932.073 563.899C931.923 564.264 931.819 564.385 931.593 564.739C934.518 564.76 937.964 565.143 940.722 564.079C941.124 563.649 941.572 563.255 941.831 562.723C943.146 561.652 943.631 560.646 944.25 559.114C944.024 557.515 943.904 556.884 942.561 555.792C940.009 553.718 935.721 553.579 932.67 554.14C932.196 554.227 932.031 554.286 931.534 554.423Z"/>
	<path fill="white" transform="matrix(0.426667 0 0 0.427526 3.05176e-05 0)" d="M844.451 541.536C845.264 541.602 846.094 541.789 846.686 542.393C848.903 544.656 864.5 573.415 864.556 576.26C870.173 571.552 877.531 550.7 882.96 543.443C883.829 542.281 884.179 542.087 885.575 541.855C886.652 542.585 887.193 543.415 887.62 544.633C889.899 551.139 890.084 558.93 891.222 565.738C892.81 575.236 895.527 585.017 896.188 594.614C896.252 595.539 896.068 596.267 895.678 597.107C891.665 597.509 887.601 597.274 883.576 597.176C883.639 596.958 883.73 596.684 883.764 596.452C884.214 593.355 883.329 587.407 881.459 584.906C881.628 584.576 881.751 584.387 881.847 584.043C882.66 581.124 881.163 574.853 879.898 572.162C880.057 574.357 871.729 589.331 870.08 592.104C868.78 594.292 867.061 597.241 864.445 597.903C859.568 595.481 854.832 576.619 849.081 572.072C848.957 571.974 848.83 571.881 848.704 571.785C849.009 572.434 849.277 573.12 849.376 573.834C849.872 577.411 847.485 594.605 845.483 597.236C841.397 597.456 837.275 597.238 833.186 597.137C837.562 590.372 840.091 545.04 844.451 541.536Z"/>
	<path fill="white" transform="matrix(0.426667 0 0 0.427526 3.05176e-05 0)" d="M1165.55 542.124C1173.56 541.303 1180.78 542.197 1187.49 547.035Q1188.05 547.444 1188.6 547.88Q1189.14 548.317 1189.66 548.779Q1190.18 549.242 1190.68 549.729Q1191.18 550.217 1191.65 550.729Q1192.12 551.24 1192.57 551.774Q1193.02 552.309 1193.44 552.864Q1193.86 553.42 1194.25 553.996Q1194.64 554.571 1195.01 555.166Q1195.37 555.76 1195.7 556.371Q1196.04 556.983 1196.34 557.61Q1196.64 558.237 1196.92 558.879Q1197.19 559.52 1197.43 560.174Q1197.67 560.828 1197.88 561.493Q1198.08 562.158 1198.26 562.833Q1198.43 563.507 1198.57 564.189Q1198.71 564.872 1198.82 565.56Q1198.93 566.267 1199.01 566.978Q1199.08 567.69 1199.12 568.404Q1199.16 569.118 1199.17 569.834Q1199.17 570.549 1199.14 571.264Q1199.11 571.979 1199.04 572.691Q1198.98 573.403 1198.87 574.111Q1198.77 574.819 1198.63 575.521Q1198.5 576.223 1198.32 576.918Q1198.15 577.612 1197.94 578.297Q1197.74 578.982 1197.5 579.656Q1197.26 580.329 1196.98 580.99Q1196.71 581.651 1196.4 582.297Q1196.09 582.944 1195.76 583.574Q1195.42 584.204 1195.05 584.817Q1194.68 585.43 1194.28 586.023Q1193.88 586.616 1193.45 587.189C1189.08 592.955 1182.55 596.551 1175.42 597.515C1170.22 599.134 1162.8 597.569 1158.08 595.094Q1157.46 594.762 1156.85 594.4Q1156.24 594.037 1155.65 593.645Q1155.06 593.252 1154.5 592.831Q1153.93 592.41 1153.38 591.961Q1152.83 591.512 1152.31 591.037Q1151.79 590.561 1151.29 590.06Q1150.79 589.559 1150.32 589.034Q1149.84 588.509 1149.4 587.961Q1148.95 587.413 1148.53 586.843Q1148.11 586.273 1147.72 585.683Q1147.33 585.094 1146.97 584.485Q1146.61 583.877 1146.28 583.251Q1145.95 582.625 1145.65 581.984Q1145.36 581.343 1145.09 580.687Q1144.82 580.032 1144.59 579.364Q1144.36 578.697 1144.16 578.018Q1143.96 577.334 1143.79 576.641Q1143.63 575.948 1143.49 575.247Q1143.36 574.547 1143.27 573.841Q1143.17 573.135 1143.1 572.424Q1143.04 571.714 1143.01 571.002Q1142.99 570.29 1142.99 569.577Q1143 568.864 1143.04 568.153Q1143.08 567.441 1143.16 566.733Q1143.24 566.024 1143.35 565.32Q1143.46 564.616 1143.6 563.918Q1143.75 563.22 1143.93 562.531Q1144.11 561.841 1144.32 561.161Q1144.54 560.48 1144.78 559.812Q1145.03 559.143 1145.31 558.487Q1145.59 557.831 1145.9 557.189Q1146.21 556.548 1146.55 555.922C1150.8 548.296 1157.43 544.467 1165.55 542.124ZM1168.63 554.425C1163.72 555.891 1160.12 558.008 1157.62 562.636Q1157.25 563.327 1156.94 564.052Q1156.64 564.777 1156.41 565.528Q1156.18 566.279 1156.02 567.05Q1155.87 567.821 1155.79 568.603Q1155.72 569.385 1155.72 570.17Q1155.72 570.956 1155.8 571.738Q1155.88 572.52 1156.03 573.29Q1156.19 574.06 1156.42 574.811C1157.52 578.45 1159.77 581.571 1163.16 583.367C1165.55 584.633 1169.01 585.727 1171.74 585.29C1176.18 584.895 1180.06 583.247 1182.96 579.741Q1183.45 579.141 1183.88 578.496Q1184.3 577.85 1184.66 577.165Q1185.02 576.479 1185.31 575.762Q1185.6 575.044 1185.82 574.301Q1186.04 573.558 1186.18 572.797Q1186.32 572.035 1186.38 571.264Q1186.45 570.493 1186.43 569.719Q1186.42 568.945 1186.33 568.176Q1186.24 567.382 1186.07 566.601Q1185.89 565.821 1185.64 565.061Q1185.39 564.302 1185.07 563.572Q1184.74 562.842 1184.34 562.149Q1183.95 561.455 1183.48 560.806Q1183.01 560.156 1182.48 559.557Q1181.95 558.958 1181.37 558.416Q1180.78 557.873 1180.14 557.393C1176.8 554.897 1172.74 554.008 1168.63 554.425Z"/>
	<path fill="white" transform="matrix(0.426667 0 0 0.427526 3.05176e-05 0)" d="M665.633 541.952C671.995 541.404 678.074 542.265 683.687 545.433Q684.293 545.779 684.882 546.154Q685.47 546.53 686.039 546.935Q686.607 547.339 687.155 547.772Q687.703 548.205 688.228 548.664Q688.754 549.124 689.255 549.609Q689.757 550.094 690.234 550.604Q690.711 551.113 691.161 551.646Q691.612 552.179 692.035 552.734Q692.459 553.289 692.854 553.864Q693.249 554.439 693.615 555.034Q693.981 555.628 694.316 556.24Q694.652 556.852 694.956 557.48Q695.261 558.108 695.533 558.75Q695.806 559.393 696.046 560.048Q696.286 560.703 696.494 561.37Q696.701 562.036 696.874 562.712Q697.057 563.399 697.204 564.093Q697.352 564.788 697.465 565.49Q697.578 566.191 697.656 566.897Q697.734 567.603 697.776 568.313Q697.818 569.022 697.825 569.732Q697.831 570.442 697.802 571.152Q697.773 571.862 697.709 572.57Q697.644 573.277 697.544 573.98Q697.444 574.684 697.309 575.381Q697.174 576.079 697.004 576.769Q696.835 577.458 696.631 578.139Q696.427 578.819 696.189 579.489Q695.951 580.158 695.679 580.815Q695.408 581.471 695.104 582.114Q694.801 582.756 694.465 583.382Q694.13 584.008 693.763 584.617C689.32 591.99 682.636 595.63 674.542 597.692C667.257 598.401 660.493 597.584 654.233 593.508Q653.656 593.13 653.098 592.724Q652.54 592.318 652.003 591.885Q651.466 591.452 650.951 590.993Q650.436 590.534 649.945 590.05Q649.453 589.566 648.986 589.058Q648.519 588.55 648.077 588.02Q647.635 587.49 647.221 586.939Q646.806 586.388 646.419 585.817Q646.031 585.246 645.673 584.656Q645.315 584.067 644.986 583.461Q644.657 582.854 644.358 582.232Q644.06 581.61 643.792 580.974Q643.525 580.339 643.289 579.69Q643.053 579.042 642.85 578.383Q642.647 577.724 642.476 577.055Q642.305 576.387 642.168 575.711Q642.025 575.016 641.916 574.315Q641.807 573.613 641.733 572.907Q641.659 572.202 641.62 571.493Q641.58 570.784 641.576 570.075Q641.572 569.365 641.603 568.656Q641.633 567.947 641.699 567.24Q641.765 566.534 641.865 565.831Q641.965 565.129 642.1 564.432Q642.235 563.735 642.404 563.046Q642.573 562.356 642.776 561.676Q642.979 560.996 643.215 560.327Q643.451 559.658 643.72 559.001Q643.988 558.344 644.289 557.701Q644.59 557.058 644.922 556.431Q645.254 555.804 645.617 555.194Q645.98 554.583 646.372 553.992C650.973 547.125 657.694 543.563 665.633 541.952ZM668.497 554.26C663.554 555.247 659.507 557.245 656.685 561.596Q656.273 562.243 655.927 562.927Q655.581 563.611 655.304 564.326Q655.027 565.041 654.823 565.78Q654.619 566.519 654.488 567.274Q654.358 568.03 654.303 568.794Q654.248 569.559 654.269 570.326Q654.29 571.092 654.387 571.852Q654.484 572.613 654.656 573.36C655.6 577.471 658.121 580.853 661.69 583.08C665.002 585.147 668.285 585.46 672.1 585.439C677.111 583.775 680.949 581.565 683.44 576.716Q683.785 576.035 684.061 575.323Q684.337 574.611 684.54 573.876Q684.744 573.14 684.874 572.388Q685.004 571.636 685.059 570.874Q685.114 570.113 685.093 569.35Q685.072 568.587 684.976 567.83Q684.88 567.072 684.709 566.328Q684.538 565.584 684.294 564.861Q684.058 564.145 683.751 563.455Q683.444 562.766 683.069 562.111Q682.695 561.455 682.257 560.841Q681.819 560.226 681.322 559.658Q680.825 559.091 680.274 558.575Q679.722 558.06 679.122 557.603Q678.522 557.145 677.879 556.75Q677.236 556.354 676.557 556.025C673.989 554.754 671.343 554.3 668.497 554.26Z"/>
	<path fill="white" transform="matrix(0.426667 0 0 0.427526 3.05176e-05 0)" d="M784.825 542.122C792.85 541.175 800.441 542.308 807.068 547.25Q807.629 547.671 808.169 548.118Q808.708 548.566 809.225 549.04Q809.742 549.514 810.234 550.013Q810.727 550.511 811.194 551.034Q811.662 551.557 812.103 552.102Q812.544 552.647 812.957 553.213Q813.37 553.779 813.755 554.365Q814.14 554.951 814.495 555.556Q814.851 556.16 815.176 556.781Q815.501 557.402 815.795 558.039Q816.089 558.675 816.351 559.326Q816.613 559.976 816.842 560.638Q817.072 561.301 817.268 561.974Q817.465 562.647 817.628 563.328Q817.79 564.01 817.919 564.699Q818.048 565.388 818.143 566.083Q818.243 566.788 818.307 567.497Q818.372 568.206 818.401 568.917Q818.429 569.629 818.423 570.341Q818.416 571.053 818.374 571.764Q818.332 572.474 818.254 573.182Q818.176 573.89 818.063 574.593Q817.95 575.296 817.803 575.992Q817.655 576.689 817.472 577.377Q817.289 578.065 817.073 578.743Q816.856 579.421 816.606 580.088Q816.355 580.755 816.072 581.408Q815.789 582.061 815.473 582.699Q815.158 583.338 814.81 583.959Q814.463 584.581 814.086 585.185Q813.708 585.788 813.3 586.372Q812.893 586.956 812.457 587.519C807.937 593.261 801.293 596.763 794.079 597.593C793.919 597.649 793.761 597.71 793.6 597.763C789.059 599.238 781.521 597.276 777.416 595.11Q776.781 594.774 776.164 594.406Q775.547 594.039 774.95 593.641Q774.352 593.243 773.774 592.815Q773.197 592.388 772.642 591.932Q772.087 591.476 771.556 590.993Q771.024 590.511 770.517 590.002Q770.011 589.493 769.53 588.959Q769.049 588.426 768.596 587.869Q768.143 587.312 767.718 586.733Q767.293 586.154 766.898 585.554Q766.502 584.955 766.137 584.336Q765.772 583.718 765.439 583.082Q765.105 582.446 764.804 581.794Q764.503 581.142 764.235 580.476Q763.966 579.81 763.732 579.131Q763.497 578.453 763.297 577.763Q763.104 577.093 762.943 576.414Q762.783 575.735 762.655 575.049Q762.528 574.363 762.434 573.671Q762.34 572.98 762.28 572.285Q762.22 571.59 762.194 570.892Q762.167 570.195 762.175 569.498Q762.183 568.8 762.224 568.103Q762.266 567.407 762.341 566.713Q762.417 566.02 762.526 565.331Q762.635 564.641 762.777 563.958Q762.92 563.275 763.095 562.6Q763.271 561.925 763.479 561.259Q763.687 560.593 763.927 559.938Q764.167 559.283 764.439 558.64Q764.711 557.998 765.013 557.369Q765.316 556.74 765.649 556.127C769.907 548.448 776.676 544.542 784.825 542.122ZM787.856 554.424C783.039 555.838 779.455 557.924 776.95 562.427Q776.561 563.128 776.245 563.864Q775.928 564.6 775.688 565.365Q775.447 566.129 775.285 566.914Q775.123 567.699 775.041 568.496Q774.959 569.293 774.958 570.094Q774.956 570.896 775.036 571.693Q775.116 572.49 775.275 573.276Q775.435 574.061 775.673 574.826C776.839 578.648 779.241 581.729 782.817 583.554C785.113 584.726 788.27 585.642 790.868 585.307C795.341 584.929 799.241 583.34 802.173 579.816Q802.667 579.213 803.099 578.563Q803.53 577.913 803.894 577.223Q804.258 576.533 804.551 575.811Q804.844 575.088 805.063 574.339Q805.282 573.59 805.424 572.824Q805.567 572.057 805.631 571.279Q805.696 570.502 805.683 569.722Q805.669 568.943 805.577 568.168Q805.49 567.397 805.328 566.638Q805.166 565.879 804.93 565.14Q804.693 564.4 804.385 563.688Q804.077 562.976 803.699 562.298Q803.322 561.619 802.88 560.981Q802.438 560.344 801.935 559.753Q801.431 559.161 800.872 558.623Q800.313 558.085 799.704 557.604C796.366 555.001 792.045 553.919 787.856 554.424Z"/>
	<path fill="white" transform="matrix(0.426667 0 0 0.427526 3.05176e-05 0)" d="M390.728 452.308C397.263 451.44 403.843 452.329 409.639 455.576Q410.244 455.919 410.831 456.292Q411.418 456.665 411.986 457.066Q412.554 457.468 413.101 457.898Q413.648 458.327 414.173 458.784Q414.698 459.24 415.199 459.722Q415.701 460.204 416.177 460.711Q416.654 461.217 417.105 461.747Q417.555 462.277 417.979 462.828Q418.403 463.38 418.798 463.952Q419.194 464.524 419.56 465.115Q419.927 465.706 420.263 466.315Q420.6 466.923 420.905 467.548Q421.211 468.173 421.485 468.812Q421.759 469.451 422 470.103Q422.242 470.755 422.451 471.419Q422.66 472.082 422.835 472.755Q423.016 473.429 423.164 474.111Q423.313 474.793 423.427 475.481Q423.542 476.17 423.623 476.863Q423.704 477.556 423.751 478.252Q423.798 478.949 423.81 479.647Q423.823 480.344 423.802 481.042Q423.781 481.739 423.725 482.435Q423.67 483.131 423.581 483.823Q423.491 484.515 423.368 485.202Q423.245 485.889 423.089 486.569Q422.933 487.249 422.743 487.921Q422.554 488.593 422.332 489.255Q422.11 489.916 421.855 490.566Q421.601 491.216 421.316 491.853Q421.03 492.49 420.714 493.112Q420.397 493.734 420.051 494.34C415.726 501.759 409.144 505.584 401.087 507.767C393.84 508.705 386.961 507.87 380.652 503.962Q380.069 503.597 379.505 503.204Q378.941 502.81 378.397 502.39Q377.853 501.969 377.33 501.522Q376.808 501.075 376.308 500.602Q375.808 500.13 375.332 499.634Q374.857 499.137 374.406 498.618Q373.955 498.098 373.531 497.557Q373.106 497.016 372.709 496.455Q372.311 495.894 371.942 495.314Q371.573 494.733 371.233 494.136Q370.893 493.538 370.583 492.924Q370.273 492.31 369.994 491.682Q369.715 491.054 369.467 490.412Q369.219 489.771 369.003 489.118Q368.787 488.465 368.604 487.803Q368.42 487.14 368.27 486.469Q368.113 485.789 367.99 485.102Q367.866 484.415 367.776 483.723Q367.687 483.031 367.631 482.335Q367.575 481.639 367.553 480.942Q367.531 480.244 367.543 479.546Q367.556 478.848 367.602 478.152Q367.648 477.455 367.728 476.762Q367.809 476.069 367.922 475.38Q368.036 474.691 368.184 474.009Q368.331 473.327 368.512 472.653Q368.692 471.979 368.906 471.314Q369.119 470.649 369.364 469.996Q369.61 469.343 369.887 468.702Q370.164 468.061 370.472 467.435Q370.78 466.809 371.118 466.198Q371.456 465.587 371.824 464.994C376.215 457.952 382.809 454.168 390.728 452.308ZM392.645 464.655C387.815 466.447 383.886 468.855 381.655 473.703Q381.336 474.392 381.086 475.11Q380.837 475.827 380.66 476.566Q380.482 477.305 380.378 478.057Q380.275 478.809 380.246 479.568Q380.217 480.327 380.263 481.086Q380.309 481.844 380.43 482.594Q380.551 483.344 380.745 484.078Q380.939 484.812 381.205 485.524C382.72 489.571 385.831 492.693 389.79 494.389C392.758 495.66 395.807 495.714 398.972 495.44C403.795 493.54 407.629 491.105 409.832 486.213Q410.137 485.53 410.373 484.82Q410.609 484.11 410.773 483.38Q410.938 482.65 411.029 481.908Q411.12 481.166 411.138 480.418Q411.155 479.67 411.098 478.924Q411.042 478.178 410.911 477.441Q410.781 476.705 410.578 475.985Q410.375 475.264 410.102 474.568Q409.811 473.818 409.446 473.102Q409.08 472.387 408.643 471.712Q408.206 471.037 407.703 470.41Q407.199 469.783 406.634 469.211Q406.069 468.639 405.449 468.128Q404.828 467.617 404.159 467.171Q403.489 466.726 402.778 466.352Q402.066 465.977 401.32 465.677C398.496 464.514 395.654 464.425 392.645 464.655Z"/>
	<path fill="white" transform="matrix(0.426667 0 0 0.427526 3.05176e-05 0)" d="M892.07 452.501C899.782 451.593 906.709 451.911 913.523 456.137Q914.123 456.512 914.704 456.917Q915.285 457.322 915.845 457.755Q916.405 458.188 916.942 458.649Q917.479 459.11 917.993 459.598Q918.506 460.085 918.995 460.597Q919.483 461.11 919.945 461.646Q920.408 462.182 920.842 462.741Q921.277 463.3 921.683 463.879Q922.089 464.459 922.465 465.059Q922.842 465.658 923.188 466.276Q923.534 466.893 923.848 467.528Q924.163 468.162 924.445 468.811Q924.727 469.46 924.976 470.123Q925.226 470.785 925.442 471.459Q925.657 472.133 925.839 472.817Q926.021 473.502 926.168 474.194Q926.32 474.89 926.437 475.593Q926.554 476.296 926.636 477.003Q926.718 477.711 926.764 478.422Q926.811 479.133 926.822 479.846Q926.832 480.558 926.807 481.27Q926.783 481.982 926.722 482.692Q926.662 483.402 926.566 484.108Q926.47 484.814 926.339 485.515Q926.208 486.215 926.042 486.908Q925.876 487.601 925.676 488.284Q925.476 488.968 925.241 489.641Q925.007 490.314 924.74 490.975Q924.472 491.635 924.172 492.281Q923.871 492.927 923.539 493.558Q923.207 494.188 922.844 494.801Q922.48 495.414 922.087 496.008C917.773 502.431 911.135 506.262 903.634 507.695C898.006 508.92 891.55 507.918 886.367 505.512Q885.754 505.225 885.156 504.907Q884.557 504.59 883.976 504.243Q883.394 503.896 882.831 503.521Q882.267 503.145 881.723 502.742Q881.179 502.339 880.656 501.909Q880.132 501.48 879.631 501.024Q879.13 500.569 878.652 500.09Q878.174 499.61 877.72 499.107Q877.267 498.604 876.839 498.079Q876.411 497.554 876.01 497.009Q875.609 496.463 875.236 495.899Q874.862 495.334 874.518 494.751Q874.173 494.168 873.858 493.569Q873.542 492.97 873.257 492.356Q872.972 491.742 872.718 491.114Q872.464 490.486 872.242 489.847Q872.002 489.176 871.795 488.493Q871.588 487.81 871.416 487.118Q871.243 486.427 871.105 485.727Q870.967 485.027 870.864 484.322Q870.76 483.616 870.692 482.906Q870.624 482.196 870.591 481.484Q870.559 480.771 870.561 480.058Q870.564 479.345 870.602 478.633Q870.64 477.921 870.713 477.212Q870.786 476.502 870.895 475.797Q871.003 475.092 871.146 474.394Q871.289 473.695 871.467 473.005Q871.645 472.314 871.856 471.633Q872.068 470.952 872.313 470.282Q872.558 469.613 872.836 468.956Q873.115 468.299 873.425 467.657C877.377 459.586 883.878 455.385 892.07 452.501ZM894.949 464.802C889.998 466.952 886.398 469.497 884.385 474.701Q884.102 475.442 883.895 476.207Q883.687 476.973 883.557 477.755Q883.426 478.537 883.374 479.328Q883.322 480.12 883.348 480.912Q883.375 481.705 883.48 482.491Q883.585 483.277 883.768 484.049Q883.951 484.82 884.21 485.57Q884.468 486.32 884.8 487.04C886.5 490.766 889.379 493.288 893.224 494.637C895.669 495.494 898.131 495.754 900.703 495.41C905.032 494.605 908.815 492.613 911.392 488.942Q911.83 488.309 912.202 487.635Q912.574 486.961 912.876 486.253Q913.179 485.546 913.409 484.811Q913.639 484.077 913.794 483.323Q913.949 482.569 914.028 481.803Q914.106 481.038 914.108 480.268Q914.109 479.498 914.034 478.732Q913.958 477.966 913.806 477.212Q913.653 476.433 913.422 475.673Q913.191 474.913 912.884 474.18Q912.578 473.447 912.2 472.748Q911.822 472.05 911.375 471.393Q910.929 470.736 910.418 470.127Q909.908 469.518 909.339 468.963Q908.771 468.408 908.149 467.914Q907.527 467.419 906.859 466.989C903.031 464.539 899.362 464.319 894.949 464.802Z"/>
	<path fill="white" transform="matrix(0.426667 0 0 0.427526 3.05176e-05 0)" d="M1129.96 69.9979C1130.2 69.9488 1130.43 69.9025 1130.67 69.8634C1144.72 67.5522 1172.96 71.5963 1184.94 80.1763C1190.86 84.4195 1194.87 90.5096 1195.96 97.7586C1197.49 107.837 1196.52 118.999 1196.5 129.225L1196.44 188.006L1196.42 308.659C1196.43 329.414 1196.87 350.273 1196.41 371.012C1196.36 373.293 1196.46 374.487 1195.11 376.353C1173.6 375.888 1151.46 375.49 1129.99 376.529C1132.06 370.687 1130.82 292 1130.82 280.481L1130.81 144.429C1130.81 121.087 1131.19 97.6726 1130.77 74.3374C1130.74 72.7046 1130.67 71.5086 1129.96 69.9979Z"/>
	<path fill="white" transform="matrix(0.426667 0 0 0.427526 3.05176e-05 0)" d="M919.01 69.9971C931.745 67.3494 960.152 71.6635 971.703 78.5881C978.39 82.5974 983.142 88.3674 984.919 96.0251C986.883 104.487 985.666 133.392 985.667 143.469L985.748 253.511C985.754 260.886 986.8 316.284 984.821 319.371L1041.69 319.298C1051.45 319.288 1062.06 318.486 1071.73 319.661C1075.74 320.148 1080.43 321.173 1083.75 323.61C1092.56 330.091 1095.59 341.48 1097.24 351.766C1098.09 357.084 1100.48 371.989 1097.33 376.353C1091.41 375.533 1084.3 376.233 1078.29 376.24L1035.66 376.285L961.526 376.262C947.431 376.258 933.128 375.781 919.06 376.546C921.101 370.912 919.869 288.305 919.87 276.713L919.866 142.755C919.863 119.944 920.262 97.0533 919.817 74.2503C919.786 72.651 919.702 71.4773 919.01 69.9971Z"/>
	<path fill="white" transform="matrix(0.426667 0 0 0.427526 3.05176e-05 0)" d="M180.188 1.96742C192.636 0.290866 214.221 5.1422 227.358 6.84521L307.468 17.192C295.43 35.3256 282.654 52.6602 271.359 71.3374Q266.872 78.727 262.556 86.2171Q258.239 93.7073 254.095 101.294Q249.95 108.881 245.98 116.56Q242.01 124.239 238.217 132.007Q234.423 139.775 230.808 147.628Q227.193 155.48 223.758 163.413Q220.323 171.346 217.07 179.356Q213.817 187.365 210.749 195.447Q207.68 203.528 204.796 211.678Q201.912 219.827 199.216 228.04Q196.519 236.254 194.011 244.526Q191.502 252.799 189.184 261.126Q186.865 269.454 184.737 277.833Q182.609 286.211 180.673 294.636Q178.737 303.061 176.994 311.528Q175.251 319.995 173.702 328.499C156.51 427.257 162.957 529.876 205.396 621.669C214.39 641.123 224.885 660.668 237.227 678.213L236.654 678.504C177.672 615.057 143.247 531.786 129.882 446.834C107.793 306.425 143.385 149.926 227.224 34.7825C216.159 32.736 204.722 31.7229 193.556 30.2816Q167.464 26.7785 141.319 23.6911C142.523 21.7787 143.869 19.8885 145.305 18.1432C154.221 7.30934 166.786 3.33108 180.188 1.96742Z"/>
	<path fill="white" transform="matrix(0.426667 0 0 0.427526 3.05176e-05 0)" d="M371.074 64.0917C381.565 63.1542 392.8 63.5708 403.305 64.1705C441.086 66.3273 481.827 75.1275 508.006 104.638C527.923 127.09 537.27 160.828 535.46 190.453Q535.379 191.764 535.266 193.073Q535.152 194.381 535.007 195.687Q534.861 196.992 534.683 198.293Q534.506 199.595 534.296 200.891Q534.086 202.188 533.844 203.479Q533.603 204.77 533.329 206.055Q533.056 207.34 532.751 208.617Q532.446 209.895 532.109 211.165Q531.773 212.434 531.405 213.695Q531.037 214.956 530.639 216.208Q530.24 217.459 529.811 218.701Q529.381 219.942 528.921 221.173Q528.462 222.403 527.971 223.622Q527.481 224.84 526.961 226.047Q526.441 227.253 525.892 228.446Q525.342 229.639 524.763 230.818Q524.184 231.997 523.577 233.162Q522.969 234.326 522.333 235.475Q521.696 236.625 521.032 237.758Q520.367 238.891 519.675 240.007Q518.983 241.124 518.264 242.223Q517.544 243.322 516.798 244.403Q516.051 245.484 515.278 246.546Q514.506 247.608 513.707 248.651Q512.908 249.694 512.084 250.717Q511.26 251.74 510.41 252.742Q509.561 253.744 508.687 254.725Q507.814 255.706 506.916 256.665Q506.018 257.624 505.098 258.561Q504.177 259.498 503.233 260.412Q502.289 261.325 501.323 262.216Q500.357 263.106 499.369 263.972C471.986 288.052 434.999 297.117 399.168 294.783C393.689 294.607 388.134 293.8 382.677 293.239L382.729 325.942C382.739 333.586 383.459 342.05 381.762 349.522Q381.401 351.179 380.832 352.777Q380.263 354.374 379.494 355.886Q378.725 357.397 377.77 358.798Q376.814 360.199 375.687 361.467C362.013 376.68 333.808 375.674 315.292 376.481L315.327 70.0887C333.695 67.2105 352.539 65.4474 371.074 64.0917ZM382.473 124.892L382.503 238.206C402.963 241.104 435.014 242.984 452.436 229.818C454.558 228.214 456.525 226.358 458.378 224.455C469.912 210.976 474.162 194.525 472.751 176.968C471.499 161.387 465.218 145.422 452.991 135.203Q451.299 133.767 449.463 132.521Q447.627 131.275 445.667 130.234Q443.708 129.192 441.648 128.367Q439.588 127.542 437.451 126.943C422.822 122.857 398.025 124.418 382.473 124.892Z"/>
	<path fill="white" transform="matrix(0.426667 0 0 0.427526 3.05176e-05 0)" d="M57.7829 41.8202C72.4612 40.4601 92.6702 44.3029 107.709 46.0418C131.762 48.8229 155.95 51.2646 179.926 54.6094C132.68 119.988 109.304 200.175 102.136 279.85C89.6928 418.151 126.897 557.892 216.486 665.205Q223.165 673.145 230.265 680.711Q219.213 673.947 208.696 666.379Q198.179 658.812 188.254 650.482C79.8353 560.578 17.7353 428.975 4.78046 289.916Q3.79329 278.255 3.18621 266.569Q2.57914 254.882 2.35281 243.182Q2.12648 231.482 2.28114 219.781Q2.43579 208.08 2.97127 196.39Q3.50674 184.7 4.42246 173.033Q5.33819 161.367 6.6332 149.736Q7.92821 138.106 9.60112 126.524Q11.274 114.942 13.3231 103.42C15.9669 87.956 17.6557 67.3392 28.1953 54.8561C35.9375 45.6861 46.3667 42.8658 57.7829 41.8202Z"/>
	<path fill="white" transform="matrix(0.426667 0 0 0.427526 3.05176e-05 0)" d="M719.806 65.3127Q721.84 65.311 723.874 65.3584Q725.907 65.4057 727.939 65.502Q729.971 65.5984 732 65.7437Q734.028 65.8889 736.053 66.0831Q738.078 66.2772 740.097 66.5201Q742.117 66.763 744.13 67.0545Q746.143 67.346 748.149 67.686Q750.154 68.0259 752.151 68.4141Q754.147 68.8022 756.134 69.2384Q758.121 69.6746 760.097 70.1585Q762.072 70.6425 764.036 71.1739Q765.999 71.7053 767.949 72.2839Q769.899 72.8625 771.834 73.4879Q773.77 74.1133 775.69 74.7852Q777.61 75.4571 779.513 76.175Q781.416 76.893 783.301 77.6566Q785.186 78.4203 787.052 79.2291Q788.919 80.0379 790.765 80.8915Q792.611 81.7451 794.436 82.6429Q796.261 83.5408 798.064 84.4823Q799.867 85.4239 801.647 86.4087Q803.426 87.3934 805.182 88.4208Q806.937 89.4481 808.667 90.5175Q810.397 91.5868 812.101 92.6976Q813.805 93.8083 815.482 94.9598Q817.158 96.1113 818.806 97.3029Q820.455 98.4945 822.074 99.7254Q823.693 100.956 825.282 102.226Q826.87 103.496 828.428 104.803Q829.986 106.111 831.512 107.455Q833.038 108.8 834.531 110.181Q836.024 111.562 837.483 112.979C867.518 142.683 878.682 182.205 878.829 223.536C878.977 264.772 865.984 305.408 836.41 334.993C805.714 365.701 763.388 379.664 720.557 379.605C679.898 379.456 638.378 364.374 608.77 336.198C578.69 307.574 564.35 268.223 563.405 227.201C562.407 183.839 573.999 142.706 604.473 110.864C634.302 79.6962 677.585 66.2034 719.806 65.3127ZM712.398 124.456C686.343 127.958 663.62 139.339 647.445 160.432C630.471 182.565 624.624 211.271 628.336 238.632C632.058 266.066 645.254 290.547 667.489 307.438C682.924 319.163 708.171 326.626 727.523 323.759C727.64 323.742 727.755 323.715 727.872 323.693Q729.035 323.59 730.195 323.458Q731.355 323.327 732.511 323.166Q733.667 323.006 734.819 322.817Q735.971 322.628 737.118 322.41Q738.265 322.192 739.406 321.946Q740.547 321.7 741.682 321.426Q742.816 321.151 743.944 320.849Q745.071 320.546 746.191 320.216Q747.31 319.886 748.421 319.528Q749.532 319.169 750.634 318.784Q751.736 318.398 752.828 317.985Q753.92 317.573 755.001 317.133Q756.082 316.693 757.152 316.226Q758.222 315.76 759.28 315.267Q760.338 314.774 761.384 314.254Q762.429 313.735 763.462 313.19Q764.494 312.645 765.512 312.075Q766.531 311.504 767.535 310.909Q768.538 310.313 769.527 309.693Q770.516 309.073 771.489 308.428Q772.462 307.783 773.419 307.115Q774.376 306.446 775.315 305.754Q776.255 305.062 777.178 304.346Q778.1 303.631 779.004 302.893Q779.908 302.155 780.794 301.394Q781.68 300.634 782.546 299.852Q783.413 299.07 784.259 298.267Q785.106 297.463 785.933 296.639Q786.759 295.815 787.565 294.971Q788.371 294.126 789.155 293.262Q789.94 292.398 790.703 291.514Q791.465 290.631 792.206 289.729C809.361 269.002 816.012 240.144 813.491 213.683C810.944 186.942 798.258 161.213 777.403 144.039C758.997 128.882 736.094 122.204 712.398 124.456Z"/>
</svg>
