<?xml version="1.0" encoding="utf-8" ?>
<svg xmlns="http://www.w3.org/2000/svg" xmlns:xlink="http://www.w3.org/1999/xlink" width="696" height="836">
	<path d="M129.513 126.17C129.625 126.098 129.739 126.028 129.849 125.954C133.273 123.66 135.57 120.041 139.025 117.772C156.026 106.61 179.806 100.494 199.954 104.236C208.909 105.899 216.78 109.086 224.576 113.74C227.894 115.72 231.163 118.158 234.867 119.34C239.055 120.677 243.987 120.779 248.356 121.348C254.331 122.126 260.493 123.195 266.353 124.635C281.718 128.412 295.542 135.39 310.267 140.848C311.504 133.613 312.88 127.75 319.201 123.238C328.67 116.48 340.155 118.548 351.005 118.462C356.049 118.422 361.799 117.755 366.759 118.644C372.994 119.761 377.971 123.594 381.553 128.728C384.403 132.812 385.116 136.91 386.113 141.678C392.464 137.188 398.365 133.992 406.37 135.418C410.019 136.069 413.68 138.069 416.676 140.187C422.256 144.13 438.669 159.867 442.586 165.563C446.245 170.884 447.468 177.006 446.235 183.348C445.357 187.864 443.084 192.054 441.04 196.135C448.687 199.525 454.92 202.6 458.17 210.852C461.094 218.274 461.748 249.562 458.815 256.659C457.349 260.206 452.579 264.096 452.151 267.706C452.02 268.812 452.694 270.3 453.09 271.33C455.08 276.513 457.412 281.576 459.474 286.734L479.053 335.506Q484.034 348.169 489.264 360.732C490.894 364.672 492.344 368.994 494.421 372.699C495.795 371.066 497.138 369.399 498.637 367.879C486.852 347.806 480.268 334.757 486.451 310.987Q486.861 309.356 487.352 307.748Q487.844 306.141 488.415 304.559Q488.986 302.978 489.635 301.427Q490.285 299.876 491.011 298.36Q491.737 296.843 492.538 295.365Q493.34 293.887 494.214 292.451Q495.088 291.014 496.033 289.624Q496.978 288.233 497.991 286.891Q499.004 285.55 500.083 284.26Q501.163 282.971 502.305 281.737Q503.447 280.504 504.65 279.329Q505.853 278.154 507.113 277.04Q508.372 275.927 509.687 274.878Q511.001 273.829 512.365 272.847Q513.73 271.865 515.143 270.953Q516.555 270.041 518.011 269.2C538.471 257.3 561.038 255.994 583.575 262.066C597.102 265.711 624.22 277.55 631.659 289.442C628.907 298.309 624.289 306.229 620.079 314.443C617.299 319.865 614.807 325.432 612.071 330.876C610.098 334.801 607.707 338.647 606.19 342.768C610.176 346.509 614.511 350.155 618.043 354.329C625.616 363.28 631.015 376.609 631.415 388.353C631.904 402.721 629.249 417.972 621.526 430.335C619.743 433.189 617.436 435.52 615.499 438.227C626.461 449.132 631.371 457.186 631.315 473.018C631.286 481.185 626.122 490.888 620.33 496.477C615.851 500.798 607.946 506.213 601.759 507.351C593.049 508.953 583.097 508.087 574.212 508.114L523.303 508.218L421.7 508.221Q409.858 508.18 398.017 508.313C393.17 508.408 388.262 508.792 383.419 508.663C378.064 508.52 373.808 507.204 369.277 504.343C368.423 505.632 367.42 507.544 365.824 507.969C363.655 508.547 330.85 508.539 327.897 507.981C326.065 507.634 324.333 506.645 322.802 505.612Q322.337 505.3 321.879 504.978C316.483 516.366 312.124 529.423 310.294 541.913C309.294 548.738 309.152 555.689 308.045 562.503C307.414 566.387 304.986 570.034 304.609 573.811C304.12 578.701 306.288 583.309 305.332 588.315C304.076 594.892 300.484 599.89 298.328 605.975C297.568 608.122 298.336 610.698 297.989 612.935C297.638 615.19 296.278 617.784 295.477 619.958C293.931 624.15 295.493 631.128 296.949 635.295C298.04 638.421 299.685 641.33 300.767 644.454C303.534 652.444 302.584 661.339 299.059 668.937C296.524 674.402 292.581 680.232 287.405 683.505C285.828 684.502 283.527 685.256 282.32 686.685C280.558 688.771 279.96 692.436 278.976 694.992C276.771 700.723 269.703 705.887 264.099 707.893C259.605 709.502 246.068 710.57 241.819 708.885C241.687 708.832 241.566 708.756 241.44 708.691C236.473 717.246 222.762 724.534 213.475 727.022C200.358 730.536 185.279 726.777 173.824 719.966C168.074 716.546 161.22 710.908 158.304 704.759C156.207 705.403 153.875 704.835 151.718 704.694C145.797 704.307 140.215 704.43 134.823 701.569C127.897 697.894 123.825 691.35 121.593 684.035Q120.956 681.92 120.783 679.719C111.392 672.308 104.297 665.016 102.744 652.518C101.496 642.475 107.298 636.329 109.632 627.638C110.526 624.309 110.144 620.777 110.933 617.441C111.38 615.552 113.275 613.394 113.25 611.576C113.204 608.331 112.239 604.633 111.64 601.44C110.301 594.307 108.214 586.767 105.205 580.141C102.92 575.109 99.5721 570.567 97.0695 565.631C89.3239 550.353 88.5852 533.995 94.7347 518.046C86.1259 506.169 80.9097 496.689 78.7534 482.014C73.5274 478.343 68.0558 474.953 63.1927 470.794C50.729 460.136 39.8905 444.037 37.1198 427.804C36.6062 424.794 36.3058 421.732 35.9635 418.699C27.8547 412.291 22.313 405.495 19.3542 395.371C18.4468 392.266 17.8941 388.574 16.5563 385.652C15.5938 383.549 13.2824 381.845 11.8265 380.057C7.57317 374.836 5.58927 365.784 4.85787 359.26C4.07748 352.299 5.11144 344.706 8.32652 338.429C6.91791 333.891 4.91058 329.609 3.45935 325.102C2.18159 321.135 1.60468 316.751 0 312.933L0 289.229C3.67787 272.978 9.71894 256.079 21.6138 243.937C17.3791 224.954 19.7149 204.976 30.2006 188.315C32.3988 184.822 35.1855 181.904 38.0579 178.969C47.7918 169.024 58.8449 161.501 72.6486 158.459C74.4074 158.072 76.1845 157.797 77.9665 157.542C85.406 143.438 96.6989 133.148 112.132 128.334C117.832 126.556 123.592 126.202 129.513 126.17ZM183.12 118.185C165.609 118.748 149.794 125.881 137.791 138.647Q136.726 139.783 135.686 140.942C132.228 141.297 128.777 141.146 125.322 141.422C113.941 142.329 104.342 146.308 97.0714 155.263C94.1151 158.904 90.9636 167.239 88.3386 169.386C85.2522 171.91 77.1022 172.19 73.0401 173.547C46.5206 182.407 31.3302 203.984 34.4698 232.203C35.0506 237.424 38.8963 246.753 35.4628 251.136C33.0097 254.267 30.0504 257.004 27.5764 260.141C22.5894 266.465 20.1613 273.149 16.9949 280.404C15.8969 282.92 15.8824 286.243 15.4397 288.958C12.9393 304.292 14.4442 314.996 20.1764 329.416C21.0207 331.54 23.0147 333.767 23.3543 335.935C24.713 344.606 16.3397 350.284 20.7241 364.729C22.809 371.598 28.3574 374.873 30.9222 380.876C33.2025 386.212 32.3791 392.081 35.5034 397.317C39.2917 403.667 46.4129 405.633 50.1562 411.242C50.7423 416.627 51.0966 422.224 52.2727 427.516C54.98 439.697 62.5965 452.318 72.3017 460.185Q76.1899 463.289 80.4476 465.863C83.5057 467.709 88.1589 469.18 90.4239 471.958C92.6176 474.648 93.2489 483.756 94.4814 487.599Q95.8479 491.801 97.6918 495.816Q99.5356 499.832 101.832 503.607C103.607 506.463 110.3 512.266 110.593 515.065C110.912 518.104 109.393 521.748 108.521 524.606C105.958 533.011 104.508 541.181 106.321 549.909C107.715 556.618 111.079 562.284 115.129 567.714C116.656 569.762 118.484 571.848 119.534 574.19C121.112 577.708 120.685 581.877 122.138 585.431C123.343 588.376 128.095 593.377 127.515 596.323C127.159 598.127 126.165 600.115 125.536 601.88C127.064 605.731 129.205 609.986 129.433 614.161C126.979 618.055 124.496 621.29 125.587 626.166C125.887 627.511 126.197 628.59 125.772 629.954C122.9 639.162 115.718 642.54 118.556 654.725C119.536 658.931 122.061 662.509 125.76 664.761C129.427 666.993 134.276 667.802 135.468 672.479C136.961 678.341 135.116 683.97 141.169 688.007C148.887 693.155 158.655 687.803 165.884 690.862C168.442 691.945 170.703 697.395 172.652 699.704C181.549 710.243 197.647 715.217 210.979 712.14C217.865 710.551 223.719 707.001 228.294 701.648C230.367 699.223 232.211 696.391 235.261 695.111C242.877 691.915 253.158 695.942 261.645 692.405C268.048 685.882 265.073 681.602 268.412 676.832C270.481 673.877 275.244 672.947 278.263 671.254C283.571 668.278 287.265 661.579 287.183 655.49C287.094 648.944 282.821 644.49 281.173 638.536C280.3 635.383 281.665 632.166 281.298 628.978C280.837 624.979 279.256 621.201 278.854 617.138C283.273 611.027 282.098 606.503 283.913 599.812C286.056 591.913 291.303 590.819 289.618 580.414C288.953 576.308 287.171 570.541 289.804 566.787C294.724 559.772 294.835 545.485 296.338 536.896C297.214 531.89 298.458 526.88 299.889 522.003C303.621 509.282 308.182 500.864 314.797 489.487C316.808 486.029 319.519 479.262 323.877 478.466C326.817 477.93 331.771 478.108 334.238 479.885C335.917 481.096 336.646 482.966 336.907 484.963C337.259 487.666 337.18 490.445 337.166 493.165C343.257 493.152 349.387 493.12 355.455 493.719C356.04 490.7 356.325 486.066 359.069 484.208C360.685 483.115 362.999 483.114 364.818 483.613C370.509 485.178 373.252 491.975 379.222 493.284C384.019 494.335 390.274 493.641 395.229 493.617Q408.2 493.544 421.171 493.614L500.957 493.681C517.064 493.69 533.252 493.997 549.35 493.611C553.911 493.688 558.491 492.668 562.941 492.843C572.407 493.214 593.208 495.383 601.697 492.6C604.937 491.538 607.957 489.251 610.403 486.919C614.69 482.833 617.186 476.081 617.294 470.232C617.413 463.796 614.76 458.036 610.319 453.47C608.681 451.786 606.816 450.19 604.824 448.936C601.616 446.916 595.115 444.961 595.277 440.228C595.424 435.907 604.996 428.473 607.646 424.46C619.45 406.588 621.034 381.3 606.95 364.275C599.882 355.731 590.351 349.178 580.391 344.393C572.188 340.452 559.642 337.018 553.759 329.998C553.533 326.809 553.806 323.767 556.059 321.277C557.042 320.192 558.322 319.691 559.651 319.163C568.755 319.981 578.223 323.507 585.802 328.507C588.629 330.372 591.215 332.611 594.062 334.434C598.405 325.637 602.524 316.727 606.905 307.949C609.14 303.469 612.832 298.26 614.062 293.438C611.359 287.75 595.695 280.453 589.946 278.41C572.554 272.232 549.023 269.657 531.964 277.746C517.949 284.391 507.344 294.486 502.177 309.373C497.731 322.182 497.82 335.033 503.825 347.258C511.949 363.796 526.917 372.521 543.167 379.653C548.064 381.801 553.621 383.635 557.862 386.94C560.924 389.326 562.929 392.762 561.718 396.712C561.419 397.691 560.783 398.814 559.843 399.302C552.675 403.022 543.079 400.623 536.014 397.952C529.099 395.338 522.649 391.083 516.879 386.485C514.888 384.899 512.864 382.765 510.688 381.474C509.889 381 509.247 380.987 508.344 381.059C501.259 384.243 504.546 398.093 489.473 397.392C483.327 388.386 477.205 370.09 473.006 359.481L448.483 298.168C445.987 292.07 443.027 282.423 439.653 277.066C438.971 275.982 438.445 275.502 437.15 275.318C433.199 274.758 429.133 275.603 425.141 275.052C424.654 274.984 424.171 274.92 423.685 274.844C421.753 272.557 420.104 270.536 420.275 267.348C420.368 265.62 421.123 263.922 421.593 262.269L422.048 261.864C430.977 253.961 444.636 262.775 445.642 246.909C446.251 237.29 445.999 226.076 445.423 216.422C443.75 213.474 442.562 211.395 439.082 210.419C433.723 208.915 428.713 210.568 423.274 208.002C422.212 205.752 421.005 203.474 420.234 201.108C423.952 192.228 432.284 186.004 432.41 176.454C431.601 175.161 430.777 173.899 429.737 172.777C426.938 169.76 423.586 167.188 420.608 164.331C417.117 160.979 413.938 157.095 410.133 154.115C408.524 152.854 406.734 151.618 404.708 151.176C400.405 150.237 395.909 153.432 392.564 155.735C388.869 158.281 384.603 162.7 379.777 161.946C378.288 161.714 376.394 161.037 375.487 159.75C374.814 158.797 374.676 157.551 374.364 156.45C373.07 151.889 371.728 140.126 369.819 137.143C368.71 135.409 366.402 134.489 364.489 134.029C358.127 132.502 337.048 133.208 329.633 133.688C322.971 138.684 326.345 153.21 321.027 158.862C320.214 159.726 319.042 160.192 317.981 160.674C311.115 159.653 305.082 155.851 298.834 152.987C289.927 148.904 280.981 144.699 271.586 141.854C263.821 139.503 255.619 137.657 247.598 136.416C241.771 135.514 234.734 135.722 229.25 133.597C226.008 132.341 222.918 129.876 219.857 128.174C208.571 121.895 196.26 117.233 183.12 118.185Z"/>
	<path d="M464.137 452.907C464.981 452.996 465.322 453.075 465.969 453.634C467.56 457.314 467.173 462.816 467.231 466.803C467.286 470.642 467.959 483.607 466.905 486.142C466.784 486.434 466.054 487.02 465.803 487.278C464.672 487.023 463.831 486.797 462.854 486.16C461.123 482.033 461.903 464.45 462.098 459.186C462.194 456.6 462.119 454.767 464.137 452.907Z"/>
	<path d="M507.139 453.167C507.976 453.152 508.818 453.192 509.655 453.209C510.549 453.764 510.918 453.965 511.139 455.034C511.875 458.599 511.854 481.43 511.232 485.252C511.103 486.042 510.738 486.713 510.305 487.372C509.434 487.294 508.622 487.078 507.778 486.861C507.43 486.54 507.071 486.343 506.936 485.878C505.914 482.348 505.57 455.921 507.139 453.167Z"/>
	<path d="M438.578 453.09L440.508 453.222C445.134 456.72 439.401 477.488 443.315 482.029C445.414 484.463 452.776 482.569 455.763 482.865C456.747 482.962 456.82 483.05 457.398 483.779C457.354 484.916 456.999 485.419 456.367 486.305C450.648 487.736 443.907 486.782 438.082 486.226C437.058 480.46 436.498 461.339 437.489 455.716C437.655 454.773 438.112 453.915 438.578 453.09Z"/>
	<path d="M327.382 165.619C327.418 165.523 327.457 165.428 327.491 165.331C327.547 165.169 327.598 165.005 327.652 164.843C330.082 157.622 327.921 148.367 331.529 141.527C331.947 140.735 333.084 140.362 333.899 140.138C338.612 138.842 360.482 138.571 364.267 140.854C365.267 141.457 365.579 142.382 365.864 143.466C367.625 150.168 366.992 157.549 368.937 164.605C373.638 166.765 378.013 167.542 382.323 170.631C388.041 167.071 395.218 159.589 401.324 157.694C395.206 162.651 388.635 167.067 382.44 171.938L379.389 169.821C374.21 166.215 368.926 168.676 367.406 160.926C366.139 154.465 366.507 147.244 364.148 141.072C358.568 140.636 352.91 141.176 347.315 141.171C343.586 141.168 339.715 140.67 336.011 140.892C334.849 140.962 333.939 141.174 332.873 141.633C329.895 145.59 329.736 161.041 328.626 166.609C323.315 167.909 318.712 169.066 314.006 171.991C309.435 169.328 299.427 161.11 295.374 160.124C291.486 162.32 276.736 177.326 274.598 181.237C275.022 187.479 285.986 194.66 285.257 199.532C284.566 204.152 280.705 210.368 278.843 214.901L278.269 215.06C273.412 216.378 262.325 216.221 258.873 218.166C257.261 221.988 257.635 244.159 258.23 248.955C257.998 248.641 257.845 248.343 257.727 247.969C256.648 244.548 256.768 220.829 258.214 218.186C258.763 217.184 259.631 216.53 260.721 216.211C264.916 214.986 272.546 215.765 278.248 214.164C278.393 214.123 278.536 214.078 278.68 214.035C278.859 213.308 279.061 212.59 279.256 211.868C280.323 207.904 282.765 204.759 284.108 200.982C285.748 196.37 276.343 189.161 274.197 184.441C273.53 182.975 273.2 181.241 273.837 179.703C274.381 178.389 289.739 163.025 291.658 161.388C292.381 160.771 293.218 160.209 294.12 159.888C295.232 159.492 296.445 159.595 297.524 160.048C302.093 161.966 308.304 168.167 314.01 170.617L314.495 170.82C318.697 168.319 322.765 167.093 327.382 165.619Z"/>
	<path d="M488.85 452.472C489.004 452.457 489.157 452.437 489.311 452.425C492.49 452.178 496.767 453.764 499.141 455.844Q499.383 456.054 499.601 456.289Q499.82 456.525 500.011 456.782Q500.203 457.039 500.366 457.315Q500.529 457.591 500.661 457.883Q500.794 458.176 500.894 458.48Q500.994 458.785 501.061 459.099Q501.128 459.412 501.161 459.731Q501.194 460.05 501.193 460.371C501.186 461.196 501.118 461.299 500.557 461.829C498.166 462.19 494.751 459.003 492.701 457.82C490.895 456.778 488.678 456.78 486.734 457.42C483.451 458.502 480.303 461.399 478.758 464.465C477.138 467.68 477.102 471.495 478.364 474.834C479.524 477.904 481.711 480.256 484.733 481.547C488.314 483.078 491.499 482.966 495.028 481.444C496.189 480.802 497.624 479.88 498.891 479.518C499.974 479.208 500.434 479.429 501.375 479.958L501.664 481.024C501.498 481.649 501.343 482.185 500.982 482.73C499.306 485.257 496.249 486.481 493.369 486.98C488.568 487.811 483.222 486.995 479.211 484.125C475.53 481.492 473.333 477.563 472.653 473.122C471.941 468.474 472.435 463.262 475.391 459.434C478.754 455.079 483.568 453.208 488.85 452.472Z"/>
	<path d="M397.114 452.673C398.227 452.763 398.869 452.877 399.821 453.477C401.017 455.47 400.62 459.928 400.67 462.376C400.8 468.692 401.397 478.779 396.629 483.457C393.876 486.159 390.001 487.255 386.222 487.279C382.582 487.303 378.576 486.367 375.975 483.668C371.513 479.037 372.814 469.029 372.862 463.004C372.784 460.201 372.406 456.941 373.386 454.277C374.231 453.462 374.494 453.451 375.6 453.196C381.85 455.719 374.801 474.864 381.204 481.176Q381.453 481.424 381.726 481.645Q381.998 481.866 382.293 482.057Q382.587 482.249 382.9 482.409Q383.212 482.569 383.539 482.696Q383.867 482.822 384.206 482.915Q384.544 483.007 384.891 483.064Q385.237 483.121 385.588 483.142Q385.938 483.163 386.289 483.147C387.942 483.075 389.538 482.355 390.895 481.451C400.053 475.348 391.13 458.961 396.844 452.948C396.932 452.855 397.024 452.764 397.114 452.673Z"/>
	<path d="M561.709 453.16C563.382 453.303 564.739 453.4 565.855 454.789C567.645 457.015 578.229 484.411 577.912 486.375C577.822 486.935 577.384 487.027 576.951 487.308C575.783 487.373 574.875 487.166 573.84 486.594C571.474 485.287 571.136 482.33 570.413 479.939C567.778 480.129 565.094 480.072 562.451 480.107C559.797 480.41 557.008 480.254 554.335 480.262C553.772 482.143 553.266 484.79 551.91 486.254C551.292 486.92 550.137 487.21 549.247 487.21C548.189 487.21 547.892 486.82 547.222 486.077C546.93 483.468 553.921 465.898 555.511 462.132C556.792 459.102 558.51 454.452 561.709 453.16ZM561.826 460.675C559.266 465.178 557.892 470.83 556.529 475.807L563.842 475.665L568.481 475.432C567.04 470.748 565.751 463.955 561.826 460.675Z"/>
	<path d="M344.737 453.639C345.296 453.543 345.802 453.463 346.37 453.44C351.614 453.23 362.076 452.984 365.906 457.03C367.805 459.036 368.264 461.574 368.13 464.249C367.928 468.274 366.673 470.443 363.766 473.114C360.169 473.857 356.681 474.517 353.004 474.716Q351.171 474.915 349.334 475.073C349.452 477.162 349.576 479.256 349.615 481.349C349.658 483.696 349.37 486.146 347.685 487.898L347.646 487.53L347.015 488.127C346.631 488.09 346.613 488.122 346.235 487.918C345.262 487.393 344.37 486.181 344.058 485.125C343.081 481.813 343.222 456.653 344.737 453.639ZM350.119 458.539C349.029 461.416 349.777 466.391 349.85 469.519C353.817 469.551 358.102 469.995 361.86 468.544C362.82 466.5 363.622 464.305 362.867 462.037C362.441 460.759 361.457 459.841 360.259 459.272C357.412 457.918 353.176 458.068 350.119 458.539Z"/>
	<path d="M407.862 453.69C412.478 453.002 422.623 453.18 426.9 455C428.834 455.823 430.481 457.248 431.152 459.285C432.515 463.42 429.871 465.554 428.225 468.893C428.18 471.377 429.785 472.985 431.25 474.817C431.36 478.507 431.697 480.863 429.398 483.998C427.874 485.515 426.099 486.329 423.986 486.705C420.923 487.25 410.726 487.476 408.338 485.704C406.842 484.595 406.628 480.85 406.493 479.089C406.115 474.135 405.667 459.628 406.841 455.327C407.023 454.661 407.421 454.202 407.862 453.69ZM411.838 472.267C411.626 475.223 410.913 478.867 412.996 481.343C413.839 482.345 415.226 482.858 416.507 482.948C418.901 483.117 422.145 482.447 424.359 481.521C425.485 480.424 426.977 478.075 426.909 476.413C426.866 475.371 426.47 474.586 425.676 473.935C422.43 471.274 415.709 472.162 411.838 472.267ZM413.271 458.195L412.453 458.529C411.743 460.933 412.13 464.361 412.176 466.89C416.19 467.523 419.85 467.422 423.88 466.957C424.97 465.978 425.581 465.174 425.641 463.66C425.704 462.08 425.347 460.38 424.147 459.268C421.703 457.005 416.298 457.93 413.271 458.195Z"/>
	<path d="M583.831 453.648C590.881 453.486 599.972 453.015 605.409 458.363C609.91 462.789 610.027 468.453 610.097 474.316C608.463 477.965 606.955 480.323 603.972 483.021C599.985 485.541 595.395 486.411 590.755 486.853C588.128 487.103 584.967 487.507 582.807 485.725C581.374 482.141 581.204 460.06 582.057 455.714C582.307 454.443 582.816 454.248 583.831 453.648ZM587.303 457.952C587.14 463.167 585.589 478.143 588.944 481.855C589.811 482.815 590.979 483.21 592.248 483.22C594.735 483.241 599.081 480.936 600.991 479.374C603.413 476.291 604.949 472.142 604.394 468.209C603.957 465.112 602.385 462.46 599.795 460.685C596.247 458.255 591.503 457.645 587.303 457.952Z"/>
	<path d="M520.335 453.271Q521.729 453.195 523.125 453.187C529.756 453.154 537.145 453.651 542.048 458.717C545.291 462.067 546.183 466.629 545.989 471.132C545.753 476.632 543.401 479.906 539.531 483.493C536.175 485.559 533.03 486.465 529.099 486.877C525.884 487.213 521.293 487.771 518.619 485.615C517.055 481.13 517.093 460.333 517.849 454.81C518.702 453.794 519.12 453.721 520.335 453.271ZM523.808 457.947C522.377 461.472 522.768 478.24 524.034 481.915C524.916 482.825 525.479 483.213 526.779 483.242C530.11 483.317 534.052 481.589 536.634 479.603C539.101 476.935 540.999 473.935 540.945 470.166C540.899 466.945 539.632 463.961 537.293 461.738C533.732 458.353 529.135 457.686 524.453 457.914L523.808 457.947Z"/>
	<path d="M233.295 162.942C234.772 162.936 236.287 162.905 237.654 163.553C239.813 164.577 240.456 167.028 241.144 169.112C242.788 168.711 244.477 168.248 246.157 168.036C248.123 167.787 250.206 167.732 251.847 168.962C253.015 171.126 251.438 173.842 250.934 176.051C249.819 180.941 254.18 178.345 256.425 182.311Q256.513 182.465 256.583 182.628Q256.653 182.79 256.705 182.96Q256.757 183.129 256.789 183.304Q256.821 183.478 256.834 183.655Q256.846 183.832 256.839 184.009Q256.832 184.186 256.805 184.361Q256.777 184.536 256.731 184.707Q256.684 184.878 256.619 185.043C255.557 187.767 253.348 188.445 250.852 189.456C250.839 190.673 250.94 191.821 251.063 193.028C251.341 195.744 251.351 198.886 249.555 201.099C247.53 201.43 245.961 199.715 243.996 199.24C242.859 198.965 242.096 199.311 241.114 199.848C240.12 200.898 240.42 202.139 240.127 203.437C239.822 204.788 238.834 205.239 237.792 205.988C230.096 205.548 234.022 202.992 230.28 199.93C228.132 198.173 224.682 200.338 222.188 200.449C220.722 200.513 220.004 200.065 218.99 199.068C217.868 196.452 219.601 194.699 220.335 192.247C221.366 188.801 214.989 187.577 213.754 184.649C213.426 183.872 213.454 183.224 213.88 182.493C215.171 180.272 218.769 179.595 221.027 179.048C220.36 177.256 219.516 175.238 219.289 173.337C219.068 171.492 219.574 170.088 220.684 168.646C223.318 167.043 225.573 168.915 228.32 169.128C230.96 169.333 231.216 164.715 233.295 162.942ZM237.307 176.965C234.367 176.925 231.572 176.539 228.997 178.183C227.547 180.773 227.464 185.309 228.327 188.153C228.703 189.392 229.297 190.006 230.445 190.583C231.517 191.121 232.769 191.482 233.903 191.88C236.287 192.123 238.395 192.607 240.355 190.874C242.283 189.169 243.197 186.712 243.206 184.171C243.213 182.13 242.552 179.781 241.037 178.335C240.211 177.547 238.419 176.927 237.307 176.965Z"/>
	<path d="M397.752 413.709C404.004 413.653 437.219 412.976 441 414.086C444.746 417.684 449.384 433.142 450.159 438.535C450.403 440.232 450.457 441.327 449.311 442.667C446.702 445.719 441.854 445.651 438.202 445.746C430.71 445.944 390.05 447.248 387.004 444.979C386.07 444.284 385.661 442.834 385.479 441.746C384.494 435.846 390.021 420.708 393.509 415.889C394.72 414.217 395.763 414.035 397.752 413.709ZM405.446 428.682C404.084 429.019 403.152 429.49 402.351 430.691C402.281 430.795 402.228 430.91 402.167 431.019C402.599 431.869 402.657 431.984 403.621 432.287C408.491 433.815 424.451 432.737 430.331 432.673C431.657 432.423 431.922 432.488 432.885 431.479C432.964 430.924 433.146 430.754 432.737 430.29C430.771 428.064 409.638 428.793 405.446 428.682Z"/>
	<path d="M270.25 611.543C270.48 611.557 270.714 611.539 270.94 611.584C271.31 611.659 271.601 611.875 271.749 612.202C273.478 616.021 272.905 621.612 271.422 625.406C271.033 625.645 270.641 625.87 270.247 626.101C266.059 628.555 261.04 629.191 256.384 630.352C251.765 631.504 247.251 633.035 242.595 634.05C232.076 636.342 221.313 637.65 210.628 638.89C221.602 640.775 237.593 642.606 248.313 639.881Q255.606 637.968 262.859 635.905C264.94 635.292 267.049 634.352 269.159 633.929C270.091 633.742 270.28 633.58 271.059 634.104C271.938 636.91 271.408 640.435 271.282 643.347C273.077 644.569 275.11 645.596 276.782 646.982C279.243 649.023 280.382 651.814 280.579 654.971C280.777 658.154 279.77 661.386 277.642 663.783C273.745 668.172 266.638 667.43 261.273 667.697C261.077 669.724 260.82 671.772 260.495 673.782C258.723 684.746 248.458 687.703 238.803 686.839C236.726 686.653 231.515 685.21 229.711 686.114C228.676 686.632 227.223 691.653 226.357 692.949C224.684 695.45 222.062 697.674 219.627 699.402C215.928 702.028 209.694 705.766 204.971 704.99C204.426 705.39 204.031 705.595 203.358 705.737C197.06 707.065 189.119 704.633 183.934 701.044C178.236 697.101 174.488 691.375 173.264 684.566C165.249 683.822 152.303 684.094 146.496 677.619C143.038 673.764 142.787 667.539 143.086 662.603C139.138 661.938 134.622 662.044 131.027 660.127C127.004 657.982 125.697 654.007 124.401 649.961C126.227 643.128 128.552 640.661 134.619 637.141C134.945 635.065 135.179 632.839 135.733 630.815C135.967 629.959 136.314 628.751 137.044 628.161C138.8 626.741 146.326 627.563 148.59 627.65C156.595 627.955 164.439 628.524 172.463 628.25C192.817 627.555 254.162 621.204 270.25 611.543Z"/>
	<path d="M183.905 125.096C186.638 124.94 189.398 125.237 192.1 125.629C201.402 126.979 220.316 133.824 226.018 141.819C227.322 143.647 227.971 145.186 227.569 147.421C227.09 148.081 226.964 148.428 226.208 148.793C220.84 151.384 215.333 143.276 211.409 140.635C208.378 138.594 204.512 137.058 201.041 135.936C189.278 132.135 173.849 133.811 162.906 139.437C152.714 144.678 141.699 154.846 137.74 165.843C136.571 169.088 136.442 172.646 135.294 175.876C134.776 177.334 134.085 178.319 132.622 178.922C131.459 179.401 130.166 179.451 129.024 178.886C121.827 175.328 133.873 160.941 132.38 156.283C130.306 155.182 124.252 155.676 122.104 156.388C116.456 158.261 109.792 162.938 106.987 168.329C105.152 171.856 102.714 178.821 104.081 182.749C104.749 184.668 104.705 186.848 105.457 188.71C106.186 190.516 107.592 192.306 108.746 193.866C117.197 205.292 128.397 202.287 131.853 206.814C132.224 208.03 132.354 209.15 132.023 210.403C131.772 211.358 131.145 212.001 130.268 212.426C126.851 214.081 117.941 210.765 114.555 209.254C104.237 204.649 99.4763 197.239 95.6148 187.08C87.414 185.435 76.6062 187.91 69.474 192.147C61.0087 197.176 53.8052 205.806 51.423 215.461C48.8835 225.754 49.5835 236.515 55.1744 245.677C61.2048 244.808 66.8766 242.692 72.8449 241.598C87.6915 238.877 100.907 243.912 114.553 248.831C117.288 242.392 123.645 236.91 129.551 233.426C136.661 229.231 149.389 223.484 157.645 225.879C159.358 226.376 161.127 227.399 161.971 229.036C162.463 229.991 162.569 231.062 162.15 232.062C160.467 236.082 152.468 235.263 148.814 236.02C145.429 236.72 142.01 237.749 138.858 239.178Q137.936 239.596 137.036 240.06Q136.137 240.524 135.261 241.032Q134.386 241.54 133.537 242.092Q132.688 242.643 131.868 243.236Q131.048 243.829 130.259 244.463Q129.469 245.097 128.712 245.769Q127.956 246.441 127.234 247.151Q126.512 247.86 125.826 248.605Q125.14 249.349 124.493 250.127Q123.845 250.905 123.238 251.715Q122.63 252.524 122.063 253.363Q121.497 254.202 120.973 255.068Q120.449 255.934 119.97 256.826Q119.49 257.717 119.056 258.631Q118.621 259.545 118.233 260.48Q117.845 261.415 117.504 262.368C114.06 271.809 114.28 282.662 118.64 291.751C123.856 302.624 133.63 312.264 145.678 314.902C149.016 315.633 152.838 315.044 156.029 316.244C157.328 316.733 158.383 317.54 158.881 318.872C159.272 319.916 159.455 321.334 158.809 322.322C158.015 323.535 156.314 323.825 154.99 323.958C146.004 324.863 131.769 319.071 124.921 313.478C112.567 303.386 105.075 286.436 106.994 270.554C107.548 265.975 109.859 261.11 109.392 256.529C108.952 255.862 108.504 255.667 107.798 255.34C105.04 254.059 101.89 253.243 98.9837 252.349C85.3187 248.148 74.7314 248.105 61.1121 253.309C52.8692 256.458 47.1085 262.06 41.6636 268.755C40.3399 270.383 38.6693 272.015 37.5803 273.801C35.4487 277.295 34.0065 281.447 32.2773 285.167C32.0883 285.574 31.8771 285.959 31.7466 286.391C31.1729 288.289 31.1452 290.579 30.9393 292.557C29.8 303.508 31.1567 313.599 36.1725 323.519C41.9831 335.012 53.1119 344.943 65.3241 349.17C69.9273 350.763 74.8155 351.533 79.4161 353.117C80.8355 353.606 83.4592 354.719 83.9356 356.333C84.2237 357.309 84.0524 358.081 83.4967 358.92C82.7343 360.071 81.1119 360.543 79.8264 360.715C67.3263 362.389 50.3854 353.009 40.876 345.374C39.6771 345.701 37.3712 348.715 36.4267 349.736C35.6198 354.416 35.2898 359.484 37.9381 363.717C43.7965 373.081 54.9324 359.424 61.7848 361.398C63.0273 361.756 64.0052 362.646 64.6043 363.779C65.2118 364.928 65.4386 366.315 64.9625 367.551C63.5966 371.1 58.6055 369.44 55.8311 370.899C55.6763 370.981 55.5278 371.073 55.3749 371.158C53.4027 372.254 51.6731 373.465 50.3675 375.367C48.5724 377.981 48.1364 381.219 48.7068 384.295C49.3728 387.888 51.2633 391.026 54.3042 393.104C55.7841 394.115 57.604 395.271 59.4464 394.921C62.3453 393.314 63.3092 388.796 64.8081 385.944C65.8149 384.029 67.1695 381.986 69.3783 381.387C70.8877 380.978 72.4797 381.204 73.7749 382.091C74.8626 382.836 75.1591 383.633 74.918 384.913C74.3686 387.831 72.295 390.911 71.0281 393.62C67.1296 401.956 65.419 412.647 67.107 421.757C70.0395 437.583 82.3296 451.394 97.9311 455.734C102.65 457.047 108.926 456.824 112.902 459.871C113.951 460.675 114.233 461.372 114.366 462.651C113.342 465.425 110.474 466.597 108.064 467.992C107.827 473.125 108.947 478.166 110.249 483.094C114.499 494.144 120.43 501.98 130.497 508.281C136.424 506.054 143.168 502.763 149.66 503.486C151.574 503.699 154.757 504.709 155.874 506.413C156.198 506.907 156.407 507.533 156.241 508.11C155.092 512.095 143.873 512.687 140.304 513.655Q138.678 514.103 137.146 514.807Q135.613 515.511 134.214 516.452Q133.657 516.82 133.118 517.215Q132.58 517.609 132.061 518.03Q131.543 518.451 131.046 518.898Q130.55 519.344 130.076 519.814Q129.602 520.284 129.151 520.777Q128.701 521.271 128.276 521.786Q127.851 522.3 127.452 522.836Q127.052 523.371 126.68 523.925Q126.308 524.48 125.964 525.052Q125.62 525.624 125.304 526.213Q124.989 526.801 124.703 527.404Q124.417 528.008 124.161 528.625Q123.906 529.241 123.681 529.87Q123.456 530.499 123.263 531.138Q123.069 531.777 122.908 532.425Q122.746 533.073 122.617 533.728C121.026 541.779 121.892 549.186 126.542 556.078C129.886 561.034 133.696 564.386 139.701 565.445C146.145 566.58 160.531 567.64 165.862 563.446C168.542 561.338 170.288 558.078 173.159 556.201Q173.424 556.028 173.706 555.884Q173.987 555.74 174.283 555.627Q174.578 555.515 174.884 555.434Q175.19 555.353 175.503 555.306Q175.816 555.258 176.132 555.244Q176.448 555.23 176.763 555.25Q177.079 555.27 177.391 555.324Q177.703 555.377 178.007 555.464C179.1 555.763 179.4 556.2 179.986 557.122C180.388 560.938 177.482 564.751 175.345 567.674C183.012 568.126 191.171 568.461 198.822 567.853L198.853 567.372C199.021 565.052 199.186 562.044 201.203 560.497C202.319 559.641 204.153 559.489 205.487 559.784C208.996 560.56 206.477 565.605 208.368 567.694C208.863 568.241 209.604 568.516 210.312 568.627C212.664 568.995 215.298 568.894 217.697 569.052C225.64 569.572 233.534 569.824 241.49 569.988C252.796 570.22 264.159 570.819 275.459 571.314C277.029 572.252 278.419 573.178 279.651 574.563C282.272 577.507 283.857 581.629 283.55 585.582C283.042 592.127 278.302 594.148 274.003 597.965C273.713 599.569 273.549 601.634 272.818 603.076C271.417 605.843 264.934 606.908 262.009 607.758C248.209 611.768 232.316 614.63 218.083 616.816C206.086 618.659 145.948 624.757 137.969 619.97C136.89 619.323 136.039 618.388 135.764 617.133C135.281 614.931 136.591 608.013 137.962 606.212C139.39 604.335 146.44 605.075 148.692 605.159C161.484 605.636 174.596 605.975 187.381 605.288C200.661 604.574 214.01 602.76 227.185 600.985C233.9 600.08 240.363 597.948 247.059 597.196C244.549 596.092 241.3 595.915 238.566 595.587C231.85 594.781 224.761 594.234 218.007 594.671C208.461 595.288 199.034 597.143 189.423 597.657C176.596 598.342 163.956 598.015 151.128 597.83C147.397 597.776 143.067 598.406 139.441 597.966C138.388 597.838 138.18 597.684 137.396 596.98C136.576 594.933 136.774 592.403 136.74 590.212C135.27 589.754 133.755 589.341 132.549 588.339C124.848 581.945 129.96 576.293 128.579 571.832C127.869 569.537 123.886 566.81 122.128 565.108C115.893 559.073 113.065 549.619 112.514 541.167C111.862 531.153 116.236 521.22 122.774 513.833C109 504.657 100.664 491.111 99.3188 474.545C99.1274 472.188 99.5873 467.807 98.1515 465.961C96.7912 464.212 86.3364 460.483 83.5259 458.951Q80.9591 457.583 78.5956 455.887Q76.2322 454.192 74.1135 452.199C64.6736 443.276 58.3394 429.515 57.7517 416.556C57.5614 412.359 58.2443 408.26 58.13 404.081C53.454 402.88 48.0987 401.861 44.509 398.377C38.149 392.203 39.5008 382.537 39.4001 374.525C36.3898 373.574 33.9296 372.575 31.6559 370.315C27.8373 366.52 25.9 360.903 25.9556 355.57C26.0245 348.977 29.5116 342.836 34.1329 338.371C31.7799 334.784 28.9253 331.005 27.0951 327.139C17.3001 306.445 19.2688 280.741 34.2713 262.985C35.5929 261.421 47.1073 250.397 47.113 250.307C47.2182 248.656 44.2824 242.878 43.5851 240.991C40.9543 233.872 40.1684 225.719 41.5412 218.249C43.8318 205.785 50.0175 195.032 60.5204 187.812C69.7474 181.469 83.6213 176.463 94.9189 178.602C96.7402 168.374 100.001 159.44 108.882 153.23C117.036 147.527 129.046 147.241 138.479 148.944C139.446 147.766 140.381 146.573 141.324 145.376C151.165 132.874 168.643 126.892 183.905 125.096Z"/>
	<path d="M328.626 166.609C329.736 161.041 329.895 145.59 332.873 141.633C333.939 141.174 334.849 140.962 336.011 140.892C339.715 140.67 343.586 141.168 347.315 141.171C352.91 141.176 358.568 140.636 364.148 141.072C366.507 147.244 366.139 154.465 367.406 160.926C368.926 168.676 374.21 166.215 379.389 169.821L382.44 171.938C388.635 167.067 395.206 162.651 401.324 157.694C403.12 157.371 403.994 157.686 405.477 158.747C409.083 161.326 422.827 174.694 424.606 178.275C422.077 185.745 415.895 190.699 412.467 197.557C413.135 201.403 415.283 212.152 418.586 214.268C423.581 217.466 436.858 212.891 438.905 220.186C439.764 223.248 439.411 245.282 438.955 249.098C437.951 250.679 436.609 251.05 434.832 251.424C430.179 252.404 422.034 251.781 418.268 254.491C417.824 255.187 417.662 255.757 417.453 256.541C415.85 262.561 410.216 266.547 413.443 272.183C414.796 274.548 418.818 280.727 421.557 281.335C424.854 282.067 434.561 279.582 436.442 282.342C438.57 285.464 443.278 299.13 445.139 303.678L475.654 379.01C479.022 387.38 482.27 395.777 485.735 404.112C486.568 406.115 487.725 408.002 488.525 409.973C489.404 412.143 489.807 414.614 490.828 416.708C491.222 417.516 491.538 418.03 492.332 418.511C496.802 416.598 506.799 392.15 510.61 390.895C513.402 392.539 515.715 395.093 518.484 396.903C529.655 404.203 545.142 411.132 558.617 407.573C563.371 406.317 566.429 404.112 568.9 399.807C570.361 397.261 570.88 395.177 570.12 392.234C568.455 385.786 562.16 381.203 556.666 378.191C537.421 367.638 514.416 362.695 507.326 338.785C504.221 328.314 505.568 315.908 510.861 306.35C517.361 294.609 527.49 285.789 540.556 282.137C560.632 276.525 584.827 281.829 602.72 291.921C603.709 292.479 604.64 293.157 605.505 293.891C603.676 299.269 594.157 319.699 590.956 323.79C587.229 322.367 584.069 319.639 580.428 318.039C571.819 314.255 558.087 311.343 549.177 315.301C546.266 316.594 544.043 318.74 542.857 321.714C541.823 324.31 541.499 327.899 542.668 330.511C549.768 346.382 595.159 346.892 607.862 379.382C611.767 389.37 610.808 400.94 607.186 410.858C602.939 422.488 593.706 431.493 582.522 436.573C561.713 446.026 537.783 443.358 516.974 435.388C508.567 432.168 500.449 428.598 493.676 422.551C495.195 427.691 497.304 432.681 498.73 437.819C485.854 437.942 472.88 438.656 460.014 438.053C455 428.939 453.776 415.795 448.154 407.189L415.171 407.323C407.168 407.342 398.217 406.718 390.365 408.208C388.891 410.601 387.653 412.984 386.615 415.599C385.231 419.088 379.872 436.719 377.847 438.103C377.594 438.276 377.256 438.271 376.957 438.339C373.976 439.021 343.514 438.744 341.055 438.099C340.502 437.608 340.22 437.5 340.19 436.705C340.016 432.157 348.749 414.345 350.887 409.127L376.383 345.185C381.443 332.784 387.695 319.327 392.155 306.785C392.583 305.582 392.518 304.411 392.076 303.239C390.724 301.868 385.003 296.72 383.199 296.87C380.429 297.102 370.963 301.846 368.479 303.537C365.911 307.105 366.253 322.366 364.569 325.316C363.753 326.745 362.654 327.202 361.076 327.466C353.17 328.787 343.211 327.111 334.945 327.777C335.555 351.745 335.379 375.765 335.386 399.742L335.326 426.397C335.291 430.523 335.476 434.859 335.095 438.963C334.989 440.102 334.849 440.866 334.217 441.825C329.361 443.22 319.554 442.115 314.145 442.131C307.076 442.151 299.92 442.56 292.862 442.246C293.462 419.937 292.871 397.46 292.863 375.134C292.856 353.737 293.497 332.199 292.376 310.832C290.754 309.166 288.954 307.672 287.37 305.986C284.504 302.934 281.802 299.521 278.562 296.871C277.541 297.118 277.237 297.472 276.699 298.382C273.559 303.688 265.04 324.212 262.124 326.622C258.927 326.968 253.24 322.583 250.269 321.134C239.921 316.09 224.524 311.264 215.076 320.37C214.104 323.659 213.779 326.357 215.567 329.5C219.948 337.204 233.308 340.471 241.037 343.986C257.926 351.668 276.149 363.946 281.442 382.705C283.382 389.581 284.079 396.988 282.246 404.006C278.364 418.869 272.229 428.47 258.546 436.138C238.323 447.472 213.112 446.452 191.424 440.177C183.368 437.846 176.353 433.782 168.915 430.082C168.763 437.852 166.927 446.204 163.826 453.299C162.502 456.328 160.39 459.447 159.632 462.654C164.186 464.308 168.425 466.015 173.265 466.564C185.817 467.987 202.904 467.475 215.761 467.443L289.881 467.429L320.51 467.387C324.545 467.382 328.703 466.92 332.724 467.192C334.292 467.298 335.514 467.418 336.612 468.597C336.635 469.972 336.779 470.559 336.09 471.775C331.568 473.702 195.49 472.688 179.465 472.617C178.485 472.613 177.589 472.259 177.09 473.163C178.67 477.949 183.236 485.311 180.599 490.398C180.187 491.192 179.514 491.749 178.652 491.989C177.355 492.351 175.582 492.318 174.429 491.55C168.667 487.718 175.607 475.692 160.488 472.401C157.952 471.849 155.378 471.232 152.777 471.624C149.56 472.11 147.147 474.051 145.309 476.638C143.092 479.756 141.366 490.084 138.586 490.736C137.467 490.999 136.089 490.604 135.14 489.988C134.044 489.278 133.461 488.146 133.284 486.873C132.482 481.107 136.67 473.917 140.159 469.64C142.422 466.865 145.239 465.083 147.618 462.501C156.292 453.084 159.897 441.217 158.714 428.552C157.721 417.928 153.2 408.931 144.894 402.186C136.544 395.406 123.991 390.349 113.106 391.507C106.76 392.183 100.347 394.236 95.0078 397.791C92.5564 399.423 88.4754 403.758 85.6834 404.291C84.5703 404.503 83.6824 404.06 82.7832 403.489C81.9408 402.206 81.3419 400.976 81.7156 399.403C82.6392 395.517 90.4725 390.471 93.8593 388.609C106.648 381.578 116.501 382.441 130.097 385.587C133.483 386.37 137.01 387.524 140.482 387.76C143.546 380.062 146.915 374.333 154.838 370.89Q155.624 370.557 156.426 370.263Q157.228 369.969 158.043 369.714Q158.859 369.46 159.685 369.246Q160.512 369.031 161.348 368.858Q162.185 368.684 163.028 368.552Q163.872 368.419 164.721 368.328Q165.571 368.237 166.423 368.188Q167.276 368.139 168.13 368.131Q168.984 368.124 169.837 368.158Q170.691 368.193 171.541 368.269Q172.392 368.345 173.238 368.462Q174.084 368.58 174.923 368.739Q175.762 368.898 176.593 369.098Q177.423 369.297 178.242 369.538Q179.062 369.778 179.869 370.058Q180.676 370.338 181.468 370.657C187.671 373.169 192.779 377.676 195.386 383.908C196.776 387.228 197.54 391.351 196.085 394.769C195.563 395.996 194.738 397.14 193.996 398.242C203.938 403.179 217.278 408.404 228.451 404.695C231.615 403.645 234.425 401.387 235.824 398.318C236.193 397.509 236.446 396.614 236.708 395.766C235.521 389.546 233.553 386.903 228.373 383.382C221.706 378.85 214.175 376.149 206.959 372.68C190.966 364.994 175.97 353.068 172.43 334.717C170.299 323.671 173.087 310.639 179.455 301.395C182.233 297.362 185.395 293.913 189.127 290.749C191.711 288.558 199.39 285.394 200.179 282.492C199.266 282.031 198.763 282.245 197.783 282.572C194.4 283.698 192.032 285.167 188.38 283.461C185.402 282.069 182.538 279.134 181.587 275.965C180.709 273.042 181.753 270.63 183.197 268.128L184.878 265.28C183.267 264.263 180.277 262.06 178.317 262.491C176.282 264.612 175.141 267.65 173.627 270.156C170.782 274.865 165.123 278.232 159.595 278.389C154.952 278.521 150.499 276.402 147.202 273.201C142.793 268.921 140.567 262.265 140.509 256.216C140.483 253.422 140.62 251.116 142.722 249.041C143.384 248.387 143.702 248.289 144.613 248.279C150.508 253.475 145.056 269.305 161.73 270.314C171.719 264.142 169.384 255.607 175.858 247.745C177.865 245.309 182.596 244.76 184.095 242.525C184.007 239.942 182.618 237.369 181.611 235.014C182.745 230.392 185.534 227.273 189.202 224.368L192.17 223.786C194.819 224.721 199.392 227.164 202.081 225.914C202.706 225.026 202.894 224.61 203.002 223.53C202.57 222.64 202.497 222.599 201.524 222.247C195.022 219.898 189.668 219.618 186.141 212.691C184.742 209.941 184.128 207.012 183.435 204.024C176.231 203.52 168.906 202.551 163.77 196.878C159.808 192.502 156.371 184.986 156.819 178.975C156.925 177.549 157.389 176.114 158.492 175.147C159.532 174.235 160.606 173.984 161.948 174C163.253 174.527 163.806 175.246 164.349 176.546C167.112 183.153 166.889 190.014 174.617 193.312C177.935 194.728 182.586 194.917 185.9 193.43C194.411 189.612 193.92 182.641 197.995 176.603C198.678 175.592 199.87 175.084 201.054 175.366C202.28 175.659 203.311 177.145 203.781 178.217C204.969 180.927 204.826 185.203 203.661 187.932C202.623 190.367 200.849 193.434 199.04 195.349C197.046 197.46 192.35 199.841 191.406 202.465C190.768 204.236 191.54 206.908 192.186 208.636C193.117 211.13 194.83 213.133 197.286 214.217C203.825 217.102 216.879 211.752 220.714 220.249C221.711 222.458 221.892 224.979 222.717 227.249C226.078 226.05 228.827 224.343 231.877 222.546C235.549 223.471 239.709 225.894 241.654 229.226C242.91 231.378 243.263 233.848 242.482 236.229C241.722 238.545 240.228 240.849 239.032 242.973C242.978 245.268 247.281 243.527 248.859 249.363C249.677 252.389 249.429 257.901 247.848 260.65C246.15 263.604 241.772 263.802 238.85 264.92C240.207 267.976 242.978 272.667 241.689 276.017C241.46 276.614 241.176 277.198 240.879 277.763C246.123 278.765 251.161 279.878 256.193 281.707C261.314 283.568 266.289 286.02 271.581 287.369C276.678 281.637 280.644 274.906 285.074 268.661C282.698 263.346 280.382 258.275 279.039 252.582C273.299 251.149 262.294 251.961 258.23 248.955C257.635 244.159 257.261 221.988 258.873 218.166C262.325 216.221 273.412 216.378 278.269 215.06L278.843 214.901C280.705 210.368 284.566 204.152 285.257 199.532C285.986 194.66 275.022 187.479 274.598 181.237C276.736 177.326 291.486 162.32 295.374 160.124C299.427 161.11 309.435 169.328 314.006 171.991C318.712 169.066 323.315 167.909 328.626 166.609ZM210.76 221.072C209.344 225.302 210.077 229.786 205.912 231.836C201.549 233.984 191.533 230.714 190.547 233.461C188.966 237.865 194.452 246.016 188.465 248.878C186.428 249.852 182.99 249.765 182.149 252.262C181.886 253.041 181.902 253.973 181.873 254.79C184.262 258.127 192.896 258.138 191.869 264.301C191.268 267.905 188.667 272.078 189.823 275.705C190.588 276.466 190.661 276.638 191.802 276.629C198.546 276.58 197.765 273.589 207 276.161C207.922 278.201 209.805 283.362 208.748 285.439C207.436 288.016 201.036 290.148 198.549 291.732Q197.92 292.134 197.306 292.558Q196.692 292.983 196.094 293.429Q195.496 293.875 194.913 294.342Q194.331 294.809 193.766 295.297Q193.202 295.784 192.654 296.292Q192.107 296.799 191.579 297.326Q191.05 297.853 190.54 298.398Q190.031 298.944 189.541 299.507Q189.052 300.07 188.583 300.651Q188.114 301.231 187.665 301.828Q187.217 302.425 186.791 303.037Q186.364 303.65 185.96 304.277Q185.556 304.904 185.174 305.546Q184.793 306.187 184.435 306.842Q184.076 307.496 183.741 308.163Q183.407 308.83 183.096 309.509Q182.786 310.188 182.499 310.877Q182.213 311.566 181.952 312.265Q181.691 312.964 181.455 313.672Q181.218 314.38 181.008 315.096Q180.797 315.812 180.612 316.535Q180.427 317.258 180.269 317.987Q180.11 318.717 179.977 319.451Q179.844 320.185 179.738 320.924Q179.632 321.663 179.552 322.405Q179.472 323.147 179.419 323.891Q179.365 324.636 179.339 325.382Q179.312 326.127 179.312 326.874Q179.313 327.62 179.339 328.366Q179.366 329.112 179.42 329.856Q179.473 330.6 179.553 331.342Q179.633 332.084 179.74 332.823C181.355 344.009 189.367 352.384 198.097 358.84C209.51 367.28 230.474 373.488 239.49 382.379C242.08 384.933 243.976 388.321 244.462 391.954C245.05 396.355 243.38 400.498 240.685 403.895C236.959 408.589 231.334 410.152 225.596 410.762C214.929 411.895 201.728 408.825 192.439 403.36C189.069 401.378 185.771 398.436 182.166 396.99C180.734 396.416 180.011 397.457 179.183 398.496C174.442 404.444 170.493 413.669 166.709 420.497C180.57 430.812 195.367 436.072 212.509 437.692C216.679 438.086 221.148 438.574 225.326 438.177C239.202 438.291 254.332 434.162 264.473 424.239C272.505 416.378 276.199 405.02 276.26 393.951C276.318 383.236 272.3 374.823 264.739 367.341C258.705 361.37 251.497 356.673 243.926 352.885C233.204 347.519 207.371 341.292 207.122 327.084C207.061 323.635 208.526 317.274 210.989 314.796C215.838 309.918 223.084 309.386 229.564 309.664C239.854 310.105 249.5 313.712 258.626 318.241C260.579 316.153 270.862 297.624 270.893 295.229C269.079 293.307 265.776 292.411 263.331 291.43C252.983 287.275 242.385 283.336 231.073 283.079C227.628 283.001 217.969 284.768 215.572 282.469C214.855 281.782 214.898 281.506 214.775 280.563C215.474 278.798 217.136 277.057 218.912 276.319C220.962 275.468 223.253 275.053 225.416 274.595C228.045 275.698 230.576 277.197 233.475 276.42C234.255 275.64 234.562 275.243 234.556 274.094C234.529 268.935 231.413 263.753 235.408 259.048C237.521 256.559 242.62 257.986 242.553 254.118C242.533 252.939 242.132 251.646 241.917 250.481L236.935 249.961C235.985 249.113 235.051 248.235 234.052 247.446C233.574 246.073 233.01 244.639 232.993 243.169C232.967 241.034 235.96 232.996 235.083 231.873C234.834 231.554 234.431 231.393 234.105 231.152C228.903 230.304 221.093 236.377 217.189 230.358C215.75 228.141 216.114 221.644 212.924 221.093C212.25 220.976 211.446 221.053 210.76 221.072ZM347.363 196.524C337.19 196.863 327.243 200.655 320.269 208.209C312.914 216.173 310.015 225.95 310.55 236.651Q310.602 237.533 310.697 238.412Q310.791 239.29 310.928 240.164Q311.065 241.037 311.244 241.902Q311.423 242.767 311.644 243.623Q311.864 244.479 312.126 245.323Q312.387 246.167 312.689 246.998Q312.991 247.828 313.333 248.643Q313.675 249.458 314.055 250.256Q314.436 251.054 314.855 251.832Q315.273 252.61 315.729 253.367Q316.185 254.124 316.677 254.859Q317.168 255.593 317.695 256.303Q318.222 257.012 318.782 257.696Q319.342 258.379 319.935 259.035Q320.528 259.69 321.151 260.316Q321.775 260.943 322.428 261.538C329.664 268.088 339.136 272.899 349.045 272.326Q349.487 272.3 349.928 272.27C360.902 271.084 371.786 266.044 378.751 257.295C384.45 250.134 387.401 239.564 386.272 230.483C384.925 219.654 379.574 209.79 370.9 203.15C364.318 198.111 355.554 196.093 347.363 196.524ZM312.789 297.453C308.803 300.429 303.33 303.622 300.536 307.802C300.411 307.988 300.282 308.171 300.16 308.358C300.086 308.47 300.018 308.586 299.948 308.7C299.656 337.68 299.987 366.685 300.062 395.667C300.096 408.92 300.802 422.542 300.019 435.754Q309.342 436.013 318.669 435.966C322.053 435.896 325.466 435.914 328.842 435.686L328.723 346.091C328.72 339.737 328.622 333.365 328.758 327.014C328.937 318.709 329.346 310.668 328.332 302.373C326.495 301.915 312.816 297.451 312.789 297.453ZM419.11 331.231C416.663 337.918 414.303 344.69 411.71 351.316C408.67 359.081 405.359 366.745 402.914 374.728C408.18 374.811 413.456 374.96 418.723 374.887L436.41 374.835C433.248 368.086 430.571 361.029 427.963 354.048C426.268 349.509 421.399 334.082 419.11 331.231ZM163.157 377.004C159.424 377.69 156.346 379.414 154.143 382.574C151.757 385.997 151.077 390.217 149.699 394.072C151.962 397.088 154.626 399.757 156.932 402.746C159.294 405.807 161.275 409.37 163.976 412.128Q166.64 407.676 169.152 403.136C170.284 398.485 175.813 392.237 177.844 386.927C177.975 386.962 178.107 386.993 178.238 387.032C180.785 387.787 183.603 390.725 185.908 391.036C186.454 390.405 186.754 390.05 186.644 389.17C186.162 385.289 183.825 381.843 180.561 379.784C175.754 376.75 168.676 375.76 163.157 377.004Z"/>
	<path d="M213.216 236.948C217.376 237.364 220.968 238.095 224.14 241.043C227.888 244.526 229.405 249.802 229.573 254.789C229.71 258.862 228.152 262.399 225.409 265.326Q224.768 266.016 224.063 266.639Q223.357 267.263 222.594 267.814Q221.83 268.364 221.015 268.837Q220.201 269.309 219.344 269.699Q218.487 270.089 217.596 270.392Q216.704 270.696 215.787 270.909Q214.87 271.123 213.937 271.245Q213.003 271.368 212.062 271.397C207.941 271.24 204.11 270.002 200.975 267.253C197.22 263.959 194.872 258.577 194.569 253.63C194.321 249.58 195.601 245.272 198.367 242.253C202.331 237.925 207.7 237.3 213.216 236.948ZM209.038 243.841C206.059 244.641 204.281 245.184 202.628 248.027C201.052 250.736 200.898 254.33 201.836 257.274C202.79 260.267 205.062 262.723 207.869 264.092C209.783 265.025 211.864 265.31 213.979 265.169C217.519 263.738 220.362 261.824 221.918 258.141C223.111 255.316 223.162 251.898 221.88 249.094C220.797 246.723 218.815 245.054 216.374 244.195C214.116 243.4 211.385 243.58 209.038 243.841Z"/>
</svg>
