<?xml version="1.0" encoding="utf-8" ?>
<svg xmlns="http://www.w3.org/2000/svg" xmlns:xlink="http://www.w3.org/1999/xlink" width="512" height="512">
	<path fill="#ADADAD" d="M159.958 144.3C162.986 144.063 166.1 144.139 169.14 144.063C173.165 143.963 177.185 143.752 181.21 143.661C184.547 143.586 188.509 143.92 191.743 143.028C194.173 142.357 196.543 141.215 198.866 140.238Q204.715 137.782 210.538 135.262C212.753 134.309 215.1 133.098 217.472 132.62C222.825 131.539 241.376 137.232 248.502 137.274C251.282 137.29 254.217 136.587 256.949 136.103Q263.961 134.856 270.96 133.535C273.403 133.081 275.936 132.446 278.431 132.505C284.873 132.655 298.735 141.658 306.134 143.155C309.236 143.783 312.62 143.546 315.774 143.613C320.259 143.707 324.748 143.929 329.233 144.064C332.09 144.149 335.548 143.911 338.216 144.991C340.133 145.767 341.79 147.339 343.372 148.644C347.05 151.677 354.436 158.685 358.41 160.211C360.804 161.13 363.531 161.564 366.028 162.147L379.129 165.23C381.442 165.779 384.561 166.188 386.579 167.482C390.64 170.087 394.527 182.424 398.797 186.191C400.725 187.892 403.412 189.005 405.704 190.149C411.314 192.951 417.557 195.468 422.773 198.927C424.39 205.44 423.213 212.401 424.611 218.967C429.524 225.079 436.826 230.23 442.029 236.267C440.489 241.881 437.787 247.594 435.646 253.031C435.401 252.692 435.204 252.427 435.113 252.002C434.958 251.277 435.066 250.321 435.014 249.561C434.868 247.422 434.568 245.344 434.005 243.273C433.281 240.605 431.908 238.015 430.309 235.77C426.478 230.392 419.954 226.581 413.464 225.523C405.409 224.209 397.783 226.117 391.226 230.864C389.996 228.829 388.349 227.237 386.701 225.55C386.395 223.438 386.496 221.228 386.48 219.097C386.206 215.949 385.494 213.133 384.334 210.197L382.914 207.49C380.502 203.497 377.036 200.705 373.235 198.11C372.269 197.763 371.3 197.164 370.378 196.701C367.058 195.253 363.334 194.396 359.749 193.957C350.496 192.824 339.811 194.622 332.345 200.467C331.656 199.547 330.899 198.594 330.07 197.795C328.908 196.674 327.494 195.792 325.878 195.546C321.529 194.885 314.467 195.362 309.919 195.368C300.3 195.38 290.61 195.136 281 195.425C277.233 195.538 275.221 197.041 272.716 199.688C267.975 196.269 262.354 194.379 256.581 193.688C247.384 192.587 236.888 194.534 229.514 200.39C229.464 200.31 229.413 200.231 229.364 200.151C228.966 199.501 228.587 198.84 228.081 198.267C226.875 196.901 225.347 195.986 223.56 195.622C219.391 194.773 214.354 195.437 210.057 195.394C194.849 195.24 179.553 195.832 164.361 195.255C166.323 193.338 168.229 191.354 168.921 188.603Q169.025 188.181 169.086 187.75Q169.147 187.32 169.164 186.885Q169.182 186.451 169.157 186.017Q169.131 185.583 169.063 185.153Q168.995 184.724 168.884 184.304Q168.773 183.883 168.621 183.476Q168.469 183.068 168.277 182.678Q168.085 182.288 167.855 181.919C166.232 179.327 163.582 178.21 160.733 177.527C155.374 177.922 149.843 177.689 144.467 177.69C140.024 177.692 135.334 177.975 130.917 177.547L129.892 177.617C129.039 177.801 128.176 177.965 127.336 178.199C124.883 179.326 122.95 181.077 121.969 183.64C120.995 186.183 121.321 188.719 122.489 191.127C122.627 191.411 122.78 191.677 122.942 191.949L123.13 192.133C124.468 193.425 128.009 195.265 128.056 197.226C128.064 197.58 128.052 197.933 128.039 198.286C128.191 202.394 128.148 206.497 128.113 210.607C128.121 211.771 127.986 213.146 128.284 214.27C128.163 214.64 128.172 215.063 127.78 215.217C126.362 215.77 123.875 215.464 122.347 215.458C116.942 215.437 104.659 214.775 99.7919 215.769C98.8039 215.971 97.8675 216.399 96.9963 216.899C96.3825 217.485 95.7806 218.131 95.1258 218.668C93.4635 220.841 92.788 223.144 93.1808 225.887C93.4328 227.647 94.1003 229.081 95.2029 230.462C96.4098 231.432 97.7344 232.712 99.2017 233.264C99.3303 233.717 99.5121 234.188 99.5354 234.658C99.9495 239.216 99.6894 243.965 99.6643 248.541C99.8798 251.991 100.614 255.051 101.883 258.26C102.431 259.26 102.993 260.255 103.512 261.271C104.625 262.758 105.759 264.187 106.996 265.573C103.958 265.773 101.104 266.475 99.0573 268.931C98.1273 270.047 97.5035 271.362 97.131 272.761L96.9678 275.316C97.4103 278.404 98.4008 280.225 100.944 282.12L103.528 284.023C103.557 285.411 103.652 286.83 103.561 288.215C103.569 292.381 103.511 296.558 103.595 300.722C103.61 301.564 103.645 302.404 103.566 303.243L103.574 321.979C103.574 324.956 104.029 329.025 103.322 331.865C101.795 330.031 101.054 327.533 99.3103 325.883C97.8319 324.485 95.5868 323.547 93.7851 322.61Q88.3399 319.754 82.8651 316.955C80.3448 315.677 77.1513 314.458 74.9762 312.658C73.5923 311.512 73.5136 295.723 73.2442 293.211L73.2061 292.88C71.6009 290.744 69.3274 288.875 67.4083 287.008Q61.4569 281.295 55.635 275.451C56.3527 273.24 57.4469 271.06 58.3673 268.923Q61.2442 262.218 64.2755 255.581L64.1033 255.279C61.5935 250.971 57.2458 240.981 55.707 236.308C61.0773 230.201 67.8076 225.192 73.0883 219.048C73.7786 212.301 73.5528 205.492 74.5864 198.768C79.9508 195.763 85.6567 193.181 91.1607 190.426C93.5235 189.243 96.2401 188.157 98.3482 186.569C99.1362 185.975 99.7481 185.212 100.327 184.421C104.152 179.205 106.693 172.96 110.351 167.574C112.674 166.188 115.978 165.828 118.6 165.238C123.9 164.045 135.461 161.792 139.778 159.893C142.174 158.838 144.313 156.772 146.328 155.136C150.785 151.517 155.193 147.502 159.958 144.3Z"/>
	<path fill="#AAA" d="M127.336 178.199C127.258 178.046 127.315 178.147 127.156 177.931C126.727 177.349 126.333 176.871 126.495 176.102C126.579 175.701 126.724 175.722 127.044 175.519C128.575 175.773 129.007 176.398 129.892 177.617C129.039 177.801 128.176 177.965 127.336 178.199Z"/>
	<path fill="#AAA" d="M372.974 175.432C373.331 175.443 373.751 175.491 374.086 175.614C374.694 175.838 374.783 175.983 374.967 176.543C374.543 178.131 373.034 178.968 371.76 179.838C371.104 179.809 370.572 179.392 370.024 179.062C369.755 178.48 369.797 178.424 369.925 177.787C370.698 176.635 371.802 176.098 372.974 175.432Z"/>
	<path fill="#AAA" d="M212.848 146.588L213.991 146.801C214.987 147.516 215.667 148.771 216.089 149.908C216.474 150.945 216.903 151.998 216.429 153.016C215.291 152.646 214.332 152.168 213.292 151.59C212.928 150.834 212.498 150.032 212.319 149.209C212.089 148.155 212.293 147.483 212.848 146.588Z"/>
	<path fill="#AAA" d="M310.507 150.871C310.769 150.921 311.226 150.971 311.478 151.095C311.82 151.265 312.106 151.447 312.228 151.819C312.866 153.768 309.398 158.491 308.384 160.198C307.347 159.544 306.714 158.693 305.978 157.74C307.411 155.415 308.744 152.964 310.507 150.871Z"/>
	<path fill="#AAA" d="M95.1258 218.668C92.6723 218.507 87.7797 217.609 85.7805 216.245C85.2201 215.862 85.0368 215.62 84.8972 214.968C85.3023 214.458 85.5947 214.271 86.2461 214.137C88.6404 213.642 94.9168 215.478 96.9963 216.899C96.3825 217.485 95.7806 218.131 95.1258 218.668Z"/>
	<path fill="#24221C" d="M337.654 161.953L338.239 161.895C339.013 162.18 339.599 162.588 339.94 163.36C340.2 163.95 340.202 164.536 339.921 165.119C339.148 166.72 334.904 168.024 333.327 168.755C333.169 168.819 333.019 168.906 332.854 168.947C332.331 169.077 331.69 168.851 331.331 168.452C330.872 167.942 330.939 167.716 330.99 167.085C332.295 164.801 335.451 163.285 337.654 161.953Z"/>
	<path fill="#AAA" d="M103.595 300.722C103.61 301.564 103.645 302.404 103.566 303.243C100.317 304.047 94.8159 306.7 91.7666 306.63C90.9921 306.613 90.4327 306.48 89.8799 305.9C89.8503 305.285 89.9 305.183 90.3502 304.698C91.9953 302.927 101.062 300.75 103.595 300.722Z"/>
	<path fill="#AAA" d="M238.049 144.423C238.469 144.563 238.774 144.726 239.154 144.944C239.984 146.311 241.66 159.307 241.427 160.846L240.89 161.019L238.081 159.777C237.546 157.53 236.227 147.391 236.8 145.52C237.033 144.757 237.392 144.738 238.049 144.423Z"/>
	<path fill="#AAA" d="M130.917 177.547C136.98 177.031 143.396 177.443 149.492 177.451C151.351 177.453 153.882 177.741 155.654 177.279C154.679 174.915 145.336 169.66 144.919 166.299C145.155 165.81 145.003 165.89 145.457 165.71C146.13 165.445 146.542 165.478 147.18 165.824C150.994 167.889 157.205 174.494 160.733 177.527C155.374 177.922 149.843 177.689 144.467 177.69C140.024 177.692 135.334 177.975 130.917 177.547Z"/>
	<path fill="#AAA" d="M128.039 198.286C124.868 196.983 111.416 191.006 109.673 188.813C109.328 188.378 109.344 188.295 109.415 187.78C112.345 185.224 119.71 192.725 122.942 191.949L123.13 192.133C124.468 193.425 128.009 195.265 128.056 197.226C128.064 197.58 128.052 197.933 128.039 198.286Z"/>
	<path fill="#AAA" d="M99.2017 233.264C99.0343 233.311 98.8686 233.347 98.7204 233.449C98.5983 233.533 98.5003 233.648 98.3876 233.745C97.8343 234.22 97.6216 234.241 96.898 234.188C94.3227 234 78.4625 231.762 77.5081 230.645C77.3262 229.919 77.3396 229.619 77.5934 228.915C79.626 227.394 92.5089 231.614 94.8995 230.605C95.0026 230.562 95.1018 230.51 95.2029 230.462C96.4098 231.432 97.7344 232.712 99.2017 233.264Z"/>
	<path fill="#AAA" d="M370.378 196.701C370.66 196.318 370.857 196.039 371.253 195.763C373.362 194.294 387.375 187.846 389.982 187.128C390.661 187.264 390.901 187.369 391.373 187.879C391.452 188.206 391.597 188.401 391.406 188.711C390.345 190.433 376.349 197.115 373.922 197.658C373.601 197.73 373.447 197.87 373.235 198.11C372.269 197.763 371.3 197.164 370.378 196.701Z"/>
	<path fill="#AAA" d="M286.563 146.686C287.407 146.726 287.973 146.744 288.576 147.369C289.472 149.903 283.17 164.22 281.817 167.195C280.911 166.965 280.053 166.569 279.542 165.764C279.948 163.201 285.2 148.807 286.563 146.686Z"/>
	<path fill="#AAA" d="M96.9678 275.316C92.0268 275.606 87.0647 276.327 82.1439 276.879C80.2933 277.086 78.1987 277.541 76.3615 277.471C75.5996 277.441 75.1331 277.134 74.6359 276.594C74.5276 276.087 74.4521 275.87 74.7916 275.408C75.1466 274.926 75.7566 274.7 76.3196 274.578C78.3427 274.142 80.5834 274.071 82.6503 273.822Q89.1333 273.003 95.6309 272.309C96.0545 272.5 96.4187 272.691 96.8847 272.748C96.9663 272.758 97.0489 272.756 97.131 272.761L96.9678 275.316Z"/>
	<path fill="#AAA" d="M382.914 207.49C384.696 206.019 401.923 199.993 404.077 200.141C404.741 200.186 404.962 200.295 405.378 200.798C405.185 201.616 404.841 201.953 404.129 202.401C400.784 204.502 392.489 206.973 388.491 208.441C387.274 208.888 385.307 209.374 384.334 210.197L382.914 207.49Z"/>
	<path fill="#AAA" d="M103.528 284.023C103.557 285.411 103.652 286.83 103.561 288.215C98.7124 289.019 93.8456 290.263 89.0221 291.247C87.0758 291.645 85.0015 292.227 83.017 292.293C82.0591 292.325 81.2138 292.259 80.5065 291.56C80.482 291.155 80.384 291.035 80.6628 290.692C82.0498 288.987 99.4411 285.769 102.547 285.55C102.643 285.543 102.739 285.539 102.834 285.533C103.44 285.107 103.371 284.729 103.528 284.023Z"/>
	<path fill="#AAA" d="M262.135 144.383C263.035 144.564 263.559 144.711 264.132 145.453C264.353 149.024 263.719 152.897 263.389 156.459C263.084 159.756 262.964 163.216 262.324 166.463C261.696 167.219 261.254 167.293 260.349 167.639C259.775 167.717 259.486 167.774 258.965 167.495C258.869 167.251 258.833 167.195 258.799 166.897C258.553 164.697 260.775 148.395 261.45 145.827C261.602 145.248 261.796 144.869 262.135 144.383Z"/>
	<path fill="#AAA" d="M99.5354 234.658C99.9495 239.216 99.6894 243.965 99.6643 248.541C99.5836 248.424 99.538 248.272 99.4223 248.189C99.0743 247.94 77.6337 247.122 74.8693 246.528C74.0959 246.362 73.4436 246.174 72.9962 245.483C73.0688 244.788 73.0981 244.731 73.5452 244.192C75.8168 243.267 96.6322 244.834 99.4421 245.58C99.4312 241.953 99.3058 238.277 99.5354 234.658Z"/>
	<path fill="#AAA" d="M101.883 258.26C102.431 259.26 102.993 260.255 103.512 261.271C102.946 261.465 102.438 261.551 101.84 261.601C96.2389 262.072 90.3721 261.711 84.7444 261.743C81.2983 261.762 77.737 262.196 74.3098 261.972C73.5391 261.921 72.8584 261.91 72.2438 261.393C72.1603 260.73 72.1205 260.413 72.389 259.776C75.3828 258.208 96.1353 259.189 101.566 258.316C101.672 258.299 101.777 258.279 101.883 258.26Z"/>
	<path fill="#AAA" d="M386.48 219.097L386.901 220.492L387.244 220.668C390.679 219.441 412.678 213.541 415.11 213.939C415.578 214.255 415.907 214.379 415.969 215.005C415.998 215.298 415.95 215.704 415.727 215.916C414.852 216.744 390.238 223.46 388.483 223.428C388.285 223.424 387.993 223.342 387.822 223.316C387.547 223.275 387.269 223.255 386.992 223.223C386.782 223.979 386.761 224.77 386.701 225.55C386.395 223.438 386.496 221.228 386.48 219.097Z"/>
	<path fill="#AAA" d="M128.284 214.27C123.723 213.195 117.799 210.448 113.272 208.762C108.576 207.014 102.256 205.108 97.8577 203.048C97.0203 202.656 96.318 202.299 95.7287 201.576C95.6834 200.966 95.6686 200.878 95.9548 200.345C96.8629 199.88 97.5965 199.988 98.5505 200.216C101.449 200.909 104.404 202.268 107.226 203.276C114.168 205.756 121.095 208.349 128.113 210.607C128.121 211.771 127.986 213.146 128.284 214.27Z"/>
	<path fill="#24221C" d="M314.544 172.322C313.579 171.47 312.684 170.821 312.641 169.436C312.595 167.952 313.376 166.628 314.437 165.648C315.217 164.926 316.822 163.934 317.948 164.139C318.594 164.257 318.99 164.451 319.303 165.054C319.784 165.983 319.242 167.632 318.787 168.497C318.268 169.486 317.653 170.443 317.073 171.398C319.149 171.926 321.899 172.304 323.564 173.682C324.135 174.708 323.819 175.779 323.512 176.842C322.677 179.736 319.974 183.673 320.293 186.63C320.604 187.118 320.719 187.345 321.362 187.413C322.436 187.527 323.444 186.779 324.11 186.022C325.274 184.699 326.159 182.933 326.902 181.345C327.484 180.099 330.26 171.945 331.523 171.919C332.328 171.903 333.308 172.358 333.783 173.005C334.468 173.939 334.292 175.252 334.021 176.298C333.319 179.005 330.388 183.692 330.726 186.227C331.116 186.724 331.229 186.89 331.929 186.883C333.044 186.873 334.034 186.042 334.691 185.219C337.736 181.404 339.899 172.152 345.707 171.384C347.454 171.153 348.881 171.722 350.309 172.664C350.764 171.493 351.315 169.251 352.491 168.647C352.837 168.47 353.173 168.506 353.538 168.628C354.178 168.843 355.388 169.778 355.569 170.466C356.408 173.669 349.213 183.328 351.062 186.384C351.709 186.726 352.205 186.858 352.926 186.615C356.482 185.419 357.59 177.863 361.137 178.025C361.744 178.38 362.053 178.631 362.21 179.376C362.521 180.859 361.809 182.363 360.957 183.533C358.34 187.127 354.28 189.341 350.025 190.309C347.734 189.636 346.886 188.974 345.607 186.968C344.395 188.553 342.5 190.978 340.37 191.193C339.121 191.319 338.298 190.802 337.402 190.008C336.63 189.324 336.222 187.85 335.367 187.553L335.173 187.592C334.651 188.296 334.231 188.776 333.499 189.263C333.319 189.46 333.095 189.637 332.881 189.798C331.985 190.47 330.755 190.957 329.624 190.738C327.635 190.352 326.632 188.774 325.644 187.194C324.648 188.497 323.422 190.048 321.973 190.858C320.673 191.585 319.073 191.579 317.682 191.102C316.748 190.782 315.996 190.139 315.618 189.217C313.954 185.167 318.003 178.795 319.715 175.098C318.653 174.294 317.465 173.715 316.287 173.104C313.343 178.902 309.152 188.474 302.478 190.574C300.832 191.092 298.953 191.257 297.394 190.387C296.035 189.629 295.091 188.184 294.697 186.703C293.807 183.352 295.417 179.158 297.134 176.274C298.499 173.979 300.747 171.331 303.435 170.705Q303.702 170.643 303.975 170.608Q304.247 170.574 304.522 170.567Q304.796 170.56 305.07 170.582Q305.344 170.603 305.614 170.652Q305.884 170.701 306.147 170.778Q306.411 170.854 306.666 170.957Q306.92 171.06 307.163 171.188Q307.406 171.317 307.634 171.469C308.594 172.117 309.306 173.101 309.447 174.269C309.567 175.255 309.138 176.48 308.519 177.245C308.442 177.341 308.36 177.431 308.28 177.524C306.824 180.276 303.613 181.905 300.806 182.953C300.04 183.283 299.822 183.315 299.337 184.022C299.189 184.928 299.22 185.619 299.815 186.385C300.358 187.084 301.227 187.561 302.116 187.591C303.8 187.648 305.477 185.939 306.542 184.776C309.856 181.157 312.027 176.495 314.544 172.322Z"/>
	<path fill="#ADADAD" d="M300.013 181.175C300.015 181.088 300.008 181 300.018 180.913C300.239 178.807 302.611 174.465 304.33 173.259C304.846 172.898 305.147 172.876 305.752 172.945C306.366 173.401 306.455 173.713 306.697 174.406C306.202 176.713 304.992 178.242 303.041 179.561C302.103 180.195 301.075 180.783 300.013 181.175Z"/>
	<path fill="#ADADAD" d="M347.415 173.417C348.056 173.527 348.333 173.624 348.824 174.054C349.047 174.658 348.967 175.088 348.805 175.691C347.967 178.799 344.871 185.217 342.133 186.835C341.339 186.738 341.167 186.748 340.55 186.259C340.137 185.412 340.163 184.824 340.38 183.928C341.228 180.42 344.344 175.323 347.415 173.417Z"/>
	<path fill="#24221C" d="M186.79 156.538C184.309 156.79 174.868 159.045 173.248 157.401C172.81 156.955 172.679 156.399 172.77 155.796C172.986 154.379 174.584 153.015 175.735 152.332C178.25 150.839 184.419 150.923 187.243 151.728C188.119 151.977 189.07 152.457 189.477 153.32C190.773 156.064 186.09 167.52 184.802 170.778C183.69 173.412 182.336 176.115 181.621 178.884C183.094 176.975 184.96 174.702 185.884 172.45C188.528 168.595 195.708 156.662 198.365 154.331C198.753 154.29 199.098 154.266 199.479 154.378C200.581 154.701 202.026 155.586 202.552 156.647C202.939 157.428 202.904 158.31 202.727 159.142C202.258 161.338 201.149 163.586 200.346 165.7C198.805 169.762 197.262 173.84 195.891 177.962L196.125 178.262C198.471 177.252 207.732 159.862 211.384 156.49C211.456 156.423 211.532 156.358 211.606 156.292C213.694 157.229 214.918 158.173 216.23 160.063C215.425 163.666 213.835 167.233 212.541 170.689C210.121 177.156 207.595 183.609 205.378 190.147C214.644 185.296 212.485 177.283 219.084 171.831C220.246 170.871 221.626 170.256 223.158 170.495C224.69 170.734 226.425 171.845 227.305 173.114C227.851 173.903 227.962 174.728 227.715 175.649C226.665 179.576 220.988 182.049 217.762 183.696C217.482 184.168 217.363 184.321 217.418 184.894C217.495 185.69 218.119 186.722 218.778 187.177C219.436 187.63 220.254 187.696 221.018 187.512C225.18 186.509 230.455 176.166 232.704 172.356C232.611 172.269 232.517 172.182 232.425 172.094C231.394 171.109 230.689 170.254 230.714 168.767C230.733 167.649 231.301 166.731 232.116 166C233.159 165.065 234.733 164.347 236.161 164.497C236.967 164.581 237.348 164.901 237.813 165.528C238.036 167.37 236.124 169.839 235.197 171.424C237.25 171.89 240.275 172.314 241.84 173.774C242.795 176.236 239.701 181.392 238.897 183.864C238.535 184.979 238.313 185.806 238.86 186.887C239.08 186.99 239.266 187.096 239.519 187.121C240.864 187.259 242.092 186.109 243.007 185.307C244.151 180.906 245.895 176.353 249.456 173.32C250.959 172.039 252.704 171.065 254.741 171.253C257.019 171.462 258.488 172.999 259.843 174.662C259.106 176.801 257.726 179.12 255.589 180.1C254.902 180.415 254.441 180.397 253.746 180.145C252.321 178.087 254.812 176.107 254.782 174.147C254.776 173.753 254.729 173.844 254.395 173.568C252.882 174.07 250.929 176.699 250.231 178.115C249.19 180.229 247.618 183.73 248.459 186.056C248.725 186.792 249.27 187.36 249.989 187.662C251.191 188.169 252.606 187.924 253.763 187.412C257.098 185.937 258.033 183.238 259.291 180.157C260.572 177.021 263.67 172.939 266.885 171.685C268.815 170.932 270.061 171.499 271.862 172.241C272.905 171.604 272.812 170.022 273.803 169.187C274.222 169.144 274.412 169.065 274.814 169.242C280.852 171.897 271.34 181.689 272.818 185.767C273.317 186.143 273.552 186.315 274.23 186.21C276.768 185.819 278.447 179.798 279.735 177.75C281.135 175.522 283.536 172.344 286.237 171.809C288.19 171.421 289.519 172.114 291.082 173.193C291.955 170.858 296.132 160.037 297.818 159.246C298.238 159.326 298.559 159.434 298.919 159.67C299.501 160.053 300.457 160.72 300.543 161.475C300.789 163.619 292.638 179.197 291.385 183.271C290.641 185.689 291.237 190.468 290.422 191.614C290.073 191.743 289.838 191.904 289.457 191.83C287.635 191.477 286.394 190.264 285.442 188.774C284.497 189.669 283.602 190.599 282.379 191.109C281.347 191.539 280.251 191.705 279.205 191.23C277.62 190.512 277.155 189.059 276.651 187.533C276.149 187.965 275.637 188.406 275.101 188.796C274.03 189.576 272.513 190.088 271.186 189.81C269.346 189.424 268.542 188.121 267.604 186.656C266.545 188.277 265.464 189.751 263.65 190.6C262.623 191.081 261.464 191.227 260.399 190.781C258.776 190.101 258.294 188.846 257.658 187.339Q256.768 188.336 255.728 189.174C253.705 190.805 250.965 191.757 248.36 191.408C246.12 191.107 244.775 190.05 243.438 188.317C242.512 189.169 241.57 190.101 240.423 190.648C238.94 191.354 237.113 191.608 235.559 190.979C234.634 190.604 233.969 189.95 233.622 189.008C232.148 185.009 236.158 178.649 237.835 174.989L234.345 173.067C231.592 178.569 228.174 186.219 222.862 189.595C221.183 190.662 219.092 191.322 217.108 190.847C214.824 190.3 213.681 188.757 212.492 186.901C210.665 189.173 208.306 191.602 205.758 193.054C204.716 193.648 203.052 194.266 201.85 193.831C201.157 193.579 200.699 193.173 200.394 192.504C200.132 191.928 200.053 191.336 200.154 190.711C200.644 187.667 202.285 184.455 203.433 181.589L208.976 167.808C209.776 165.869 211.639 162.503 211.458 160.443C210.988 160.447 211.048 160.475 210.724 160.799C208.444 163.087 206.404 166.903 204.812 169.749C203.118 172.196 192.3 190.408 190.8 190.645C190.1 190.756 189.142 190.335 188.635 189.858C187.822 189.091 187.567 187.896 187.62 186.817C187.862 181.892 199.512 160.253 198.462 157.959C196.993 158.51 183.565 181.243 181.794 184.136C180.535 186.192 178.991 189.692 177.192 191.183C176.599 191.674 175.85 191.901 175.116 191.549C174.188 191.105 173.53 190.021 173.311 189.046C173.119 188.187 173.242 187.505 173.56 186.699C174.611 184.038 176.448 181.49 177.881 178.998C179.401 176.352 180.687 173.566 181.89 170.763C183.877 166.136 185.379 161.366 186.79 156.538Z"/>
	<path fill="#ADADAD" d="M223.387 172.654C223.776 172.879 224.116 173.073 224.38 173.454C224.786 174.038 224.799 174.687 224.661 175.355C224.178 177.703 221.129 179.685 219.148 180.761L218.498 180.86L218.21 180.563C218.855 177.626 220.907 174.322 223.387 172.654Z"/>
	<path fill="#ADADAD" d="M288.107 173.917C288.722 173.916 288.981 174.061 289.497 174.385C289.716 174.922 289.798 175.117 289.694 175.709C289.244 178.275 286.329 183.81 284.734 185.844C284.267 186.439 283.633 186.868 283.01 187.284C282.22 187.221 282.048 187.228 281.409 186.778C281.074 186.178 280.972 185.747 281.061 185.07C281.567 181.221 285.029 176.185 288.107 173.917Z"/>
	<path fill="#ADADAD" d="M269.161 173.449C269.945 173.501 270.26 173.547 270.778 174.114C270.844 174.51 270.874 174.861 270.795 175.259C270.172 178.41 266.735 185.108 264.131 186.829C263.378 186.766 263.161 186.772 262.541 186.361C262.1 185.59 262.068 185.061 262.236 184.216C262.951 180.622 266.169 175.515 269.161 173.449Z"/>
	<path fill="#242424" d="M160.733 177.527C163.582 178.21 166.232 179.327 167.855 181.919Q168.085 182.288 168.277 182.678Q168.469 183.068 168.621 183.476Q168.773 183.883 168.884 184.304Q168.995 184.724 169.063 185.153Q169.131 185.583 169.157 186.017Q169.182 186.451 169.164 186.885Q169.147 187.32 169.086 187.75Q169.025 188.181 168.921 188.603C168.229 191.354 166.323 193.338 164.361 195.255C179.553 195.832 194.849 195.24 210.057 195.394C214.354 195.437 219.391 194.773 223.56 195.622C225.347 195.986 226.875 196.901 228.081 198.267C228.587 198.84 228.966 199.501 229.364 200.151C229.413 200.231 229.464 200.31 229.514 200.39C236.888 194.534 247.384 192.587 256.581 193.688C262.354 194.379 267.975 196.269 272.716 199.688C275.221 197.041 277.233 195.538 281 195.425C290.61 195.136 300.3 195.38 309.919 195.368C314.467 195.362 321.529 194.885 325.878 195.546C327.494 195.792 328.908 196.674 330.07 197.795C330.899 198.594 331.656 199.547 332.345 200.467C339.811 194.622 350.496 192.824 359.749 193.957C363.334 194.396 367.058 195.253 370.378 196.701C371.3 197.164 372.269 197.763 373.235 198.11C377.036 200.705 380.502 203.497 382.914 207.49L384.334 210.197C385.494 213.133 386.206 215.949 386.48 219.097C386.496 221.228 386.395 223.438 386.701 225.55C388.349 227.237 389.996 228.829 391.226 230.864C397.783 226.117 405.409 224.209 413.464 225.523C419.954 226.581 426.478 230.392 430.309 235.77C431.908 238.015 433.281 240.605 434.005 243.273C434.568 245.344 434.868 247.422 435.014 249.561C435.066 250.321 434.958 251.277 435.113 252.002C435.204 252.427 435.401 252.692 435.646 253.031C435.487 253.708 435.283 254.049 435.541 254.719C436.582 255.07 438.109 254.818 439.204 254.78C443.934 254.613 451.362 254.031 453.857 259.22C455.57 262.781 455.782 274.146 454.238 277.888C453.256 280.267 450.834 281.796 448.521 282.65C447.692 282.956 446.841 283.211 445.996 283.47L444.49 288.376C448.071 292.266 456.8 299.013 456.533 304.46C456.418 306.825 455.282 309.285 453.519 310.875C452.763 311.556 451.89 312.098 450.908 312.379C446.713 313.578 436.076 313.234 431.533 312.866C429.178 312.675 427.471 312.396 425.489 311.027Q422.73 312.334 420.001 313.704C415.817 316.231 411.473 318.459 407.128 320.693C404.53 322.029 401.5 323.274 399.194 325.066C398.398 325.686 397.807 326.471 397.271 327.317C393.861 332.69 391.246 339.014 387.339 344.007C385.035 345.179 382.389 345.618 379.888 346.202L366.712 349.273C363.882 349.934 360.8 350.423 358.14 351.615C354.049 353.447 346.373 360.487 342.566 363.66C341.005 364.961 339.45 366.486 337.663 367.47C329.802 367.831 321.925 367.8 314.058 368.114C311.4 368.22 308.238 368.011 305.693 368.709C300.748 370.065 292.332 374.154 287.313 376.38C285.062 377.379 282.154 379.118 279.697 379.386C276.833 379.699 273.461 378.707 270.66 378.149Q263.789 376.767 256.879 375.595C254.124 375.114 251.306 374.418 248.498 374.451C245.402 374.487 242.093 375.384 239.053 375.952L225.789 378.344C223.355 378.793 220.408 379.69 217.953 379.32C215.554 378.958 213.188 377.71 210.991 376.73C206.328 374.649 195.93 369.435 191.623 368.588C188.485 367.971 185.064 368.264 181.876 368.173C177.784 368.055 173.711 367.768 169.614 367.758C166.667 367.752 163.124 368.126 160.291 367.316C157.756 366.59 153.569 362.513 151.486 360.628C151.229 360.395 150.997 360.149 150.76 359.897C149.569 359.879 148.295 360.158 147.103 360.277C139.517 361.03 129.937 360.525 122.154 360.541C117.02 360.552 110.058 361.106 105.118 360.438C103.266 360.187 101.637 359.612 100.208 358.38Q99.8707 358.088 99.5648 357.763Q99.2588 357.438 98.9874 357.084Q98.716 356.73 98.482 356.35Q98.2479 355.97 98.0536 355.568Q97.8593 355.167 97.7068 354.747Q97.5543 354.328 97.4451 353.895Q97.3359 353.463 97.2711 353.021Q97.2064 352.58 97.1868 352.134C97.0704 349.843 98.076 346.401 100.082 345.071C100.938 344.504 102.085 344.16 102.754 343.357C104.698 341.024 103.704 334.788 103.322 331.865C104.029 329.025 103.574 324.956 103.574 321.979L103.566 303.243C103.645 302.404 103.61 301.564 103.595 300.722C103.511 296.558 103.569 292.381 103.561 288.215C103.652 286.83 103.557 285.411 103.528 284.023L100.944 282.12C98.4008 280.225 97.4103 278.404 96.9678 275.316L97.131 272.761C97.5035 271.362 98.1273 270.047 99.0573 268.931C101.104 266.475 103.958 265.773 106.996 265.573C105.759 264.187 104.625 262.758 103.512 261.271C102.993 260.255 102.431 259.26 101.883 258.26C100.614 255.051 99.8798 251.991 99.6643 248.541C99.6894 243.965 99.9495 239.216 99.5354 234.658C99.5121 234.188 99.3303 233.717 99.2017 233.264C97.7344 232.712 96.4098 231.432 95.2029 230.462C94.1003 229.081 93.4328 227.647 93.1808 225.887C92.788 223.144 93.4635 220.841 95.1258 218.668C95.7806 218.131 96.3825 217.485 96.9963 216.899C97.8675 216.399 98.8039 215.971 99.7919 215.769C104.659 214.775 116.942 215.437 122.347 215.458C123.875 215.464 126.362 215.77 127.78 215.217C128.172 215.063 128.163 214.64 128.284 214.27C127.986 213.146 128.121 211.771 128.113 210.607C128.148 206.497 128.191 202.394 128.039 198.286C128.052 197.933 128.064 197.58 128.056 197.226C128.009 195.265 124.468 193.425 123.13 192.133L122.942 191.949C122.78 191.677 122.627 191.411 122.489 191.127C121.321 188.719 120.995 186.183 121.969 183.64C122.95 181.077 124.883 179.326 127.336 178.199C128.176 177.965 129.039 177.801 129.892 177.617L130.917 177.547C135.334 177.975 140.024 177.692 144.467 177.69C149.843 177.689 155.374 177.922 160.733 177.527Z"/>
	<path fill="#B0B0B0" d="M105.63 276.25C105.012 275.734 104.713 275.439 104.544 274.661L104.899 274.165C105.947 273.695 106.8 273.717 107.924 273.728L108.051 274.164L108.214 274.758C107.225 274.963 106.882 275.2 106.14 275.842C105.975 275.984 105.8 276.115 105.63 276.25Z"/>
	<path fill="#AAA" d="M149.992 260.329C152.277 258.533 154.075 256.557 155.863 254.27Q155.662 254.911 155.403 255.532Q155.144 256.152 154.829 256.746Q154.515 257.34 154.147 257.903Q153.78 258.466 153.363 258.993Q152.946 259.52 152.482 260.007Q152.019 260.494 151.513 260.936Q151.007 261.379 150.462 261.773Q149.918 262.168 149.34 262.511C149.376 261.838 149.852 261.058 149.992 260.329Z"/>
	<path fill="#ADADAD" d="M326.298 303.064C326.63 303.331 326.977 303.584 327.275 303.889C327.649 305.821 331.438 307.572 330.095 309.465C329.984 309.623 329.718 309.846 329.568 309.979C328.645 307.759 326.278 306.768 325.422 304.611C325.549 303.791 325.756 303.666 326.298 303.064Z"/>
	<path fill="#ADADAD" d="M384.574 290.952C385.145 290.949 384.926 290.886 385.45 291.144C385.574 291.205 385.695 291.273 385.818 291.338L386.335 290.795C386.997 292.874 388.09 294.519 389.346 296.274L388.302 296.541C388.128 296.931 387.994 297.301 387.881 297.713C386.251 295.844 385.285 293.291 384.574 290.952Z"/>
	<path fill="#ADADAD" d="M388.83 256.939C388.038 253.482 388.408 249.634 389.773 246.377C389.967 249.411 390.208 252.452 390.331 255.489L389.812 256.352C389.644 256.363 389.474 256.366 389.306 256.386C389.213 256.397 389.121 256.425 389.029 256.444L388.83 256.939Z"/>
	<path fill="#ADADAD" d="M274.557 280.787C273.834 278.61 270.967 276.515 270.897 274.408C271.334 273.708 271.58 273.766 272.35 273.533C273.235 274.676 274.157 275.807 274.995 276.984C275.086 278.243 275.338 279.699 274.557 280.787Z"/>
	<path fill="#B0B0B0" d="M105.334 228.894C103.979 227.541 101.836 226.477 100.829 224.86C100.54 224.394 100.552 224.296 100.657 223.791C101.708 223.126 103.018 223.326 104.181 223.51L104.185 224.161C104.339 224.869 104.744 224.904 105.066 225.47C105.083 225.613 105.098 225.756 105.118 225.899C105.208 226.524 105.501 226.996 105.823 227.526C105.817 228.126 105.65 228.393 105.334 228.894Z"/>
	<path fill="#ADADAD" d="M221.746 286.247C222.108 290.154 221.827 294.016 222.103 297.902C221.665 298.867 221.249 299.631 220.54 300.422C221.527 295.712 219.902 292.149 221.746 286.247Z"/>
	<path fill="#B0B0B0" d="M384.718 279.53C384.534 282.785 385.255 287.729 386.335 290.795L385.818 291.338C385.695 291.273 385.574 291.205 385.45 291.144C384.926 290.886 385.145 290.949 384.574 290.952C382.865 287.533 383.638 282.997 384.718 279.53Z"/>
	<path fill="#8C8C8C" d="M329.893 299.313C331.03 294.61 329.498 289.763 331.475 285.159C331.771 286.14 331.977 286.992 331.998 288.019C331.984 288.11 331.97 288.202 331.957 288.294C331.5 291.666 332.483 296.682 329.893 299.313Z"/>
	<path fill="#ADADAD" d="M220.859 320.429L221.149 319.942C221.521 320.508 221.854 321.087 222.184 321.677L222.87 321.814C223.805 324.501 224.921 326.362 226.819 328.48C226.375 328.916 226.469 328.992 225.807 329.018C224.939 328.338 224.719 327.278 223.815 326.579L223.685 326.884C223.96 327.434 224.145 327.725 224.64 328.094C224.581 328.48 224.521 328.814 224.405 329.189C222.52 326.344 221.493 323.784 220.859 320.429Z"/>
	<path fill="#AAA" d="M367.725 262.567C371.934 260.722 374.703 257.987 377.617 254.481C376.328 258.64 372.77 261.903 368.985 263.876Q367.528 264.654 365.961 265.178L365.554 264.895C366.373 264.064 368.075 263.766 369.135 263.207L369.06 262.725L367.725 262.567Z"/>
	<path fill="#ADADAD" d="M326.436 232.784L327.71 233.532C328.9 234.817 329.948 236.029 330.786 237.581C330.714 238.761 330.537 239.208 329.629 240.019C328.75 237.703 325.735 235.857 325.391 234.021C325.639 233.356 325.896 233.225 326.436 232.784Z"/>
	<path fill="#ADADAD" d="M220.424 312.252C219.471 309.38 216.188 307.1 215.924 305.523C216.212 304.839 216.493 304.7 217.071 304.253C218.579 305.519 219.918 306.7 220.881 308.459C221.068 309.943 221.379 310.944 220.424 312.252Z"/>
	<path fill="#8C8C8C" d="M331.647 214.289C331.764 215.407 331.914 216.532 331.969 217.654C331.877 218.626 331.769 219.589 331.798 220.566C331.728 223.361 331.866 226.834 329.979 229.117C330.803 224.007 329.699 219.292 331.647 214.289Z"/>
	<path fill="#ADADAD" d="M108.214 274.758C110.238 276.554 111.421 278.27 112.371 280.803L112.11 282.193C111.926 281.515 112.002 280.655 111.633 280.075C111.056 280.321 110.891 281.086 110.628 281.649C109.7 278.995 107.853 277.755 105.63 276.25C105.8 276.115 105.975 275.984 106.14 275.842C106.882 275.2 107.225 274.963 108.214 274.758Z"/>
	<path fill="#ADADAD" d="M161.757 275.618C161.467 275.072 161.359 274.838 161.448 274.22C161.999 273.667 162.634 273.686 163.367 273.606L164.039 273.762L165.067 274.691L164.66 275.398C164.872 275.943 164.715 275.719 165.108 276.087C165.795 276.633 166.049 277.709 166.141 278.553C166.284 279.866 166.047 280.85 165.378 281.972C165.097 281.053 164.733 280.149 164.406 279.245C163.607 277.996 162.641 276.81 161.757 275.618Z"/>
	<path fill="#AAA" d="M161.757 275.618C161.467 275.072 161.359 274.838 161.448 274.22C161.999 273.667 162.634 273.686 163.367 273.606C163.696 274.229 163.862 274.392 163.791 275.108C163.088 275.439 162.481 275.408 161.757 275.618Z"/>
	<path fill="#4D4D4D" d="M331.798 220.566L332.324 220.749L332.651 221.643L332.996 221.517C333.047 224.945 332.951 228.041 330.47 230.712C329.789 231.445 328.956 232.091 328.179 232.719L328.074 233.121L327.71 233.532L326.436 232.784C327.805 231.718 328.856 230.426 329.979 229.117C331.866 226.834 331.728 223.361 331.798 220.566Z"/>
	<path fill="#ADADAD" d="M168.608 209.324C167.743 207.68 165.385 205.903 165.412 204.032C165.82 203.405 166.093 203.373 166.765 203.079L168.012 203.342L169.325 204.65L168.982 205.376C169.554 206.756 170.664 208.907 170.036 210.379C169.817 210.892 169.782 211.025 169.266 211.265C169.015 210.629 168.817 209.974 168.608 209.324Z"/>
	<path fill="#B0B0B0" d="M169.266 211.265C169.782 211.025 169.817 210.892 170.036 210.379C170.664 208.907 169.554 206.756 168.982 205.376L169.325 204.65C172.138 207.779 172.487 212.046 172.323 216.059C172.318 216.183 172.309 216.308 172.302 216.432C171.877 215.168 171.509 213.952 170.769 212.828L170.437 212.71C169.143 214.79 170.791 218.409 169.725 220.417C169.33 217.413 169.699 214.318 169.266 211.265Z"/>
	<path fill="#ADADAD" d="M388.83 256.939L389.029 256.444C389.121 256.425 389.213 256.397 389.306 256.386C389.474 256.366 389.644 256.363 389.812 256.352L390.331 255.489C390.776 257.901 391.54 260.142 392.725 262.296C393.339 263.503 394.535 264.856 394.79 266.134C394.573 266.742 394.502 266.775 393.881 267.053C393.702 267.132 393.491 267.192 393.302 267.249C392.347 265.802 391.494 264.316 390.804 262.725C389.746 261.068 389.278 258.831 388.83 256.939Z"/>
	<path fill="#ADADAD" d="M165.891 320.422L166.134 320.105C166.422 320.483 166.68 320.839 166.931 321.242C167.256 321.764 166.958 321.38 167.354 321.681C167.82 322.036 168.212 322.625 168.488 323.129C168.826 323.745 168.81 323.811 169.445 324.068L169.91 323.988C170.584 324.943 171.203 325.934 171.832 326.92C171.717 327.444 171.573 327.501 171.876 327.975C172.242 328.55 172.652 329.096 173.055 329.645L172.908 329.89C171.861 329.854 170.674 328.77 169.834 328.165C169.771 328.679 169.865 329.038 169.926 329.545C169.935 329.622 169.934 329.701 169.937 329.779C167.763 327.065 166.421 323.843 165.891 320.422Z"/>
	<path fill="#B0B0B0" d="M228.103 252.438C227.831 250.38 226.695 246.067 226.918 244.217C226.998 243.557 227.166 243.472 227.654 243.107C228.321 243.003 228.668 243.027 229.308 243.242C230.775 246.078 230.518 249.216 230.943 252.297L230.381 252.506C230.311 252.427 230.243 252.346 230.172 252.268C229.921 251.989 229.662 251.756 229.376 251.514C228.935 251.753 228.376 252.002 228.103 252.438Z"/>
	<path fill="#4D4D4D" d="M331.647 214.289C332.699 211.814 334.054 209.722 335.976 207.826C339.522 204.327 344.946 201.778 349.975 201.812C343.618 203.429 338.598 205.579 335.109 211.429C334.31 212.769 333.78 214.186 333.346 215.68L333.059 215.319C332.393 215.882 332.206 216.845 331.969 217.654C331.914 216.532 331.764 215.407 331.647 214.289Z"/>
	<path fill="#4D4D4D" d="M335.353 278.743C339.418 274.673 344.982 272.076 350.763 271.857L350.965 272.159C344.604 273.184 340.043 275.381 335.84 280.325C335.646 280.662 335.459 281.111 335.176 281.374C334.614 282.567 334.044 283.74 333.623 284.991C333.537 285.367 333.486 285.864 333.332 286.21L332.854 286.181C332.28 286.697 332.186 287.304 331.998 288.019C331.977 286.992 331.771 286.14 331.475 285.159C332.271 282.725 333.729 280.685 335.353 278.743Z"/>
	<path fill="#ADADAD" d="M279.727 223.334C279.436 220.964 279.132 205.476 279.701 204.118C279.795 203.891 279.976 203.711 280.113 203.507C280.882 203.125 281.484 203.084 282.336 203.046L282.248 204.319C281.485 204.886 281.347 205.17 281.196 206.12C280.804 208.594 281.598 219.111 281.19 220.121C280.512 221.802 279.981 220.747 279.727 223.334Z"/>
	<path fill="#4D4D4D" d="M221.746 286.247C222.926 282.617 225.148 279.532 228.072 277.091C231.144 274.526 236.191 272.016 240.295 272.4C234.55 273.657 229.262 276.224 225.971 281.309C224.59 283.444 223.843 285.844 223.456 288.344C222.791 288.725 222.572 288.865 222.407 289.641C221.837 292.31 222.738 295.227 222.103 297.902C221.827 294.016 222.108 290.154 221.746 286.247Z"/>
	<path fill="#B0B0B0" d="M135.391 194.497C134.236 190.72 129.765 188.581 129.342 186.708C129.264 186.365 129.477 186.21 129.652 185.938C130.469 185.569 131.1 185.656 131.978 185.734C133.036 186.433 134.132 187.093 135.059 187.963C136.02 188.978 136.769 189.908 137.426 191.159L136.91 191.308C136.912 193.22 136.234 203.888 135.787 205.156C135.759 201.635 135.904 197.982 135.391 194.497Z"/>
	<path fill="#B0B0B0" d="M313.383 222.132C313.383 221.306 313.254 220.208 313.617 219.467C316.082 218.817 321.713 219.049 323.941 220.359C324.75 220.834 325.178 221.462 325.66 222.248C325.595 223.146 325.499 224.065 325.106 224.889C324.845 225.438 324.907 225.438 324.3 225.643C323.246 225.141 322.507 223.892 321.684 223.073C320.132 221.53 315.551 222.126 313.383 222.132Z"/>
	<path fill="#B0B0B0" d="M279.727 223.334C279.981 220.747 280.512 221.802 281.19 220.121C281.598 219.111 280.804 208.594 281.196 206.12C281.347 205.17 281.485 204.886 282.248 204.319C282.253 206.05 282.087 221.737 282.128 221.863C282.178 222.016 282.292 222.14 282.375 222.279L282.766 222.145C283.087 221.758 283.41 221.367 283.766 221.011C286.03 218.746 290.347 219.358 293.281 219.408L293.116 222.511L292.186 222.12C289.619 222.122 286.366 221.77 283.923 222.57C283.794 222.66 283.663 222.748 283.536 222.841C282.385 223.677 281.987 225.153 280.446 225.412C279.954 225.05 279.83 224.713 279.752 224.099C279.713 223.786 279.723 223.632 279.727 223.334Z"/>
	<path fill="#B0B0B0" d="M317.456 262.873C317.449 263.634 317.481 264.252 317.121 264.948C316.176 265.666 291.124 265.497 288.274 265.176C287.803 264.675 287.777 264.67 287.714 263.991C287.99 263.254 288.391 262.898 288.953 262.383L290.562 262.498C292.538 263.339 313.214 262.636 317.456 262.873Z"/>
	<path fill="#B0B0B0" d="M248.392 219.197C248.453 218.868 248.505 218.459 248.63 218.142C249.093 216.968 250.421 216.276 251.552 215.888C253.684 215.157 256.638 215.091 258.677 216.15C259.815 216.74 260.269 217.519 260.661 218.701C261.07 219.91 261.038 221.066 261.039 222.322C265.827 222.335 270.628 222.277 275.414 222.425C275.348 223.224 275.392 223.976 274.833 224.607C273.11 225.143 260.154 225.209 258.678 224.559C258.275 224.021 258.253 223.914 258.18 223.242C258.326 221.654 258.058 220.67 257.496 219.171C257.203 218.949 256.911 218.715 256.579 218.552C254.12 217.347 250.79 218.312 248.392 219.197Z"/>
	<path fill="#ADADAD" d="M257.496 219.171L257.937 218.606C257.954 217.817 257.399 217.096 257.02 216.429L257.319 216.198C258.227 216.521 258.772 217.361 259.418 218.041C259.452 221.389 259.606 220.472 258.18 223.242C258.326 221.654 258.058 220.67 257.496 219.171Z"/>
	<path fill="#B0B0B0" d="M333.356 257.752C333.355 257.626 333.355 257.5 333.352 257.373C333.343 256.987 333.307 256.638 333.247 256.258C333.283 256.221 333.32 256.185 333.355 256.147C333.41 256.086 333.464 256.023 333.518 255.962C334.3 257.43 334.722 258.625 336.341 259.309C336.642 259.164 336.826 258.968 337.069 258.743C338.581 259.864 340.792 261.871 342.795 261.692C350.818 264.942 359.511 265.548 367.725 262.567L369.06 262.725L369.135 263.207C368.075 263.766 366.373 264.064 365.554 264.895L365.961 265.178C365.881 265.22 365.804 265.268 365.721 265.304C359.584 267.957 350.33 267.54 344.075 265.53C340.092 264.25 335.346 261.613 333.356 257.752Z"/>
	<path fill="#ADADAD" d="M169.725 220.417C170.791 218.409 169.143 214.79 170.437 212.71L170.769 212.828C171.509 213.952 171.877 215.168 172.302 216.432C173.061 227.579 171.639 238.905 172.679 250.05L172.077 250.153C171.185 249.021 171.682 247.501 170.953 246.335C170.725 246.735 170.544 247.045 170.21 247.369C169.919 247.651 169.778 247.872 169.588 248.227C169.646 238.978 169.344 229.653 169.725 220.417Z"/>
	<defs>
		<linearGradient id="gradient_0" gradientUnits="userSpaceOnUse" x1="112.83145" y1="310.14572" x2="110.433" y2="310.09976">
			<stop offset="0" stop-color="#939393"/>
			<stop offset="1" stop-color="#A2A2A2"/>
		</linearGradient>
	</defs>
	<path fill="url(#gradient_0)" d="M110.628 281.649C110.891 281.086 111.056 280.321 111.633 280.075C112.002 280.655 111.926 281.515 112.11 282.193L112.371 280.803C112.584 282.14 112.818 283.457 112.848 284.815L112.917 321.534C112.951 327.529 113.41 333.846 112.895 339.797C112.752 341.45 112.388 344.364 111.265 345.644C111.08 345.855 110.929 345.962 110.718 346.131C111.028 344.925 111.24 343.747 111.306 342.504C111.497 338.892 111.367 335.233 111.367 331.616L111.366 312.394L111.36 296.182C111.356 291.457 111.8 286.238 110.628 281.649Z"/>
	<path fill="#B0B0B0" d="M108.831 254.851C109.914 255.02 110.131 255.603 110.771 256.48C111.661 257.7 112.437 259.034 114.068 259.284C114.294 259.319 114.522 259.337 114.75 259.358C116.155 260.295 117.969 261.82 119.743 261.706C121.359 262.354 122.969 262.919 124.656 263.356C133.167 265.562 142.368 264.812 149.992 260.329C149.852 261.058 149.376 261.838 149.34 262.511C148.397 263.539 146.015 264.518 144.71 265.021C136.746 268.09 125.969 268.011 118.17 264.455C113.977 262.543 110.442 259.224 108.831 254.851Z"/>
	<path fill="#B0B0B0" d="M233.015 332.092C240.082 334.719 245.721 335.735 253.337 334.417C259.873 333.286 264.517 330.113 268.306 324.766C267.123 328.982 264.017 331.974 260.284 334.073C253.272 338.017 243.179 338.556 235.547 336.33C231.184 335.057 227.268 332.762 224.405 329.189C224.521 328.814 224.581 328.48 224.64 328.094C224.145 327.725 223.96 327.434 223.685 326.884L223.815 326.579C224.719 327.278 224.939 328.338 225.807 329.018C226.469 328.992 226.375 328.916 226.819 328.48C228.676 330.015 230.563 331.67 233.015 332.092Z"/>
	<path fill="#B0B0B0" d="M171.832 326.92C172.421 327.646 173.083 328.308 173.774 328.937C179.318 333.988 187.164 335.114 194.379 334.747C203 334.307 207.312 331.477 212.916 325.235C211.768 329.109 208.349 332.192 204.88 334.072C197.748 337.935 187.827 338.441 180.145 336.072C176.184 334.85 172.757 332.832 169.937 329.779C169.934 329.701 169.935 329.622 169.926 329.545C169.865 329.038 169.771 328.679 169.834 328.165C170.674 328.77 171.861 329.854 172.908 329.89L173.055 329.645C172.652 329.096 172.242 328.55 171.876 327.975C171.573 327.501 171.717 327.444 171.832 326.92Z"/>
	<path fill="#B0B0B0" d="M377.607 324.765C376.496 328.807 373.412 331.766 369.861 333.795C362.807 337.825 353.071 338.414 345.336 336.265C340.387 334.89 335.448 332.003 332.87 327.401C332.575 326.874 332.281 326.341 332.078 325.771L332.591 325.672C333.352 326.426 334.126 327.361 335.104 327.818L335.698 327.72C337.482 329.319 340.701 332.502 343.277 332.465C343.36 332.464 343.441 332.445 343.522 332.435C349.571 334.647 355.913 335.412 362.31 334.403C368.919 333.359 373.703 330.101 377.607 324.765Z"/>
	<path fill="#4D4D4D" d="M293.281 219.408L294.4 219.373C294.913 219.866 295.019 220.208 295.054 220.928C295.107 222.016 294.921 223.164 294.877 224.257C294.819 230.943 295.55 251.961 294.126 257.06C293.509 259.269 292.128 260.899 290.562 262.498L288.953 262.383C289.979 261.215 290.764 260.058 291.511 258.704C292.461 253.776 292.091 248.411 292.084 243.4Q292.001 232.759 292.186 222.12L293.116 222.511L293.281 219.408Z"/>
	<path fill="#ADADAD" d="M292.186 222.12L293.116 222.511C293.518 223.449 293.463 224.412 293.485 225.415C292.983 232.263 293.452 239.435 293.459 246.309C293.463 249.595 293.736 253.446 292.806 256.617C292.579 257.391 291.996 258.074 291.511 258.704C292.461 253.776 292.091 248.411 292.084 243.4Q292.001 232.759 292.186 222.12Z"/>
	<path fill="#ADADAD" d="M165.108 276.087C164.715 275.719 164.872 275.943 164.66 275.398L165.067 274.691C166.932 276.748 167.792 278.796 168.218 281.538C168.667 285.562 168.527 289.632 168.518 293.675L168.484 310.372C168.479 313.541 168.286 316.905 168.685 320.048Q169.275 322.025 169.91 323.988L169.445 324.068C168.81 323.811 168.826 323.745 168.488 323.129C168.212 322.625 167.82 322.036 167.354 321.681C166.958 321.38 167.256 321.764 166.931 321.242C166.68 320.839 166.422 320.483 166.134 320.105L165.891 320.422C165.694 319.889 165.732 319.242 165.7 318.675C165.509 314.913 165.685 311.063 165.687 307.29C165.689 300.997 165.615 294.694 165.761 288.403C165.533 286.282 165.614 284.114 165.378 281.972C166.047 280.85 166.284 279.866 166.141 278.553C166.049 277.709 165.795 276.633 165.108 276.087Z"/>
	<path fill="#B0B0B0" d="M165.7 318.675C165.912 318.125 166.047 317.546 166.479 317.134L166.761 317.136C167.281 318.082 167.419 319.837 168.141 320.507C168.621 320.198 168.465 320.377 168.685 320.048Q169.275 322.025 169.91 323.988L169.445 324.068C168.81 323.811 168.826 323.745 168.488 323.129C168.212 322.625 167.82 322.036 167.354 321.681C166.958 321.38 167.256 321.764 166.931 321.242C166.68 320.839 166.422 320.483 166.134 320.105L165.891 320.422C165.694 319.889 165.732 319.242 165.7 318.675Z"/>
	<path fill="#B0B0B0" d="M165.108 276.087C164.715 275.719 164.872 275.943 164.66 275.398L165.067 274.691C166.932 276.748 167.792 278.796 168.218 281.538L167.903 281.979L167.444 281.901L167.351 281.762C165.694 283.834 166.499 287.522 165.761 288.403C165.533 286.282 165.614 284.114 165.378 281.972C166.047 280.85 166.284 279.866 166.141 278.553C166.049 277.709 165.795 276.633 165.108 276.087Z"/>
	<path fill="#B0B0B0" d="M228.103 252.438C228.376 252.002 228.935 251.753 229.376 251.514C229.662 251.756 229.921 251.989 230.172 252.268C230.243 252.346 230.311 252.427 230.381 252.506L230.943 252.297C231.307 253.433 231.641 254.588 232.099 255.69C233.319 257.597 234.714 259.22 236.572 260.533C242.554 264.76 252.112 264.916 259.034 263.674C266.233 262.382 270.706 259.205 274.808 253.257C273.441 257.825 270.321 261.017 266.194 263.274C258.726 267.36 248.013 267.94 239.94 265.499C235.7 264.216 231.923 261.821 229.832 257.789C229.406 256.968 229.085 256.152 228.85 255.256C228.374 254.365 228.266 253.421 228.103 252.438Z"/>
	<path fill="#ADADAD" d="M228.103 252.438C228.376 252.002 228.935 251.753 229.376 251.514C229.662 251.756 229.921 251.989 230.172 252.268C230.243 252.346 230.311 252.427 230.381 252.506L230.943 252.297C231.307 253.433 231.641 254.588 232.099 255.69L231.725 256.289C231.919 257.975 234.735 259.932 235.916 261.162C232.283 261.543 231.643 256.043 228.85 255.256C228.374 254.365 228.266 253.421 228.103 252.438Z"/>
	<path fill="#B0B0B0" d="M107.97 350.173L108.064 350.504C108.203 350.591 108.323 350.717 108.48 350.767C109.575 351.112 146.693 350.785 148.48 350.461C153.452 349.558 156.736 346.763 159.553 342.711C158.501 346.327 156.165 349.064 152.891 350.896Q151.255 351.806 149.475 352.383Q147.695 352.961 145.837 353.185C142.458 353.582 107.631 353.649 105.661 353.044C105.319 352.939 105.084 352.777 104.823 352.54C104.688 351.953 104.664 351.738 105.059 351.201C105.314 350.855 105.882 350.522 106.244 350.276L107.97 350.173Z"/>
	<path fill="#B0B0B0" d="M328.616 333.305C328.57 333.726 328.554 334.224 328.432 334.627C328.332 334.958 328.212 335.321 327.888 335.485C327.221 335.824 326.311 335.799 325.574 335.814C316.205 336.005 306.81 335.683 297.436 335.753L281.498 335.797C278.208 335.799 274.588 336.1 271.361 335.457C270.886 335.049 270.908 335.017 270.787 334.396C271.096 333.475 271.837 332.861 272.504 332.184L273.592 333.019C274.8 333.529 298.75 333.595 300.271 333.047C300.354 333.017 300.43 332.971 300.509 332.933L301.81 333.115C304.344 333.513 307.15 333.303 309.718 333.296C315.966 333.278 322.39 332.938 328.616 333.305Z"/>
	<path fill="#B0B0B0" d="M169.588 248.227C169.778 247.872 169.919 247.651 170.21 247.369C170.544 247.045 170.725 246.735 170.953 246.335C171.682 247.501 171.185 249.021 172.077 250.153L172.679 250.05L172.983 250.958C174.182 255.386 177.193 258.823 181.147 261.057C187.936 264.893 197.406 265.403 204.822 263.322C210.01 261.867 214.133 258.766 217.1 254.268C216.854 255.411 216.399 256.392 215.804 257.393C213.052 262.021 207.726 264.831 202.651 266.106C194.943 268.042 185.567 267.508 178.637 263.339C173.795 260.426 171.181 256.177 169.859 250.78L169.588 248.227Z"/>
	<path fill="#4D4D4D" d="M272.35 273.533L273.561 273.753C278.275 278.394 277.995 283.016 278.043 289.204L278.064 307.122C278.063 310.495 278.231 313.97 277.992 317.331C278.071 322.336 278.307 328.254 274.541 332.129Q274.083 332.592 273.592 333.019L272.504 332.184C273.276 331.255 273.951 330.272 274.633 329.276C275.963 322.62 275.304 314.879 275.307 308.095C275.31 299.851 275.64 291.452 275.004 283.23L274.557 280.787C275.338 279.699 275.086 278.243 274.995 276.984C274.157 275.807 273.235 274.676 272.35 273.533Z"/>
	<path fill="#B0B0B0" d="M274.995 276.984C275.648 278.345 275.992 279.766 276.37 281.22C276.308 281.89 276.441 282.576 275.777 282.958C275.6 283.06 275.208 283.168 275.004 283.23L274.557 280.787C275.338 279.699 275.086 278.243 274.995 276.984Z"/>
	<path fill="#ADADAD" d="M276.37 281.22C276.828 285.913 276.705 290.635 276.691 295.344C276.664 304.288 276.391 313.331 276.7 322.268C276.293 324.79 276.208 327.164 274.633 329.276C275.963 322.62 275.304 314.879 275.307 308.095C275.31 299.851 275.64 291.452 275.004 283.23C275.208 283.168 275.6 283.06 275.777 282.958C276.441 282.576 276.308 281.89 276.37 281.22Z"/>
	<path fill="#B0B0B0" d="M387.881 297.713C387.994 297.301 388.128 296.931 388.302 296.541L389.346 296.274C390.947 297.928 395.043 302.12 397.494 302.129C397.565 302.13 397.634 302.112 397.704 302.103C404.997 305.223 413.183 306.071 420.708 303.085C423.334 302.044 425.924 300.543 428.063 298.693C429.585 300.308 431.181 301.932 433.003 303.211C438.248 303.228 443.541 303.082 448.781 303.248C448.898 303.494 449.111 303.865 449.168 304.143C449.297 304.768 449.215 304.887 448.888 305.383C446.625 306.519 434.267 305.844 430.732 305.782C429.279 304.606 427.96 303.16 426.596 301.874C424.397 302.995 422.322 304.332 420.069 305.361C415.178 307.593 409.097 308.044 403.834 307.188C397.481 306.154 391.694 302.947 387.881 297.713Z"/>
	<path fill="#FEFEFE" d="M282.336 203.046C296.8 203.311 311.323 203.113 325.792 203.061C325.816 208.671 326.326 216.97 325.66 222.248C325.178 221.462 324.75 220.834 323.941 220.359C321.713 219.049 316.082 218.817 313.617 219.467C313.254 220.208 313.383 221.306 313.383 222.132L313.359 242.736C313.353 247.147 312.923 252.201 313.827 256.526C314.341 258.988 317.145 261.19 317.456 262.873C313.214 262.636 292.538 263.339 290.562 262.498C292.128 260.899 293.509 259.269 294.126 257.06C295.55 251.961 294.819 230.943 294.877 224.257C294.921 223.164 295.107 222.016 295.054 220.928C295.019 220.208 294.913 219.866 294.4 219.373L293.281 219.408C290.347 219.358 286.03 218.746 283.766 221.011C283.41 221.367 283.087 221.758 282.766 222.145L282.375 222.279C282.292 222.14 282.178 222.016 282.128 221.863C282.087 221.737 282.253 206.05 282.248 204.319L282.336 203.046Z"/>
	<path fill="#FEFEFE" d="M246.379 201.706C248.882 201.595 251.352 201.24 253.867 201.234C259.588 201.218 266.07 202.75 270.413 206.671C275.133 210.933 274.687 216.595 275.412 222.346C275.415 222.372 275.413 222.399 275.414 222.425C270.628 222.277 265.827 222.335 261.039 222.322C261.038 221.066 261.07 219.91 260.661 218.701C260.269 217.519 259.815 216.74 258.677 216.15C256.638 215.091 253.684 215.157 251.552 215.888C250.421 216.276 249.093 216.968 248.63 218.142C248.505 218.459 248.453 218.868 248.392 219.197C248.957 221.194 249.833 222.08 251.663 223.071C254.034 224.355 256.797 225.058 259.346 225.913C266.124 228.184 273.123 231.457 275.484 238.766C277.107 243.789 276.484 248.371 274.808 253.257C270.706 259.205 266.233 262.382 259.034 263.674C252.112 264.916 242.554 264.76 236.572 260.533C234.714 259.22 233.319 257.597 232.099 255.69C231.641 254.588 231.307 253.433 230.943 252.297C230.518 249.216 230.775 246.078 229.308 243.242C234.296 242.504 239.658 243.347 244.721 242.946C244.784 245.009 244.802 247.086 246.463 248.582C248.125 250.079 250.767 250.028 252.867 249.854L253.194 249.825C254.082 249.133 254.931 248.399 255.785 247.666C251.268 241.387 239.169 241.535 233.476 235.03C231.242 233.506 229.622 230.206 228.794 227.696L228.378 226.669C227.467 222.254 227.675 219.321 229.019 214.973C229.342 213.698 229.982 212.451 230.603 211.301C231.788 209.215 233.522 207.369 235.412 205.901C238.024 203.872 242.986 201.284 246.379 201.706Z"/>
	<path fill="#4D4D4D" d="M230.603 211.301C231.788 209.215 233.522 207.369 235.412 205.901C238.024 203.872 242.986 201.284 246.379 201.706C240.386 203.465 236.099 205.696 232.614 211.033C230.359 216.153 229.6 221.524 231.71 226.858C233.572 231.565 237.188 234.31 241.503 236.662L241.013 236.856C237.719 235.848 234.542 233.138 232.325 230.575C231.748 229.704 231.234 228.787 230.701 227.888C230.111 227.472 229.856 227.252 229.104 227.257L228.794 227.696L228.378 226.669C227.467 222.254 227.675 219.321 229.019 214.973C229.342 213.698 229.982 212.451 230.603 211.301Z"/>
	<path fill="#B0B0B0" d="M228.378 226.669L228.564 225.317C228.968 225.072 229.356 224.919 229.795 224.746C230.033 225.825 230.338 226.845 230.701 227.888C230.111 227.472 229.856 227.252 229.104 227.257L228.794 227.696L228.378 226.669Z"/>
	<path fill="#ADADAD" d="M229.019 214.973C228.725 217.94 229.119 221.848 229.795 224.746C229.356 224.919 228.968 225.072 228.564 225.317L228.378 226.669C227.467 222.254 227.675 219.321 229.019 214.973Z"/>
	<path fill="#B0B0B0" d="M228.794 227.696L229.104 227.257C229.856 227.252 230.111 227.472 230.701 227.888C231.234 228.787 231.748 229.704 232.325 230.575C234.542 233.138 237.719 235.848 241.013 236.856L241.503 236.662C245.378 238.413 256.363 241.351 257.821 245.391C258.054 246.036 258.054 246.749 257.763 247.376C257.269 248.438 256.069 249.154 254.997 249.508C254.41 249.703 253.807 249.779 253.194 249.825C254.082 249.133 254.931 248.399 255.785 247.666C251.268 241.387 239.169 241.535 233.476 235.03C231.242 233.506 229.622 230.206 228.794 227.696Z"/>
	<path fill="#ADADAD" d="M228.794 227.696L229.104 227.257C229.856 227.252 230.111 227.472 230.701 227.888C231.234 228.787 231.748 229.704 232.325 230.575C232.45 231.272 232.64 231.803 232.924 232.453L232.788 232.706Q232.178 231.848 231.582 230.98L231.321 230.941C231.769 233.148 233.253 233.241 233.796 234.763L233.476 235.03C231.242 233.506 229.622 230.206 228.794 227.696Z"/>
	<path fill="#FEFEFE" d="M240.295 272.4C248.099 271.446 256.567 271.518 263.038 276.652C266.932 279.742 269.145 283.996 269.646 288.918C270.135 293.717 269.475 298.591 270.03 303.372C270.277 305.503 271.58 307.315 271.846 309.365C271.773 310.183 271.818 310.608 271.351 311.296C268.806 312.261 246.175 311.63 241.492 311.682C241.592 313.854 241.803 315.712 243.444 317.295C244.719 318.526 246.54 318.959 248.27 318.872C249.659 318.802 252.144 318.331 253.107 317.236C254.159 316.038 254.331 314.769 256.061 314.546C260.414 313.986 265.334 314.479 269.748 314.505C269.742 318.148 269.847 321.351 268.306 324.766C264.517 330.113 259.873 333.286 253.337 334.417C245.721 335.735 240.082 334.719 233.015 332.092C230.563 331.67 228.676 330.015 226.819 328.48C224.921 326.362 223.805 324.501 222.87 321.814L222.184 321.677C221.854 321.087 221.521 320.508 221.149 319.942L220.859 320.429C220.454 317.921 220.728 315.231 220.532 312.68L220.424 312.252C221.379 310.944 221.068 309.943 220.881 308.459C219.918 306.7 218.579 305.519 217.071 304.253C218.416 303.11 219.546 301.877 220.54 300.422C221.249 299.631 221.665 298.867 222.103 297.902C222.738 295.227 221.837 292.31 222.407 289.641C222.572 288.865 222.791 288.725 223.456 288.344C223.843 285.844 224.59 283.444 225.971 281.309C229.262 276.224 234.55 273.657 240.295 272.4Z"/>
	<path fill="#B0B0B0" d="M241.617 290.986C241.868 290.211 242.152 289.447 242.682 288.814C244.224 286.971 246.653 286.788 248.883 286.65C250.8 287.094 251.986 287.709 253.082 289.388C254.179 291.07 254.89 293.567 254.4 295.558C254.292 295.997 254.229 296.068 253.929 296.448C253.183 296.481 252.448 296.494 251.702 296.48C251.586 294.967 251.372 293.486 251.138 291.987C250.251 290.719 249.395 289.701 247.832 289.308C245.575 288.741 243.511 289.934 241.617 290.986Z"/>
	<path fill="#242424" d="M241.617 290.986C243.511 289.934 245.575 288.741 247.832 289.308C249.395 289.701 250.251 290.719 251.138 291.987C251.372 293.486 251.586 294.967 251.702 296.48C248.309 296.587 244.896 296.531 241.501 296.549C241.476 294.684 241.473 292.846 241.617 290.986Z"/>
	<path fill="#2D2D2C" d="M222.103 297.902C222.738 295.227 221.837 292.31 222.407 289.641C222.572 288.865 222.791 288.725 223.456 288.344C223.519 293.036 224.293 298.749 220.809 302.476C220.124 303.21 219.279 303.759 218.45 304.314C221.221 306.67 223.052 308.966 223.4 312.736C224.081 320.106 222.868 324.022 229.286 329.504Q231.024 330.98 233.015 332.092C230.563 331.67 228.676 330.015 226.819 328.48C224.921 326.362 223.805 324.501 222.87 321.814L222.184 321.677C221.854 321.087 221.521 320.508 221.149 319.942L220.859 320.429C220.454 317.921 220.728 315.231 220.532 312.68L220.424 312.252C221.379 310.944 221.068 309.943 220.881 308.459C219.918 306.7 218.579 305.519 217.071 304.253C218.416 303.11 219.546 301.877 220.54 300.422C221.249 299.631 221.665 298.867 222.103 297.902Z"/>
	<path fill="#B0B0B0" d="M220.881 308.459C221.906 310.249 222.07 312.293 222.108 314.317C222.234 316.84 222.317 319.34 222.87 321.814L222.184 321.677C221.854 321.087 221.521 320.508 221.149 319.942L220.859 320.429C220.454 317.921 220.728 315.231 220.532 312.68L220.424 312.252C221.379 310.944 221.068 309.943 220.881 308.459Z"/>
	<path fill="#B0B0B0" d="M241.492 311.682C241.465 310.804 241.398 309.941 241.579 309.075C242.939 308.599 270.288 308.707 271.846 309.365C271.773 310.183 271.818 310.608 271.351 311.296C268.806 312.261 246.175 311.63 241.492 311.682Z"/>
	<path fill="#FEFEFE" d="M131.978 185.734C134.761 185.087 138.167 185.401 141.03 185.404C148.005 185.41 155.115 185.731 162.075 185.389C160.343 187.158 158.813 188.85 158.14 191.311C156.983 195.54 157.529 200.622 157.543 204.985L157.567 233.305C157.568 238.196 157.914 243.389 157.398 248.24C157.17 250.384 156.688 252.275 155.863 254.27C154.075 256.557 152.277 258.533 149.992 260.329C142.368 264.812 133.167 265.562 124.656 263.356C122.969 262.919 121.359 262.354 119.743 261.706C117.969 261.82 116.155 260.295 114.75 259.358C114.522 259.337 114.294 259.319 114.068 259.284C112.437 259.034 111.661 257.7 110.771 256.48C110.131 255.603 109.914 255.02 108.831 254.851C108.342 254.112 108.138 253.083 107.878 252.239C107.628 251.205 107.546 250.218 107.491 249.158C107.141 243.781 107.703 238.372 107.174 232.989C106.777 231.45 106.263 230.195 105.334 228.894C105.65 228.393 105.817 228.126 105.823 227.526C105.501 226.996 105.208 226.524 105.118 225.899C105.098 225.756 105.083 225.613 105.066 225.47C104.744 224.904 104.339 224.869 104.185 224.161L104.181 223.51C105.598 223.075 131.169 223.005 133.677 223.368L133.978 223.666C133.763 224.182 133.527 224.349 133.077 224.668L133.307 225.366L133.066 225.58C130.224 228.151 129.326 230.874 129.155 234.596C129.016 237.618 128.444 242.356 130.596 244.815C131.508 245.857 132.793 246.196 134.135 246.213C134.25 246.214 134.366 246.208 134.482 246.206C134.695 245.416 135.444 245.034 135.694 244.24C136.231 242.536 135.692 239.511 135.705 237.628C135.778 226.814 135.491 215.962 135.787 205.156C136.234 203.888 136.912 193.22 136.91 191.308L137.426 191.159C136.769 189.908 136.02 188.978 135.059 187.963C134.132 187.093 133.036 186.433 131.978 185.734Z"/>
	<path fill="#010101" d="M104.185 224.161C105.594 224.464 107.311 225.976 108.104 227.144C114.568 236.659 103.161 253.613 119.743 261.706C117.969 261.82 116.155 260.295 114.75 259.358C114.522 259.337 114.294 259.319 114.068 259.284C112.437 259.034 111.661 257.7 110.771 256.48C110.131 255.603 109.914 255.02 108.831 254.851C108.342 254.112 108.138 253.083 107.878 252.239C107.628 251.205 107.546 250.218 107.491 249.158C107.141 243.781 107.703 238.372 107.174 232.989C106.777 231.45 106.263 230.195 105.334 228.894C105.65 228.393 105.817 228.126 105.823 227.526C105.501 226.996 105.208 226.524 105.118 225.899C105.098 225.756 105.083 225.613 105.066 225.47C104.744 224.904 104.339 224.869 104.185 224.161Z"/>
	<path fill="#B0B0B0" d="M107.491 249.158C107.841 248.952 108.03 248.726 108.272 248.407L108.579 247.998L108.991 247.964C109.223 249.481 109.365 251.113 109.801 252.58C109.276 252.218 108.854 251.728 108.407 251.275L108.082 251.33L107.878 252.239C107.628 251.205 107.546 250.218 107.491 249.158Z"/>
	<path fill="#ADADAD" d="M105.066 225.47C106.636 226.903 107.52 228.242 108.354 230.179C108.238 231.448 107.985 231.989 107.174 232.989C106.777 231.45 106.263 230.195 105.334 228.894C105.65 228.393 105.817 228.126 105.823 227.526C105.501 226.996 105.208 226.524 105.118 225.899C105.098 225.756 105.083 225.613 105.066 225.47Z"/>
	<path fill="#ADADAD" d="M107.878 252.239L108.082 251.33L108.407 251.275C108.854 251.728 109.276 252.218 109.801 252.58C111.047 255.363 112.498 257.289 114.75 259.358C114.522 259.337 114.294 259.319 114.068 259.284C112.437 259.034 111.661 257.7 110.771 256.48C110.131 255.603 109.914 255.02 108.831 254.851C108.342 254.112 108.138 253.083 107.878 252.239Z"/>
	<path fill="#ADADAD" d="M108.354 230.179C109.369 235.523 109.159 242.489 108.991 247.964L108.579 247.998L108.272 248.407C108.03 248.726 107.841 248.952 107.491 249.158C107.141 243.781 107.703 238.372 107.174 232.989C107.985 231.989 108.238 231.448 108.354 230.179Z"/>
	<path fill="#ADADAD" d="M135.787 205.156C136.234 203.888 136.912 193.22 136.91 191.308L137.426 191.159C138.069 192.726 138.29 194.203 138.404 195.874C138.754 201.01 138.815 241.873 138.119 243.618C137.692 244.688 136.826 245.464 135.774 245.909C135.353 246.086 134.93 246.143 134.482 246.206C134.695 245.416 135.444 245.034 135.694 244.24C136.231 242.536 135.692 239.511 135.705 237.628C135.778 226.814 135.491 215.962 135.787 205.156Z"/>
	<path fill="#FEFEFE" d="M197.054 203.266C199.114 202.922 201.409 203.102 203.5 203.103C209.481 203.105 217.667 203.67 223.408 202.919C221.736 204.76 220.402 206.467 219.609 208.864C218.417 212.469 218.716 216.487 218.725 220.23L218.786 237.956C218.8 241.768 219.045 245.743 218.523 249.523C218.292 251.197 217.837 252.742 217.1 254.268C214.133 258.766 210.01 261.867 204.822 263.322C197.406 265.403 187.936 264.893 181.147 261.057C177.193 258.823 174.182 255.386 172.983 250.958L172.679 250.05C171.639 238.905 173.061 227.579 172.302 216.432C172.309 216.308 172.318 216.183 172.323 216.059C172.487 212.046 172.138 207.779 169.325 204.65L168.012 203.342C170.164 202.879 192.443 202.756 194.527 203.439C194.95 203.391 195.383 203.227 195.793 203.11C196.212 203.156 196.64 203.185 197.054 203.266Z"/>
	<path fill="#010101" d="M195.793 203.11C196.212 203.156 196.64 203.185 197.054 203.266C198.443 205.277 199.441 207.179 199.898 209.603C200.524 212.928 200.611 239.972 200.043 243.105C199.863 244.098 199.227 244.808 198.399 245.335C197.708 245.775 196.98 245.995 196.176 246.127L195.926 245.907C196.459 245.415 197.009 244.961 197.577 244.51C197.931 244.321 198.27 244.093 198.544 243.793C198.934 243.367 198.998 242.793 199.045 242.245C199.317 239.123 199.075 235.803 199.069 232.664Q199.079 222.953 198.987 213.243C199.099 211.552 198.699 209.757 198.351 208.111C197.807 206.66 197.038 205.337 196.287 203.986L195.793 203.11Z"/>
	<path fill="#242424" d="M194.527 203.439C194.95 203.391 195.383 203.227 195.793 203.11L196.287 203.986C197.038 205.337 197.807 206.66 198.351 208.111C198.699 209.757 199.099 211.552 198.987 213.243Q199.079 222.953 199.069 232.664C199.075 235.803 199.317 239.123 199.045 242.245C198.998 242.793 198.934 243.367 198.544 243.793C198.27 244.093 197.931 244.321 197.577 244.51C197.009 244.961 196.459 245.415 195.926 245.907L196.176 246.127C195.474 246.201 194.886 246.216 194.198 246.029Q193.778 245.913 193.391 245.715Q193.003 245.516 192.664 245.244Q192.324 244.972 192.046 244.637Q191.768 244.302 191.563 243.918C190.274 241.526 190.63 217.985 190.953 213.426C191.093 211.453 191.373 209.654 191.885 207.742C192.247 205.93 193.155 204.627 194.527 203.439Z"/>
	<path fill="#B0B0B0" d="M198.351 208.111C198.699 209.757 199.099 211.552 198.987 213.243L198.547 213.152C196.854 215.582 199.192 230.931 197.711 233.25C197.208 225.866 197.959 218.442 197.272 211.039C197.865 210.255 198.076 209.055 198.351 208.111Z"/>
	<path fill="#B0B0B0" d="M194.527 203.439C194.95 203.391 195.383 203.227 195.793 203.11L196.287 203.986C197.038 205.337 197.807 206.66 198.351 208.111C198.076 209.055 197.865 210.255 197.272 211.039L196.586 208.737C195.897 207.333 195.152 206.008 194.325 204.68C193.475 205.674 192.681 206.705 191.885 207.742C192.247 205.93 193.155 204.627 194.527 203.439Z"/>
	<path fill="#ADADAD" d="M196.287 203.986C197.038 205.337 197.807 206.66 198.351 208.111C198.076 209.055 197.865 210.255 197.272 211.039L196.586 208.737C197.601 207.184 196.223 205.713 196.287 203.986Z"/>
	<path fill="#ADADAD" d="M197.711 233.25C199.192 230.931 196.854 215.582 198.547 213.152L198.987 213.243Q199.079 222.953 199.069 232.664C199.075 235.803 199.317 239.123 199.045 242.245C198.998 242.793 198.934 243.367 198.544 243.793C198.27 244.093 197.931 244.321 197.577 244.51C198.145 240.959 197.478 236.898 197.711 233.25Z"/>
	<path fill="#FEFEFE" d="M192.983 273.699C195.902 273.027 199.582 273.382 202.58 273.392C208.196 273.409 213.814 273.482 219.43 273.435C217.747 275.152 216.468 276.828 215.723 279.145C214.533 282.851 214.783 286.967 214.795 290.809L214.874 309.393C214.88 313.183 215.225 317.714 214.403 321.407C214.115 322.699 213.405 324 212.916 325.235C207.312 331.477 203 334.307 194.379 334.747C187.164 335.114 179.318 333.988 173.774 328.937C173.083 328.308 172.421 327.646 171.832 326.92C171.203 325.934 170.584 324.943 169.91 323.988Q169.275 322.025 168.685 320.048C168.286 316.905 168.479 313.541 168.484 310.372L168.518 293.675C168.527 289.632 168.667 285.562 168.218 281.538C167.792 278.796 166.932 276.748 165.067 274.691L164.039 273.762C165.595 273.24 188.837 273.139 189.886 273.585C190.059 273.659 190.068 273.683 190.174 273.792C191.103 273.713 192.05 273.723 192.983 273.699Z"/>
	<path fill="#ADADAD" d="M193.342 281.472C194.679 279.064 193.269 276.572 194.134 275.137C195.346 276.948 195.81 278.902 196.111 281.028C196.724 285.361 196.396 290.049 196.392 294.436C196.387 298.344 196.594 302.404 196.29 306.291C196.444 308.682 196.424 311.147 196.257 313.537C195.167 315.102 194.434 316.007 192.51 316.421C192.705 315.635 193.306 315.052 193.81 314.428C193.636 311.524 193.457 308.573 193.713 305.67C193.345 297.629 194.145 289.489 193.342 281.472Z"/>
	<path fill="#B0B0B0" d="M193.342 281.472C194.679 279.064 193.269 276.572 194.134 275.137C195.346 276.948 195.81 278.902 196.111 281.028C196.724 285.361 196.396 290.049 196.392 294.436C196.387 298.344 196.594 302.404 196.29 306.291C194.62 303.644 197.306 286.759 194.658 282.723C192.925 284.547 195.148 301.426 193.872 305.234C193.823 305.381 193.766 305.525 193.713 305.67C193.345 297.629 194.145 289.489 193.342 281.472Z"/>
	<path fill="#242424" d="M190.174 273.792C191.103 273.713 192.05 273.723 192.983 273.699C193.337 274.124 193.904 274.647 194.134 275.137C193.269 276.572 194.679 279.064 193.342 281.472C194.145 289.489 193.345 297.629 193.713 305.67C193.457 308.573 193.636 311.524 193.81 314.428C193.306 315.052 192.705 315.635 192.51 316.421C191.081 316.44 189.49 316.36 188.382 315.328C187.25 314.273 187.125 312.314 187.025 310.856C186.69 305.996 186.951 300.941 186.957 296.062C186.962 290.868 186.438 285.016 187.386 279.925C187.81 277.641 188.632 275.557 190.174 273.792Z"/>
	<path fill="#ADADAD" d="M190.174 273.792C191.103 273.713 192.05 273.723 192.983 273.699C193.337 274.124 193.904 274.647 194.134 275.137C193.269 276.572 194.679 279.064 193.342 281.472C193.274 281.185 193.195 280.906 193.118 280.621C192.462 278.194 190.633 276.232 190.174 273.792Z"/>
	<path fill="#FEFEFE" d="M349.975 201.812C358.401 201.341 367.07 201.106 373.839 207.083C377.528 210.342 379.061 214.74 379.328 219.555C379.569 223.899 379.01 228.334 382.614 231.582C383.172 232.085 383.756 232.558 384.382 232.975C381.845 234.854 380.13 236.869 379.627 240.105C378.691 246.133 379.984 248.046 377.617 254.481C374.703 257.987 371.934 260.722 367.725 262.567C359.511 265.548 350.818 264.942 342.795 261.692C340.792 261.871 338.581 259.864 337.069 258.743C336.826 258.968 336.642 259.164 336.341 259.309C334.722 258.625 334.3 257.43 333.518 255.962C333.464 256.023 333.41 256.086 333.355 256.147C333.32 256.185 333.283 256.221 333.247 256.258C333.307 256.638 333.343 256.987 333.352 257.373C333.355 257.5 333.355 257.626 333.356 257.752C331.998 256.056 331.347 254.075 330.728 252.029C329.919 249.019 330.193 245.477 330.13 242.378L329.629 240.019C330.537 239.208 330.714 238.761 330.786 237.581C329.948 236.029 328.9 234.817 327.71 233.532L328.074 233.121L328.179 232.719C328.956 232.091 329.789 231.445 330.47 230.712C332.951 228.041 333.047 224.945 332.996 221.517L332.651 221.643L332.324 220.749L331.798 220.566C331.769 219.589 331.877 218.626 331.969 217.654C332.206 216.845 332.393 215.882 333.059 215.319L333.346 215.68C333.78 214.186 334.31 212.769 335.109 211.429C338.598 205.579 343.618 203.429 349.975 201.812Z"/>
	<path fill="#2D2D2C" d="M331.969 217.654C332.206 216.845 332.393 215.882 333.059 215.319L333.346 215.68L332.996 221.517L332.651 221.643L332.324 220.749L331.798 220.566C331.769 219.589 331.877 218.626 331.969 217.654Z"/>
	<path fill="#010101" d="M357.745 220.073C359.068 220.641 360.246 221.112 360.793 222.544C361.848 225.309 361.354 239.375 361.175 243.04C360.167 244.599 359.314 245.52 357.46 245.934C357.165 246 356.875 246.05 356.576 246.091C356.619 245.981 356.64 245.86 356.704 245.761C357.01 245.291 357.916 244.717 358.432 244.522C358.785 244.363 359.128 244.158 359.468 243.973C359.873 243.372 359.968 242.91 360.029 242.19C360.297 239.055 360.408 224.968 359.577 222.565C359.265 221.664 358.364 220.788 357.745 220.073Z"/>
	<path fill="#B0B0B0" d="M351.195 223.649C351.228 223.493 351.255 223.335 351.294 223.18C351.591 222.018 352.382 221.238 353.395 220.635C354.761 219.822 356.233 219.674 357.745 220.073C358.364 220.788 359.265 221.664 359.577 222.565C360.408 224.968 360.297 239.055 360.029 242.19C359.968 242.91 359.873 243.372 359.468 243.973C359.128 244.158 358.785 244.363 358.432 244.522C359.028 242.732 358.789 229.423 358.55 226.883C358.466 225.995 358.273 225.096 357.943 224.265C357.59 223.375 357.17 222.836 356.254 222.512C354.448 221.872 352.778 222.886 351.195 223.649Z"/>
	<path fill="#010101" d="M328.074 233.121C330.333 234.453 331.819 236.49 332.472 239.024C333.178 241.761 333.008 244.717 333.123 247.524C333.352 253.157 336.269 257.777 341.03 260.699C341.602 261.05 342.194 261.391 342.795 261.692C340.792 261.871 338.581 259.864 337.069 258.743C336.826 258.968 336.642 259.164 336.341 259.309C334.722 258.625 334.3 257.43 333.518 255.962C333.464 256.023 333.41 256.086 333.355 256.147C333.32 256.185 333.283 256.221 333.247 256.258C333.307 256.638 333.343 256.987 333.352 257.373C333.355 257.5 333.355 257.626 333.356 257.752C331.998 256.056 331.347 254.075 330.728 252.029C329.919 249.019 330.193 245.477 330.13 242.378L329.629 240.019C330.537 239.208 330.714 238.761 330.786 237.581C329.948 236.029 328.9 234.817 327.71 233.532L328.074 233.121Z"/>
	<path fill="#ADADAD" d="M330.728 252.029C330.741 251.542 330.669 250.9 331.084 250.545C331.552 250.143 331.662 249.866 331.94 249.327C332.866 253.323 334.188 255.837 337.069 258.743C336.826 258.968 336.642 259.164 336.341 259.309C334.722 258.625 334.3 257.43 333.518 255.962C333.464 256.023 333.41 256.086 333.355 256.147C333.32 256.185 333.283 256.221 333.247 256.258C333.307 256.638 333.343 256.987 333.352 257.373C333.355 257.5 333.355 257.626 333.356 257.752C331.998 256.056 331.347 254.075 330.728 252.029Z"/>
	<path fill="#B0B0B0" d="M330.786 237.581C331.289 239.032 331.588 240.384 331.748 241.911C331.75 244.387 331.727 246.858 331.94 249.327C331.662 249.866 331.552 250.143 331.084 250.545C330.669 250.9 330.741 251.542 330.728 252.029C329.919 249.019 330.193 245.477 330.13 242.378L329.629 240.019C330.537 239.208 330.714 238.761 330.786 237.581Z"/>
	<path fill="#242424" d="M351.195 223.649C352.778 222.886 354.448 221.872 356.254 222.512C357.17 222.836 357.59 223.375 357.943 224.265C358.273 225.096 358.466 225.995 358.55 226.883C358.789 229.423 359.028 242.732 358.432 244.522C357.916 244.717 357.01 245.291 356.704 245.761C356.64 245.86 356.619 245.981 356.576 246.091C356.266 246.156 355.954 246.168 355.638 246.158C354.488 246.121 353.325 245.702 352.564 244.814C351.85 243.98 351.423 242.86 351.221 241.792C350.548 238.241 350.897 227.615 351.195 223.649Z"/>
	<path fill="#FEFEFE" d="M350.965 272.159C358.67 271.49 367.154 271.891 373.356 277.112C376.987 280.169 378.998 284.305 379.339 289.025C379.666 293.551 378.634 298.335 382.463 301.718Q383.378 302.526 384.357 303.256C381.886 304.931 380.207 307 379.672 310.02C378.718 315.397 379.984 319.306 377.607 324.765C373.703 330.101 368.919 333.359 362.31 334.403C355.913 335.412 349.571 334.647 343.522 332.435C343.441 332.445 343.36 332.464 343.277 332.465C340.701 332.502 337.482 329.319 335.698 327.72L335.104 327.818C334.126 327.361 333.352 326.426 332.591 325.672L332.078 325.771C331.447 324.836 331.161 323.751 330.807 322.689C329.707 318.516 330.678 314.22 329.568 309.979C329.718 309.846 329.984 309.623 330.095 309.465C331.438 307.572 327.649 305.821 327.275 303.889C326.977 303.584 326.63 303.331 326.298 303.064C327.858 302.082 328.799 300.756 329.893 299.313C332.483 296.682 331.5 291.666 331.957 288.294C331.97 288.202 331.984 288.11 331.998 288.019C332.186 287.304 332.28 286.697 332.854 286.181L333.332 286.21C333.486 285.864 333.537 285.367 333.623 284.991C334.044 283.74 334.614 282.567 335.176 281.374C335.459 281.111 335.646 280.662 335.84 280.325C340.043 275.381 344.604 273.184 350.965 272.159Z"/>
	<path fill="#2D2D2C" d="M331.998 288.019C332.186 287.304 332.28 286.697 332.854 286.181L333.332 286.21C333.051 290.624 333.842 298.295 330.344 301.434C329.687 302.024 328.9 302.477 328.138 302.917L327.966 303.323L327.662 303.999L327.275 303.889C326.977 303.584 326.63 303.331 326.298 303.064C327.858 302.082 328.799 300.756 329.893 299.313C332.483 296.682 331.5 291.666 331.957 288.294C331.97 288.202 331.984 288.11 331.998 288.019Z"/>
	<path fill="#010101" d="M357.508 290.271C358.936 290.767 360.115 291.413 360.793 292.83C361.753 294.835 361.373 310.451 361.142 313.401C360.099 314.822 359.105 316.04 357.259 316.287C357.109 316.307 356.957 316.321 356.806 316.338C356.999 315.742 358.041 315.119 358.558 314.71C358.672 314.63 358.787 314.553 358.9 314.471C359.51 314.027 359.899 313.481 359.984 312.714C360.291 309.939 360.322 295.323 359.616 293.269C359.248 292.198 358.211 291.141 357.508 290.271Z"/>
	<path fill="#B0B0B0" d="M351.139 294.166C351.28 293.08 351.558 292.309 352.389 291.554C353.798 290.276 355.72 290.23 357.508 290.271C358.211 291.141 359.248 292.198 359.616 293.269C360.322 295.323 360.291 309.939 359.984 312.714C359.899 313.481 359.51 314.027 358.9 314.471C358.787 314.553 358.672 314.63 358.558 314.71C358.739 314.085 358.779 299.277 358.601 297.249C358.52 296.325 358.331 295.394 357.937 294.549C357.555 293.727 356.871 292.968 355.97 292.719C354.238 292.24 352.54 293.294 351.139 294.166Z"/>
	<path fill="#010101" d="M327.662 303.999L327.966 303.323C330.499 304.948 332.05 307.014 332.649 309.989C333.165 312.551 333.027 315.259 333.131 317.862C333.347 323.247 335.868 327.484 340.235 330.534C341.249 331.242 342.39 331.94 343.522 332.435C343.441 332.445 343.36 332.464 343.277 332.465C340.701 332.502 337.482 329.319 335.698 327.72L335.104 327.818C334.126 327.361 333.352 326.426 332.591 325.672L332.078 325.771C331.447 324.836 331.161 323.751 330.807 322.689C329.707 318.516 330.678 314.22 329.568 309.979C329.718 309.846 329.984 309.623 330.095 309.465C331.438 307.572 327.649 305.821 327.275 303.889L327.662 303.999Z"/>
	<path fill="#ADADAD" d="M330.807 322.689L331.15 321.959C331.612 322.07 331.596 322.113 331.918 322.42C331.887 321.77 331.872 321.653 332.177 321.086C332.959 323.649 333.864 325.712 335.698 327.72L335.104 327.818C334.126 327.361 333.352 326.426 332.591 325.672L332.078 325.771C331.447 324.836 331.161 323.751 330.807 322.689Z"/>
	<path fill="#B0B0B0" d="M327.275 303.889L327.662 303.999C333.519 309.872 331.053 313.99 332.177 321.086C331.872 321.653 331.887 321.77 331.918 322.42C331.596 322.113 331.612 322.07 331.15 321.959L330.807 322.689C329.707 318.516 330.678 314.22 329.568 309.979C329.718 309.846 329.984 309.623 330.095 309.465C331.438 307.572 327.649 305.821 327.275 303.889Z"/>
	<path fill="#242424" d="M351.139 294.166C352.54 293.294 354.238 292.24 355.97 292.719C356.871 292.968 357.555 293.727 357.937 294.549C358.331 295.394 358.52 296.325 358.601 297.249C358.779 299.277 358.739 314.085 358.558 314.71C358.041 315.119 356.999 315.742 356.806 316.338C356.422 316.405 356.019 316.415 355.63 316.41C354.475 316.396 353.333 315.96 352.562 315.082C351.844 314.264 351.433 313.207 351.221 312.152C350.463 308.373 350.984 298.481 351.139 294.166Z"/>
	<path fill="#FEFEFE" d="M273.561 273.753C275.646 273.062 293.186 273.186 296.043 273.525C296.469 273.957 296.645 274.375 296.655 274.999C296.661 275.447 296.544 275.933 296.458 276.372L296.63 276.722C297.938 276.238 299.174 274.877 300.408 274.136C305.164 271.277 311.406 270.989 316.427 273.397C319.766 274.998 322.088 277.935 323.264 281.397C325.292 287.372 324.468 308.936 324.422 316.587C324.401 320.004 324.072 324.121 324.97 327.417C325.494 329.343 327.031 331.07 328.255 332.601C328.523 332.936 328.431 332.821 328.616 333.305C322.39 332.938 315.966 333.278 309.718 333.296C307.15 333.303 304.344 333.513 301.81 333.115L300.509 332.933C300.43 332.971 300.354 333.017 300.271 333.047C298.75 333.595 274.8 333.529 273.592 333.019Q274.083 332.592 274.541 332.129C278.307 328.254 278.071 322.336 277.992 317.331C278.231 313.97 278.063 310.495 278.064 307.122L278.043 289.204C277.995 283.016 278.275 278.394 273.561 273.753Z"/>
	<path fill="#2D2D2C" d="M302.757 290.355C303.865 290.844 304.809 291.356 305.311 292.521C306.54 295.372 306.058 319.804 305.708 323.886C305.552 325.716 305.362 327.562 304.603 329.256C303.937 330.741 302.968 331.984 301.81 333.115L300.509 332.933L300.512 332.834C301.461 331.761 302.05 330.484 302.692 329.217C302.948 328.878 303.189 328.533 303.401 328.163C304.212 326.741 304.294 324.274 304.408 322.661C304.639 319.383 304.878 295.99 304.369 294.275C304.334 294.158 304.292 294.043 304.256 293.927C303.915 292.833 303.547 292.002 302.893 291.053C302.625 290.664 302.696 290.908 302.757 290.355Z"/>
	<path fill="#B0B0B0" d="M299.489 290.335C300.601 290.265 301.648 290.18 302.757 290.355C302.696 290.908 302.625 290.664 302.893 291.053C303.547 292.002 303.915 292.833 304.256 293.927C304.292 294.043 304.334 294.158 304.369 294.275C304.878 295.99 304.639 319.383 304.408 322.661C304.294 324.274 304.212 326.741 303.401 328.163C303.189 328.533 302.948 328.878 302.692 329.217C303.6 322.191 303.188 314.856 303.2 307.77C303.206 303.856 303.559 299.599 303.023 295.741C302.918 294.98 302.612 294.317 302.263 293.64C301.838 293.366 301.394 293.077 300.924 292.887C299.454 292.294 297.928 293.154 296.615 293.756C296.635 293.478 296.639 293.273 296.71 292.994C297.078 291.553 298.295 290.994 299.489 290.335Z"/>
	<path fill="#242424" d="M296.615 293.756C297.928 293.154 299.454 292.294 300.924 292.887C301.394 293.077 301.838 293.366 302.263 293.64C302.612 294.317 302.918 294.98 303.023 295.741C303.559 299.599 303.206 303.856 303.2 307.77C303.188 314.856 303.6 322.191 302.692 329.217C302.05 330.484 301.461 331.761 300.512 332.834C300.067 332.578 299.692 332.304 299.354 331.914C298.002 330.352 297.212 328.267 296.836 326.251C295.94 321.455 296.486 313.898 296.491 308.743C296.496 303.823 296.173 298.649 296.615 293.756Z"/>
	<path fill="#24221C" d="M389.773 246.377C390.964 242.311 393.845 238.69 397.245 236.22C399.826 234.345 403.809 232.449 407.07 232.986C413.547 232.976 418.212 232.97 423.138 237.877C426.289 241.015 427.895 245.326 427.897 249.747C427.899 252.284 427.384 254.584 426.462 256.938C426.405 258.005 424.27 262.013 424.447 262.392C424.449 262.396 424.958 263.013 424.969 263.026C424.986 263.046 425.007 263.063 425.026 263.081C425.084 266.321 424.741 269.875 425.131 273.062C425.483 269.564 425.309 265.907 425.217 262.394C432.808 262.391 440.435 262.241 448.021 262.453C448.056 264.985 448.571 270.969 447.784 273.199C447.709 274.12 447.753 274.515 447.232 275.296C445.258 276.463 442.137 275.789 439.886 275.888C439.064 280.454 437.983 285.397 435.567 289.415C437.306 291.015 448.67 301.591 448.781 303.071C448.786 303.129 448.781 303.189 448.781 303.248C443.541 303.082 438.248 303.228 433.003 303.211C431.181 301.932 429.585 300.308 428.063 298.693C425.924 300.543 423.334 302.044 420.708 303.085C413.183 306.071 404.997 305.223 397.704 302.103C397.634 302.112 397.565 302.13 397.494 302.129C395.043 302.12 390.947 297.928 389.346 296.274C388.09 294.519 386.997 292.874 386.335 290.795C385.255 287.729 384.534 282.785 384.718 279.53Q385.394 277.12 386.693 274.979C388.309 271.844 390.728 269.583 393.302 267.249C393.491 267.192 393.702 267.132 393.881 267.053C394.502 266.775 394.573 266.742 394.79 266.134C394.535 264.856 393.339 263.503 392.725 262.296C391.54 260.142 390.776 257.901 390.331 255.489C390.208 252.452 389.967 249.411 389.773 246.377Z"/>
	<path fill="#2D2D2C" d="M427.358 273.208C427.903 273.239 428.583 273.138 429.002 273.493C428.693 275.696 428.57 278.386 427.357 280.283L426.913 280.485C426.392 280.204 426.192 279.954 425.864 279.465L426.36 276.949C426.922 275.693 427.221 274.579 427.358 273.208Z"/>
	<path fill="#ADADAD" d="M439.886 275.888C439.953 275.053 439.899 274.244 440.486 273.588C442.397 272.549 445.605 273.215 447.784 273.199C447.709 274.12 447.753 274.515 447.232 275.296C445.258 276.463 442.137 275.789 439.886 275.888Z"/>
	<path fill="#B0B0B0" d="M403.591 248.482C404.022 246.842 405.056 245.455 406.547 244.61C408.161 243.696 410.295 243.532 412.054 244.08C413.719 244.598 415.172 245.726 415.928 247.317C416.613 248.76 416.627 250.405 416.07 251.891C414.876 255.077 410.359 258.492 407.294 259.831C407.027 259.948 406.742 260.03 406.463 260.112C407.117 257.838 412.404 256.154 413.639 253.32C414.159 252.127 413.885 250.559 413.402 249.397C412.885 248.156 411.934 247.156 410.679 246.653C407.067 245.206 405.849 247.83 403.895 248.427C403.796 248.457 403.692 248.464 403.591 248.482Z"/>
	<path fill="#ADADAD" d="M403.592 274.531C406.383 277.625 409.505 280.479 412.48 283.399C414.997 285.869 417.459 288.54 420.153 290.809C418.266 291.836 416.217 293.138 414.041 293.373C414.689 292.661 415.623 292.309 416.479 291.9Q409.245 284.909 402.13 277.796C400.915 278.865 400.079 280.304 398.766 281.255C399.635 278.129 401.493 276.779 403.592 274.531Z"/>
	<path fill="#242424" d="M403.591 248.482C403.692 248.464 403.796 248.457 403.895 248.427C405.849 247.83 407.067 245.206 410.679 246.653C411.934 247.156 412.885 248.156 413.402 249.397C413.885 250.559 414.159 252.127 413.639 253.32C412.404 256.154 407.117 257.838 406.463 260.112C406.268 259.66 406.347 259.783 406.127 259.448C403.633 255.653 402.992 253.018 403.591 248.482Z"/>
	<path fill="#4D4D4D" d="M389.773 246.377C390.964 242.311 393.845 238.69 397.245 236.22C399.826 234.345 403.809 232.449 407.07 232.986C401.942 233.973 397.454 236.414 394.445 240.788C391.466 245.121 390.603 250.565 391.601 255.685C392.375 259.656 394.339 263.152 396.676 266.402C392.27 268.928 388.609 273.556 387.149 278.42C385.766 283.724 386.288 289.099 389.101 293.866C390.557 296.334 392.546 298.613 394.916 300.23C395.752 300.801 397.004 301.404 397.704 302.103C397.634 302.112 397.565 302.13 397.494 302.129C395.043 302.12 390.947 297.928 389.346 296.274C388.09 294.519 386.997 292.874 386.335 290.795C385.255 287.729 384.534 282.785 384.718 279.53Q385.394 277.12 386.693 274.979C388.309 271.844 390.728 269.583 393.302 267.249C393.491 267.192 393.702 267.132 393.881 267.053C394.502 266.775 394.573 266.742 394.79 266.134C394.535 264.856 393.339 263.503 392.725 262.296C391.54 260.142 390.776 257.901 390.331 255.489C390.208 252.452 389.967 249.411 389.773 246.377Z"/>
	<path fill="#ADADAD" d="M426.462 256.938C426.405 258.005 424.27 262.013 424.447 262.392C424.449 262.396 424.958 263.013 424.969 263.026C424.986 263.046 425.007 263.063 425.026 263.081C425.084 266.321 424.741 269.875 425.131 273.062C425.886 273.177 426.593 273.317 427.358 273.208C427.221 274.579 426.922 275.693 426.36 276.949L425.864 279.465C422.154 276.442 419.196 272.465 415.46 269.473C415.15 269.194 414.907 269.007 414.75 268.607C414.719 268.529 414.672 268.449 414.676 268.365C414.693 267.984 415.502 267.526 415.775 267.339C420.172 264.322 423.904 261.781 426.462 256.938Z"/>
	<path fill="#242424" d="M415.46 269.473C416.958 268.426 420.771 265.214 422.229 264.965C422.754 265.772 422.587 266.992 422.587 267.928C422.504 270.386 422.117 273.087 423.16 275.379C424.001 276.072 424.562 275.946 425.598 275.848C426.174 276.238 426.151 276.277 426.36 276.949L425.864 279.465C422.154 276.442 419.196 272.465 415.46 269.473Z"/>
	<path fill="#242424" d="M402.13 277.796Q409.245 284.909 416.479 291.9C415.623 292.309 414.689 292.661 414.041 293.373C412.376 294.361 409.598 294.224 407.762 293.827C404.558 293.133 401.546 291.356 399.821 288.504C398.475 286.279 398.182 283.766 398.766 281.255C400.079 280.304 400.915 278.865 402.13 277.796Z"/>
	<path fill="#FEFEFE" d="M107.924 273.728C110.122 273.091 144.597 273.258 147.308 273.547Q148.803 273.697 150.239 274.141Q151.674 274.585 152.993 275.306C156.655 277.337 158.947 280.833 160.005 284.801C162.011 292.327 161.211 304.165 157.152 310.925C156.88 311.378 156.557 311.797 156.216 312.2C161.51 317.831 161.784 325.914 161.524 333.26C161.407 336.565 160.827 339.656 159.553 342.711C156.736 346.763 153.452 349.558 148.48 350.461C146.693 350.785 109.575 351.112 108.48 350.767C108.323 350.717 108.203 350.591 108.064 350.504L107.97 350.173L106.244 350.276C108.095 349.087 109.444 347.937 110.718 346.131C110.929 345.962 111.08 345.855 111.265 345.644C112.388 344.364 112.752 341.45 112.895 339.797C113.41 333.846 112.951 327.529 112.917 321.534L112.848 284.815C112.818 283.457 112.584 282.14 112.371 280.803C111.421 278.27 110.238 276.554 108.214 274.758L108.051 274.164L107.924 273.728Z"/>
	<path fill="#010101" d="M138.853 290.342C139.97 290.584 140.863 290.918 141.521 291.91C143.103 294.296 142.526 298.985 142.148 301.694C140.853 303.048 139.915 303.985 137.923 304.042C137.787 304.045 137.652 304.045 137.517 304.047C138.377 303.525 139.124 302.999 139.866 302.318C140.07 302.21 140.181 302.165 140.361 301.994C141.226 301.173 141.264 299.594 141.298 298.48C141.393 295.431 140.988 292.617 138.853 290.342Z"/>
	<path fill="#B0B0B0" d="M133.158 292.761C133.12 291.826 132.949 291.298 133.455 290.493C135.154 289.72 137.043 290.177 138.853 290.342C140.988 292.617 141.393 295.431 141.298 298.48C141.264 299.594 141.226 301.173 140.361 301.994C140.181 302.165 140.07 302.21 139.866 302.318C139.678 299.975 140.438 295.498 138.581 293.78C137.144 292.448 134.96 292.729 133.158 292.761Z"/>
	<path fill="#B0B0B0" d="M133.16 320.846C133.1 320.075 133.088 319.368 133.154 318.598C133.775 318.116 134.355 318.16 135.139 318.14C137.003 318.09 139.804 318.256 141.149 319.618C143.322 322.253 142.571 327.949 142.279 331.123Q142.255 331.384 142.227 331.644C140.959 333.024 140.081 333.974 138.099 334.084C137.989 334.09 137.879 334.088 137.769 334.091C138.209 333.768 138.743 333.419 139.091 332.999C140.514 331.283 139.735 324.915 139.408 322.734C139.19 322.406 138.974 322.103 138.685 321.831C137.327 320.55 134.878 320.823 133.16 320.846Z"/>
	<path fill="#242424" d="M133.158 292.761C134.96 292.729 137.144 292.448 138.581 293.78C140.438 295.498 139.678 299.975 139.866 302.318C139.124 302.999 138.377 303.525 137.517 304.047C136.09 304.162 134.645 304.185 133.214 304.244Q133.004 298.503 133.158 292.761Z"/>
	<path fill="#242424" d="M133.16 320.846C134.878 320.823 137.327 320.55 138.685 321.831C138.974 322.103 139.19 322.406 139.408 322.734C139.735 324.915 140.514 331.283 139.091 332.999C138.743 333.419 138.209 333.768 137.769 334.091L133.214 334.243Q132.989 327.545 133.16 320.846Z"/>
	<path fill="#2D2D2C" d="M108.051 274.164C110.513 275.348 112.273 277.257 113.207 279.834C113.808 281.494 114.072 283.453 114.04 285.213C114.348 288.596 114.178 292.097 114.177 295.497L114.192 312.153L114.202 329.341C114.201 333.796 114.375 338.362 113.695 342.776C113.443 344.416 112.828 345.856 111.76 347.133C110.76 348.328 109.335 349.42 107.97 350.173L106.244 350.276C108.095 349.087 109.444 347.937 110.718 346.131C110.929 345.962 111.08 345.855 111.265 345.644C112.388 344.364 112.752 341.45 112.895 339.797C113.41 333.846 112.951 327.529 112.917 321.534L112.848 284.815C112.818 283.457 112.584 282.14 112.371 280.803C111.421 278.27 110.238 276.554 108.214 274.758L108.051 274.164Z"/>
	<path fill="#010101" d="M108.051 274.164C110.513 275.348 112.273 277.257 113.207 279.834C113.808 281.494 114.072 283.453 114.04 285.213C113.744 288.813 113.881 292.509 113.871 296.123L114.101 296.077L113.632 295.565C113.796 294.722 113.31 285.798 112.963 285.01C112.932 284.941 112.886 284.88 112.848 284.815C112.818 283.457 112.584 282.14 112.371 280.803C111.421 278.27 110.238 276.554 108.214 274.758L108.051 274.164Z"/>
	<path fill="#ADADAD" d="M389.757 309.96C396.791 313.666 403.955 315.864 411.999 314.997C414.696 314.706 417.313 314.036 420.001 313.704C415.817 316.231 411.473 318.459 407.128 320.693C404.53 322.029 401.5 323.274 399.194 325.066C398.398 325.686 397.807 326.471 397.271 327.317C393.861 332.69 391.246 339.014 387.339 344.007C385.035 345.179 382.389 345.618 379.888 346.202L366.712 349.273C363.882 349.934 360.8 350.423 358.14 351.615C354.049 353.447 346.373 360.487 342.566 363.66C341.005 364.961 339.45 366.486 337.663 367.47C329.802 367.831 321.925 367.8 314.058 368.114C311.4 368.22 308.238 368.011 305.693 368.709C300.748 370.065 292.332 374.154 287.313 376.38C285.062 377.379 282.154 379.118 279.697 379.386C276.833 379.699 273.461 378.707 270.66 378.149Q263.789 376.767 256.879 375.595C254.124 375.114 251.306 374.418 248.498 374.451C245.402 374.487 242.093 375.384 239.053 375.952L225.789 378.344C223.355 378.793 220.408 379.69 217.953 379.32C215.554 378.958 213.188 377.71 210.991 376.73C206.328 374.649 195.93 369.435 191.623 368.588C188.485 367.971 185.064 368.264 181.876 368.173C177.784 368.055 173.711 367.768 169.614 367.758C166.667 367.752 163.124 368.126 160.291 367.316C157.756 366.59 153.569 362.513 151.486 360.628C151.229 360.395 150.997 360.149 150.76 359.897C153.838 358.848 156.735 357.504 159.307 355.489C164.42 351.482 167.682 345.171 168.436 338.754C173.195 341.617 177.463 343.346 182.921 344.427C186.506 344.756 190.048 344.66 193.637 344.754C199.604 344.335 205.095 342.673 210.205 339.556C212.207 338.089 214.053 336.466 215.836 334.743L217.437 332.604C220.891 337.323 225.218 340.294 230.52 342.636C231.173 342.837 231.858 343.001 232.474 343.295C235.772 344.186 238.9 344.691 242.313 344.825C245.571 344.756 248.761 344.733 252.012 344.434C256.495 343.856 260.866 342.174 264.745 339.891C266.013 340.909 267.216 341.931 268.697 342.627C272.474 343.583 276.195 343.023 280.022 343.282C281.751 343.267 283.51 343.189 285.236 343.277C289.207 343.212 293.306 343.02 297.262 343.28Q302.439 343.188 307.617 343.276C313.907 343.209 320.351 342.946 326.628 343.3C328.643 343.083 330.226 342.583 331.991 341.583L334.438 339.481Q336.25 340.5 338.034 341.567C343.058 343.538 347.915 344.637 353.326 344.728C362.599 344.886 372.036 342.763 378.863 336.099C385.882 329.249 386.548 321.894 386.68 312.636L389.757 309.96Z"/>
	<path fill="#AAA" d="M334.438 339.481Q336.25 340.5 338.034 341.567L337.896 341.971C338.229 343.436 343.097 347.368 344.355 348.848C345.114 349.74 345.653 350.832 345.566 352.014L345.563 352C345.335 352.137 345.142 352.368 344.879 352.409C342.102 352.844 335.008 342.242 331.991 341.583L334.438 339.481Z"/>
	<path fill="#AAA" d="M182.921 344.427C186.506 344.756 190.048 344.66 193.637 344.754C192.134 345.065 186.776 344.488 186.052 345.559C185.778 345.965 185.862 345.799 185.795 346.319C183.867 349.085 179.601 355.372 177.12 357.235C176.447 357.741 175.993 357.851 175.17 357.748C174.69 357.246 174.686 357.223 174.605 356.533C175.573 354.093 180.595 347.143 182.7 345.634L182.921 344.427Z"/>
	<path fill="#AAA" d="M307.617 343.276C313.907 343.209 320.351 342.946 326.628 343.3C322.474 343.752 318.113 343.301 313.918 343.517C316.123 346.192 322.405 354.536 323.513 357.515C323.784 358.243 323.848 358.709 323.538 359.42L322.84 359.644C319.49 358.918 313.253 347.046 310.691 344.048C310.084 343.339 308.512 343.373 307.617 343.276Z"/>
	<path fill="#AAA" d="M285.236 343.277C289.207 343.212 293.306 343.02 297.262 343.28C295.517 343.551 293.54 343.409 291.764 343.432C293.043 345.85 300.453 361.343 300.734 363C300.834 363.585 300.703 364.089 300.257 364.513C299.776 364.97 299.422 364.946 298.832 364.888C296.883 363.116 289.101 346.303 288.712 343.542C287.55 343.486 286.394 343.382 285.236 343.277Z"/>
	<path fill="#AAA" d="M242.313 344.825C245.571 344.756 248.761 344.733 252.012 344.434C252.446 347.479 252.689 366.864 251.506 368.828C250.825 369.202 250.488 369.12 249.75 369.023C249.142 368.502 248.983 368.083 248.927 367.279C248.616 362.771 248.709 358.166 248.662 353.647C248.632 350.879 248.302 347.733 248.763 345.015C247.391 345.042 243.354 345.508 242.313 344.825Z"/>
	<path fill="#AAA" d="M230.52 342.636C231.173 342.837 231.858 343.001 232.474 343.295C232.648 345.835 228.128 365.682 226.917 367.412C226.541 367.949 226.297 368.108 225.67 368.245C225.279 368.115 224.947 368.113 224.711 367.748C224.425 367.305 224.394 366.919 224.429 366.411C224.612 363.793 225.422 361.061 225.972 358.497C226.866 354.328 227.711 350.17 228.499 345.981C228.681 345.011 228.928 344.021 229.832 343.483C230.289 343.211 230.27 343.108 230.52 342.636Z"/>
	<path fill="#AAA" d="M268.697 342.627C272.474 343.583 276.195 343.023 280.022 343.282C277.233 343.581 274.309 343.412 271.504 343.398C273.064 347.781 273.646 352.475 274.617 357.005C275.214 359.787 276.123 362.624 276.435 365.45C276.519 366.208 276.609 367.075 276.285 367.788C276.118 368.156 275.938 368.124 275.593 368.254C274.734 368.012 274.238 367.635 273.719 366.9C273.07 365.978 268.194 345.187 268.445 343.969C268.538 343.517 268.622 343.082 268.697 342.627Z"/>
	<path fill="#AAA" d="M210.205 339.556C212.207 338.089 214.053 336.466 215.836 334.743C215.912 335.546 215.974 336.302 215.719 337.081C214.839 339.765 204.241 362.47 202.979 364.057C202.629 364.497 202.298 364.836 201.701 364.897C201.171 364.952 200.822 364.823 200.406 364.534C200.207 363.675 200.43 362.966 200.686 362.145C201.77 358.669 203.607 355.249 205.099 351.913C206.731 348.262 208.206 344.184 210.293 340.779L210.565 340.345C210.435 339.757 210.559 340.018 210.205 339.556Z"/>
</svg>
