<?xml version="1.0" encoding="utf-8" ?>
<svg xmlns="http://www.w3.org/2000/svg" xmlns:xlink="http://www.w3.org/1999/xlink" width="512" height="512">
	<path fill="white" fill-opacity="0.98823529" transform="matrix(0.2048 0 0 0.2048 1.52588e-05 -3.8147e-06)" d="M1877.95 1363.68C1882.18 1363.19 1887.06 1362.3 1890.72 1364.82C1892.94 1368.55 1892.04 1373.07 1891.76 1377.23C1887.41 1377.51 1882.03 1378.46 1878.31 1375.86C1876.22 1371.94 1877.38 1367.89 1877.95 1363.68Z"/>
	<path fill="white" transform="matrix(0.2048 0 0 0.2048 1.52588e-05 -3.8147e-06)" d="M1109.18 1438.4C1112.56 1437.97 1112.65 1437.75 1115.48 1439.58C1115.81 1441.49 1116.36 1442.04 1115.21 1443.81C1113.14 1447 1108.99 1448.59 1105.35 1449.24C1099.19 1450.33 1091.81 1448.66 1086.04 1446.46L1087.23 1443.02C1090.99 1442.55 1094.23 1440.37 1098 1439.76C1101.44 1439.2 1104.55 1439.55 1108.13 1438.66L1109.18 1438.4Z"/>
	<path fill="white" transform="matrix(0.2048 0 0 0.2048 1.52588e-05 -3.8147e-06)" d="M1084.41 1392.74C1093.61 1389.35 1103.11 1387.66 1112.34 1392.12C1113.73 1392.79 1114.68 1393.65 1115.68 1394.8L1115.4 1398.46L1115.97 1395.4C1114.45 1399.41 1114.49 1399.43 1110.79 1401.58C1103.43 1401.68 1097.94 1400.74 1090.96 1403.79C1087.8 1403.42 1086.93 1403.9 1084.51 1401.66L1084.41 1392.74Z"/>
	<path fill="white" transform="matrix(0.2048 0 0 0.2048 1.52588e-05 -3.8147e-06)" d="M1086.04 1446.46C1083.11 1444.64 1080.58 1442.77 1078.24 1440.21C1072.46 1433.89 1069.95 1425.02 1070.75 1416.57C1071.76 1405.9 1076.43 1399.42 1084.41 1392.74L1084.51 1401.66C1086.93 1403.9 1087.8 1403.42 1090.96 1403.79C1086.96 1409.72 1084.15 1416.54 1085.84 1423.81C1086.95 1428.62 1090.28 1432.64 1094.44 1435.19C1099.07 1438.04 1103.89 1438.25 1109.18 1438.4L1108.13 1438.66C1104.55 1439.55 1101.44 1439.2 1098 1439.76C1094.23 1440.37 1090.99 1442.55 1087.23 1443.02L1086.04 1446.46Z"/>
	<path fill="white" transform="matrix(0.2048 0 0 0.2048 1.52588e-05 -3.8147e-06)" d="M1878.01 1391.51C1882.92 1391.41 1887.95 1390.8 1892.58 1392.68C1895.29 1410.01 1892.06 1428.48 1894.08 1446.05C1894.15 1446.59 1894.22 1447.12 1894.29 1447.65C1890.02 1447.96 1882.03 1449.13 1878.71 1446.34C1875.81 1429.07 1877.74 1409.04 1878.01 1391.51Z"/>
	<path fill="#E0E0E0" transform="matrix(0.2048 0 0 0.2048 1.52588e-05 -3.8147e-06)" d="M594.957 1250.56C601.228 1250.89 605.751 1251.41 611.394 1248.16C619.565 1243.45 627.719 1238.9 636.098 1234.56C637.14 1239.87 639.166 1246.6 638.832 1251.96C638.113 1263.49 619.619 1293.92 612.39 1304.72C607.982 1311.3 600.731 1320.98 592.555 1322.58C588.349 1323.4 585.831 1321.38 582.61 1319.09C585.777 1319.09 591.154 1319.35 594.016 1318.02C602.852 1313.9 625.288 1273.7 628.328 1262.93C629.873 1257.45 628.659 1253.29 625.949 1248.48L622.087 1248.6C619.889 1251.76 617.992 1254.99 613.87 1255.66C607.297 1256.73 592.017 1255.66 586.446 1251.77C588.817 1251.75 590.752 1251.64 593.079 1251.08C593.709 1250.92 594.331 1250.74 594.957 1250.56Z"/>
	<path fill="white" transform="matrix(0.2048 0 0 0.2048 1.52588e-05 -3.8147e-06)" d="M2008.49 1409.62C2006.66 1405.11 2005.21 1402.15 2000.38 1400.17C1992.7 1397.03 1979.86 1405.8 1974.01 1400.94C1974.78 1397.69 1976.76 1395.98 1979.46 1394.19C1987.24 1389.06 1998.57 1387.47 2007.56 1389.7C2012.54 1390.94 2016.61 1393.75 2019.26 1398.18C2024.43 1406.82 2025.55 1435.75 2022.49 1445.46C2021.66 1448.1 2021.16 1448.32 2018.91 1449.67C2015.5 1449.59 2012.32 1449.96 2009.49 1447.76C2008.95 1446.13 2008.33 1444.53 2008.01 1442.83L2007.54 1439.73C2006.23 1438.97 2005.11 1438.24 2003.94 1437.26C2003.59 1436.96 2003.24 1436.66 2002.9 1436.36C2005.44 1433.41 2006.99 1429.92 2008.74 1426.46C2009.69 1425.39 2009.69 1424.49 2009.84 1423.1C2010.2 1419.59 2010.61 1412.14 2008.49 1409.62Z"/>
	<path fill="white" transform="matrix(0.2048 0 0 0.2048 1.52588e-05 -3.8147e-06)" d="M2008.49 1409.62C2010.61 1412.14 2010.2 1419.59 2009.84 1423.1C2009.69 1424.49 2009.69 1425.39 2008.74 1426.46C2006.99 1429.92 2005.44 1433.41 2002.9 1436.36C2003.24 1436.66 2003.59 1436.96 2003.94 1437.26C2005.11 1438.24 2006.23 1438.97 2007.54 1439.73L2008.01 1442.83C2007.49 1442.93 2006.98 1443 2006.47 1443.11C2004.23 1443.59 2002.49 1444.74 2000.52 1445.86C1995.47 1448.75 1990.28 1451.12 1984.39 1449.47C1981.31 1448.6 1978.14 1447.31 1975.48 1445.53C1971.78 1441.03 1967.41 1432.94 1968.73 1426.84C1972.15 1410.96 2001.27 1414.39 2007.19 1410.54C2007.63 1410.25 2008.06 1409.93 2008.49 1409.62ZM1981.13 1433.04C1985.58 1436.63 1988.93 1439.24 1994.87 1438.75C1997.76 1438.51 2000.24 1437.46 2002.9 1436.36C2005.44 1433.41 2006.99 1429.92 2008.74 1426.46C2007.98 1424.72 2007.61 1422.38 2005.78 1421.55C2000.96 1419.37 1994.91 1420.57 1990.31 1422.72C1986.14 1424.66 1983.35 1426.68 1981.76 1431.16C1981.53 1431.79 1981.34 1432.42 1981.13 1433.04Z"/>
	<path fill="white" transform="matrix(0.2048 0 0 0.2048 1.52588e-05 -3.8147e-06)" d="M818.205 1362.51C822.525 1362.21 828.065 1361.37 831.904 1363.61C834.68 1389.28 832.82 1422.46 832.286 1448.8Q829.939 1448.99 827.587 1449.09C824.305 1449.21 821.078 1449.3 818.518 1446.96C816.467 1428.07 816.136 1381.23 818.205 1362.51Z"/>
	<path fill="white" transform="matrix(0.2048 0 0 0.2048 1.52588e-05 -3.8147e-06)" d="M1384.42 1361.43C1389.18 1361.19 1393.24 1361 1397.9 1362.15C1400.48 1367.52 1400.41 1437.69 1398.92 1445.78C1398.49 1448.14 1398.19 1447.75 1396.34 1449.01C1393.87 1449.1 1391.38 1449.23 1388.91 1448.91C1386.38 1448.59 1385.78 1448.95 1384.17 1446.81C1382.29 1429.17 1381.89 1378.35 1384.42 1361.43Z"/>
	<path fill="white" transform="matrix(0.2048 0 0 0.2048 1.52588e-05 -3.8147e-06)" d="M1262.7 1392.96C1262.84 1384.33 1260.31 1369.94 1266.14 1363.33C1269.65 1361.48 1271.47 1361.4 1275.31 1361.46C1277.66 1363 1278.48 1363.27 1279.23 1366.14C1279.98 1369.05 1279.59 1430.35 1279.06 1437.04C1278.76 1440.94 1278.21 1444.35 1276.53 1447.9C1274.37 1449.57 1273.45 1450.59 1270.48 1450.23C1268.02 1449.93 1265.06 1448.21 1263.4 1446.48L1263.93 1441.56C1262.77 1439.85 1261.88 1438.38 1261.13 1436.44C1260.92 1435.9 1260.74 1435.36 1260.55 1434.82C1263.28 1428.82 1263.46 1419.51 1262.68 1412.99C1261.93 1406.71 1260.39 1404.39 1255.45 1400.45C1255.07 1399.02 1254.89 1397.67 1254.7 1396.21C1258.67 1395.56 1259.58 1395.43 1262.7 1392.96Z"/>
	<path fill="#E0E0E0" transform="matrix(0.2048 0 0 0.2048 1.52588e-05 -3.8147e-06)" d="M2129.88 1096.63C2142.7 1096.34 2153.31 1096.55 2165.68 1100.13C2167.88 1102.43 2170.27 1104.84 2171.77 1107.67C2175.62 1114.99 2176.14 1124.55 2173.38 1132.27Q2151.07 1132.35 2128.77 1132.12C2128.65 1121.17 2126.91 1107.12 2129.88 1096.63Z"/>
	<path fill="white" transform="matrix(0.2048 0 0 0.2048 1.52588e-05 -3.8147e-06)" d="M1739.41 1389.37C1742.33 1389.31 1745.25 1389.4 1748.17 1389.47C1761.57 1398.5 1746.22 1419.76 1754.22 1432.16C1756.35 1435.47 1761.64 1438.55 1765.57 1438.91C1768.55 1439.19 1770.93 1438.41 1773.04 1436.21C1782.33 1426.54 1779.29 1402.38 1779.09 1389.77C1784.22 1389.4 1789.43 1389.75 1794.56 1389.91L1794.67 1410.22C1794.77 1418.67 1797.35 1441.44 1792.87 1448C1790.97 1449.3 1790.11 1450.45 1787.63 1450.3C1785.37 1450.17 1783.63 1448.26 1782.17 1446.76C1781.87 1446.45 1780.38 1444.84 1779.99 1444.56C1774.34 1440.55 1765.76 1449.27 1759.49 1449.95C1752.98 1450.65 1746.44 1445.01 1742.09 1440.95C1741.93 1440.5 1741.77 1440.06 1741.63 1439.61C1741.39 1438.86 1741.17 1438.11 1740.94 1437.36C1736.71 1424.03 1736.86 1403.18 1739.41 1389.37Z"/>
	<path fill="white" transform="matrix(0.2048 0 0 0.2048 1.52588e-05 -3.8147e-06)" d="M1823.39 1394.98C1826.45 1393.42 1829.56 1391.78 1832.83 1390.69C1838.89 1388.68 1846.27 1388.33 1851.99 1391.55C1857.13 1394.44 1860.12 1399.66 1861.73 1405.18C1863.99 1413.01 1865.84 1440.52 1861.64 1447.08C1860.72 1448.52 1858.15 1449.71 1856.46 1449.67C1854.1 1449.62 1851.65 1448.15 1850.2 1446.35C1845.11 1440.03 1847.61 1425.87 1847.76 1418.15C1847.68 1414.32 1847.6 1409.22 1845.53 1405.84C1843.74 1402.9 1842.5 1402.8 1839.41 1401.82C1830.8 1403.31 1827.35 1407.6 1821.6 1413.61C1821.51 1421.49 1821.76 1429.29 1821.91 1437.16C1822.01 1441.91 1821.93 1444.61 1818.55 1448.13C1814.84 1448.52 1812.75 1448.47 1809.18 1447.39C1805.23 1442.07 1807.03 1397.65 1808.06 1389.17Q1809.44 1389.14 1810.82 1389.16C1816.9 1389.25 1819.24 1390.81 1823.39 1394.98Z"/>
	<path fill="white" transform="matrix(0.2048 0 0 0.2048 1.52588e-05 -3.8147e-06)" d="M1033.1 1389.43C1036.81 1389.07 1041.18 1388.79 1044.84 1389.46C1050.36 1390.47 1054.73 1394.45 1057.49 1399.16C1063.82 1409.97 1062.82 1434.94 1059.46 1446.9C1056.95 1448.97 1054.06 1449.66 1050.68 1449.14C1038.22 1447.18 1049.99 1415.33 1042.02 1405.4C1038.62 1401.15 1035.35 1401.01 1030.28 1400.67L1028.73 1400.58C1028.27 1400.89 1027.8 1401.17 1027.37 1401.49C1014.45 1411.2 1023.45 1430.07 1020.66 1443C1019.98 1446.18 1019.05 1447.21 1016.37 1448.84C1012.17 1449 1010.9 1449.76 1007.57 1447.03C1003.26 1437.1 1003.43 1402.29 1007.24 1392.06C1010.93 1390.21 1015.38 1391.84 1019.22 1392.69C1024.18 1393.79 1026.9 1392.38 1031.36 1390.27L1033.1 1389.43Z"/>
	<path fill="white" transform="matrix(0.2048 0 0 0.2048 1.52588e-05 -3.8147e-06)" d="M1536 1366.42C1543.72 1365.9 1552.01 1365.97 1559.45 1368.39C1562.42 1369.35 1562.53 1369.71 1563.84 1372.35C1563.6 1375.71 1563.59 1376.4 1561.72 1379.15C1554.14 1381.57 1545.35 1378.23 1537.35 1379.55C1531.66 1380.48 1526.74 1383.36 1523.43 1388.12C1518.13 1395.74 1515.63 1406.63 1517.55 1415.75Q1517.71 1416.5 1517.91 1417.23Q1518.11 1417.97 1518.35 1418.7Q1518.58 1419.42 1518.86 1420.13Q1519.13 1420.85 1519.44 1421.54Q1519.75 1422.24 1520.1 1422.92Q1520.44 1423.6 1520.82 1424.26Q1521.2 1424.93 1521.62 1425.57Q1522.03 1426.21 1522.48 1426.83Q1522.92 1427.45 1523.4 1428.04Q1523.88 1428.64 1524.39 1429.21Q1524.89 1429.78 1525.43 1430.32Q1525.97 1430.86 1526.53 1431.38Q1527.09 1431.89 1527.68 1432.38Q1528.27 1432.86 1528.89 1433.31Q1529.5 1433.77 1530.14 1434.19Q1530.77 1434.61 1531.43 1435C1541.52 1441.01 1553.16 1437.4 1563.72 1434.87C1564.45 1438.61 1564.76 1440.82 1563.52 1444.56C1561.39 1447.09 1559.62 1448.03 1556.5 1448.88C1544.41 1452.2 1530.55 1451.05 1519.69 1444.54Q1518.84 1444.03 1518.02 1443.47Q1517.2 1442.91 1516.41 1442.32Q1515.61 1441.72 1514.85 1441.08Q1514.09 1440.44 1513.36 1439.77Q1512.64 1439.09 1511.94 1438.38Q1511.25 1437.67 1510.59 1436.93Q1509.94 1436.18 1509.32 1435.4Q1508.71 1434.63 1508.13 1433.82Q1507.55 1433.01 1507.02 1432.17Q1506.48 1431.34 1505.99 1430.48Q1505.5 1429.61 1505.05 1428.73Q1504.61 1427.84 1504.2 1426.93Q1503.8 1426.03 1503.45 1425.1Q1503.09 1424.17 1502.79 1423.23Q1502.48 1422.29 1502.22 1421.33Q1501.96 1420.37 1501.75 1419.4C1499.09 1407.43 1500.97 1393.8 1507.91 1383.54C1514.65 1373.57 1524.42 1368.57 1536 1366.42Z"/>
	<path fill="white" transform="matrix(0.2048 0 0 0.2048 1.52588e-05 -3.8147e-06)" d="M1301.22 1444.81C1300.72 1444.56 1300.2 1444.33 1299.71 1444.04C1293.84 1440.44 1289.74 1432.74 1288.5 1426.14C1286.84 1417.34 1289.16 1407.46 1294.45 1400.26Q1294.86 1399.71 1295.29 1399.18Q1295.72 1398.66 1296.18 1398.15Q1296.64 1397.65 1297.12 1397.17Q1297.6 1396.69 1298.11 1396.23Q1298.62 1395.77 1299.15 1395.34Q1299.68 1394.91 1300.23 1394.51Q1300.78 1394.11 1301.35 1393.73Q1301.92 1393.36 1302.5 1393.01Q1303.09 1392.67 1303.69 1392.35Q1304.3 1392.03 1304.92 1391.75Q1305.54 1391.46 1306.17 1391.21Q1306.8 1390.96 1307.45 1390.73Q1308.09 1390.51 1308.75 1390.32Q1309.4 1390.13 1310.07 1389.98Q1310.73 1389.82 1311.4 1389.7Q1312.07 1389.58 1312.75 1389.49C1322.83 1388.16 1331 1392.1 1338.9 1397.88C1341.76 1405.95 1343.42 1413.83 1344.86 1422.26C1338 1422.49 1306.37 1421.17 1302.51 1425.04C1303.09 1429.52 1305.85 1432.75 1308.35 1436.37C1308.78 1436.51 1309.2 1436.66 1309.62 1436.8C1318.6 1439.74 1326.45 1439.43 1334.94 1435.17C1335.32 1434.97 1335.69 1434.77 1336.07 1434.58C1338.69 1435.45 1339.76 1436.43 1341.63 1438.44C1342.02 1440.34 1342.48 1440.33 1341.53 1441.73C1337.81 1447.2 1326.05 1449.39 1319.92 1449.93C1313.98 1450.46 1305.99 1448.31 1301.22 1444.81ZM1314.68 1398.95C1310.46 1400.43 1305.5 1402.18 1303.32 1406.43C1302.45 1408.13 1303.25 1408.83 1303.87 1410.47C1309.03 1414.66 1313.89 1413.68 1320.18 1413.5C1324.39 1413.43 1326.13 1413.85 1329.74 1411.53C1330.09 1408.87 1330.19 1408.48 1328.5 1406.19C1325.21 1401.75 1320.03 1399.54 1314.68 1398.95Z"/>
	<path fill="white" transform="matrix(0.2048 0 0 0.2048 1.52588e-05 -3.8147e-06)" d="M758.282 1368.88C772.076 1368.5 792.699 1365.55 804.741 1372.72L805.253 1376.91C796.917 1383.14 782.791 1381.51 772.888 1381.38L772.808 1401.25C781.722 1401.19 795.154 1399.47 802.853 1404.21C803.874 1406.33 804.295 1406.06 803.362 1408.27C799.583 1417.23 782.397 1411.36 774.675 1413.09C771.995 1415.57 772.292 1415.68 771.958 1419.37L772.091 1436.86C782.039 1437.16 792.121 1436.14 802.031 1437.1C804.325 1439.02 805.11 1440.11 806.086 1442.94L804.803 1445.54C794.495 1452.14 769.928 1449.14 757.428 1449.06C756.68 1434.07 754.589 1380.34 758.282 1368.88Z"/>
	<path fill="white" transform="matrix(0.2048 0 0 0.2048 1.52588e-05 -3.8147e-06)" d="M1426.37 1389.37C1431.73 1388.8 1437.6 1388.3 1442.9 1389.45C1448.55 1390.67 1453.69 1394.42 1456.83 1399.23C1464.15 1410.44 1463.17 1434.46 1460.73 1447.13C1455.61 1453.89 1452.43 1447.33 1446.99 1446.33C1442.39 1445.48 1437.41 1447.7 1433.03 1448.77C1426.18 1450.44 1420.77 1447.7 1415 1444.34C1412.43 1441.06 1409.8 1437.93 1409.32 1433.64C1408.8 1428.98 1410.03 1424.15 1413.06 1420.53C1417.97 1414.65 1427.1 1412.44 1434.44 1411.67C1439.03 1411.19 1442.22 1411.05 1445.7 1407.8L1445.3 1405.11C1433.95 1393.59 1424.45 1407.55 1414.41 1402.65C1413.94 1399.73 1414.07 1398.3 1415.08 1395.52C1418.31 1392.13 1422.07 1391 1426.37 1389.37Z"/>
	<path fill="white" transform="matrix(0.2048 0 0 0.2048 1.52588e-05 -3.8147e-06)" d="M1223.67 1394.81C1225.68 1393.58 1227.71 1392.33 1229.85 1391.34C1240.32 1386.51 1252.39 1389.32 1262.7 1392.96C1259.58 1395.43 1258.67 1395.56 1254.7 1396.21C1254.89 1397.67 1255.07 1399.02 1255.45 1400.45C1260.39 1404.39 1261.93 1406.71 1262.68 1412.99C1263.46 1419.51 1263.28 1428.82 1260.55 1434.82C1260.74 1435.36 1260.92 1435.9 1261.13 1436.44C1261.88 1438.38 1262.77 1439.85 1263.93 1441.56L1263.4 1446.48C1262.3 1444.67 1263.05 1445.49 1260.99 1444.15C1258.3 1445.49 1255.58 1446.83 1252.76 1447.87C1245.77 1450.44 1236.17 1450.72 1229.35 1447.43C1224.29 1445 1221.14 1440.66 1219.43 1435.39C1215.07 1421.98 1217.17 1407.04 1223.67 1394.81ZM1260.55 1434.82C1263.28 1428.82 1263.46 1419.51 1262.68 1412.99C1261.93 1406.71 1260.39 1404.39 1255.45 1400.45C1249.55 1399.69 1244.23 1398.68 1239.2 1402.65C1234.22 1406.58 1231.7 1413.35 1231.36 1419.51C1231.09 1424.45 1232.17 1430.14 1235.6 1433.89C1238.38 1436.93 1242.16 1438.5 1246.24 1438.58C1251.18 1438.68 1256.11 1436.82 1260.55 1434.82Z"/>
	<path fill="white" transform="matrix(0.2048 0 0 0.2048 1.52588e-05 -3.8147e-06)" d="M955.428 1389.66C959.993 1389.29 964.64 1388.82 969.221 1388.98C975.391 1389.19 984.248 1390.66 988.191 1396.1C994.738 1405.13 996.502 1433.8 993.952 1444.7C993.228 1447.79 992.363 1447.98 989.857 1449.67C987.837 1449.9 986.695 1449.77 984.825 1448.93C968.696 1441.71 967.567 1455.73 946.895 1447.27C945.632 1446.11 944.591 1444.94 943.603 1443.52C941.172 1440.04 938.082 1432.14 939.233 1428.01C944.047 1410.7 968.768 1416.77 978.148 1410.91L978.478 1408.1C977.04 1404.6 974.837 1401.14 971.05 1399.83C965.601 1397.93 959.261 1401.5 954.163 1403.22C950.786 1404.36 948.696 1404.6 945.494 1403.05C945.112 1400.61 944.862 1401.28 945.718 1399.2C947.794 1394.14 950.593 1391.95 955.428 1389.66ZM963.128 1422.64C960.128 1423.75 956.412 1424.93 954.692 1427.86C953.366 1430.12 953.145 1432.52 954.44 1434.85C956.004 1437.65 959.127 1439.28 962.199 1439.8C963.945 1440.09 965.753 1440.09 967.515 1440.14C971.871 1438.64 975.733 1437.56 977.875 1433.04C979.127 1430.4 978.989 1429.49 978.631 1426.7C976.826 1424.45 975.729 1422.25 972.583 1421.84C969.863 1421.5 965.897 1422.33 963.128 1422.64Z"/>
	<path fill="#E0E0E0" transform="matrix(0.2048 0 0 0.2048 1.52588e-05 -3.8147e-06)" d="M164.896 1232.28C166.008 1211.69 172.207 1195.29 179.595 1176.34C179.795 1180.52 179.972 1184.6 179.726 1188.78L181.281 1191.79Q184.212 1192.23 187.148 1192.63C183.663 1196.24 180.573 1199.21 178.653 1203.95L179.322 1206.62C194.011 1206.29 209.556 1202.12 224.07 1199.57C249.343 1195.13 295.039 1190.55 319.144 1197.57L317.614 1197.68C301.099 1198.73 284.541 1197.08 268.005 1198.23C242.165 1200.03 217.732 1206.25 192.54 1211.48C188.691 1212.28 180.84 1211.15 178.156 1213.77C175.352 1216.51 174.308 1220.01 173.47 1223.69L172.256 1229.12C190.434 1241.96 202.2 1261.29 205.886 1283.28C207.244 1291.39 206.874 1298.13 204.833 1306.03C203.491 1311.22 204.299 1316.65 200.862 1321.02C195.171 1328.27 189.625 1338.69 180.95 1342.4C180.999 1346.4 181.316 1349.38 182.609 1353.18L182.605 1352.23L183.124 1353.84C185.261 1360.26 187.896 1365.76 192.248 1371.04C194.413 1373.66 194.884 1375.89 195.691 1379.11C196.142 1380.91 196.645 1382.71 197.107 1384.5C199.531 1386.81 199.567 1386.71 202.927 1386.95C215.248 1378.08 218.986 1354.24 237.666 1353.97C226.296 1365.32 213.226 1378.25 208.439 1393.99C207.114 1398.35 206.622 1401.15 202.661 1403.71L199.95 1403.09C192.811 1396.54 175.053 1352.74 171.255 1340.96C180.638 1334.64 187.786 1327.54 192.961 1317.32C200.605 1302.23 201.153 1285.42 196.019 1269.48C190.664 1252.85 180.34 1240.24 164.896 1232.28Z"/>
	<path fill="white" transform="matrix(0.2048 0 0 0.2048 1.52588e-05 -3.8147e-06)" d="M1669.35 1389.42C1673.42 1389.33 1676.97 1389.72 1680.46 1391.97C1682.51 1393.28 1686.32 1396.63 1688.47 1397.21C1694.74 1398.89 1703.29 1385.95 1714.05 1388.76C1719.21 1390.1 1724 1394.42 1726.1 1399.24C1729.33 1406.65 1730.01 1439.11 1727.16 1446.41C1724.02 1448.37 1722.38 1449.43 1718.57 1449.69C1706.94 1442.57 1718.9 1414.85 1711.96 1403.57C1710.37 1400.99 1708.42 1400.1 1705.48 1400.05C1702.14 1399.98 1697.9 1402.13 1695.56 1404.42C1687.61 1412.18 1690.71 1430.39 1690.78 1440.73C1690.7 1442.83 1690.44 1444.25 1689.93 1446.24C1687.15 1448.07 1685.1 1448.42 1681.89 1448.99C1680.79 1448.64 1679.45 1448.7 1678.6 1447.92C1673.63 1443.37 1682.27 1409.26 1671.95 1399.3C1670.55 1397.95 1669.17 1397.84 1667.25 1397.98C1665.48 1398.12 1663.54 1399.87 1662.21 1400.93C1645.92 1413.94 1660.82 1438.03 1652.68 1448.17C1649.4 1448.97 1647.77 1449.1 1644.51 1448.16C1641.45 1445.88 1640.39 1443.6 1639.78 1439.94C1638.71 1433.43 1639.42 1394.75 1642.08 1391.04C1645.49 1389.45 1645.4 1389.28 1648.98 1390.3C1650.21 1391.72 1652.03 1394.43 1653.59 1395.36C1656.32 1396.99 1666.13 1390.86 1669.35 1389.42Z"/>
	<path fill="white" transform="matrix(0.2048 0 0 0.2048 1.52588e-05 -3.8147e-06)" d="M1141.57 1389.43C1148.17 1388.18 1155.36 1388.22 1161.66 1390.75Q1162.37 1391.03 1163.06 1391.35Q1163.75 1391.66 1164.43 1392.02Q1165.11 1392.37 1165.76 1392.75Q1166.42 1393.14 1167.06 1393.56Q1167.69 1393.98 1168.31 1394.43Q1168.92 1394.88 1169.51 1395.36Q1170.1 1395.84 1170.67 1396.35Q1171.24 1396.86 1171.78 1397.4Q1172.31 1397.93 1172.83 1398.5Q1173.34 1399.06 1173.82 1399.65Q1174.3 1400.24 1174.75 1400.86Q1175.2 1401.47 1175.62 1402.11Q1176.04 1402.74 1176.43 1403.4Q1176.82 1404.06 1177.17 1404.73Q1177.52 1405.41 1177.84 1406.1Q1178.16 1406.79 1178.44 1407.5C1181.77 1415.84 1181.64 1425.85 1177.78 1433.99C1173.83 1442.31 1167.98 1446.38 1159.51 1449.32C1152.85 1449.79 1146.64 1450.26 1140.19 1448.06C1132.38 1445.39 1125.86 1439.9 1122.4 1432.36C1118.97 1424.88 1118.88 1415.83 1121.95 1408.23C1125.76 1398.79 1132.51 1393.46 1141.57 1389.43ZM1146.17 1400.16C1139.94 1404.32 1136.22 1408 1134.51 1415.5C1133.14 1421.5 1134.03 1427.46 1137.64 1432.51C1140.18 1436.06 1143.92 1438.39 1148.24 1438.99C1150.38 1439.29 1152.53 1439.39 1154.68 1439.43C1160.13 1437.18 1163.16 1434.76 1165.43 1429.19C1167.88 1423.18 1167.88 1416.54 1165.26 1410.59C1163.38 1406.32 1159.99 1402.4 1155.49 1400.8C1152.42 1399.71 1149.37 1399.96 1146.17 1400.16Z"/>
	<path fill="white" transform="matrix(0.2048 0 0 0.2048 1.52588e-05 -3.8147e-06)" d="M1591.66 1389.38C1599.36 1388.26 1606.9 1388.2 1614.11 1391.52Q1614.81 1391.83 1615.48 1392.18Q1616.16 1392.53 1616.82 1392.92Q1617.48 1393.31 1618.11 1393.73Q1618.75 1394.15 1619.36 1394.6Q1619.98 1395.05 1620.56 1395.54Q1621.15 1396.02 1621.72 1396.54Q1622.28 1397.06 1622.81 1397.6Q1623.34 1398.15 1623.85 1398.72Q1624.35 1399.29 1624.82 1399.89Q1625.3 1400.49 1625.74 1401.11Q1626.18 1401.74 1626.58 1402.38Q1626.99 1403.03 1627.36 1403.7Q1627.73 1404.36 1628.07 1405.05Q1628.4 1405.73 1628.7 1406.43Q1629 1407.14 1629.26 1407.85Q1629.52 1408.57 1629.74 1409.3Q1629.97 1410.06 1630.16 1410.83Q1630.36 1411.6 1630.51 1412.38Q1630.67 1413.16 1630.78 1413.95Q1630.9 1414.74 1630.97 1415.53Q1631.05 1416.32 1631.09 1417.12Q1631.12 1417.91 1631.12 1418.71Q1631.12 1419.5 1631.08 1420.3Q1631.03 1421.09 1630.95 1421.88Q1630.87 1422.67 1630.75 1423.46Q1630.63 1424.24 1630.47 1425.02Q1630.31 1425.8 1630.11 1426.57Q1629.91 1427.34 1629.68 1428.1Q1629.44 1428.86 1629.17 1429.61Q1628.89 1430.36 1628.58 1431.09Q1628.27 1431.82 1627.93 1432.54Q1627.58 1433.25 1627.2 1433.95C1622.31 1442.75 1615.17 1446.76 1605.77 1449.45C1600.34 1449.89 1595.32 1450.15 1590.01 1448.66C1581.92 1446.39 1574.99 1441.29 1571.14 1433.72Q1570.8 1433.04 1570.49 1432.34Q1570.19 1431.64 1569.92 1430.92Q1569.65 1430.21 1569.42 1429.48Q1569.18 1428.75 1568.99 1428.02Q1568.8 1427.28 1568.64 1426.53Q1568.49 1425.78 1568.37 1425.03Q1568.25 1424.27 1568.18 1423.51Q1568.1 1422.75 1568.06 1421.99Q1568.03 1421.23 1568.03 1420.47Q1568.03 1419.7 1568.08 1418.94Q1568.12 1418.18 1568.2 1417.42Q1568.28 1416.66 1568.4 1415.91Q1568.52 1415.15 1568.68 1414.4Q1568.84 1413.66 1569.04 1412.92Q1569.24 1412.18 1569.48 1411.46Q1569.72 1410.73 1569.99 1410.02C1573.99 1399.39 1581.63 1393.8 1591.66 1389.38ZM1598.05 1398.87C1591.55 1401.86 1587.36 1404.87 1584.75 1411.78C1582.76 1417.05 1582.69 1423.09 1585.18 1428.21C1587.23 1432.42 1591.01 1436.27 1595.59 1437.6C1597.83 1438.24 1600.25 1438.48 1602.57 1438.67C1609.35 1435.03 1613.15 1432.25 1615.26 1424.59C1616.78 1419.12 1616.21 1413.11 1613.3 1408.18C1610.74 1403.86 1606.8 1400.73 1601.9 1399.57C1600.63 1399.27 1599.34 1399.08 1598.05 1398.87Z"/>
	<path fill="white" transform="matrix(0.2048 0 0 0.2048 1.52588e-05 -3.8147e-06)" d="M1946.01 1361.51C1950.09 1361.32 1953.51 1361.21 1957.48 1362.25C1959.42 1364.97 1959.25 1366.33 1959.56 1369.62C1960.39 1378.41 1961.49 1439.86 1959.42 1446.81C1958.65 1449.4 1957.05 1449.48 1954.79 1450.38C1951.4 1450.17 1949.33 1448.62 1946.56 1446.85C1942.14 1444.03 1933.22 1448.82 1928.15 1449.4C1924.13 1449.86 1919.61 1448.43 1915.75 1447.47C1908.95 1443.07 1904.65 1437.41 1902.41 1429.56C1899.77 1420.33 1900.76 1409.64 1905.9 1401.43C1909.47 1395.71 1915.11 1391.36 1921.73 1389.86C1931.08 1387.73 1937.72 1390.96 1945.41 1395.94C1945.33 1384.51 1944.84 1372.89 1946.01 1361.51ZM1925.27 1401.39C1919.76 1405.24 1917.37 1408.82 1916.05 1415.47C1914.94 1421.11 1915.66 1426.78 1919.01 1431.56C1921.27 1434.77 1924.53 1437.12 1928.51 1437.61C1931.03 1437.91 1933.71 1437.51 1936.22 1437.22C1941.65 1433.47 1944.1 1430.34 1945.32 1423.74C1946.33 1418.25 1945.1 1412.96 1941.81 1408.45C1939.02 1404.61 1935.32 1402.22 1930.58 1401.47C1928.91 1401.21 1926.93 1401.36 1925.27 1401.39Z"/>
	<path fill="white" transform="matrix(0.2048 0 0 0.2048 1.52588e-05 -3.8147e-06)" d="M2075.55 1396.55C2075.07 1388.63 2072.42 1369.29 2075.98 1362.89C2078.94 1361.81 2082.78 1361.15 2085.89 1362.24C2087.41 1362.77 2087.63 1363.05 2088.77 1363.9C2090.78 1372.41 2091.28 1441.92 2088.65 1446.78C2087.67 1448.6 2086.29 1448.74 2084.51 1449.54C2080.84 1449.03 2080.26 1449.05 2077.48 1446.67C2076.15 1445.21 2077.04 1445.99 2074.53 1444.69C2072.38 1445.75 2070.26 1446.71 2067.99 1447.49C2060.31 1450.1 2050.51 1450.58 2043.18 1446.56C2037.78 1443.61 2034.98 1438.65 2033.37 1432.88C2030.44 1422.34 2030.01 1409.15 2036.12 1399.6Q2036.42 1399.13 2036.73 1398.68Q2037.05 1398.22 2037.39 1397.78Q2037.73 1397.35 2038.1 1396.93Q2038.46 1396.51 2038.84 1396.11Q2039.23 1395.71 2039.63 1395.32Q2040.03 1394.94 2040.46 1394.58Q2040.88 1394.22 2041.32 1393.89Q2041.76 1393.55 2042.22 1393.23Q2042.67 1392.92 2043.14 1392.63Q2043.62 1392.33 2044.1 1392.07Q2044.59 1391.8 2045.09 1391.56Q2045.59 1391.32 2046.1 1391.1Q2046.61 1390.88 2047.13 1390.69Q2047.65 1390.5 2048.18 1390.34Q2048.71 1390.17 2049.25 1390.04Q2049.79 1389.9 2050.33 1389.79C2060.25 1387.73 2067.54 1391.33 2075.55 1396.55ZM2071.17 1433.94C2071.56 1433.23 2071.96 1432.52 2072.33 1431.79C2076.37 1423.9 2074.86 1413.85 2072.4 1405.72C2068.58 1402.34 2064.66 1399.82 2059.31 1400.18C2055.46 1400.45 2052.55 1402.63 2050.42 1405.69C2046.42 1411.43 2045.73 1419.73 2047.28 1426.4C2048.28 1430.68 2050.67 1435.16 2054.79 1437.15C2058.68 1439.03 2063.37 1438.24 2067.12 1436.42C2068.55 1435.73 2069.85 1434.82 2071.17 1433.94Z"/>
	<path fill="white" transform="matrix(0.2048 0 0 0.2048 1.52588e-05 -3.8147e-06)" d="M878.369 1368.42C892.44 1368.21 916.265 1365.17 926.962 1375.8C930.233 1379.05 932.386 1383.91 932.291 1388.55C932.128 1396.52 925.998 1401.37 920.592 1406.28C922.154 1410.15 923.882 1411.5 927.169 1413.78C929.496 1415.4 932.003 1416.73 933.337 1419.37C935.77 1424.19 934.261 1429.53 933.028 1434.43C931.749 1436.07 930.478 1437.61 928.962 1439.05C915.224 1452.04 895.23 1449.44 877.867 1449.06Q877.628 1408.74 878.369 1368.42ZM891.932 1413.72C891.527 1421.2 891.48 1428.54 891.715 1436.03C899.619 1436.11 906.956 1436.27 914.688 1434.38C916.714 1431.4 918.987 1427.57 918.409 1423.77C917.922 1420.57 916.551 1418.3 913.796 1416.59C907.277 1412.52 899.218 1413.33 891.932 1413.72ZM891.545 1381.65L891.667 1400.81C899.418 1400.37 906.619 1399.71 914.197 1397.96C915.4 1394.82 917.068 1391.17 915.726 1387.8C914.422 1384.53 911.42 1382.8 908.131 1382.06C902.84 1380.87 896.933 1381.44 891.545 1381.65Z"/>
	<path fill="#E0E0E0" transform="matrix(0.2048 0 0 0.2048 1.52588e-05 -3.8147e-06)" d="M2433.92 1148C2439.03 1147.62 2444.2 1147.6 2449.33 1147.44C2450.41 1162.74 2449.76 1178.75 2449.42 1194.1C2435.92 1194.11 2419.24 1192.05 2408.53 1201.89C2402.74 1207.2 2399.49 1214.35 2397.88 1221.94C2395.66 1232.45 2396.63 1244.2 2396.71 1254.93C2396.87 1278.42 2398.14 1302.39 2396.6 1325.82C2388.06 1326.11 2379.46 1325.99 2370.91 1326.06L2351.25 1326.09C2350.03 1296.53 2349.6 1234.8 2355.84 1207.5C2358.17 1197.29 2362.16 1187.59 2368.45 1179.17C2384.84 1157.2 2408.2 1151.63 2433.92 1148Z"/>
	<path fill="white" transform="matrix(0.2048 0 0 0.2048 1.52588e-05 -3.8147e-06)" d="M134.212 1232.25C145.706 1231.69 156.251 1232.34 166.368 1238.37C180.382 1246.72 190.22 1263.47 193.562 1279.26Q193.852 1280.57 194.073 1281.89Q194.295 1283.21 194.448 1284.53Q194.602 1285.86 194.686 1287.2Q194.771 1288.53 194.786 1289.87Q194.801 1291.21 194.748 1292.55Q194.694 1293.88 194.571 1295.22Q194.449 1296.55 194.257 1297.87Q194.066 1299.2 193.806 1300.51Q193.547 1301.82 193.22 1303.12Q192.893 1304.42 192.5 1305.7Q192.106 1306.98 191.647 1308.23Q191.189 1309.49 190.665 1310.72Q190.142 1311.95 189.556 1313.16Q188.97 1314.36 188.322 1315.53Q187.675 1316.7 186.968 1317.84Q186.261 1318.97 185.496 1320.07C176.144 1333.76 163.266 1341.39 147.252 1344.58C134.116 1345.01 122.203 1342.53 111.168 1334.96Q110.049 1334.19 108.968 1333.36Q107.888 1332.54 106.849 1331.66Q105.81 1330.78 104.815 1329.86Q103.819 1328.93 102.87 1327.95Q101.921 1326.98 101.02 1325.96Q100.12 1324.94 99.2694 1323.88Q98.4191 1322.82 97.6214 1321.72Q96.8237 1320.62 96.0803 1319.48Q95.3369 1318.34 94.6497 1317.17Q93.9625 1315.99 93.333 1314.79Q92.7035 1313.58 92.1333 1312.35Q91.563 1311.12 91.0533 1309.85Q90.5437 1308.59 90.0958 1307.31Q89.6479 1306.03 89.2629 1304.72Q88.8778 1303.42 88.5565 1302.1Q88.2352 1300.78 87.9784 1299.44C84.9582 1283.23 90.5753 1265.93 100.072 1252.73C108.796 1240.6 119.688 1234.67 134.212 1232.25Z"/>
	<path fill="white" transform="matrix(0.2048 0 0 0.2048 1.52588e-05 -3.8147e-06)" d="M587.614 1128.43C599.557 1127.39 610.472 1127.31 621.713 1132.3C636.008 1138.64 647.614 1151.42 652.733 1166.18C657.911 1181.11 655.837 1197.44 648.959 1211.48C640.373 1229 627.597 1236.57 609.802 1242.41C596.665 1244.08 583.872 1241.47 572.098 1235.33C558.1 1228.04 547.609 1216.11 543.05 1200.88Q542.647 1199.51 542.312 1198.13Q541.977 1196.75 541.71 1195.35Q541.444 1193.95 541.247 1192.54Q541.05 1191.13 540.923 1189.71Q540.796 1188.29 540.739 1186.87Q540.682 1185.45 540.696 1184.02Q540.71 1182.6 540.794 1181.18Q540.877 1179.75 541.031 1178.34Q541.186 1176.92 541.409 1175.52Q541.633 1174.11 541.926 1172.72Q542.219 1171.32 542.581 1169.95Q542.942 1168.57 543.371 1167.21Q543.8 1165.85 544.296 1164.52Q544.792 1163.18 545.353 1161.88Q545.914 1160.57 546.539 1159.29Q547.164 1158.01 547.851 1156.76C556.763 1140.8 570.717 1133.25 587.614 1128.43Z"/>
	<path fill="white" transform="matrix(0.2048 0 0 0.2048 1.52588e-05 -3.8147e-06)" d="M274.767 1336.4C275.696 1336.66 276.697 1337.35 277.551 1337.81C277.285 1340.61 250.847 1372.89 246.296 1383.31C240.043 1397.62 235.995 1412.55 242.287 1427.7C257.864 1465.19 309.549 1489.67 344.76 1503.9Q338.713 1504.24 332.657 1504.29C290.203 1504.31 242.071 1489.83 207.678 1464.71C194.265 1454.91 182.686 1443.1 170.909 1431.46C142.104 1402.59 101.711 1366.93 59.8227 1361.58C56.4372 1361.15 53.4344 1360.62 50.1448 1359.71L49.666 1358.13C50.669 1357.3 51.0214 1356.92 52.3698 1356.36C83.1173 1343.61 116.205 1357.63 141.412 1375.29C153.017 1383.42 164.251 1393.41 176.842 1399.9C183.937 1403.56 197.11 1409.32 204.975 1406.39C210.007 1404.52 212.982 1395.51 215.28 1390.92C225.772 1369.98 252.389 1343.92 274.767 1336.4Z"/>
	<path fill="white" transform="matrix(0.2048 0 0 0.2048 1.52588e-05 -3.8147e-06)" d="M706.676 1207.33C709.966 1206.99 713.1 1206.3 716.239 1207.64L715.895 1209.26C633.154 1275.48 646.289 1368.79 581.141 1434.72C559.856 1456.26 533.165 1472.08 506.153 1485.36C525.353 1464.88 537.615 1451.79 551.846 1427.28Q552.762 1425.51 553.648 1423.73C564.422 1402.16 575.147 1373.9 566.426 1349.84C555.987 1321.04 519.483 1306.46 494.129 1294.22C533.009 1287.28 548.728 1305.26 579.361 1323.14C584.211 1325.97 589.978 1328.96 595.718 1327.17C614.73 1321.22 636.498 1271.24 646.233 1253.7C659.509 1229.79 680.608 1214.78 706.676 1207.33Z"/>
	<path fill="#E0E0E0" transform="matrix(0.2048 0 0 0.2048 1.52588e-05 -3.8147e-06)" d="M2131.61 1147.91C2139.94 1147.78 2149.07 1147.05 2157.28 1148.34C2161.71 1149.04 2168.8 1151.03 2170.96 1155.5C2173.44 1160.65 2174.02 1169.41 2174.35 1175.12C2175.97 1203.1 2174.64 1231.89 2174.77 1259.96C2174.93 1291.38 2176.47 1323.4 2174.99 1354.75C2174.65 1361.74 2174.45 1371.02 2171.52 1377.44C2167.09 1387.13 2158.58 1392.23 2148.93 1395.79C2135.85 1398.42 2122.88 1398.19 2109.62 1398.14C2109.28 1385.71 2109.52 1373.19 2109.48 1360.75Q2113.98 1360.3 2118.47 1359.69C2121.26 1359.29 2126.37 1358.54 2127.73 1355.58C2130.6 1349.3 2128.49 1328.04 2128.47 1320.08L2128.3 1210.46C2128.26 1192.47 2126.65 1172.83 2128.56 1154.97C2128.93 1151.53 2129.6 1150.62 2131.61 1147.91Z"/>
	<defs>
		<linearGradient id="gradient_0" gradientUnits="userSpaceOnUse" x1="255.72771" y1="1090.9918" x2="319.91547" y2="1174.2324">
			<stop offset="0" stop-color="#E1E1E1"/>
			<stop offset="1" stop-color="white"/>
		</linearGradient>
	</defs>
	<path fill="url(#gradient_0)" transform="matrix(0.2048 0 0 0.2048 1.52588e-05 -3.8147e-06)" d="M350.557 1035.1C358.953 1033.67 366.451 1033.15 374.989 1033.69C380.239 1062 390.397 1114.87 372.596 1139.99C368.177 1146.23 362.324 1149.37 354.8 1150.3C341.278 1151.97 327.317 1147.02 313.766 1146.72C270.094 1145.76 218.839 1161.73 187.148 1192.63Q184.212 1192.23 181.281 1191.79L179.726 1188.78C179.972 1184.6 179.795 1180.52 179.595 1176.34C192.548 1146.43 210.014 1116.17 237.768 1097.84C266.587 1101.39 291.661 1103.14 315.991 1084.3C332.59 1071.45 342.632 1054.2 350.557 1035.1Z"/>
	<path fill="#E0E0E0" transform="matrix(0.2048 0 0 0.2048 1.52588e-05 -3.8147e-06)" d="M994.54 1148.34L1038.13 1148.6L1038.39 1220.75C1038.46 1235.92 1037 1252.96 1040.31 1267.78C1041.86 1274.7 1044.88 1281.62 1049.94 1286.71C1056.28 1293.08 1063.72 1294.22 1072.42 1293.81C1081.29 1293.4 1087.56 1290.06 1093.31 1283.31C1096.36 1279.74 1098.13 1275.56 1099.83 1271.23C1100.87 1247.45 1093.93 1174.55 1104.44 1158.27C1107.6 1153.37 1112.86 1149.37 1118.78 1148.62C1125.39 1147.79 1140.72 1147.76 1146.08 1151.8C1145.82 1185.59 1150.22 1252.68 1143.01 1282.25C1140.69 1291.76 1136.7 1300.2 1129.7 1307.17C1114.05 1322.75 1087.72 1329.21 1066.18 1328.64C1045.84 1328.1 1022.83 1320.56 1008.72 1305.36Q1007.47 1304 1006.31 1302.56Q1005.15 1301.12 1004.09 1299.6Q1003.02 1298.09 1002.07 1296.51Q1001.11 1294.93 1000.26 1293.29Q999.405 1291.64 998.665 1289.95Q997.925 1288.25 997.299 1286.51Q996.673 1284.77 996.164 1283Q995.656 1281.22 995.266 1279.41C990.824 1259.68 993.736 1231.64 993.861 1211.03C993.985 1190.68 993.095 1169.66 994.452 1149.37C994.475 1149.03 994.511 1148.69 994.54 1148.34Z"/>
	<path fill="#E0E0E0" transform="matrix(0.2048 0 0 0.2048 1.52588e-05 -3.8147e-06)" d="M1966.96 1148.49C1981.87 1147.31 1997.56 1148.25 2012.56 1148.27C2013.58 1176.52 2012.62 1205.15 2012.62 1233.44C2012.62 1245.73 2011.42 1259.45 2013.87 1271.49C2014.84 1276.28 2017.13 1280.29 2020.63 1283.72C2026.97 1289.94 2035.76 1292.92 2044.55 1292.72C2054.77 1292.48 2064.29 1289 2069.27 1279.54C2082.3 1254.8 2062.15 1172.78 2079.58 1154.91C2087.77 1146.51 2107.84 1149.11 2118.62 1149.11C2117.39 1161.26 2117.89 1173.72 2117.88 1185.94C2118.11 1212.33 2119.69 1239.52 2117.96 1265.83C2116.81 1283.51 2111.31 1300.04 2097.39 1311.86C2081.28 1325.55 2055.61 1331.61 2034.82 1329.47C2014.5 1327.38 1992.33 1318.66 1979.43 1302.24C1973.85 1295.14 1971.1 1287.27 1969.39 1278.52C1964.73 1254.69 1966.86 1227.51 1966.59 1203.26C1966.4 1185.48 1964.65 1166.07 1966.96 1148.49Z"/>
	<path fill="white" transform="matrix(0.2048 0 0 0.2048 1.52588e-05 -3.8147e-06)" d="M253.875 931.785C273.363 929.378 293.702 932.7 310.061 943.973C329.517 957.381 341.085 978.793 345.021 1001.78Q345.2 1002.77 345.355 1003.76Q345.509 1004.75 345.638 1005.75Q345.767 1006.75 345.871 1007.75Q345.975 1008.74 346.054 1009.75Q346.133 1010.75 346.186 1011.75Q346.24 1012.75 346.268 1013.76Q346.296 1014.76 346.299 1015.77Q346.302 1016.77 346.28 1017.78Q346.257 1018.78 346.209 1019.78Q346.161 1020.79 346.088 1021.79Q346.015 1022.79 345.917 1023.79Q345.819 1024.79 345.695 1025.79Q345.571 1026.78 345.423 1027.78Q345.274 1028.77 345.101 1029.76Q344.927 1030.75 344.728 1031.73Q344.53 1032.72 344.306 1033.7Q344.083 1034.68 343.835 1035.65Q343.587 1036.62 343.315 1037.59Q343.042 1038.56 342.745 1039.52Q342.449 1040.48 342.128 1041.43Q341.807 1042.38 341.462 1043.32Q341.117 1044.27 340.749 1045.2Q340.38 1046.14 339.989 1047.06Q339.597 1047.99 339.182 1048.9Q338.766 1049.82 338.328 1050.72Q337.89 1051.62 337.43 1052.52Q336.969 1053.41 336.486 1054.29Q336.003 1055.17 335.497 1056.04Q334.992 1056.91 334.465 1057.76Q333.938 1058.62 333.39 1059.46Q332.842 1060.3 332.272 1061.13Q331.703 1061.96 331.113 1062.77C316.926 1082.73 297.502 1091.93 273.926 1096.07C251.784 1096.66 231.765 1093.72 213.447 1080.46Q212.585 1079.84 211.74 1079.2Q210.894 1078.56 210.065 1077.89Q209.235 1077.23 208.423 1076.55Q207.61 1075.86 206.815 1075.16Q206.02 1074.46 205.243 1073.73Q204.466 1073.01 203.707 1072.27Q202.949 1071.52 202.209 1070.76Q201.469 1070 200.749 1069.22Q200.028 1068.44 199.328 1067.64Q198.627 1066.84 197.947 1066.03Q197.267 1065.21 196.607 1064.38Q195.947 1063.55 195.309 1062.7Q194.67 1061.85 194.053 1060.99Q193.436 1060.13 192.841 1059.25Q192.246 1058.37 191.673 1057.47Q191.1 1056.58 190.55 1055.67Q190 1054.76 189.473 1053.84Q188.946 1052.92 188.442 1051.99Q187.938 1051.05 187.458 1050.1Q186.977 1049.16 186.521 1048.2Q186.065 1047.24 185.633 1046.27Q185.201 1045.3 184.793 1044.32Q184.386 1043.34 184.003 1042.35Q183.62 1041.36 183.262 1040.36Q182.904 1039.36 182.572 1038.35Q182.239 1037.34 181.932 1036.33Q181.625 1035.31 181.343 1034.29Q181.062 1033.26 180.806 1032.23Q180.55 1031.2 180.321 1030.17Q180.091 1029.13 179.887 1028.09Q179.684 1027.04 179.506 1026Q179.329 1024.95 179.178 1023.9C175.99 1002.43 182.768 979.335 195.83 962.146C210.665 942.624 230.2 934.905 253.875 931.785Z"/>
	<path fill="#E0E0E0" transform="matrix(0.2048 0 0 0.2048 1.52588e-05 -3.8147e-06)" d="M2344.8 1272.26C2341.8 1280.7 2338.32 1288.4 2333.04 1295.68C2320.88 1312.45 2302.3 1324.51 2281.74 1327.71C2257.94 1331.41 2232.01 1329.27 2212.26 1314.32C2193.8 1300.33 2183.73 1279.01 2180.88 1256.37C2177.27 1227.64 2180.52 1194.28 2199.16 1170.87C2211.37 1155.55 2228.09 1146.91 2247.35 1144.71C2270.98 1142 2297.76 1146.08 2316.7 1161.36C2336.9 1177.64 2342.71 1201.4 2345.53 1226.04C2345.83 1234 2346.18 1241.96 2346.18 1249.93C2337.59 1254.54 2270.57 1251.96 2256.34 1251.78C2247.83 1251.67 2237.25 1250.3 2229.03 1252.44C2227.02 1254.75 2226.41 1255.63 2226.17 1258.88C2225.62 1266.47 2233.73 1277.56 2239.13 1282.18C2247.9 1289.69 2260.62 1291.83 2271.83 1290.53C2285.16 1288.99 2291.64 1282.9 2299.37 1272.82C2314.48 1271.9 2329.66 1272.21 2344.8 1272.26ZM2257.08 1182C2247.1 1184.45 2238.27 1187.24 2232.6 1196.54C2228.87 1202.67 2228.2 1209.47 2227.2 1216.42Q2246.86 1217.08 2266.54 1217.14C2275.53 1217.36 2287.21 1219.06 2295.82 1216.64C2297.77 1214.46 2299.22 1213.39 2299.13 1210.23C2298.89 1202.71 2291.01 1194.36 2285.4 1190.12C2276.65 1183.49 2267.88 1181.61 2257.08 1182Z"/>
	<path fill="white" transform="matrix(0.2048 0 0 0.2048 1.52588e-05 -3.8147e-06)" d="M2345.53 1226.04C2345.83 1234 2346.18 1241.96 2346.18 1249.93C2324.46 1244.38 2238.04 1252.75 2227.89 1247.51L2228.06 1245.91C2232.69 1243.72 2330.03 1244.92 2344.31 1244.71C2344.28 1238.34 2344.11 1232.29 2345.53 1226.04Z"/>
	<path fill="#E0E0E0" transform="matrix(0.2048 0 0 0.2048 1.52588e-05 -3.8147e-06)" d="M1546.88 1144.26C1567.07 1142.87 1585.6 1144.58 1602.66 1156.47C1621.3 1169.45 1631.5 1189.96 1635.38 1211.91C1640.38 1240.23 1637.03 1274.89 1619.92 1298.85C1607.17 1316.71 1589.5 1325.64 1568.26 1329.03C1567.68 1329.13 1567.11 1329.24 1566.53 1329.33C1547.15 1332.39 1525.76 1326.01 1510.01 1314.65C1491.81 1301.51 1482.53 1282.31 1479.06 1260.54C1474.57 1232.34 1476.49 1196.25 1494.3 1172.59C1507.09 1155.61 1526.36 1147.15 1546.88 1144.26ZM1550.59 1183.25C1540 1186.23 1533.2 1191.02 1527.87 1200.83C1518.15 1218.74 1519.03 1245.91 1524.93 1264.91C1528.09 1275.11 1534.28 1284.25 1544.07 1289.04C1550.26 1292.06 1556.99 1292.21 1563.73 1292.04C1575.92 1287.12 1582.9 1280.42 1588.03 1268.07C1595.61 1249.85 1596.13 1223.25 1588.21 1205.1C1584.09 1195.64 1576.9 1187.75 1566.95 1184.39C1561.74 1182.62 1556 1182.66 1550.59 1183.25Z"/>
	<path fill="#E0E0E0" transform="matrix(0.2048 0 0 0.2048 1.52588e-05 -3.8147e-06)" d="M778.253 1096.74C791.081 1096.46 811.182 1093.45 823.071 1098.23C829.875 1108.06 862.947 1245.14 870.589 1270.83C883.336 1212.69 896.612 1153.78 914.166 1096.89C936.524 1095.99 959.419 1096.45 981.785 1097.13C983.547 1121.18 982.293 1146.24 982.581 1170.44Q983.808 1247.87 983.211 1325.3Q961.69 1325.79 940.169 1325.34C938.632 1305.07 939.638 1284.09 939.399 1263.73C939.028 1232.13 937.948 1200.56 938.51 1168.95L939.679 1146.7C930.243 1163.95 923.575 1203.66 918.393 1224.65Q905.886 1275.34 892.039 1325.69Q869.722 1325.95 847.408 1325.46C830.717 1265.74 818.688 1204.44 800.1 1145.34C798.475 1166.05 799.446 1187.22 799.335 1208.01L798.704 1324.8Q777.823 1325.32 756.94 1324.9C755.429 1289.85 757.293 1254.01 757.207 1218.87C757.127 1186.57 754.8 1152.61 757.277 1120.49C757.584 1116.51 758.488 1113.14 760.457 1109.64C764.545 1102.36 770.523 1099.15 778.253 1096.74Z"/>
	<path fill="#E0E0E0" transform="matrix(0.2048 0 0 0.2048 1.52588e-05 -3.8147e-06)" d="M1749.46 1096.51C1762.5 1094.94 1782.1 1094.46 1794.67 1097.89C1801.44 1103.45 1833.27 1245.37 1841.57 1267.97L1842.25 1269.8C1850.71 1242.58 1875.59 1112.6 1887.66 1096.84C1901.65 1093.37 1937.42 1096.38 1953.71 1096.65L1953.94 1325.4C1939.77 1326.65 1924.89 1325.84 1910.65 1325.59C1909.17 1306.13 1909.89 1286.08 1909.96 1266.55L1910.39 1172.79C1910.49 1166.66 1910.87 1160.05 1909.15 1154.14L1908.18 1154.25C1890.52 1210.25 1880.56 1268.68 1864.03 1325.01C1848.66 1325.61 1833.18 1325.39 1817.8 1325.08C1808.63 1286.82 1798.28 1248.65 1788.34 1210.57C1783.15 1190.66 1779.34 1166.86 1770.53 1148.31C1768.75 1207.03 1770.58 1266.19 1770.33 1324.96C1756.67 1325.93 1742.44 1325.49 1728.76 1324.98C1727.22 1292.97 1728.45 1260.33 1728.17 1228.23C1727.86 1193.83 1726.03 1158.71 1727.61 1124.37C1727.82 1119.85 1728.08 1115.16 1729.99 1110.98C1733.79 1102.68 1741.28 1099.21 1749.46 1096.51Z"/>
	<path fill="white" transform="matrix(0.2048 0 0 0.2048 1.52588e-05 -3.8147e-06)" d="M436.924 852.741C438.038 853.001 438.849 853.58 439.828 854.154C439.073 861.559 432.876 868.734 430.092 875.658C422.476 894.593 418.276 916.147 417.318 936.497C414.377 998.97 427.226 1059.34 442.516 1119.49C453.339 1162.07 465.326 1203.16 466.159 1247.47C467.304 1308.33 453.081 1374.68 424.315 1428.56C418.359 1439.72 412.323 1450.9 403.516 1460.08C418.549 1408.41 413.942 1335.44 398.992 1283.86C392.287 1255.91 381.016 1225.39 357.082 1207.66C312.049 1174.29 236.834 1193.31 185.842 1200.6C213.507 1167.49 270.188 1151.77 311.805 1151.19C328.099 1150.96 353.696 1160.63 367.916 1151.39C400.875 1129.96 379.787 1040.72 377.511 1008.32C376.006 986.88 376.699 964.701 381.167 943.633C388.79 907.696 405.439 873.193 436.924 852.741Z"/>
	<path fill="#E0E0E0" transform="matrix(0.2048 0 0 0.2048 1.52588e-05 -3.8147e-06)" d="M1431.59 1096.76C1441.35 1096.38 1453.49 1094.53 1462.16 1099.77C1467.23 1102.82 1470.56 1107.58 1471.98 1113.27C1476.34 1130.66 1473.13 1162.36 1473.34 1181.33C1473.63 1208.78 1477.07 1237.46 1473.58 1264.75C1472.18 1275.69 1469.42 1286.73 1463.34 1296.08C1451.57 1314.18 1430.6 1323.88 1410.14 1328.3Q1409.05 1328.54 1407.95 1328.76Q1406.86 1328.98 1405.76 1329.17Q1404.66 1329.36 1403.55 1329.52Q1402.45 1329.68 1401.34 1329.82Q1400.23 1329.95 1399.12 1330.06Q1398 1330.17 1396.89 1330.25Q1395.78 1330.33 1394.66 1330.38Q1393.54 1330.43 1392.43 1330.46Q1391.31 1330.48 1390.19 1330.48Q1389.08 1330.47 1387.96 1330.44Q1386.84 1330.41 1385.73 1330.35Q1384.61 1330.29 1383.5 1330.2Q1382.38 1330.12 1381.27 1330Q1380.16 1329.89 1379.05 1329.74Q1377.94 1329.6 1376.84 1329.43Q1375.74 1329.26 1374.64 1329.06Q1373.54 1328.87 1372.44 1328.64Q1371.35 1328.42 1370.26 1328.16Q1369.17 1327.91 1368.09 1327.63Q1367.01 1327.35 1365.93 1327.05Q1364.86 1326.74 1363.79 1326.41Q1362.73 1326.08 1361.67 1325.72Q1360.61 1325.36 1359.56 1324.97Q1358.51 1324.59 1357.48 1324.18Q1356.44 1323.77 1355.41 1323.33Q1354.38 1322.89 1353.36 1322.43Q1352.35 1321.97 1351.34 1321.48Q1350.34 1320.99 1349.34 1320.48Q1348.35 1319.97 1347.37 1319.43Q1346.39 1318.89 1345.43 1318.33Q1344.46 1317.77 1343.51 1317.18Q1342.56 1316.6 1341.62 1315.99C1312.73 1296.99 1314.09 1268.81 1308.15 1238.72C1306.99 1252.25 1309.81 1319.27 1305.34 1325.18C1297.13 1327.27 1279.94 1327.6 1272.59 1323.12C1268.57 1320.66 1265.17 1316.18 1263.69 1311.7C1261.53 1305.18 1262.46 1296.2 1262.5 1289.34C1262.63 1270.76 1265.73 1221.09 1261.83 1205.36C1259.75 1196.96 1255.03 1190.15 1247.43 1185.83C1238.64 1180.84 1226.17 1179.57 1216.52 1182.52C1208.28 1185.03 1202.73 1190.21 1198.87 1197.77C1196.28 1212.32 1197.75 1228.4 1197.87 1243.18C1198.1 1270.5 1198.63 1297.88 1198.14 1325.2C1182.83 1326.06 1167.29 1325.6 1151.95 1325.59Q1151.67 1288.33 1151.94 1251.07C1152.01 1232.83 1150.94 1213.44 1154.32 1195.45C1155.8 1187.58 1158.54 1180.33 1163.28 1173.82C1175.64 1156.83 1196.65 1148.32 1216.84 1145.36C1239.33 1142.06 1265.07 1145.63 1283.43 1159.9C1305.42 1176.99 1306.17 1201.77 1309.06 1227.05C1313.11 1205.68 1317.7 1184.87 1331.83 1167.64C1342.64 1154.46 1357.62 1145.67 1374.78 1144.35C1396.13 1142.71 1412.71 1151.76 1428.51 1164.96C1428.61 1156.84 1426.61 1104.08 1429.12 1099.64C1429.75 1098.54 1430.77 1097.72 1431.59 1096.76ZM1383.86 1184.3C1372.15 1188.89 1364.84 1194.57 1359.67 1206.37C1351.97 1223.93 1353.1 1249.98 1360.51 1267.48C1364.63 1277.22 1371.55 1285.5 1381.76 1289.09C1388.34 1291.4 1394.78 1290.94 1401.53 1289.84C1412.18 1286.08 1418.49 1280.61 1423.31 1270.23C1431.33 1252.92 1431.28 1226.12 1424.36 1208.4C1420.49 1198.5 1413.49 1189.84 1403.44 1185.81C1397.01 1183.24 1390.6 1183.25 1383.86 1184.3Z"/>
	<path fill="white" transform="matrix(0.2048 0 0 0.2048 1.52588e-05 -3.8147e-06)" d="M319.144 1197.57C340.402 1201.58 358.066 1208.72 370.847 1227.37C402.525 1273.58 414.316 1378.69 403.547 1433.47C401.203 1445.4 397.503 1457.2 394.317 1468.93C396.552 1471.6 396.279 1471.77 399.697 1472.1C417.295 1463.28 444.586 1397.96 451.34 1377.52Q453.091 1372.34 454.69 1367.11Q456.289 1361.87 457.734 1356.6Q459.179 1351.32 460.469 1346.01Q461.76 1340.69 462.894 1335.34Q464.028 1329.99 465.005 1324.6Q465.982 1319.22 466.801 1313.81Q467.62 1308.4 468.281 1302.97Q468.941 1297.54 469.443 1292.09Q469.944 1286.65 470.286 1281.19Q470.628 1275.73 470.809 1270.26Q470.991 1264.79 471.013 1259.32Q471.035 1253.85 470.897 1248.38Q470.759 1242.91 470.461 1237.45Q470.163 1231.99 469.705 1226.54Q469.247 1221.09 468.63 1215.65Q468.013 1210.22 467.237 1204.8C464.86 1188.12 461.465 1171.36 457.536 1154.98C452.413 1133.62 426.417 1049.2 430.396 1033.55C439.159 1029.71 476.152 1042.25 485.45 1045.84C519.235 1058.92 548.522 1079.41 574.2 1104.8C578.953 1109.5 585.147 1114.65 587.933 1120.81C584.918 1126.8 566.157 1132.22 559.734 1136.74C539.551 1150.96 530.738 1179.5 538.646 1202.66C544.186 1218.88 555.849 1232.31 571.479 1239.43C577.629 1242.24 583.911 1244.31 589.797 1247.7C591.486 1248.67 593.186 1249.77 594.957 1250.56C594.331 1250.74 593.709 1250.92 593.079 1251.08C590.752 1251.64 588.817 1251.75 586.446 1251.77C592.017 1255.66 607.297 1256.73 613.87 1255.66C617.992 1254.99 619.889 1251.76 622.087 1248.6L625.949 1248.48C628.659 1253.29 629.873 1257.45 628.328 1262.93C625.288 1273.7 602.852 1313.9 594.016 1318.02C591.154 1319.35 585.777 1319.09 582.61 1319.09C566.649 1304.08 533.181 1286.21 510.352 1286.79C502.382 1286.99 490.902 1287.63 484.259 1292.22L483.679 1294.59C488.344 1301 500.868 1303.04 507.897 1306.24C536.948 1319.49 569.451 1342.6 563.868 1378.46C559.522 1406.37 543.215 1436.47 524.911 1457.61C516.25 1467.61 506.3 1476.4 497.535 1486.29C484.278 1501.25 425.751 1507.82 406.157 1508.36C394.486 1508.68 362.821 1509.35 354.201 1501.97C348.806 1497.35 335.134 1495.37 327.99 1492.34C298.668 1479.93 248.07 1449.76 244.401 1414.17C242.142 1392.26 254.994 1373.8 268.435 1358.01C274.662 1350.69 286.776 1340.64 288.502 1331.26C287.67 1329.57 288.098 1329.43 286.455 1329.03C277.623 1326.87 261.553 1336.15 254.729 1341.12Q246.141 1347.47 237.666 1353.97C218.986 1354.24 215.248 1378.08 202.927 1386.95C199.567 1386.71 199.531 1386.81 197.107 1384.5C196.645 1382.71 196.142 1380.91 195.691 1379.11C194.884 1375.89 194.413 1373.66 192.248 1371.04C187.896 1365.76 185.261 1360.26 183.124 1353.84L182.605 1352.23L182.609 1353.18C181.316 1349.38 180.999 1346.4 180.95 1342.4C189.625 1338.69 195.171 1328.27 200.862 1321.02C204.299 1316.65 203.491 1311.22 204.833 1306.03C206.874 1298.13 207.244 1291.39 205.886 1283.28C202.2 1261.29 190.434 1241.96 172.256 1229.12L173.47 1223.69C174.308 1220.01 175.352 1216.51 178.156 1213.77C180.84 1211.15 188.691 1212.28 192.54 1211.48C217.732 1206.25 242.165 1200.03 268.005 1198.23C284.541 1197.08 301.099 1198.73 317.614 1197.68L319.144 1197.57Z"/>
</svg>
