<svg xmlns="http://www.w3.org/2000/svg" width="91" height="90" viewBox="0 0 91 90" fill="none"><path d="M88.5638 48.2912C89.8204 46.875 90.9574 44.7008 90.9574 41.4694C90.9574 39.3152 90.0598 37.2606 88.3843 35.5253C88.0252 35.1463 87.6063 34.7872 87.1875 34.4481L90.7779 27.3471C90.9973 26.9082 90.8776 26.3896 90.4787 26.0904L89.0425 25.0332C88.8829 24.9136 85.2726 22.3005 80.226 22.3005C77.6529 22.3005 75.0797 23.258 73.1648 24.9136C70.9906 26.8085 69.7739 29.4215 69.7739 32.2739C69.7739 34.0891 70.3723 35.8644 71.5093 37.4003C71.6489 37.5798 71.7885 37.7593 71.9281 37.9388L71.23 39.0957L64.9468 23.4973C65.7845 22.859 66.3031 21.8617 66.3031 20.7447V16.7952C66.3031 15.1596 65.1462 13.7434 63.5505 13.4043C63.4707 13.3843 63.4109 13.3843 63.3311 13.3644C63.4707 13.1449 63.6303 12.9255 63.7699 12.7061C64.6875 11.2699 64.4281 9.39495 63.1516 8.27793C62.7526 7.91888 60.8976 6.04388 60.3191 5.52527C59.6808 4.96676 58.863 4.64761 58.0252 4.64761C57.2872 4.64761 56.5891 4.86702 55.9906 5.30585C55.871 5.38564 55.7513 5.48537 55.6316 5.56516C55.6117 5.40558 55.5917 5.26596 55.5518 5.12633C55.2726 3.4508 53.8364 2.23404 52.1409 2.23404H48.1715C46.4561 2.23404 45.0199 3.4508 44.7606 5.14628C44.7406 5.26596 44.7207 5.38564 44.7008 5.52527C41.2699 3.73005 37.4601 2.61303 33.5904 2.29388C32.1542 1.21676 30.4587 0.49867 28.6835 0.179521C28.0053 0.0598404 27.3271 0 26.6688 0C23.6768 0 20.7646 1.17686 18.6103 3.27128C18.5505 3.27128 18.4707 3.27128 18.3909 3.27128C16.3763 3.27128 14.4614 4.0492 13.0252 5.44548C12.3271 6.12367 11.7686 6.9016 11.3696 7.77925C9.35501 8.07846 7.44011 9.01596 5.9441 10.4322C4.0691 12.2274 2.97203 14.621 2.87229 17.1941C2.8324 18.2513 2.95208 19.2886 3.23134 20.3059C2.59304 20.984 2.03453 21.7221 1.57575 22.5199C0.63825 24.1356 0.0996861 25.9907 0.0198988 27.8657C-0.0798352 29.9003 0.378941 31.9348 1.29649 33.75C0.977346 34.4481 0.797824 35.2261 0.757931 36.004C0.69809 37.3404 1.07708 38.637 1.83506 39.754C2.05447 40.0731 2.31378 40.3723 2.59304 40.6516C2.69277 41.988 3.21139 43.2646 4.10899 44.3019C4.46804 44.7008 4.84703 45.0399 5.28586 45.3391C5.42548 47.4734 6.20341 49.5678 7.5199 51.2633C8.53719 52.5598 9.83373 53.637 11.3098 54.355C11.4893 55.5319 11.8484 56.6489 12.3869 57.7061C12.7659 58.4441 13.2247 59.1223 13.7633 59.7407C13.3843 60.6383 13.1848 61.5957 13.1449 62.5731C13.0452 64.8072 13.863 67.0013 15.3789 68.6569C15.4188 69.5146 15.6981 70.3723 16.1768 71.0904C16.1569 71.23 16.1369 71.3896 16.117 71.5293C16.0771 72.1077 16.1768 72.7061 16.4162 73.2447C16.1569 73.7234 15.9973 74.242 15.9773 74.7806C15.9574 75.0598 15.9773 75.3391 16.0172 75.6183C15.359 76.4362 14.9601 77.4335 14.9202 78.4907C14.8603 79.7872 15.3191 81.0239 16.1968 81.9814C16.5758 82.4003 17.0345 82.7593 17.5332 83.0186C17.6728 84.9335 19.2287 86.5093 21.2034 86.5891L22.8789 86.6689C23.2779 87.2872 23.7566 87.8258 24.3151 88.2846C25.5518 89.3218 27.0877 89.9202 28.7034 90C28.7832 90 29.0026 90 29.0226 90C31.2965 90 33.4109 88.9628 34.7872 87.1875C34.7872 87.1875 36.6023 87.2673 36.6622 87.2673C38.5771 87.2673 40.1728 85.871 40.4521 84.0359C42.1675 83.3178 43.3843 81.6622 43.4641 79.7473C43.5039 78.6702 43.2047 77.613 42.5664 76.7354C42.6462 76.0372 42.5266 75.1396 42.347 74.5213C42.746 73.8431 42.9255 73.0452 42.8457 72.2673C43.484 71.4694 43.843 70.492 43.9029 69.4548C43.9228 68.8763 43.863 68.3178 43.6835 67.7793C44.1223 67.0213 44.3617 66.1636 44.4016 65.2859L44.4215 64.9069C44.5412 62.3138 45.2593 59.7806 46.5558 57.5066C46.6555 57.9455 47.0545 58.2846 47.5332 58.2846H52.3603C52.7194 58.2846 53.0385 58.0851 53.218 57.8058C53.8364 58.125 54.6542 58.3644 55.6515 58.3644C55.9906 58.3644 56.3297 58.3444 56.6489 58.2846C56.6489 58.2846 69.355 58.2846 69.4148 58.2846C70.0731 58.4043 70.7513 58.4043 71.4095 58.2846H86.3896C86.609 58.2846 86.8284 58.2048 86.988 58.0851C89.3417 57.4468 90.9375 55.3524 90.9375 52.859C90.9574 50.9242 90.0598 49.2487 88.5638 48.2912ZM86.1901 56.2101C86.1103 56.23 86.0505 56.25 85.9707 56.2699H81.7819C81.6023 56.0705 81.3231 55.9308 81.0438 55.9308C80.7646 55.9308 80.4853 56.0505 80.3058 56.2699H71.3497C71.2898 56.2699 71.2101 56.2699 71.1502 56.2899C70.6316 56.3896 70.0731 56.3697 69.5545 56.23C69.355 56.1702 69.1555 56.1902 68.9561 56.2699H56.5891C56.5292 56.2699 56.4694 56.2699 56.4095 56.2899C56.1901 56.3298 55.9308 56.3497 55.6914 56.3497C54.5345 56.3497 53.8364 55.891 53.4574 55.492C53.3577 55.3923 53.2779 55.2926 53.1981 55.1928C52.9388 54.8338 52.5 54.6941 52.0811 54.8138C51.6622 54.9535 51.3829 55.3324 51.3829 55.7713V56.2699H48.5505V55.0931C48.5505 54.5346 48.1117 54.0957 47.5531 54.0957H46.9348C46.6156 54.0957 46.3164 54.2553 46.1369 54.4947C43.8829 57.5266 42.6263 61.0771 42.4468 64.7872L42.4268 65.1662C42.3869 65.8444 42.1675 66.5226 41.7885 67.0811C41.5891 67.3604 41.5492 67.7394 41.6888 68.0585C41.8683 68.4574 41.9481 68.8963 41.9281 69.3351C41.8883 70.0133 41.6289 70.6715 41.1502 71.1702C41.1303 71.1902 41.1103 71.2101 41.0904 71.23C40.851 71.4694 40.7513 71.8484 40.8311 72.1875C40.9707 72.7061 40.8311 73.2646 40.492 73.6835C40.2327 73.9827 40.1928 74.4215 40.3723 74.7806C40.492 75.1197 40.6715 76.2566 40.5917 76.5758C40.4321 76.9348 40.5119 77.3338 40.7513 77.633C40.7912 77.6729 40.8311 77.7128 40.851 77.7527C41.2699 78.2912 41.4893 78.9694 41.4694 79.6476C41.4095 80.9242 40.5119 82.0213 39.2752 82.3205C38.8364 82.4202 38.5372 82.7992 38.5172 83.238L38.4973 83.4973C38.4574 84.4947 37.6396 85.2726 36.6422 85.2726C36.6223 85.2726 34.3085 85.1729 34.3085 85.1729C33.9494 85.1529 33.6303 85.3324 33.4308 85.6117C32.4534 87.0878 30.8178 87.9654 29.0425 87.9854C28.9428 87.9854 28.843 87.9854 28.7433 87.9854C27.5664 87.9255 26.4494 87.5066 25.5518 86.7487C25.0332 86.3098 24.6143 85.7912 24.2952 85.2128C24.1356 84.9136 23.8164 84.7141 23.4574 84.6941L21.2633 84.5944C20.246 84.5545 19.4481 83.6769 19.488 82.6596L19.5079 82.4003C19.5279 81.9614 19.2486 81.5625 18.8297 81.4029C18.371 81.2433 17.972 80.984 17.6329 80.625C17.1143 80.0665 16.855 79.3285 16.875 78.5705C16.9148 77.8923 17.1742 77.234 17.6529 76.7354C17.6928 76.6955 17.7327 76.6556 17.7726 76.6157C18.0518 76.3364 18.1515 75.9375 18.0319 75.5585C17.9521 75.3391 17.9321 75.1197 17.9321 74.9003C17.9521 74.5412 18.0917 74.2021 18.3311 73.9229C18.6103 73.5838 18.6303 73.0851 18.3909 72.7261C18.1715 72.4069 18.0718 72.0479 18.0917 71.6489C18.0917 71.4894 18.1316 71.3497 18.1914 71.1902C18.3111 70.871 18.2313 70.492 18.0119 70.2327L17.9521 70.1729C17.5332 69.6343 17.3138 68.9561 17.3337 68.2779C17.3537 67.9987 17.234 67.7194 17.0345 67.5199C15.738 66.2433 15.0199 64.4681 15.0997 62.6529C15.1396 61.7154 15.3789 60.8378 15.7978 60C15.9973 59.621 15.9175 59.1622 15.6183 58.8431C15.0199 58.2247 14.5013 57.5266 14.1223 56.7686C13.6037 55.7713 13.2845 54.6941 13.1848 53.5771C13.1449 53.2181 12.9255 52.8989 12.5864 52.7593C11.1901 52.1808 9.97336 51.2234 9.0558 50.0465C7.89889 48.5505 7.24064 46.6755 7.2207 44.7606C7.2207 44.4016 7.02123 44.0625 6.70208 43.9029C6.2832 43.6636 5.90421 43.3644 5.56511 43.0053C4.88692 42.2473 4.52788 41.25 4.52788 40.2327C4.52788 39.9335 4.4082 39.6543 4.16884 39.4747C3.88958 39.2354 3.65022 38.9561 3.4308 38.6569C2.91219 37.9189 2.67282 37.0412 2.71272 36.1237C2.73266 35.4654 2.93213 34.8271 3.25128 34.2686C3.4308 33.9694 3.4308 33.5904 3.25128 33.2713C2.33373 31.6556 1.8949 29.8404 1.97469 27.9854C2.03453 26.4295 2.4933 24.8936 3.27123 23.5572C3.74995 22.7394 4.32841 22.0013 5.02655 21.3431C5.3058 21.0638 5.40554 20.6649 5.28586 20.2859C4.94676 19.3285 4.80713 18.3311 4.84703 17.3138C4.94676 15.2593 5.80447 13.3245 7.32043 11.8883C8.65687 10.6117 10.3125 9.85372 12.1476 9.7141C12.5265 9.6742 12.8656 9.43484 13.0053 9.05585C13.3045 8.23803 13.7832 7.5 14.4215 6.88165C15.4986 5.84441 16.9148 5.26596 18.4308 5.26596C18.5904 5.26596 18.7699 5.26596 18.9295 5.2859C19.2287 5.30585 19.5279 5.20612 19.7473 4.9867C21.5625 3.09176 24.0957 1.99468 26.7087 1.99468C27.2672 1.99468 27.8258 2.03457 28.3843 2.13431C29.9401 2.41356 31.4162 3.07181 32.6529 4.0492C32.8125 4.16888 32.992 4.24867 33.1914 4.26862C37.3404 4.56782 41.4295 5.84441 45 7.95878C45.2792 8.11835 45.6383 8.1383 45.9375 7.99867C46.2367 7.85904 46.4561 7.57979 46.496 7.24069C46.5558 6.84175 46.7553 5.60505 46.7752 5.46543C46.8949 4.74734 47.4933 4.22872 48.2114 4.22872H52.1808C52.8989 4.22872 53.4973 4.74734 53.617 5.44548C53.7167 6.04388 53.8364 6.72207 53.9361 7.44016C53.996 7.7992 54.2353 8.0984 54.5744 8.23803L54.6343 8.25798C54.9534 8.37766 55.3125 8.31782 55.5917 8.11835C55.7912 7.95878 56.8484 7.1609 57.2074 6.9016C57.4667 6.72207 57.746 6.62234 58.0651 6.62234C58.4242 6.62234 58.7632 6.76197 59.0425 7.00133C59.5611 7.48005 61.4162 9.35505 61.875 9.75399C62.4135 10.2327 62.5132 11.0306 62.1343 11.629C61.7353 12.2673 60.8776 13.4043 60.8577 13.4043C60.6582 13.6835 60.6183 14.0625 60.7579 14.3816L60.8178 14.5013C60.9574 14.8205 61.2566 15.0399 61.5957 15.0997H61.6555C62.1542 15.1596 62.6728 15.2394 63.1715 15.3391C63.8497 15.4787 64.3284 16.0771 64.3284 16.7753V20.7447C64.3284 21.4628 63.8098 22.0612 63.1117 22.1808L62.8723 22.2207C62.4534 22.3005 62.0146 22.3604 61.5758 22.4402C61.2167 22.5 60.9175 22.7394 60.7978 23.0585C60.7779 23.1183 60.738 23.1782 60.718 23.258C60.5784 23.5771 60.6382 23.9561 60.8377 24.2354L60.8776 24.2952C61.0571 24.5346 61.3563 24.6941 61.6755 24.6941H63.2912L70.1529 41.7088C70.2925 42.0678 70.6316 42.3072 71.0106 42.3271C71.3896 42.3471 71.7486 42.1676 71.9481 41.8484L73.2047 39.734L74.222 40.5918C74.98 41.2301 77.2938 42.8657 79.0093 42.8657C79.4281 42.8657 79.7872 42.8457 80.0664 42.7859C80.4654 42.7261 80.7845 42.4069 80.8643 42.0279C80.9441 41.629 80.7845 41.2301 80.4654 40.9907C80.3457 40.9109 80.2061 40.8112 80.0465 40.7314C79.5279 40.4322 78.8896 40.133 78.1715 39.7939C77.7127 39.5745 77.1941 39.3351 76.6755 39.0758C75.1595 38.3378 73.9827 37.3803 73.125 36.2234C72.2473 35.0465 71.7686 33.6702 71.7686 32.2939C71.7686 30.0199 72.726 27.9455 74.4614 26.4295C76.0372 25.0731 78.1316 24.2952 80.226 24.2952C84.6343 24.2952 87.8457 26.609 87.8656 26.6489L88.6236 27.2074L85.5319 33.3112L84.4747 32.5532C84.3949 32.5133 82.6795 31.3364 80.8843 31.2168C80.4255 31.1769 79.9866 31.4761 79.847 31.9348C79.7074 32.3936 79.9268 32.8723 80.3457 33.0918L80.4454 33.1516C81.1635 33.5106 82.0412 33.8896 82.9986 34.3085L83.0186 34.3285C83.617 34.5878 84.1954 34.887 84.734 35.2061C84.8337 35.266 84.9534 35.3059 85.0731 35.3258C85.1329 35.4255 85.2327 35.5253 85.3324 35.5851C85.9308 36.004 86.4694 36.4428 86.9481 36.9215C88.2646 38.2779 88.9627 39.8537 88.9627 41.4694C88.9627 44.1822 88.0252 46.3165 86.1901 47.7926C85.8909 48.0319 85.7712 48.391 85.8311 48.7699C85.9109 49.129 86.1702 49.4282 86.5292 49.5279C88.0053 49.9668 88.9428 51.2633 88.9428 52.8191C88.9627 54.5346 87.8457 55.891 86.1901 56.2101Z" fill="#FCFCFC"></path><path d="M56.4495 49.3683H63.8697C64.1888 49.3683 64.508 49.2088 64.6875 48.9495C64.867 48.6901 64.9269 48.3311 64.8072 48.0319L63.9096 45.5784C63.77 45.1795 63.391 44.9202 62.9721 44.9202H57.367C56.9482 44.9202 56.5692 45.1795 56.4295 45.5784L55.5319 48.0319C55.4122 48.3311 55.4721 48.6702 55.6516 48.9495C55.8112 49.2088 56.1104 49.3683 56.4495 49.3683ZM58.0452 46.9348H62.254L62.4136 47.3936H57.8657L58.0452 46.9348Z" fill="#FCFCFC"></path><path d="M39.1755 67.48L29.6609 67.0611C29.7207 66.8417 29.7806 66.6024 29.7806 66.3431C29.8005 66.0638 29.5811 65.8244 29.3019 65.8244C29.0226 65.8045 28.7832 66.0239 28.7832 66.3032C28.7633 66.5625 28.7035 66.8018 28.6037 67.0213L25.133 66.8617C25.133 66.8417 25.113 66.8218 25.113 66.8018C25.3524 66.5824 25.5718 66.3231 25.7713 66.0638C25.9508 65.8045 25.9109 65.4455 25.6516 65.2659C25.3923 65.0665 25.0332 65.1263 24.8537 65.3856C24.375 66.0239 23.7566 66.4827 23.0386 66.7619L20.3258 66.6423C20.1662 66.6423 20.0066 66.6423 19.867 66.6822C18.371 66.004 17.3537 64.4681 17.4335 62.7327C17.5332 60.4588 19.4681 58.7034 21.742 58.8032C22.0612 58.8231 22.3205 58.5638 22.3404 58.2447C22.3604 57.9255 22.1011 57.6662 21.7819 57.6463C20.7048 57.6064 19.6875 57.8856 18.8298 58.4042C18.8098 58.4042 18.8098 58.3843 18.7899 58.3843C16.6556 57.1675 15.379 54.8736 15.4987 52.4202C15.4987 52.3803 15.4987 52.3205 15.4787 52.2806C15.5585 52.2806 15.6383 52.3005 15.7181 52.3005C16.0372 52.3205 16.2965 52.0611 16.3165 51.742C16.3364 51.4228 16.0771 51.1635 15.758 51.1436C12.1675 50.984 9.375 47.9322 9.53457 44.3417C9.59441 43.125 9.9734 41.9481 10.6715 40.9508C10.8511 40.6915 10.7912 40.3324 10.5319 40.1529C10.2726 39.9734 9.91356 40.0332 9.73404 40.2925C9.3351 40.871 9.0359 41.4893 8.81649 42.1276C8.75665 42.1077 8.71675 42.0877 8.65691 42.0877C7.61968 42.0478 6.82181 41.1702 6.8617 40.133C6.88165 39.754 7.00133 39.3949 7.22074 39.1157C7.24069 39.0957 7.28058 39.0558 7.30053 39.0159C7.65957 38.5771 8.21808 38.3178 8.81649 38.3377C9.13563 38.3577 9.39494 38.0984 9.41489 37.7792C9.43484 37.4601 9.17553 37.2008 8.85638 37.1808C7.95877 37.1409 7.14095 37.5 6.5625 38.0984C5.66489 37.9388 4.9867 37.121 5.02659 36.1835C5.04654 35.5851 5.36569 35.0266 5.86436 34.7074C7.32048 36.0838 9.25532 36.9415 11.4096 37.0412C11.7287 37.0611 11.988 36.8018 12.008 36.4827C12.0279 36.1635 11.7686 35.9042 11.4495 35.8843C7.30053 35.7048 4.08909 32.1742 4.26861 28.0452C4.44813 23.8963 7.97872 20.6848 12.1077 20.8643C13.484 20.9242 14.8005 21.363 15.9375 22.121C15.6582 22.8391 15.4787 23.5971 15.4388 24.4149C15.2593 28.3045 18.2912 31.6157 22.1808 31.7952C22.5 31.8151 22.7593 31.5558 22.7792 31.2367C22.7992 30.9175 22.5399 30.6582 22.2207 30.6383C18.9694 30.4986 16.4362 27.726 16.5758 24.4747C16.7154 21.2234 19.488 18.6901 22.7394 18.8298C23.0585 18.8497 23.3178 18.5904 23.3378 18.2713C23.3577 17.9521 23.0984 17.6928 22.7792 17.6728C20.1463 17.5731 17.7527 18.9694 16.4561 21.1236C15.1795 20.3058 13.7035 19.8271 12.1675 19.7673C10.6715 19.7074 9.23537 20.0266 7.97872 20.6449C7.38032 19.6675 7.10106 18.5705 7.14095 17.4135C7.28058 14.2619 9.95345 11.8284 13.0851 11.9681L13.883 12.008C14.3218 14.0824 16.1769 15.6582 18.391 15.6582C18.7101 15.6582 18.9694 15.3989 18.9694 15.0798C18.9694 14.7606 18.7101 14.5013 18.391 14.5013C16.4761 14.5013 14.9202 12.9255 14.9202 11.0106C14.9202 9.09572 16.496 7.53987 18.4109 7.53987C18.6702 7.53987 18.9295 7.57977 19.1888 7.61966C18.7899 8.37764 18.4907 9.23535 18.3311 10.133C18.2713 10.4521 18.4907 10.7513 18.7899 10.7912C19.109 10.851 19.4082 10.6316 19.4481 10.3324C20.1463 6.34306 23.9761 3.67019 27.9455 4.38828C29.4215 4.64758 30.758 5.34572 31.8152 6.38296C32.0346 6.60237 32.4136 6.60237 32.633 6.38296C32.8524 6.16354 32.8524 5.78455 32.633 5.56514C31.4162 4.34838 29.8604 3.55051 28.1649 3.25131C24.8737 2.67285 21.6822 4.08907 19.8271 6.62232C19.3683 6.48269 18.9096 6.4029 18.4109 6.4029C15.9175 6.4029 13.883 8.37764 13.7832 10.851L13.125 10.8311C9.35505 10.6316 6.14361 13.5638 5.98404 17.3537C5.9242 18.73 6.26329 20.0465 6.98138 21.2034C4.76728 22.6795 3.25133 25.1728 3.13165 28.0252C3.03191 30.2393 3.76994 32.2939 5.06649 33.8697C4.3484 34.4082 3.90957 35.246 3.86968 36.1436C3.80984 37.5 4.66755 38.6968 5.8843 39.1356C5.76462 39.4348 5.68484 39.754 5.68484 40.0931C5.60505 41.7287 6.8617 43.125 8.49734 43.2447C8.4375 43.5838 8.3976 43.9428 8.37766 44.3018C8.21808 48.0718 10.8112 51.3431 14.3816 52.1409C14.3418 52.2207 14.3218 52.3005 14.3218 52.3803C14.2021 55.133 15.5386 57.7061 17.8324 59.1822C16.9149 60.0798 16.3165 61.3165 16.2566 62.7127C16.1769 64.6875 17.1941 66.4827 18.7699 67.4401C18.5904 67.6994 18.4907 67.9986 18.4707 68.3178C18.4308 69.1755 19.0293 69.9335 19.867 70.113L19.8271 71.1901C19.8271 71.1901 19.8271 71.1901 19.8471 71.1901C24.3351 71.4694 28.3444 71.1502 31.516 70.6715L36.363 70.8909C33.1117 71.7087 27.5864 72.7061 20.8045 72.4069C20.4654 72.3869 20.1263 72.367 19.7872 72.3471L19.6875 74.4415C19.6875 74.4415 19.6875 74.4415 19.7074 74.4415C30.8178 75.1396 38.9362 72.1276 39.0359 72.0877C39.1157 72.0678 39.1955 72.0479 39.2553 72.0479L39.2952 70.9707C40.133 70.871 40.7912 70.1728 40.8311 69.3151C40.871 68.3377 40.133 67.5199 39.1755 67.48Z" fill="#FCFCFC"></path><path d="M38.996 77.8125L39.0558 76.4761C38.5173 76.6556 37.121 77.1343 35.0066 77.613L29.5612 77.3737C35.2261 76.6755 38.8165 75.3391 38.8763 75.3191C38.9561 75.2992 39.0359 75.2793 39.0957 75.2793L39.1955 73.2247C37.8191 73.7035 30.5785 76.0572 20.6649 75.6183C20.3258 75.5984 19.9867 75.5785 19.6476 75.5585L19.5878 76.9548C18.75 77.0545 18.0918 77.7527 18.0519 78.6104C18.012 79.5678 18.7699 80.3856 19.7274 80.4255L20.7646 80.4654L20.7247 81.2234C20.6649 82.4202 21.6024 83.4574 22.8191 83.4973L24.9335 83.5971C25.3524 85.3923 26.9282 86.7487 28.863 86.8285C30.7979 86.9082 32.4734 85.6915 33.0519 83.9561L35.2261 84.0558C36.4229 84.1157 37.4601 83.1782 37.5 81.9614L37.5399 81.2035L38.5771 81.2433C39.5346 81.2832 40.3524 80.5253 40.3923 79.5678C40.4122 78.75 39.8138 77.992 38.996 77.8125Z" fill="#FCFCFC"></path><path d="M71.8484 48.1715L62.7726 25.6915H60.4987C60.379 25.5319 59.4415 24.3151 59.1622 23.8364C59.5811 23.1981 59.8404 22.4401 60.0798 21.6822C60.0997 21.6223 60.1197 21.5824 60.1396 21.5226C61.0173 21.4428 62.9122 21.1237 62.9122 21.1237C63.0718 21.1037 63.1915 20.9441 63.1915 20.7846V16.7952C63.1915 16.6356 63.0718 16.496 62.9122 16.4561C62.4534 16.3564 60.5386 16.0971 60.0997 16.0173C59.9601 15.3989 59.7207 14.8803 59.5013 14.3816C59.4016 14.1622 59.3018 13.9428 59.2021 13.7234C59.4415 13.3843 60.7779 11.609 61.1569 11.0306C61.2566 10.8909 61.2167 10.7114 61.0971 10.5917C60.6183 10.1529 58.7633 8.27791 58.2646 7.83908C58.1449 7.73935 57.9654 7.7194 57.8457 7.81914C57.5266 8.0585 55.7912 9.37499 55.2127 9.75398C54.7141 9.47472 54.1556 9.27525 53.617 9.07579C53.4175 8.996 53.1981 8.91621 52.9987 8.83643C52.879 7.7194 52.6995 6.64228 52.5199 5.62499C52.5 5.46541 52.3404 5.34573 52.1808 5.34573H48.2114C48.0518 5.34573 47.8923 5.46541 47.8723 5.62499C47.8324 5.82446 47.4933 7.93882 47.3936 8.87632C46.5359 9.09573 45.7979 9.43483 45.0598 9.81382C44.3018 9.19547 43.5638 8.6569 42.7859 8.15823C42.6463 8.07845 42.4667 8.09839 42.367 8.19813C42.1276 8.43749 40.1928 10.2726 39.5745 11.0505C39.4747 11.1702 39.4747 11.3298 39.5545 11.4495C39.7739 11.7686 39.9933 12.0678 40.2327 12.3471C40.5718 12.8058 40.9109 13.2247 41.2101 13.7034C40.7912 14.3417 40.5319 15.0997 40.2925 15.8577C40.2726 15.9175 40.2526 15.9574 40.2327 16.0173C39.355 16.0971 37.4601 16.4162 37.4601 16.4162C37.3005 16.4362 37.1808 16.5957 37.1808 16.7553V20.7247C37.1808 20.8843 37.3005 21.0239 37.4601 21.0638C37.9189 21.1636 39.8338 21.4229 40.2726 21.5026C40.4122 22.1409 40.6516 22.6596 40.8909 23.1782C40.9907 23.3976 41.0904 23.5971 41.1702 23.7965C40.9308 24.1356 39.5944 25.8909 39.2154 26.4893C39.1556 26.5691 39.1556 26.6689 39.1755 26.7487C38.2779 26.23 36.6024 25.4322 34.4282 25.113C34.5479 24.9933 34.6675 24.8537 34.7673 24.7141C34.9069 24.5346 34.9268 24.2753 34.7872 24.0957C34.7074 23.996 34.3883 23.5572 34.3284 23.4774C34.4082 23.3178 34.4681 23.1582 34.5279 22.9987C34.7673 22.9588 35.3258 22.879 35.3258 22.879C35.5851 22.8391 35.7646 22.6197 35.7646 22.3604V20.9042C35.7646 20.6649 35.5851 20.4455 35.3457 20.3856C35.1463 20.3457 34.6276 20.2659 34.5279 20.2659C34.4681 20.1064 34.4082 19.9667 34.3484 19.8471L34.3284 19.8271C34.3683 19.7673 34.7872 19.2287 34.9269 18.9893C35.0665 18.7699 35.0266 18.4907 34.8271 18.3112C34.6675 18.1715 33.9694 17.4734 33.7899 17.2939C33.6104 17.1343 33.3311 17.1144 33.1316 17.254C33.012 17.3338 32.4933 17.7327 32.3537 17.8324C32.2141 17.7726 32.0745 17.7128 31.9348 17.6729C31.8949 17.3537 31.8351 17.0346 31.7952 16.7154C31.7553 16.4561 31.5359 16.2766 31.2766 16.2766H30.3989C30.3989 16.2367 30.379 16.1769 30.359 16.137C30.2593 15.9175 30 15.8378 29.8005 15.9375C28.9827 16.3364 27.9854 15.9973 27.5665 15.1795C27.387 14.8205 27.3471 14.4016 27.4468 14.0425C28.6037 13.5439 29.4215 12.4069 29.4814 11.0705C29.5013 10.7513 29.242 10.492 28.9229 10.4721C28.6037 10.4521 28.3444 10.7114 28.3245 11.0306C28.3045 11.4694 28.1649 11.8883 27.9255 12.2274C27.5665 12.4069 27.2473 12.6662 27.0279 12.9854C26.7088 13.1449 26.3497 13.2048 25.9707 13.2048C24.734 13.1449 23.7566 12.0878 23.8165 10.8511C23.8364 10.5319 23.5771 10.2726 23.258 10.2526C22.9388 10.2327 22.6795 10.492 22.6596 10.8112C22.5798 12.6862 24.0359 14.2819 25.9109 14.3816C26.1303 14.3816 26.3298 14.3816 26.5292 14.3417C26.5093 14.7606 26.5891 15.1995 26.7886 15.5984C27.2473 16.5558 28.2447 17.0745 29.242 16.9947C29.2021 17.234 29.1622 17.4734 29.1423 17.7128C28.9827 17.7726 28.8431 17.8324 28.7034 17.8923C28.484 17.7128 28.2646 17.5532 28.0253 17.4136C27.8258 17.2739 27.5465 17.3138 27.367 17.4933C27.2872 17.5731 26.5492 18.2713 26.3098 18.5904C26.1702 18.7699 26.1503 19.0292 26.2899 19.2088C26.3697 19.3284 26.6888 19.7473 26.7487 19.8271C26.6689 19.9867 26.609 20.1463 26.5492 20.3058C26.2899 20.3457 25.7513 20.4255 25.7513 20.4255C25.492 20.4654 25.3125 20.6848 25.3125 20.9441V21.3231C25.2726 21.3032 25.2327 21.3032 25.1928 21.3032C24.9534 21.2832 24.734 21.5425 24.7141 21.8617C24.6542 23.0984 23.8165 24.0957 22.859 24.0359C21.8816 23.996 21.1436 22.9388 21.2034 21.7021C21.2234 21.383 21.0239 21.1237 20.7846 21.1037C20.5452 21.0838 20.3258 21.3431 20.3058 21.6622C20.2261 23.5372 21.3431 25.133 22.8191 25.1928C24.0359 25.2526 25.133 24.2354 25.492 22.7992C25.5518 22.859 25.6516 22.8989 25.7314 22.9189C25.9109 22.9588 26.4495 23.0386 26.5292 23.0386C26.5891 23.1981 26.6489 23.3378 26.7088 23.4774C26.7088 23.4774 26.7088 23.4774 26.7088 23.4973C26.6689 23.5572 26.25 24.0957 26.1104 24.3351C25.9707 24.5545 26.0106 24.8338 26.2101 25.0133C26.3896 25.1729 27.0678 25.871 27.2473 26.0306C27.4269 26.1901 27.7061 26.2101 27.9056 26.0705C28.0253 25.9907 28.5439 25.5917 28.6835 25.492C28.8231 25.5519 28.9628 25.6117 29.1024 25.6516C29.1024 25.7114 29.1223 25.7912 29.1223 25.8511C26.5093 27.0878 24.8936 29.5412 24.8936 32.3138C24.8936 34.8072 26.5292 37.0412 29.4016 38.4574C29.9202 38.7167 30.3989 38.9362 30.8976 39.1755C32.7726 40.0532 34.2686 40.7513 34.2686 41.8085C34.2686 43.0651 33.3909 43.6237 31.4162 43.6237C30.1197 43.6237 28.6436 42.8657 27.5864 42.2074C27.6263 42.2074 27.6463 42.2274 27.6862 42.2274C28.0651 42.2473 28.3843 42.008 28.3843 41.6888C28.4641 39.8138 26.7287 38.1981 24.4947 38.0984C22.3404 37.9987 20.5053 39.355 20.3258 41.1503C19.3883 40.6516 18.3511 40.3723 17.254 40.3125C15.2992 40.2327 13.4441 40.9109 12.008 42.2074C11.7686 42.4268 11.7487 42.7859 11.9681 43.0253C12.1875 43.2646 12.5465 43.2846 12.7859 43.0651C14.0026 41.9681 15.5585 41.3896 17.1941 41.4694C18.8298 41.5492 20.3457 42.2473 21.4428 43.4641C21.7221 43.7832 21.9814 44.1024 22.1808 44.4614C22.7992 45.4787 23.0984 46.6556 23.0386 47.8723C22.9588 49.508 22.2606 51.0239 21.0439 52.121C20.984 52.1808 20.9441 52.2407 20.9042 52.3005C19.9268 52.859 19.2686 53.8963 19.2088 55.0931C19.1888 55.4122 19.4481 55.6715 19.7673 55.6915C20.0864 55.7114 20.3457 55.4521 20.3657 55.133C20.4255 53.8963 21.4827 52.9189 22.7194 52.9787C23.9561 53.0386 24.9335 54.0957 24.8737 55.3324C24.8537 55.6516 25.113 55.9109 25.4322 55.9308C25.7513 55.9508 26.0106 55.6915 26.0306 55.3723C26.0705 54.4747 25.7513 53.6569 25.2128 53.0186H48.3909V52.4601H24.6542C24.1356 52.0811 23.4973 51.8218 22.8191 51.7819C23.637 50.6449 24.1157 49.2885 24.1755 47.8524C24.1955 47.5133 24.1755 47.1941 24.1556 46.875C25.5319 47.7925 28.1848 49.129 31.7753 49.129C34.2487 49.129 36.383 48.5505 37.8989 47.4335C39.734 46.0971 40.6516 44.1024 40.6516 41.4694C40.6516 37.9987 37.2606 35.9641 35.625 35.1862V35.1662L35.1064 34.9468C32.8324 33.9893 30.6981 33.0718 30.6981 32.0745C30.6981 30.6582 32.1143 30.4588 32.9721 30.4588C35.1263 30.4588 37.2806 31.9348 37.3005 31.9348L37.6795 32.1941L39.9933 27.6463C40.2128 27.8657 41.5691 29.242 42.0678 29.7008C42.1276 29.7407 42.1875 29.7806 42.2473 29.7806V48.6901H48.1715V32.1941H52.121C52.2806 32.1941 52.4401 32.0745 52.4601 31.9149C52.5 31.7154 52.8391 29.6011 52.9388 28.6636C53.7965 28.4441 54.5346 28.105 55.2726 27.7261C55.7513 28.125 56.23 28.484 56.7088 28.8231L48.9096 48.1516H54.4548L56.1104 43.6635H64.6675L66.3231 48.1516H71.8484V48.1715ZM21.4029 41.7686C21.5625 41.6689 21.6822 41.5093 21.6822 41.3298C21.742 40.0931 22.9787 39.1157 24.4548 39.1955C25.9308 39.2753 27.0878 40.3324 27.0279 41.5691C27.0279 41.6689 27.0479 41.7487 27.0878 41.8284C26.5292 41.4495 26.1901 41.1503 26.1702 41.1503L25.8112 40.8511L23.5771 44.6011C23.258 43.883 22.8391 43.2247 22.2806 42.6263C22.0412 42.3072 21.7221 42.0279 21.4029 41.7686ZM37.4202 31.0572C36.6622 30.5984 34.887 29.6808 33.0319 29.6808C31.137 29.6808 29.9601 30.5984 29.9601 32.0944C29.9601 33.5306 31.8949 34.4282 34.4082 35.5053L34.887 35.7048C36.0638 36.2034 39.9136 38.0984 39.9136 41.4694C39.9136 47.6529 34.2686 48.3112 31.8351 48.3112C27.7859 48.3112 24.9933 46.4761 24.0159 45.738C23.996 45.6582 23.9761 45.5984 23.9561 45.5186L26.0505 42.008C26.9481 42.6862 29.3218 44.3417 31.4561 44.3417C33.8697 44.3417 35.1064 43.4641 35.1064 41.7287C35.1064 40.1529 33.4109 39.355 31.2766 38.3577C30.7979 38.1383 30.3191 37.8989 29.8005 37.6596C27.2274 36.383 25.7513 34.4082 25.7513 32.234C25.7513 29.6409 27.2673 27.4468 29.7806 26.3697L30.0598 26.25L30.0199 25.9508C29.98 25.7314 29.9401 25.492 29.9202 25.2526L29.9003 25.0133L29.6808 24.9335C29.6011 24.9136 29.5213 24.8737 29.4415 24.8338C29.262 24.7739 29.0625 24.6941 28.9029 24.6144L28.7034 24.4947L28.504 24.6144C28.2646 24.754 28.0651 24.9335 27.8457 25.0931C27.8058 25.133 27.746 25.1729 27.7061 25.2128C27.5864 25.0931 27.4667 24.9933 27.367 24.8737C27.2473 24.754 27.1276 24.6343 27.008 24.5146C27.1077 24.375 27.2074 24.2354 27.3072 24.1157C27.4069 23.996 27.5066 23.8564 27.6064 23.7167L27.7261 23.5372L27.6463 23.3378C27.6064 23.258 27.5665 23.1782 27.5266 23.0984C27.4468 22.9189 27.367 22.7593 27.3271 22.5598L27.2673 22.3005L27.008 22.2407C26.8284 22.2008 26.6489 22.1808 26.4694 22.1609H26.4495C26.3697 22.1409 26.2699 22.1409 26.1901 22.121V21.1237C26.4295 21.0838 26.6888 21.0439 26.9681 21.0239L27.2274 21.004L27.3271 20.6848C27.4069 20.4255 27.4867 20.1662 27.6263 19.9867L27.7659 19.7673L27.6263 19.5479C27.5066 19.3484 27.387 19.1888 27.2473 19.0093L27.2274 18.9893C27.1875 18.9495 27.1675 18.9096 27.1276 18.8697C27.3072 18.6702 27.5066 18.4707 27.7261 18.2713C27.7659 18.2314 27.8058 18.1915 27.8457 18.1516C28.0452 18.2912 28.2646 18.4508 28.4641 18.6104L28.6636 18.7699L28.9029 18.6503C29.1822 18.5106 29.4215 18.4109 29.6808 18.3311L29.9601 18.2713L29.98 17.992C30.0199 17.6729 30.0598 17.3537 30.1197 17.0545H31.117C31.1768 17.3737 31.2167 17.6729 31.2566 17.992L31.2766 18.2314L31.496 18.3112C31.5758 18.3511 31.6556 18.371 31.7354 18.4109C31.9149 18.4707 32.1143 18.5505 32.2739 18.6303L32.4734 18.75L32.6729 18.6303C32.9122 18.4907 33.1117 18.3112 33.3311 18.1516C33.3909 18.1117 33.4308 18.0718 33.4907 18.0319C33.6104 18.1516 33.73 18.2713 33.8298 18.371L33.8497 18.3909C33.9495 18.5106 34.0691 18.6104 34.1888 18.73C34.0891 18.8697 33.9893 19.0093 33.8896 19.129C33.7899 19.2487 33.6901 19.3883 33.5904 19.5279L33.4707 19.7074L33.5505 19.9069C33.5904 19.9867 33.6104 20.0665 33.6503 20.1463L33.6702 20.1862C33.75 20.3457 33.8298 20.5053 33.8697 20.7048L33.9295 20.9641L34.1888 21.0239C34.3683 21.0638 34.5479 21.0838 34.7274 21.1037C34.8072 21.1237 34.9069 21.1237 35.0266 21.1436V22.1409C34.7673 22.1808 34.5279 22.2207 34.2487 22.2407L33.9893 22.2606L33.8896 22.5798C33.8098 22.8391 33.73 23.0984 33.5904 23.2779L33.4508 23.4973L33.5904 23.7167C33.7101 23.9162 33.8497 24.0758 33.9694 24.2553L33.9893 24.2753C34.0292 24.3151 34.0492 24.355 34.0891 24.3949C33.9096 24.6144 33.6901 24.8138 33.5106 24.9933C33.4508 25.0532 33.4109 25.0931 33.3511 25.1529L33.3112 25.1928L33.3511 25.0931C33.1516 24.9534 32.9721 24.8138 32.7726 24.6542L32.5731 24.4947L32.3338 24.6144C32.0545 24.754 31.8151 24.8537 31.5558 24.9335L31.2766 24.9933L31.2566 25.2726C31.2566 25.3125 31.2566 25.3324 31.2367 25.3723L31.1569 25.9707L31.6755 25.8909C32.1542 25.8112 32.633 25.8112 33.0917 25.8112L33.5705 25.8511C36.3431 26.0505 38.4574 27.2274 39.1755 27.6862L37.4202 31.0572ZM43.105 47.9122V29.3218C43.2447 29.2221 43.3643 29.1223 43.504 29.0226C44.0425 28.6037 44.6011 28.1848 45.1995 27.8058C45.6981 28.0851 46.2566 28.2846 46.7952 28.484C46.9947 28.5638 47.2141 28.6436 47.4136 28.7234C47.4136 28.8032 47.4335 28.883 47.4534 28.9827V47.9322H43.105V47.9122ZM53.9362 22.9787C52.9189 23.8763 51.6822 24.3351 50.3657 24.3351C47.633 24.3351 44.6609 22.2407 44.621 18.8298C44.6011 16.9149 45.6183 15.3391 46.4761 14.5612C47.1742 13.9428 48.5106 13.2646 50.1463 13.2247C50.1862 13.2247 50.246 13.2247 50.2859 13.2247C53.3378 13.2247 55.7713 15.6183 55.8112 18.6901C55.8112 20.2859 55.0731 21.9614 53.9362 22.9787ZM57.8657 39.1755L60.379 32.633H60.4388L62.9521 39.1755H57.8657Z" fill="#FCFCFC"></path><path d="M87.8457 41.4694C87.8457 38.5173 85.0931 36.4029 82.5798 35.3457C80.0266 34.2487 77.8923 33.3511 77.8923 32.0944C77.8923 30.8777 78.8098 30.0798 80.5651 30.0798C82.879 30.0798 85.113 31.6356 85.113 31.6356L87.1875 27.5465C87.1875 27.5465 84.2952 25.4122 80.2061 25.4122C76.5758 25.4122 72.8657 28.0851 72.8657 32.2739C72.8657 34.6277 74.4415 36.7221 77.1542 38.0585C79.8271 39.3949 82.2207 40.133 82.2207 41.7686C82.2207 43.863 80.0864 43.9827 78.9694 43.9827C76.4561 43.9827 73.4641 41.4495 73.4641 41.4495L70.9109 45.758C70.9109 45.758 74.1024 48.7301 79.3683 48.7301C83.7566 48.7301 87.8457 46.8351 87.8457 41.4694Z" fill="#FCFCFC"></path><path d="M51.5625 50.5053H49.6875V55.1529H50.266V53.2979H51.5625C52.4801 53.2979 53.0186 52.6596 53.0186 51.9016C53.0186 51.1436 52.4801 50.5053 51.5625 50.5053ZM51.4827 52.7793H50.266V51.004H51.4827C52.0412 51.004 52.4202 51.3631 52.4202 51.8817C52.4202 52.4202 52.0412 52.7793 51.4827 52.7793Z" fill="#FCFCFC"></path><path d="M56.988 53.3378C56.988 54.1955 56.5293 54.7341 55.6716 54.7341C54.8138 54.7341 54.3551 54.1955 54.3551 53.3378V50.5053H53.7766V53.3577C53.7766 54.4947 54.4149 55.2527 55.6716 55.2527C56.9282 55.2527 57.5665 54.5146 57.5665 53.3577V50.5253H56.988V53.3378Z" fill="#FCFCFC"></path><path d="M61.2168 52.7593C61.6356 52.6596 62.0346 52.2806 62.0346 51.6822C62.0346 50.9841 61.5359 50.5053 60.738 50.5053H58.6636V55.1529H60.7779C61.6356 55.1529 62.1144 54.6343 62.1144 53.8963C62.1343 53.3378 61.7154 52.8192 61.2168 52.7593ZM59.242 51.004H60.6383C61.1569 51.004 61.4362 51.3431 61.4362 51.762C61.4362 52.1809 61.1569 52.5 60.6383 52.5H59.242V51.004ZM60.6583 54.6343H59.242V53.0386H60.6583C61.2367 53.0386 61.516 53.4176 61.516 53.8365C61.5359 54.3351 61.2168 54.6343 60.6583 54.6343Z" fill="#FCFCFC"></path><path d="M63.6303 50.5053H63.0518V55.1529H65.7845V54.6343H63.6303V50.5053Z" fill="#FCFCFC"></path><path d="M67.1809 50.5053H66.6024V55.1529H67.1809V50.5053Z" fill="#FCFCFC"></path><path d="M70.4721 54.7141C69.4548 54.7141 68.6769 53.9362 68.6769 52.8191C68.6769 51.7021 69.4548 50.9242 70.4721 50.9242C71.0107 50.9242 71.4894 51.2035 71.7487 51.6024L72.2274 51.3231C71.8484 50.8045 71.2899 50.4056 70.4721 50.4056C69.1357 50.4056 68.0785 51.383 68.0785 52.8191C68.0785 54.2553 69.1357 55.2327 70.4721 55.2327C71.2899 55.2327 71.8484 54.8338 72.2474 54.3152L71.7487 54.0359C71.4894 54.4348 71.0107 54.7141 70.4721 54.7141Z" fill="#FCFCFC"></path><path d="M73.5638 50.5053H72.9854V55.1529H73.5638V50.5053Z" fill="#FCFCFC"></path><path d="M76.2367 50.5053H74.6409V55.1529H76.2367C77.6728 55.1529 78.6303 54.1556 78.6303 52.8391C78.6303 51.5027 77.6928 50.5053 76.2367 50.5053ZM78.0319 52.8192C78.0319 53.8165 77.3736 54.6343 76.2566 54.6343H75.2393V51.024H76.2566C77.3936 51.024 78.0319 51.8218 78.0319 52.8192Z" fill="#FCFCFC"></path><path d="M80.6649 50.5053L78.7899 55.1529H79.4481L79.867 54.1157H82.1808L82.5997 55.1529H83.2579L81.3829 50.5053H80.6649ZM80.0465 53.5971L81.0438 51.1037L82.0212 53.5971H80.0465Z" fill="#FCFCFC"></path><path d="M85.4521 50.5053H83.8564V55.1529H85.4521C86.8883 55.1529 87.8457 54.1556 87.8457 52.8391C87.8457 51.5027 86.9082 50.5053 85.4521 50.5053ZM87.2473 52.8192C87.2473 53.8165 86.5891 54.6343 85.4721 54.6343H84.4548V51.024H85.4721C86.609 51.024 87.2473 51.8218 87.2473 52.8192Z" fill="#FCFCFC"></path><path d="M33.012 21.6223C32.9921 20.266 31.9149 19.2088 30.5785 19.2088H30.5187C29.6211 19.2287 29.0626 19.6675 28.903 19.8072C28.524 20.1463 28.0652 20.8444 28.0852 21.6822C28.1051 23.1782 29.4216 24.1157 30.6184 24.1157C31.2168 24.1157 31.7554 23.9162 32.2142 23.5173C32.7128 23.0585 33.032 22.3205 33.012 21.6223ZM30.5985 23.3178C29.7806 23.3178 28.883 22.6995 28.8631 21.6822C28.8631 21.0638 29.2022 20.5851 29.4216 20.4056C29.6211 20.2261 30.02 20.0266 30.5187 20.0066H30.5586C31.4761 20.0066 32.1942 20.7247 32.1942 21.6423C32.1942 22.1011 31.9748 22.6197 31.6357 22.9189C31.3764 23.1782 30.9974 23.3178 30.5985 23.3178Z" fill="#FCFCFC"></path><path d="M32.2739 9.21543C32.234 9.19548 32.2141 9.19548 32.1742 9.23537C32.1143 9.29521 32.0545 9.33511 32.0146 9.39495C31.855 9.53458 31.6955 9.69415 31.5558 9.87367C31.5359 9.89362 31.5359 9.93351 31.5558 9.97341C31.5957 10.0332 31.6556 10.113 31.6955 10.1729C31.7753 10.2726 31.855 10.3723 31.9149 10.4721C31.8151 10.6117 31.7553 10.7912 31.7154 10.9508C31.7154 10.9707 31.7154 10.9707 31.6955 10.9907C31.496 11.0106 31.3165 11.0505 31.137 11.0705H31.0771C31.0372 11.0705 31.0173 11.1104 31.0173 11.1503V12.0279C31.0173 12.0678 31.0372 12.0878 31.0771 12.1077C31.1768 12.1277 31.2965 12.1476 31.3963 12.1676C31.496 12.1875 31.5957 12.1875 31.6955 12.2074C31.7354 12.3471 31.7753 12.4668 31.8351 12.5864C31.855 12.6263 31.875 12.6862 31.8949 12.7261C31.8351 12.8059 31.7753 12.8856 31.7354 12.9455C31.6356 13.0652 31.5558 13.1848 31.4761 13.3245C31.4561 13.3644 31.4561 13.4043 31.496 13.4242C31.5957 13.5239 31.7154 13.6237 31.8151 13.7234C31.9149 13.8231 32.0146 13.9428 32.1343 14.0426C32.1542 14.0625 32.1941 14.0625 32.234 14.0426C32.3138 13.9827 32.3737 13.9428 32.4534 13.883C32.5731 13.7832 32.6928 13.7035 32.8324 13.6037C32.9521 13.6636 33.0718 13.7035 33.1915 13.7434C33.2314 13.7633 33.2912 13.7832 33.3311 13.8032C33.3511 14.0027 33.3909 14.2021 33.4109 14.3817C33.4109 14.4215 33.4308 14.4814 33.4308 14.5213C33.4308 14.5612 33.4707 14.5811 33.5106 14.5811H34.3883C34.4282 14.5811 34.4481 14.5612 34.4681 14.5213C34.4681 14.4814 34.488 14.4415 34.488 14.4016C34.5279 14.2021 34.5479 14.0226 34.5678 13.8032C34.7673 13.7633 34.9268 13.6835 35.0864 13.6037C35.2659 13.7434 35.4255 13.863 35.5851 13.9628C35.625 13.9827 35.6449 13.9827 35.6848 13.9428C35.7447 13.883 35.8045 13.8431 35.8444 13.7832C36.004 13.6436 36.1635 13.484 36.3032 13.3045C36.3231 13.2846 36.3231 13.2447 36.3032 13.2048C36.2633 13.1449 36.2034 13.0652 36.1635 13.0053C36.0838 12.9056 36.004 12.8059 35.9441 12.7061C36.0439 12.5665 36.1037 12.387 36.1436 12.2274C36.1436 12.2074 36.1436 12.2074 36.1635 12.1875C36.363 12.1676 36.5425 12.1277 36.7221 12.1077H36.7819C36.8218 12.1077 36.8417 12.0678 36.8417 12.0279V11.1503C36.8417 11.1104 36.8218 11.0904 36.7819 11.0705C36.6822 11.0505 36.5625 11.0306 36.4628 11.0106C36.363 10.9907 36.2633 10.9907 36.1635 10.9707C36.1436 10.8311 36.0838 10.7114 36.0239 10.6117C36.004 10.5718 35.984 10.512 35.9641 10.4721C36.0239 10.3923 36.0838 10.3125 36.1237 10.2527C36.2234 10.133 36.3032 10.0133 36.383 9.87367C36.4029 9.83378 36.4029 9.79389 36.363 9.77394C36.2633 9.6742 36.1436 9.57447 36.0439 9.47474C35.9441 9.375 35.8444 9.25532 35.7247 9.15559C35.7048 9.13564 35.6649 9.13564 35.625 9.15559C35.5452 9.21543 35.4854 9.25532 35.4056 9.31516C35.2859 9.4149 35.1662 9.49468 35.0266 9.59442C34.9069 9.53458 34.7872 9.49468 34.6675 9.43484C34.6276 9.4149 34.5678 9.39495 34.5279 9.375C34.508 9.13564 34.4681 8.89628 34.4282 8.65692C34.4282 8.61702 34.3883 8.59708 34.3484 8.59708H33.4707C33.4308 8.59708 33.4109 8.61702 33.3909 8.65692C33.3909 8.69681 33.371 8.7367 33.371 8.7766C33.3311 8.97607 33.3112 9.15559 33.2912 9.375C33.0917 9.4149 32.9322 9.49468 32.7726 9.57447C32.5931 9.45479 32.4335 9.33511 32.2739 9.21543ZM33.0718 10.6516C33.2314 10.512 33.5306 10.3723 33.8896 10.3524C33.9096 10.3524 33.9096 10.3524 33.9295 10.3524C34.6077 10.3524 35.1463 10.891 35.1662 11.5692C35.1662 11.9282 35.0066 12.2872 34.7473 12.5266C34.5279 12.7261 34.2487 12.8258 33.9495 12.8258C33.351 12.8258 32.6729 12.367 32.6729 11.609C32.6529 11.1702 32.8923 10.8112 33.0718 10.6516Z" fill="#FCFCFC"></path></svg>